  0
SECTION
  2
HEADER
  9
$ACADVER
  1
AC1009
  9
$FILLMODE
 70
0
  9
$EXTMIN
 10
-11.6635
 20
-7.5080
 30
0.0000
  9
$EXTMAX
 10
59.0150
 20
84.3725
 30
0.0000
  0
ENDSEC
  0
SECTION
  2
TABLES
  0
TABLE
  2
LTYPE
 70
1
  0
LTYPE
  2
CONTINUOUS
 70
64
  3
Solid line
 72
65
 73
0
 40
0
  0
ENDTAB
  0
TABLE
  2
LAYER
 70
255
  0
LAYER
  2
19
 70
64
 62
53
  6
CONTINUOUS
  0
LAYER
  2
20
 70
64
 62
30
  6
CONTINUOUS
  0
LAYER
  2
21
 70
64
 62
253
  6
CONTINUOUS
  0
LAYER
  2
23
 70
64
 62
7
  6
CONTINUOUS
  0
LAYER
  2
39
 70
64
 62
22
  6
CONTINUOUS
  0
LAYER
  2
40
 70
64
 62
175
  6
CONTINUOUS
  0
LAYER
  2
48
 70
64
 62
213
  6
CONTINUOUS
  0
LAYER
  2
49
 70
64
 62
253
  6
CONTINUOUS
  0
LAYER
  2
51
 70
64
 62
253
  6
CONTINUOUS
  0
ENDTAB
  0
ENDSEC
  0
SECTION
  2
BLOCKS
  0
BLOCK
  8
0
  2
RECT
 70
64
 10
0.0000
 20
0.0000
 30
0.0000
  3
RECT
  0
SOLID
  8
0
 10
-0.5000
 20
-0.5000
 30
0.0000
 11
0.5000
 21
-0.5000
 31
0.0000
 12
-0.5000
 22
0.5000
 32
0.0000
 13
0.5000
 23
0.5000
 33
0.0000
  0
ENDBLK
  8
0
  0
BLOCK
  8
0
  2
PIE
 70
64
 10
0.0000
 20
0.0000
 30
0.0000
  3
PIE
  0
CIRCLE
  8
0
 10
0.0000
 20
0.0000
 30
0.0000
 40
0.5000
  0
ENDBLK
  8
0
  0
BLOCK
  8
0
  2
OCTAGONP
 70
64
 10
0.0000
 20
0.0000
 30
0.0000
  3
OCTAGONP
  0
POLYLINE
  8
0
 66
1
 10
0.0000
 20
0.0000
 30
0.0000
 40
0.0000
 41
0.0000
 70
1
  0
VERTEX
  8
0
 10
-0.5000
 20
-0.2071
 30
0.0000
  0
VERTEX
  8
0
 10
-0.5000
 20
0.2071
 30
0.0000
  0
VERTEX
  8
0
 10
-0.2071
 20
0.5000
 30
0.0000
  0
VERTEX
  8
0
 10
0.2071
 20
0.5000
 30
0.0000
  0
VERTEX
  8
0
 10
0.5000
 20
0.2071
 30
0.0000
  0
VERTEX
  8
0
 10
0.5000
 20
-0.2071
 30
0.0000
  0
VERTEX
  8
0
 10
0.2071
 20
-0.5000
 30
0.0000
  0
VERTEX
  8
0
 10
-0.2071
 20
-0.5000
 30
0.0000
  0
SEQEND
  8
0
  0
ENDBLK
  8
0
  0
BLOCK
  8
0
  2
SQUAREP
 70
64
 10
0.0000
 20
0.0000
 30
0.0000
  3
SQUAREP
  0
SOLID
  8
0
 10
-0.5000
 20
-0.5000
 30
0.0000
 11
0.5000
 21
-0.5000
 31
0.0000
 12
-0.5000
 22
0.5000
 32
0.0000
 13
0.5000
 23
0.5000
 33
0.0000
  0
ENDBLK
  8
0
  0
BLOCK
  8
0
  2
ROUNDP
 70
64
 10
0.0000
 20
0.0000
 30
0.0000
  3
ROUNDP
  0
CIRCLE
  8
0
 10
0.0000
 20
0.0000
 30
0.0000
 40
0.5000
  0
ENDBLK
  8
0
  0
BLOCK
  8
0
  2
ANNULUSP
 70
64
 10
0.0000
 20
0.0000
 30
0.0000
  3
ANNULUSP
  0
CIRCLE
  8
0
 10
0.0000
 20
0.0000
 30
0.0000
 40
0.5000
  0
ENDBLK
  8
0
  0
BLOCK
  8
0
  2
THERMALP
 70
64
 10
0.0000
 20
0.0000
 30
0.0000
  3
THERMALP
  0
LINE
  8
0
 10
-0.2379
 20
0.4500
 30
0.0000
 11
0.2379
 21
0.4500
 31
0.0000
  0
LINE
  8
0
 10
0.4500
 20
0.2379
 30
0.0000
 11
0.4500
 21
-0.2379
 31
0.0000
  0
LINE
  8
0
 10
0.2379
 20
-0.4500
 30
0.0000
 11
-0.2379
 21
-0.4500
 31
0.0000
  0
LINE
  8
0
 10
-0.4500
 20
-0.2379
 30
0.0000
 11
-0.4500
 21
0.2379
 31
0.0000
  0
ENDBLK
  8
0
  0
BLOCK
  8
0
  2
OCTAGONV
 70
64
 10
0.0000
 20
0.0000
 30
0.0000
  3
OCTAGONV
  0
POLYLINE
  8
0
 66
1
 10
0.0000
 20
0.0000
 30
0.0000
 40
0.0000
 41
0.0000
 70
1
  0
VERTEX
  8
0
 10
-0.5000
 20
-0.2071
 30
0.0000
  0
VERTEX
  8
0
 10
-0.5000
 20
0.2071
 30
0.0000
  0
VERTEX
  8
0
 10
-0.2071
 20
0.5000
 30
0.0000
  0
VERTEX
  8
0
 10
0.2071
 20
0.5000
 30
0.0000
  0
VERTEX
  8
0
 10
0.5000
 20
0.2071
 30
0.0000
  0
VERTEX
  8
0
 10
0.5000
 20
-0.2071
 30
0.0000
  0
VERTEX
  8
0
 10
0.2071
 20
-0.5000
 30
0.0000
  0
VERTEX
  8
0
 10
-0.2071
 20
-0.5000
 30
0.0000
  0
SEQEND
  8
0
  0
ENDBLK
  8
0
  0
BLOCK
  8
0
  2
SQUAREV
 70
64
 10
0.0000
 20
0.0000
 30
0.0000
  3
SQUAREV
  0
SOLID
  8
0
 10
-0.5000
 20
-0.5000
 30
0.0000
 11
0.5000
 21
-0.5000
 31
0.0000
 12
-0.5000
 22
0.5000
 32
0.0000
 13
0.5000
 23
0.5000
 33
0.0000
  0
ENDBLK
  8
0
  0
BLOCK
  8
0
  2
ROUNDV
 70
64
 10
0.0000
 20
0.0000
 30
0.0000
  3
ROUNDV
  0
CIRCLE
  8
0
 10
0.0000
 20
0.0000
 30
0.0000
 40
0.5000
  0
ENDBLK
  8
0
  0
BLOCK
  8
0
  2
ANNULUSV
 70
64
 10
0.0000
 20
0.0000
 30
0.0000
  3
ANNULUSV
  0
CIRCLE
  8
0
 10
0.0000
 20
0.0000
 30
0.0000
 40
0.5000
  0
ENDBLK
  8
0
  0
BLOCK
  8
0
  2
THERMALV
 70
64
 10
0.0000
 20
0.0000
 30
0.0000
  3
THERMALV
  0
LINE
  8
0
 10
-0.2379
 20
0.4500
 30
0.0000
 11
0.2379
 21
0.4500
 31
0.0000
  0
LINE
  8
0
 10
0.4500
 20
0.2379
 30
0.0000
 11
0.4500
 21
-0.2379
 31
0.0000
  0
LINE
  8
0
 10
0.2379
 20
-0.4500
 30
0.0000
 11
-0.2379
 21
-0.4500
 31
0.0000
  0
LINE
  8
0
 10
-0.4500
 20
-0.2379
 30
0.0000
 11
-0.4500
 21
0.2379
 31
0.0000
  0
ENDBLK
  8
0
  0
ENDSEC
  0
SECTION
  2
ENTITIES
  0
LINE
  8
20
 10
0.0000
 20
0.0000
 30
0.0000
 11
36.0000
 21
0.0000
 31
0.0000
  0
LINE
  8
20
 10
0.0000
 20
54.0000
 30
0.0000
 11
0.0000
 21
0.0000
 31
0.0000
  0
LINE
  8
20
 10
0.0000
 20
54.0000
 30
0.0000
 11
36.0000
 21
54.0000
 31
0.0000
  0
LINE
  8
20
 10
36.0000
 20
54.0000
 30
0.0000
 11
36.0000
 21
53.5000
 31
0.0000
  0
LINE
  8
20
 10
36.0000
 20
0.5000
 30
0.0000
 11
36.0000
 21
0.0000
 31
0.0000
  0
ARC
  8
48
 10
3.3778
 20
81.6857
 30
0.0000
 40
0.3612
 50
270.0000
 51
0.0000
  0
ARC
  8
48
 10
3.3778
 20
82.0876
 30
0.0000
 40
0.7631
 50
224.7608
 51
269.9999
  0
ARC
  8
48
 10
3.2424
 20
82.5888
 30
0.0000
 40
0.3612
 50
89.9995
 51
180.0000
  0
ARC
  8
48
 10
3.2423
 20
82.2727
 30
0.0000
 40
0.6773
 50
53.1301
 51
89.9995
  0
ARC
  8
48
 10
3.2480
 20
82.5888
 30
0.0000
 40
0.3669
 50
179.9998
 51
239.4900
  0
ARC
  8
48
 10
3.3722
 20
81.6857
 30
0.0000
 40
0.3669
 50
0.0000
 51
59.4898
  0
LINE
  8
48
 10
3.5584
 20
82.0018
 30
0.0000
 11
3.0617
 21
82.2727
 31
0.0000
  0
LINE
  8
48
 10
4.2810
 20
82.4082
 30
0.0000
 11
4.6422
 21
81.3244
 31
0.0000
  0
LINE
  8
48
 10
4.6422
 20
81.3244
 30
0.0000
 11
5.0035
 21
82.4082
 31
0.0000
  0
LINE
  8
48
 10
6.3061
 20
81.3244
 30
0.0000
 11
5.8545
 21
81.3244
 31
0.0000
  0
ARC
  8
48
 10
5.8545
 20
81.5954
 30
0.0000
 40
0.2709
 50
180.0000
 51
270.0000
  0
LINE
  8
48
 10
5.5836
 20
81.5954
 30
0.0000
 11
5.5836
 21
82.0469
 31
0.0000
  0
ARC
  8
48
 10
5.9448
 20
82.0469
 30
0.0000
 40
0.3612
 50
0.0000
 51
180.0000
  0
LINE
  8
48
 10
6.3061
 20
82.0469
 30
0.0000
 11
6.3061
 21
81.8663
 31
0.0000
  0
LINE
  8
48
 10
6.3061
 20
81.8663
 30
0.0000
 11
5.5836
 21
81.8663
 31
0.0000
  0
LINE
  8
48
 10
6.9904
 20
81.3244
 30
0.0000
 11
6.9904
 21
82.4082
 31
0.0000
  0
LINE
  8
48
 10
6.9904
 20
82.4082
 30
0.0000
 11
7.4419
 21
82.4082
 31
0.0000
  0
ARC
  8
48
 10
7.4419
 20
82.1372
 30
0.0000
 40
0.2709
 50
0.0007
 51
90.0000
  0
LINE
  8
48
 10
7.7129
 20
82.1373
 30
0.0000
 11
7.7129
 21
81.3244
 31
0.0000
  0
LINE
  8
48
 10
9.3179
 20
81.3244
 30
0.0000
 11
9.3179
 21
82.9501
 31
0.0000
  0
LINE
  8
48
 10
9.3179
 20
82.9501
 30
0.0000
 11
9.7695
 21
82.9501
 31
0.0000
  0
ARC
  8
48
 10
9.7695
 20
82.4985
 30
0.0000
 40
0.4516
 50
270.0000
 51
90.0000
  0
LINE
  8
48
 10
9.7695
 20
82.0469
 30
0.0000
 11
9.3179
 21
82.0469
 31
0.0000
  0
LINE
  8
48
 10
11.5165
 20
81.3244
 30
0.0000
 11
11.0649
 21
81.3244
 31
0.0000
  0
ARC
  8
48
 10
11.0649
 20
81.5954
 30
0.0000
 40
0.2709
 50
180.0000
 51
270.0000
  0
LINE
  8
48
 10
10.7940
 20
81.5954
 30
0.0000
 11
10.7940
 21
82.0469
 31
0.0000
  0
ARC
  8
48
 10
11.1552
 20
82.0469
 30
0.0000
 40
0.3612
 50
0.0000
 51
180.0000
  0
LINE
  8
48
 10
11.5165
 20
82.0469
 30
0.0000
 11
11.5165
 21
81.8663
 31
0.0000
  0
LINE
  8
48
 10
11.5165
 20
81.8663
 30
0.0000
 11
10.7940
 21
81.8663
 31
0.0000
  0
LINE
  8
48
 10
12.0190
 20
82.4082
 30
0.0000
 11
12.5608
 21
82.4082
 31
0.0000
  0
LINE
  8
48
 10
12.1996
 20
82.9501
 30
0.0000
 11
12.1996
 21
81.5954
 31
0.0000
  0
ARC
  8
48
 10
12.4705
 20
81.5954
 30
0.0000
 40
0.2709
 50
180.0000
 51
270.0000
  0
LINE
  8
48
 10
12.4705
 20
81.3244
 30
0.0000
 11
12.5608
 21
81.3244
 31
0.0000
  0
LINE
  8
48
 10
13.8611
 20
81.3244
 30
0.0000
 11
13.4096
 21
81.3244
 31
0.0000
  0
ARC
  8
48
 10
13.4096
 20
81.5954
 30
0.0000
 40
0.2709
 50
180.0000
 51
270.0000
  0
LINE
  8
48
 10
13.1387
 20
81.5954
 30
0.0000
 11
13.1387
 21
82.0469
 31
0.0000
  0
ARC
  8
48
 10
13.4999
 20
82.0469
 30
0.0000
 40
0.3612
 50
0.0000
 51
180.0000
  0
LINE
  8
48
 10
13.8611
 20
82.0469
 30
0.0000
 11
13.8611
 21
81.8663
 31
0.0000
  0
LINE
  8
48
 10
13.8611
 20
81.8663
 30
0.0000
 11
13.1387
 21
81.8663
 31
0.0000
  0
LINE
  8
48
 10
14.5540
 20
81.3244
 30
0.0000
 11
14.5540
 21
82.4082
 31
0.0000
  0
LINE
  8
48
 10
14.5540
 20
82.4082
 30
0.0000
 11
15.0958
 21
82.4082
 31
0.0000
  0
LINE
  8
48
 10
15.0958
 20
82.4082
 30
0.0000
 11
15.0958
 21
82.2276
 31
0.0000
  0
LINE
  8
48
 10
16.1746
 20
81.7760
 30
0.0000
 11
15.7230
 21
81.9566
 31
0.0000
  0
ARC
  8
48
 10
15.8100
 20
82.1740
 30
0.0000
 40
0.2342
 50
89.1818
 51
248.1988
  0
ARC
  8
48
 10
15.7987
 20
81.3827
 30
0.0000
 40
1.0256
 50
65.7611
 51
89.1818
  0
ARC
  8
48
 10
16.0876
 20
81.5586
 30
0.0000
 40
0.2342
 50
269.1818
 51
68.1988
  0
ARC
  8
48
 10
16.1061
 20
82.8559
 30
0.0000
 40
1.5316
 50
250.2089
 51
269.1818
  0
LINE
  8
48
 10
17.6647
 20
81.3244
 30
0.0000
 11
17.2132
 21
81.3244
 31
0.0000
  0
ARC
  8
48
 10
17.2132
 20
81.5954
 30
0.0000
 40
0.2709
 50
180.0000
 51
270.0000
  0
LINE
  8
48
 10
16.9423
 20
81.5954
 30
0.0000
 11
16.9423
 21
82.0469
 31
0.0000
  0
ARC
  8
48
 10
17.3035
 20
82.0469
 30
0.0000
 40
0.3612
 50
0.0000
 51
180.0000
  0
LINE
  8
48
 10
17.6647
 20
82.0469
 30
0.0000
 11
17.6647
 21
81.8663
 31
0.0000
  0
LINE
  8
48
 10
17.6647
 20
81.8663
 30
0.0000
 11
16.9423
 21
81.8663
 31
0.0000
  0
LINE
  8
48
 10
18.3491
 20
81.3244
 30
0.0000
 11
18.3491
 21
82.4082
 31
0.0000
  0
LINE
  8
48
 10
18.3491
 20
82.4082
 30
0.0000
 11
18.8006
 21
82.4082
 31
0.0000
  0
ARC
  8
48
 10
18.8006
 20
82.1372
 30
0.0000
 40
0.2709
 50
0.0007
 51
90.0000
  0
LINE
  8
48
 10
19.0716
 20
82.1373
 30
0.0000
 11
19.0716
 21
81.3244
 31
0.0000
  0
ARC
  8
48
 10
8.6542
 20
79.8766
 30
0.0000
 40
0.4064
 50
0.0000
 51
90.0000
  0
ARC
  8
48
 10
8.6542
 20
79.7609
 30
0.0000
 40
0.5221
 50
90.0001
 51
162.0549
  0
ARC
  8
48
 10
8.6241
 20
79.8767
 30
0.0000
 40
0.4365
 50
313.6036
 51
359.9997
  0
LINE
  8
48
 10
8.9252
 20
79.5606
 30
0.0000
 11
8.1575
 21
78.6574
 31
0.0000
  0
LINE
  8
48
 10
8.1575
 20
78.6574
 30
0.0000
 11
9.0606
 21
78.6574
 31
0.0000
  0
ARC
  8
48
 10
11.0602
 20
79.4703
 30
0.0000
 40
1.3396
 50
154.0109
 51
180.0001
  0
ARC
  8
48
 10
10.1722
 20
79.9489
 30
0.0000
 40
0.3342
 50
90.0001
 51
161.0756
  0
ARC
  8
48
 10
10.1722
 20
79.9489
 30
0.0000
 40
0.3342
 50
18.9248
 51
90.0000
  0
ARC
  8
48
 10
9.2841
 20
79.4703
 30
0.0000
 40
1.3396
 50
360.0000
 51
25.9891
  0
ARC
  8
48
 10
11.0603
 20
79.4703
 30
0.0000
 40
1.3396
 50
180.0000
 51
205.9889
  0
ARC
  8
48
 10
10.1722
 20
78.9916
 30
0.0000
 40
0.3342
 50
198.9250
 51
270.0000
  0
ARC
  8
48
 10
9.2841
 20
79.4703
 30
0.0000
 40
1.3396
 50
334.0111
 51
360.0000
  0
ARC
  8
48
 10
10.1722
 20
78.9916
 30
0.0000
 40
0.3342
 50
269.9999
 51
341.0745
  0
LINE
  8
48
 10
9.8109
 20
79.0187
 30
0.0000
 11
10.5334
 21
79.9218
 31
0.0000
  0
ARC
  8
48
 10
11.7805
 20
79.8766
 30
0.0000
 40
0.4064
 50
0.0000
 51
90.0000
  0
ARC
  8
48
 10
11.7805
 20
79.7609
 30
0.0000
 40
0.5221
 50
90.0001
 51
162.0549
  0
ARC
  8
48
 10
11.7504
 20
79.8767
 30
0.0000
 40
0.4365
 50
313.6036
 51
359.9997
  0
LINE
  8
48
 10
12.0514
 20
79.5606
 30
0.0000
 11
11.2838
 21
78.6574
 31
0.0000
  0
LINE
  8
48
 10
11.2838
 20
78.6574
 30
0.0000
 11
12.1869
 21
78.6574
 31
0.0000
  0
ARC
  8
48
 10
14.1865
 20
79.4703
 30
0.0000
 40
1.3396
 50
154.0109
 51
180.0001
  0
ARC
  8
48
 10
13.2984
 20
79.9489
 30
0.0000
 40
0.3342
 50
90.0001
 51
161.0756
  0
ARC
  8
48
 10
13.2984
 20
79.9489
 30
0.0000
 40
0.3342
 50
18.9248
 51
90.0000
  0
ARC
  8
48
 10
12.4104
 20
79.4703
 30
0.0000
 40
1.3396
 50
360.0000
 51
25.9891
  0
ARC
  8
48
 10
14.1865
 20
79.4703
 30
0.0000
 40
1.3396
 50
180.0000
 51
205.9889
  0
ARC
  8
48
 10
13.2984
 20
78.9916
 30
0.0000
 40
0.3342
 50
198.9250
 51
270.0000
  0
ARC
  8
48
 10
12.4104
 20
79.4703
 30
0.0000
 40
1.3396
 50
334.0111
 51
360.0000
  0
ARC
  8
48
 10
13.2984
 20
78.9916
 30
0.0000
 40
0.3342
 50
269.9999
 51
341.0745
  0
LINE
  8
48
 10
12.9372
 20
79.0187
 30
0.0000
 11
13.6597
 21
79.9218
 31
0.0000
  0
LINE
  8
48
 10
29.2862
 20
78.6574
 30
0.0000
 11
29.7378
 21
78.6574
 31
0.0000
  0
ARC
  8
48
 10
29.7378
 20
79.1090
 30
0.0000
 40
0.4516
 50
270.0000
 51
90.0000
  0
LINE
  8
48
 10
29.2862
 20
80.2831
 30
0.0000
 11
29.8281
 21
80.2831
 31
0.0000
  0
ARC
  8
48
 10
29.8281
 20
79.9218
 30
0.0000
 40
0.3612
 50
270.0000
 51
90.0000
  0
LINE
  8
48
 10
29.8281
 20
79.5606
 30
0.0000
 11
29.4668
 21
79.5606
 31
0.0000
  0
LINE
  8
48
 10
30.8493
 20
78.6574
 30
0.0000
 11
31.3912
 21
78.6574
 31
0.0000
  0
ARC
  8
48
 10
31.3912
 20
79.0187
 30
0.0000
 40
0.3612
 50
270.0000
 51
0.0000
  0
LINE
  8
48
 10
31.7524
 20
79.0187
 30
0.0000
 11
31.7524
 21
79.1993
 31
0.0000
  0
ARC
  8
48
 10
31.3912
 20
79.1993
 30
0.0000
 40
0.3612
 50
0.0000
 51
90.0000
  0
LINE
  8
48
 10
31.3912
 20
79.5606
 30
0.0000
 11
30.8493
 21
79.5606
 31
0.0000
  0
LINE
  8
48
 10
30.8493
 20
79.5606
 30
0.0000
 11
30.8493
 21
80.2831
 31
0.0000
  0
LINE
  8
48
 10
30.8493
 20
80.2831
 30
0.0000
 11
31.7524
 21
80.2831
 31
0.0000
  0
LINE
  8
48
 10
32.5019
 20
78.1156
 30
0.0000
 11
32.5019
 21
79.7412
 31
0.0000
  0
LINE
  8
48
 10
33.2243
 20
79.7412
 30
0.0000
 11
33.2243
 21
79.0187
 31
0.0000
  0
ARC
  8
48
 10
32.8631
 20
79.0187
 30
0.0000
 40
0.3612
 50
180.0000
 51
0.0000
  0
LINE
  8
48
 10
33.2243
 20
79.0187
 30
0.0000
 11
33.2243
 21
78.8381
 31
0.0000
  0
ARC
  8
48
 10
33.4050
 20
78.8381
 30
0.0000
 40
0.1806
 50
180.0000
 51
270.0000
  0
LINE
  8
48
 10
33.9895
 20
78.6574
 30
0.0000
 11
33.9895
 21
79.7412
 31
0.0000
  0
LINE
  8
48
 10
33.9895
 20
79.7412
 30
0.0000
 11
34.8023
 21
79.7412
 31
0.0000
  0
ARC
  8
48
 10
34.8023
 20
79.4703
 30
0.0000
 40
0.2709
 50
0.0000
 51
90.0000
  0
LINE
  8
48
 10
35.0732
 20
79.4703
 30
0.0000
 11
35.0732
 21
78.6574
 31
0.0000
  0
LINE
  8
48
 10
34.5313
 20
78.6574
 30
0.0000
 11
34.5313
 21
79.7412
 31
0.0000
  0
ARC
  8
48
 10
51.3729
 20
80.0354
 30
0.0000
 40
0.4064
 50
0.0000
 51
90.0000
  0
ARC
  8
48
 10
51.3729
 20
79.9197
 30
0.0000
 40
0.5221
 50
90.0001
 51
162.0549
  0
ARC
  8
48
 10
51.3428
 20
80.0354
 30
0.0000
 40
0.4365
 50
313.6036
 51
359.9997
  0
LINE
  8
48
 10
51.6438
 20
79.7193
 30
0.0000
 11
50.8762
 21
78.8162
 31
0.0000
  0
LINE
  8
48
 10
50.8762
 20
78.8162
 30
0.0000
 11
51.7793
 21
78.8162
 31
0.0000
  0
ARC
  8
48
 10
47.1358
 20
73.2790
 30
0.0000
 40
1.3396
 50
154.0109
 51
180.0001
  0
ARC
  8
48
 10
46.2478
 20
73.7576
 30
0.0000
 40
0.3342
 50
90.0001
 51
161.0756
  0
ARC
  8
48
 10
46.2478
 20
73.7576
 30
0.0000
 40
0.3342
 50
18.9248
 51
90.0000
  0
ARC
  8
48
 10
45.3597
 20
73.2790
 30
0.0000
 40
1.3396
 50
360.0000
 51
25.9891
  0
ARC
  8
48
 10
47.1358
 20
73.2790
 30
0.0000
 40
1.3396
 50
180.0000
 51
205.9889
  0
ARC
  8
48
 10
46.2478
 20
72.8004
 30
0.0000
 40
0.3342
 50
198.9250
 51
270.0000
  0
ARC
  8
48
 10
45.3597
 20
73.2790
 30
0.0000
 40
1.3396
 50
334.0111
 51
360.0000
  0
ARC
  8
48
 10
46.2478
 20
72.8004
 30
0.0000
 40
0.3342
 50
269.9999
 51
341.0745
  0
LINE
  8
48
 10
45.8865
 20
72.8274
 30
0.0000
 11
46.6090
 21
73.7306
 31
0.0000
  0
LINE
  8
48
 10
35.6362
 20
83.0968
 30
0.0000
 11
36.0878
 21
83.4581
 31
0.0000
  0
LINE
  8
48
 10
36.0878
 20
83.4581
 30
0.0000
 11
36.0878
 21
81.8325
 31
0.0000
  0
LINE
  8
48
 10
35.6362
 20
81.8325
 30
0.0000
 11
36.5393
 21
81.8325
 31
0.0000
  0
LINE
  8
48
 10
37.1993
 20
82.7356
 30
0.0000
 11
37.7412
 21
82.7356
 31
0.0000
  0
ARC
  8
48
 10
37.7412
 20
82.3743
 30
0.0000
 40
0.3612
 50
0.0000
 51
90.0000
  0
LINE
  8
48
 10
38.1024
 20
82.3743
 30
0.0000
 11
38.1024
 21
82.2840
 31
0.0000
  0
ARC
  8
48
 10
37.6509
 20
82.2840
 30
0.0000
 40
0.4516
 50
180.0000
 51
0.0000
  0
LINE
  8
48
 10
37.1993
 20
82.2840
 30
0.0000
 11
37.1993
 21
82.7356
 31
0.0000
  0
ARC
  8
48
 10
37.9218
 20
82.7356
 30
0.0000
 40
0.7225
 50
90.0002
 51
180.0000
  0
LINE
  8
48
 10
39.6656
 20
82.5549
 30
0.0000
 11
39.1237
 21
82.5549
 31
0.0000
  0
ARC
  8
48
 10
39.1237
 20
82.9162
 30
0.0000
 40
0.3612
 50
180.0000
 51
270.0000
  0
LINE
  8
48
 10
38.7624
 20
82.9162
 30
0.0000
 11
38.7624
 21
83.0065
 31
0.0000
  0
ARC
  8
48
 10
39.2140
 20
83.0065
 30
0.0000
 40
0.4516
 50
0.0000
 51
180.0000
  0
LINE
  8
48
 10
39.6656
 20
83.0065
 30
0.0000
 11
39.6656
 21
82.5549
 31
0.0000
  0
ARC
  8
48
 10
38.9431
 20
82.5549
 30
0.0000
 40
0.7225
 50
270.0000
 51
0.0000
  0
LINE
  8
48
 10
40.3395
 20
82.4646
 30
0.0000
 11
41.4232
 21
82.4646
 31
0.0000
  0
ARC
  8
48
 10
42.5938
 20
83.0517
 30
0.0000
 40
0.4064
 50
0.0000
 51
90.0000
  0
ARC
  8
48
 10
42.5938
 20
82.9359
 30
0.0000
 40
0.5221
 50
90.0001
 51
162.0549
  0
ARC
  8
48
 10
42.5637
 20
83.0517
 30
0.0000
 40
0.4365
 50
313.6036
 51
359.9997
  0
LINE
  8
48
 10
42.8647
 20
82.7356
 30
0.0000
 11
42.0971
 21
81.8325
 31
0.0000
  0
LINE
  8
48
 10
42.0971
 20
81.8325
 30
0.0000
 11
43.0002
 21
81.8325
 31
0.0000
  0
LINE
  8
48
 10
43.6741
 20
82.4646
 30
0.0000
 11
44.7579
 21
82.4646
 31
0.0000
  0
ARC
  8
48
 10
46.7714
 20
82.6453
 30
0.0000
 40
1.3396
 50
154.0109
 51
180.0001
  0
ARC
  8
48
 10
45.8833
 20
83.1239
 30
0.0000
 40
0.3342
 50
90.0001
 51
161.0756
  0
ARC
  8
48
 10
45.8833
 20
83.1239
 30
0.0000
 40
0.3342
 50
18.9248
 51
90.0000
  0
ARC
  8
48
 10
44.9953
 20
82.6453
 30
0.0000
 40
1.3396
 50
360.0000
 51
25.9891
  0
ARC
  8
48
 10
46.7714
 20
82.6453
 30
0.0000
 40
1.3396
 50
180.0000
 51
205.9889
  0
ARC
  8
48
 10
45.8833
 20
82.1666
 30
0.0000
 40
0.3342
 50
198.9250
 51
270.0000
  0
ARC
  8
48
 10
44.9952
 20
82.6453
 30
0.0000
 40
1.3396
 50
334.0111
 51
360.0000
  0
ARC
  8
48
 10
45.8833
 20
82.1666
 30
0.0000
 40
0.3342
 50
269.9999
 51
341.0745
  0
LINE
  8
48
 10
45.5221
 20
82.1937
 30
0.0000
 11
46.2446
 21
83.0968
 31
0.0000
  0
LINE
  8
48
 10
46.9949
 20
83.0968
 30
0.0000
 11
47.4464
 21
83.4581
 31
0.0000
  0
LINE
  8
48
 10
47.4464
 20
83.4581
 30
0.0000
 11
47.4464
 21
81.8325
 31
0.0000
  0
LINE
  8
48
 10
46.9949
 20
81.8325
 30
0.0000
 11
47.8980
 21
81.8325
 31
0.0000
  0
LINE
  8
48
 10
48.5719
 20
82.4646
 30
0.0000
 11
49.6556
 21
82.4646
 31
0.0000
  0
ARC
  8
48
 10
51.6692
 20
82.6453
 30
0.0000
 40
1.3396
 50
154.0109
 51
180.0001
  0
ARC
  8
48
 10
50.7811
 20
83.1239
 30
0.0000
 40
0.3342
 50
90.0001
 51
161.0756
  0
ARC
  8
48
 10
50.7811
 20
83.1239
 30
0.0000
 40
0.3342
 50
18.9248
 51
90.0000
  0
ARC
  8
48
 10
49.8930
 20
82.6453
 30
0.0000
 40
1.3396
 50
360.0000
 51
25.9891
  0
ARC
  8
48
 10
51.6692
 20
82.6453
 30
0.0000
 40
1.3396
 50
180.0000
 51
205.9889
  0
ARC
  8
48
 10
50.7811
 20
82.1666
 30
0.0000
 40
0.3342
 50
198.9250
 51
270.0000
  0
ARC
  8
48
 10
49.8930
 20
82.6453
 30
0.0000
 40
1.3396
 50
334.0111
 51
360.0000
  0
ARC
  8
48
 10
50.7811
 20
82.1666
 30
0.0000
 40
0.3342
 50
269.9999
 51
341.0745
  0
LINE
  8
48
 10
50.4199
 20
82.1937
 30
0.0000
 11
51.1423
 21
83.0968
 31
0.0000
  0
ARC
  8
48
 10
53.2323
 20
82.6453
 30
0.0000
 40
1.3396
 50
154.0109
 51
180.0001
  0
ARC
  8
48
 10
52.3442
 20
83.1239
 30
0.0000
 40
0.3342
 50
90.0001
 51
161.0756
  0
ARC
  8
48
 10
52.3442
 20
83.1239
 30
0.0000
 40
0.3342
 50
18.9248
 51
90.0000
  0
ARC
  8
48
 10
51.4562
 20
82.6453
 30
0.0000
 40
1.3396
 50
360.0000
 51
25.9891
  0
ARC
  8
48
 10
53.2323
 20
82.6453
 30
0.0000
 40
1.3396
 50
180.0000
 51
205.9889
  0
ARC
  8
48
 10
52.3442
 20
82.1666
 30
0.0000
 40
0.3342
 50
198.9250
 51
270.0000
  0
ARC
  8
48
 10
51.4561
 20
82.6453
 30
0.0000
 40
1.3396
 50
334.0111
 51
360.0000
  0
ARC
  8
48
 10
52.3442
 20
82.1666
 30
0.0000
 40
0.3342
 50
269.9999
 51
341.0745
  0
LINE
  8
48
 10
51.9830
 20
82.1937
 30
0.0000
 11
52.7055
 21
83.0968
 31
0.0000
  0
LINE
  8
21
 10
31.0642
 20
4.1783
 30
0.0000
 11
29.8958
 21
4.1783
 31
0.0000
  0
LINE
  8
21
 10
30.2853
 20
4.1783
 30
0.0000
 11
30.2853
 21
4.5029
 31
0.0000
  0
ARC
  8
21
 10
30.4800
 20
4.5029
 30
0.0000
 40
0.1947
 50
90.0009
 51
180.0000
  0
LINE
  8
21
 10
30.4800
 20
4.6976
 30
0.0000
 11
31.0642
 21
4.6976
 31
0.0000
  0
LINE
  8
21
 10
30.2853
 20
5.1103
 30
0.0000
 11
30.2853
 21
5.4997
 31
0.0000
  0
LINE
  8
21
 10
29.8958
 20
5.2401
 30
0.0000
 11
30.8695
 21
5.2401
 31
0.0000
  0
ARC
  8
21
 10
30.8695
 20
5.4348
 30
0.0000
 40
0.1947
 50
270.0000
 51
0.0000
  0
LINE
  8
21
 10
31.0642
 20
5.4348
 30
0.0000
 11
31.0642
 21
5.4997
 31
0.0000
  0
LINE
  8
21
 10
30.2853
 20
5.8342
 30
0.0000
 11
30.2853
 21
6.2236
 31
0.0000
  0
LINE
  8
21
 10
29.8958
 20
5.9640
 30
0.0000
 11
30.8695
 21
5.9640
 31
0.0000
  0
ARC
  8
21
 10
30.8695
 20
6.1587
 30
0.0000
 40
0.1947
 50
270.0000
 51
0.0000
  0
LINE
  8
21
 10
31.0642
 20
6.1587
 30
0.0000
 11
31.0642
 21
6.2236
 31
0.0000
  0
LINE
  8
21
 10
31.4537
 20
6.6988
 30
0.0000
 11
30.2853
 21
6.6988
 31
0.0000
  0
LINE
  8
21
 10
30.2853
 20
6.6988
 30
0.0000
 11
30.2853
 21
7.0233
 31
0.0000
  0
ARC
  8
21
 10
30.4800
 20
7.0233
 30
0.0000
 40
0.1947
 50
90.0009
 51
180.0000
  0
LINE
  8
21
 10
30.4800
 20
7.2181
 30
0.0000
 11
30.8695
 21
7.2181
 31
0.0000
  0
ARC
  8
21
 10
30.8695
 20
7.0233
 30
0.0000
 40
0.1947
 50
0.0000
 51
90.0000
  0
LINE
  8
21
 10
31.0642
 20
7.0233
 30
0.0000
 11
31.0642
 21
6.6988
 31
0.0000
  0
LINE
  8
21
 10
30.9668
 20
7.6821
 30
0.0000
 11
30.9019
 21
7.6821
 31
0.0000
  0
LINE
  8
21
 10
30.9019
 20
7.6821
 30
0.0000
 11
30.9019
 21
7.7470
 31
0.0000
  0
LINE
  8
21
 10
30.9019
 20
7.7470
 30
0.0000
 11
30.9668
 21
7.7470
 31
0.0000
  0
LINE
  8
21
 10
30.9668
 20
7.7470
 30
0.0000
 11
30.9668
 21
7.6821
 31
0.0000
  0
LINE
  8
21
 10
30.4475
 20
7.6821
 30
0.0000
 11
30.3826
 21
7.6821
 31
0.0000
  0
LINE
  8
21
 10
30.3826
 20
7.6821
 30
0.0000
 11
30.3826
 21
7.7470
 31
0.0000
  0
LINE
  8
21
 10
30.3826
 20
7.7470
 30
0.0000
 11
30.4475
 21
7.7470
 31
0.0000
  0
LINE
  8
21
 10
30.4475
 20
7.7470
 30
0.0000
 11
30.4475
 21
7.6821
 31
0.0000
  0
LINE
  8
21
 10
31.1940
 20
8.1788
 30
0.0000
 11
29.7660
 21
8.6981
 31
0.0000
  0
LINE
  8
21
 10
31.1940
 20
9.0932
 30
0.0000
 11
29.7660
 21
9.6125
 31
0.0000
  0
LINE
  8
21
 10
31.0642
 20
10.5591
 30
0.0000
 11
31.0642
 21
10.2345
 31
0.0000
  0
ARC
  8
21
 10
30.8695
 20
10.2345
 30
0.0000
 40
0.1947
 50
270.0000
 51
0.0000
  0
LINE
  8
21
 10
30.8695
 20
10.0398
 30
0.0000
 11
30.4800
 21
10.0398
 31
0.0000
  0
ARC
  8
21
 10
30.4800
 20
10.2345
 30
0.0000
 40
0.1947
 50
180.0000
 51
270.0000
  0
LINE
  8
21
 10
30.2853
 20
10.2345
 30
0.0000
 11
30.2853
 21
10.5591
 31
0.0000
  0
LINE
  8
21
 10
30.2853
 20
10.5591
 30
0.0000
 11
31.2589
 21
10.5591
 31
0.0000
  0
ARC
  8
21
 10
31.2589
 20
10.3643
 30
0.0000
 40
0.1947
 50
0.0000
 51
90.0000
  0
LINE
  8
21
 10
31.4537
 20
10.3643
 30
0.0000
 11
31.4537
 21
10.1047
 31
0.0000
  0
LINE
  8
21
 10
31.0642
 20
11.0673
 30
0.0000
 11
30.2853
 21
11.0673
 31
0.0000
  0
LINE
  8
21
 10
29.9607
 20
11.0349
 30
0.0000
 11
29.8958
 21
11.0349
 31
0.0000
  0
LINE
  8
21
 10
29.8958
 20
11.0349
 30
0.0000
 11
29.8958
 21
11.0998
 31
0.0000
  0
LINE
  8
21
 10
29.8958
 20
11.0998
 30
0.0000
 11
29.9607
 21
11.0998
 31
0.0000
  0
LINE
  8
21
 10
29.9607
 20
11.0998
 30
0.0000
 11
29.9607
 21
11.0349
 31
0.0000
  0
LINE
  8
21
 10
30.2853
 20
11.4349
 30
0.0000
 11
30.2853
 21
11.8243
 31
0.0000
  0
LINE
  8
21
 10
29.8958
 20
11.5647
 30
0.0000
 11
30.8695
 21
11.5647
 31
0.0000
  0
ARC
  8
21
 10
30.8695
 20
11.7594
 30
0.0000
 40
0.1947
 50
270.0000
 51
0.0000
  0
LINE
  8
21
 10
31.0642
 20
11.7594
 30
0.0000
 11
31.0642
 21
11.8243
 31
0.0000
  0
LINE
  8
21
 10
31.0642
 20
12.2936
 30
0.0000
 11
29.8958
 21
12.2936
 31
0.0000
  0
LINE
  8
21
 10
30.2853
 20
12.2936
 30
0.0000
 11
30.2853
 21
12.6181
 31
0.0000
  0
ARC
  8
21
 10
30.4800
 20
12.6181
 30
0.0000
 40
0.1947
 50
90.0009
 51
180.0000
  0
LINE
  8
21
 10
30.4800
 20
12.8129
 30
0.0000
 11
31.0642
 21
12.8129
 31
0.0000
  0
LINE
  8
21
 10
30.2853
 20
13.3604
 30
0.0000
 11
30.8695
 21
13.3604
 31
0.0000
  0
ARC
  8
21
 10
30.8695
 20
13.5551
 30
0.0000
 40
0.1947
 50
270.0000
 51
0.0000
  0
LINE
  8
21
 10
31.0642
 20
13.5551
 30
0.0000
 11
31.0642
 21
13.8797
 31
0.0000
  0
LINE
  8
21
 10
31.0642
 20
13.8797
 30
0.0000
 11
30.2853
 21
13.8797
 31
0.0000
  0
LINE
  8
21
 10
29.8958
 20
14.4331
 30
0.0000
 11
31.0642
 21
14.4331
 31
0.0000
  0
LINE
  8
21
 10
31.0642
 20
14.4331
 30
0.0000
 11
31.0642
 21
14.7576
 31
0.0000
  0
ARC
  8
21
 10
30.8695
 20
14.7576
 30
0.0000
 40
0.1947
 50
0.0000
 51
90.0000
  0
LINE
  8
21
 10
30.8695
 20
14.9524
 30
0.0000
 11
30.4800
 21
14.9524
 31
0.0000
  0
ARC
  8
21
 10
30.4800
 20
14.7576
 30
0.0000
 40
0.1947
 50
90.0000
 51
180.0000
  0
LINE
  8
21
 10
30.2853
 20
14.7576
 30
0.0000
 11
30.2853
 21
14.4331
 31
0.0000
  0
LINE
  8
21
 10
31.0642
 20
15.3783
 30
0.0000
 11
30.9993
 21
15.3783
 31
0.0000
  0
LINE
  8
21
 10
30.9993
 20
15.3783
 30
0.0000
 11
30.9993
 21
15.4432
 31
0.0000
  0
LINE
  8
21
 10
30.9993
 20
15.4432
 30
0.0000
 11
31.0642
 21
15.4432
 31
0.0000
  0
LINE
  8
21
 10
31.0642
 20
15.4432
 30
0.0000
 11
31.0642
 21
15.3783
 31
0.0000
  0
LINE
  8
21
 10
31.0642
 20
16.3307
 30
0.0000
 11
31.0642
 21
16.0710
 31
0.0000
  0
ARC
  8
21
 10
30.8695
 20
16.0710
 30
0.0000
 40
0.1947
 50
270.0000
 51
0.0000
  0
LINE
  8
21
 10
30.8695
 20
15.8763
 30
0.0000
 11
30.4800
 21
15.8763
 31
0.0000
  0
ARC
  8
21
 10
30.4800
 20
16.0710
 30
0.0000
 40
0.1947
 50
180.0000
 51
270.0000
  0
LINE
  8
21
 10
30.2853
 20
16.0710
 30
0.0000
 11
30.2853
 21
16.3307
 31
0.0000
  0
LINE
  8
21
 10
30.8046
 20
16.7513
 30
0.0000
 11
30.5449
 21
16.7513
 31
0.0000
  0
ARC
  8
21
 10
30.5449
 20
17.0109
 30
0.0000
 40
0.2596
 50
90.0000
 51
270.0000
  0
LINE
  8
21
 10
30.5449
 20
17.2706
 30
0.0000
 11
30.8046
 21
17.2706
 31
0.0000
  0
ARC
  8
21
 10
30.8046
 20
17.0109
 30
0.0000
 40
0.2596
 50
270.0000
 51
90.0000
  0
LINE
  8
21
 10
31.0642
 20
17.8025
 30
0.0000
 11
30.2853
 21
17.8025
 31
0.0000
  0
LINE
  8
21
 10
30.2853
 20
17.8025
 30
0.0000
 11
30.2853
 21
18.3867
 31
0.0000
  0
ARC
  8
21
 10
30.4800
 20
18.3867
 30
0.0000
 40
0.1947
 50
90.0000
 51
180.0000
  0
LINE
  8
21
 10
30.4800
 20
18.5815
 30
0.0000
 11
31.0642
 21
18.5815
 31
0.0000
  0
LINE
  8
21
 10
31.0642
 20
18.1920
 30
0.0000
 11
30.2853
 21
18.1920
 31
0.0000
  0
LINE
  8
21
 10
31.1940
 20
19.0754
 30
0.0000
 11
29.7660
 21
19.5947
 31
0.0000
  0
LINE
  8
21
 10
32.6446
 20
4.6327
 30
0.0000
 11
32.5148
 21
4.3081
 31
0.0000
  0
ARC
  8
21
 10
32.3586
 20
4.3706
 30
0.0000
 40
0.1683
 50
179.1818
 51
338.1989
  0
ARC
  8
21
 10
32.9273
 20
4.3625
 30
0.0000
 40
0.7371
 50
155.7611
 51
179.1819
  0
ARC
  8
21
 10
32.8009
 20
4.5702
 30
0.0000
 40
0.1683
 50
359.1819
 51
158.1986
  0
ARC
  8
21
 10
31.8685
 20
4.5835
 30
0.0000
 40
1.1008
 50
340.2090
 51
359.1819
  0
LINE
  8
21
 10
32.1903
 20
5.1633
 30
0.0000
 11
32.9692
 21
5.4229
 31
0.0000
  0
LINE
  8
21
 10
32.9692
 20
5.4229
 30
0.0000
 11
32.1903
 21
5.6825
 31
0.0000
  0
LINE
  8
21
 10
32.9692
 20
6.6350
 30
0.0000
 11
32.9692
 21
6.3105
 31
0.0000
  0
ARC
  8
21
 10
32.7745
 20
6.3105
 30
0.0000
 40
0.1947
 50
270.0000
 51
0.0000
  0
LINE
  8
21
 10
32.7745
 20
6.1158
 30
0.0000
 11
32.4499
 21
6.1158
 31
0.0000
  0
ARC
  8
21
 10
32.4499
 20
6.3754
 30
0.0000
 40
0.2596
 50
90.0000
 51
270.0000
  0
LINE
  8
21
 10
32.4499
 20
6.6350
 30
0.0000
 11
32.5797
 21
6.6350
 31
0.0000
  0
LINE
  8
21
 10
32.5797
 20
6.6350
 30
0.0000
 11
32.5797
 21
6.1158
 31
0.0000
  0
LINE
  8
21
 10
32.9692
 20
7.1445
 30
0.0000
 11
32.1903
 21
7.1445
 31
0.0000
  0
LINE
  8
21
 10
32.1903
 20
7.1445
 30
0.0000
 11
32.1903
 21
7.4690
 31
0.0000
  0
ARC
  8
21
 10
32.3850
 20
7.4690
 30
0.0000
 40
0.1947
 50
90.0009
 51
180.0000
  0
LINE
  8
21
 10
32.3850
 20
7.6637
 30
0.0000
 11
32.9692
 21
7.6637
 31
0.0000
  0
LINE
  8
21
 10
33.3587
 20
8.2171
 30
0.0000
 11
32.1903
 21
8.2171
 31
0.0000
  0
LINE
  8
21
 10
32.1903
 20
8.2171
 30
0.0000
 11
32.1903
 21
8.5417
 31
0.0000
  0
ARC
  8
21
 10
32.3850
 20
8.5417
 30
0.0000
 40
0.1947
 50
90.0009
 51
180.0000
  0
LINE
  8
21
 10
32.3850
 20
8.7364
 30
0.0000
 11
32.7745
 21
8.7364
 31
0.0000
  0
ARC
  8
21
 10
32.7745
 20
8.5417
 30
0.0000
 40
0.1947
 50
0.0000
 51
90.0000
  0
LINE
  8
21
 10
32.9692
 20
8.5417
 30
0.0000
 11
32.9692
 21
8.2171
 31
0.0000
  0
LINE
  8
21
 10
32.9692
 20
9.7211
 30
0.0000
 11
32.9692
 21
9.3966
 31
0.0000
  0
ARC
  8
21
 10
32.7745
 20
9.3966
 30
0.0000
 40
0.1947
 50
270.0000
 51
0.0000
  0
LINE
  8
21
 10
32.7745
 20
9.2019
 30
0.0000
 11
32.4499
 21
9.2019
 31
0.0000
  0
ARC
  8
21
 10
32.4499
 20
9.4615
 30
0.0000
 40
0.2596
 50
90.0000
 51
270.0000
  0
LINE
  8
21
 10
32.4499
 20
9.7211
 30
0.0000
 11
32.5797
 21
9.7211
 31
0.0000
  0
LINE
  8
21
 10
32.5797
 20
9.7211
 30
0.0000
 11
32.5797
 21
9.2019
 31
0.0000
  0
LINE
  8
21
 10
32.1903
 20
10.0957
 30
0.0000
 11
32.1903
 21
10.4852
 31
0.0000
  0
LINE
  8
21
 10
31.8008
 20
10.2255
 30
0.0000
 11
32.7745
 21
10.2255
 31
0.0000
  0
ARC
  8
21
 10
32.7745
 20
10.4203
 30
0.0000
 40
0.1947
 50
270.0000
 51
0.0000
  0
LINE
  8
21
 10
32.9692
 20
10.4203
 30
0.0000
 11
32.9692
 21
10.4852
 31
0.0000
  0
LINE
  8
21
 10
32.9692
 20
11.4356
 30
0.0000
 11
32.9692
 21
11.1111
 31
0.0000
  0
ARC
  8
21
 10
32.7745
 20
11.1111
 30
0.0000
 40
0.1947
 50
270.0000
 51
0.0000
  0
LINE
  8
21
 10
32.7745
 20
10.9164
 30
0.0000
 11
32.4499
 21
10.9164
 31
0.0000
  0
ARC
  8
21
 10
32.4499
 20
11.1760
 30
0.0000
 40
0.2596
 50
90.0000
 51
270.0000
  0
LINE
  8
21
 10
32.4499
 20
11.4356
 30
0.0000
 11
32.5797
 21
11.4356
 31
0.0000
  0
LINE
  8
21
 10
32.5797
 20
11.4356
 30
0.0000
 11
32.5797
 21
10.9164
 31
0.0000
  0
LINE
  8
21
 10
32.9692
 20
11.9517
 30
0.0000
 11
32.1903
 21
11.9517
 31
0.0000
  0
LINE
  8
21
 10
32.1903
 20
11.9517
 30
0.0000
 11
32.1903
 21
12.3412
 31
0.0000
  0
LINE
  8
21
 10
32.1903
 20
12.3412
 30
0.0000
 11
32.3201
 21
12.3412
 31
0.0000
  0
LINE
  8
21
 10
32.6446
 20
13.1290
 30
0.0000
 11
32.5148
 21
12.8044
 31
0.0000
  0
ARC
  8
21
 10
32.3586
 20
12.8669
 30
0.0000
 40
0.1683
 50
179.1818
 51
338.1989
  0
ARC
  8
21
 10
32.9273
 20
12.8588
 30
0.0000
 40
0.7371
 50
155.7611
 51
179.1819
  0
ARC
  8
21
 10
32.8009
 20
13.0665
 30
0.0000
 40
0.1683
 50
359.1819
 51
158.1986
  0
ARC
  8
21
 10
31.8685
 20
13.0798
 30
0.0000
 40
1.1008
 50
340.2090
 51
359.1819
  0
LINE
  8
21
 10
32.9692
 20
14.2169
 30
0.0000
 11
32.9692
 21
13.8924
 31
0.0000
  0
ARC
  8
21
 10
32.7745
 20
13.8924
 30
0.0000
 40
0.1947
 50
270.0000
 51
0.0000
  0
LINE
  8
21
 10
32.7745
 20
13.6977
 30
0.0000
 11
32.4499
 21
13.6977
 31
0.0000
  0
ARC
  8
21
 10
32.4499
 20
13.9573
 30
0.0000
 40
0.2596
 50
90.0000
 51
270.0000
  0
LINE
  8
21
 10
32.4499
 20
14.2169
 30
0.0000
 11
32.5797
 21
14.2169
 31
0.0000
  0
LINE
  8
21
 10
32.5797
 20
14.2169
 30
0.0000
 11
32.5797
 21
13.6977
 31
0.0000
  0
LINE
  8
21
 10
32.9692
 20
14.7264
 30
0.0000
 11
32.1903
 21
14.7264
 31
0.0000
  0
LINE
  8
21
 10
32.1903
 20
14.7264
 30
0.0000
 11
32.1903
 21
15.0509
 31
0.0000
  0
ARC
  8
21
 10
32.3850
 20
15.0509
 30
0.0000
 40
0.1947
 50
90.0009
 51
180.0000
  0
LINE
  8
21
 10
32.3850
 20
15.2456
 30
0.0000
 11
32.9692
 21
15.2456
 31
0.0000
  0
LINE
  8
21
 10
32.0604
 20
15.7663
 30
0.0000
 11
31.8008
 21
16.0909
 31
0.0000
  0
LINE
  8
21
 10
31.8008
 20
16.0909
 30
0.0000
 11
32.9692
 21
16.0909
 31
0.0000
  0
LINE
  8
21
 10
32.9692
 20
15.7663
 30
0.0000
 11
32.9692
 21
16.4154
 31
0.0000
  0
LINE
  8
21
 10
32.4499
 20
17.5584
 30
0.0000
 11
32.4499
 21
17.1690
 31
0.0000
  0
ARC
  8
21
 10
32.1903
 20
17.1690
 30
0.0000
 40
0.2596
 50
270.0000
 51
0.0000
  0
LINE
  8
21
 10
32.1903
 20
16.9093
 30
0.0000
 11
32.1254
 21
16.9093
 31
0.0000
  0
ARC
  8
21
 10
32.1254
 20
17.2339
 30
0.0000
 40
0.3246
 50
90.0000
 51
270.0000
  0
LINE
  8
21
 10
32.1254
 20
17.5584
 30
0.0000
 11
32.4499
 21
17.5584
 31
0.0000
  0
ARC
  8
21
 10
32.4499
 20
17.0392
 30
0.0000
 40
0.5193
 50
0.0000
 51
90.0000
  0
LINE
  8
21
 10
32.3201
 20
18.0523
 30
0.0000
 11
32.3201
 21
18.4418
 31
0.0000
  0
ARC
  8
21
 10
32.5797
 20
18.4418
 30
0.0000
 40
0.2596
 50
90.0000
 51
180.0000
  0
LINE
  8
21
 10
32.5797
 20
18.7014
 30
0.0000
 11
32.6446
 21
18.7014
 31
0.0000
  0
ARC
  8
21
 10
32.6446
 20
18.3769
 30
0.0000
 40
0.3246
 50
270.0000
 51
90.0000
  0
LINE
  8
21
 10
32.6446
 20
18.0523
 30
0.0000
 11
32.3201
 21
18.0523
 31
0.0000
  0
ARC
  8
21
 10
32.3201
 20
18.5716
 30
0.0000
 40
0.5193
 50
180.0007
 51
270.0000
  0
LINE
  8
21
 10
32.9692
 20
19.1953
 30
0.0000
 11
32.9692
 21
19.5848
 31
0.0000
  0
ARC
  8
21
 10
32.7096
 20
19.5848
 30
0.0000
 40
0.2596
 50
0.0000
 51
90.0000
  0
LINE
  8
21
 10
32.7096
 20
19.8444
 30
0.0000
 11
32.5797
 21
19.8444
 31
0.0000
  0
ARC
  8
21
 10
32.5797
 20
19.5848
 30
0.0000
 40
0.2596
 50
90.0000
 51
180.0000
  0
LINE
  8
21
 10
32.3201
 20
19.5848
 30
0.0000
 11
32.3201
 21
19.1953
 31
0.0000
  0
LINE
  8
21
 10
32.3201
 20
19.1953
 30
0.0000
 11
31.8008
 21
19.1953
 31
0.0000
  0
LINE
  8
21
 10
31.8008
 20
19.1953
 30
0.0000
 11
31.8008
 21
19.8444
 31
0.0000
  0
LINE
  8
21
 10
24.5301
 20
16.9037
 30
0.0000
 11
22.9045
 21
16.9037
 31
0.0000
  0
LINE
  8
21
 10
22.9045
 20
16.9037
 30
0.0000
 11
22.9045
 21
17.3553
 31
0.0000
  0
ARC
  8
21
 10
23.3560
 20
17.3553
 30
0.0000
 40
0.4516
 50
0.0000
 51
180.0000
  0
LINE
  8
21
 10
23.8076
 20
17.3553
 30
0.0000
 11
23.8076
 21
16.9037
 31
0.0000
  0
LINE
  8
21
 10
24.5301
 20
19.1712
 30
0.0000
 11
24.5301
 21
18.4487
 31
0.0000
  0
LINE
  8
21
 10
24.5301
 20
18.4487
 30
0.0000
 11
22.9045
 21
18.4487
 31
0.0000
  0
LINE
  8
21
 10
22.9045
 20
18.4487
 30
0.0000
 11
22.9045
 21
19.1712
 31
0.0000
  0
LINE
  8
21
 10
23.6269
 20
18.4487
 30
0.0000
 11
23.6269
 21
18.9906
 31
0.0000
  0
LINE
  8
21
 10
24.5301
 20
20.0957
 30
0.0000
 11
22.9045
 21
20.0957
 31
0.0000
  0
LINE
  8
21
 10
22.9045
 20
19.6441
 30
0.0000
 11
22.9045
 21
20.5472
 31
0.0000
  0
LINE
  8
21
 10
22.9045
 20
22.0756
 30
0.0000
 11
24.5301
 21
22.0756
 31
0.0000
  0
LINE
  8
21
 10
24.5301
 20
21.8950
 30
0.0000
 11
24.5301
 21
22.2563
 31
0.0000
  0
LINE
  8
21
 10
22.9045
 20
21.8950
 30
0.0000
 11
22.9045
 21
22.2563
 31
0.0000
  0
LINE
  8
21
 10
24.5301
 20
23.6521
 30
0.0000
 11
24.5301
 21
22.9297
 31
0.0000
  0
LINE
  8
21
 10
24.5301
 20
22.9297
 30
0.0000
 11
22.9045
 21
22.9297
 31
0.0000
  0
LINE
  8
21
 10
22.9045
 20
22.9297
 30
0.0000
 11
22.9045
 21
23.6521
 31
0.0000
  0
LINE
  8
21
 10
23.6269
 20
22.9297
 30
0.0000
 11
23.6269
 21
23.4715
 31
0.0000
  0
LINE
  8
21
 10
24.5301
 20
25.0068
 30
0.0000
 11
24.5301
 21
24.2844
 31
0.0000
  0
LINE
  8
21
 10
24.5301
 20
24.2844
 30
0.0000
 11
22.9045
 21
24.2844
 31
0.0000
  0
LINE
  8
21
 10
22.9045
 20
24.2844
 30
0.0000
 11
22.9045
 21
25.0068
 31
0.0000
  0
LINE
  8
21
 10
23.6269
 20
24.2844
 30
0.0000
 11
23.6269
 21
24.8262
 31
0.0000
  0
LINE
  8
21
 10
24.5301
 20
26.3616
 30
0.0000
 11
24.5301
 21
25.6391
 31
0.0000
  0
LINE
  8
21
 10
24.5301
 20
25.6391
 30
0.0000
 11
22.9045
 21
25.6391
 31
0.0000
  0
LINE
  8
21
 10
22.9045
 20
25.6391
 30
0.0000
 11
22.9045
 21
26.3616
 31
0.0000
  0
LINE
  8
21
 10
23.6269
 20
25.6391
 30
0.0000
 11
23.6269
 21
26.1809
 31
0.0000
  0
LINE
  8
21
 10
23.8979
 20
26.9526
 30
0.0000
 11
23.8979
 21
28.0363
 31
0.0000
  0
LINE
  8
21
 10
22.9045
 20
29.0715
 30
0.0000
 11
24.1688
 21
28.7102
 31
0.0000
  0
LINE
  8
21
 10
24.1688
 20
28.7102
 30
0.0000
 11
24.1688
 21
29.6133
 31
0.0000
  0
LINE
  8
21
 10
23.8076
 20
29.3424
 30
0.0000
 11
24.5301
 21
29.3424
 31
0.0000
  0
ARC
  8
21
 10
24.0785
 20
30.7249
 30
0.0000
 40
0.4516
 50
90.0000
 51
270.0000
  0
ARC
  8
21
 10
24.0785
 20
30.7249
 30
0.0000
 40
0.4516
 50
270.0000
 51
90.0000
  0
ARC
  8
21
 10
23.2657
 20
30.7249
 30
0.0000
 40
0.3612
 50
90.0000
 51
270.0000
  0
ARC
  8
21
 10
23.2657
 20
30.7249
 30
0.0000
 40
0.3612
 50
270.0000
 51
90.0000
  0
ARC
  8
21
 10
24.0785
 20
32.2880
 30
0.0000
 40
0.4516
 50
90.0000
 51
270.0000
  0
ARC
  8
21
 10
24.0785
 20
32.2880
 30
0.0000
 40
0.4516
 50
270.0000
 51
90.0000
  0
ARC
  8
21
 10
23.2657
 20
32.2880
 30
0.0000
 40
0.3612
 50
90.0000
 51
270.0000
  0
ARC
  8
21
 10
23.2657
 20
32.2880
 30
0.0000
 40
0.3612
 50
270.0000
 51
90.0000
  0
LINE
  8
21
 10
24.5301
 20
35.0108
 30
0.0000
 11
24.5301
 21
34.2883
 31
0.0000
  0
LINE
  8
21
 10
24.5301
 20
34.2883
 30
0.0000
 11
22.9045
 21
34.2883
 31
0.0000
  0
LINE
  8
21
 10
22.9045
 20
34.2883
 30
0.0000
 11
22.9045
 21
35.0108
 31
0.0000
  0
LINE
  8
21
 10
23.6269
 20
34.2883
 30
0.0000
 11
23.6269
 21
34.8302
 31
0.0000
  0
LINE
  8
21
 10
24.5301
 20
35.5220
 30
0.0000
 11
23.4463
 21
36.2444
 31
0.0000
  0
LINE
  8
21
 10
23.4463
 20
35.5220
 30
0.0000
 11
24.5301
 21
36.2444
 31
0.0000
  0
LINE
  8
21
 10
23.4463
 20
36.6948
 30
0.0000
 11
23.4463
 21
37.2367
 31
0.0000
  0
LINE
  8
21
 10
22.9045
 20
36.8755
 30
0.0000
 11
24.2591
 21
36.8755
 31
0.0000
  0
ARC
  8
21
 10
24.2591
 20
37.1464
 30
0.0000
 40
0.2709
 50
270.0000
 51
0.0000
  0
LINE
  8
21
 10
24.5301
 20
37.1464
 30
0.0000
 11
24.5301
 21
37.2367
 31
0.0000
  0
LINE
  8
21
 10
24.5301
 20
38.5370
 30
0.0000
 11
24.5301
 21
38.0855
 31
0.0000
  0
ARC
  8
21
 10
24.2591
 20
38.0855
 30
0.0000
 40
0.2709
 50
270.0000
 51
0.0000
  0
LINE
  8
21
 10
24.2591
 20
37.8145
 30
0.0000
 11
23.8076
 21
37.8145
 31
0.0000
  0
ARC
  8
21
 10
23.8076
 20
38.1758
 30
0.0000
 40
0.3612
 50
90.0000
 51
270.0000
  0
LINE
  8
21
 10
23.8076
 20
38.5370
 30
0.0000
 11
23.9882
 21
38.5370
 31
0.0000
  0
LINE
  8
21
 10
23.9882
 20
38.5370
 30
0.0000
 11
23.9882
 21
37.8145
 31
0.0000
  0
LINE
  8
21
 10
24.5301
 20
39.2213
 30
0.0000
 11
23.4463
 21
39.2213
 31
0.0000
  0
LINE
  8
21
 10
23.4463
 20
39.2213
 30
0.0000
 11
23.4463
 21
39.6729
 31
0.0000
  0
ARC
  8
21
 10
23.7173
 20
39.6729
 30
0.0000
 40
0.2709
 50
90.0007
 51
180.0000
  0
LINE
  8
21
 10
23.7172
 20
39.9438
 30
0.0000
 11
24.5301
 21
39.9438
 31
0.0000
  0
LINE
  8
21
 10
22.9045
 20
41.3433
 30
0.0000
 11
24.5301
 21
41.3433
 31
0.0000
  0
LINE
  8
21
 10
24.5301
 20
41.3433
 30
0.0000
 11
24.5301
 21
40.8918
 31
0.0000
  0
ARC
  8
21
 10
24.2591
 20
40.8918
 30
0.0000
 40
0.2709
 50
270.0000
 51
0.0000
  0
LINE
  8
21
 10
24.2591
 20
40.6208
 30
0.0000
 11
23.7172
 21
40.6208
 31
0.0000
  0
ARC
  8
21
 10
23.7172
 20
40.8918
 30
0.0000
 40
0.2709
 50
180.0000
 51
270.0000
  0
LINE
  8
21
 10
23.4463
 20
40.8918
 30
0.0000
 11
23.4463
 21
41.3433
 31
0.0000
  0
LINE
  8
21
 10
24.5301
 20
42.7574
 30
0.0000
 11
24.5301
 21
42.3059
 31
0.0000
  0
ARC
  8
21
 10
24.2591
 20
42.3059
 30
0.0000
 40
0.2709
 50
270.0000
 51
0.0000
  0
LINE
  8
21
 10
24.2591
 20
42.0350
 30
0.0000
 11
23.8076
 21
42.0350
 31
0.0000
  0
ARC
  8
21
 10
23.8076
 20
42.3962
 30
0.0000
 40
0.3612
 50
90.0000
 51
270.0000
  0
LINE
  8
21
 10
23.8076
 20
42.7574
 30
0.0000
 11
23.9882
 21
42.7574
 31
0.0000
  0
LINE
  8
21
 10
23.9882
 20
42.7574
 30
0.0000
 11
23.9882
 21
42.0350
 31
0.0000
  0
LINE
  8
21
 10
24.5301
 20
43.4503
 30
0.0000
 11
23.4463
 21
43.4503
 31
0.0000
  0
LINE
  8
21
 10
23.4463
 20
43.4503
 30
0.0000
 11
23.4463
 21
43.9921
 31
0.0000
  0
LINE
  8
21
 10
23.4463
 20
43.9921
 30
0.0000
 11
23.6269
 21
43.9921
 31
0.0000
  0
LINE
  8
21
 10
27.2288
 20
18.1737
 30
0.0000
 11
25.6032
 21
18.1737
 31
0.0000
  0
LINE
  8
21
 10
25.6032
 20
18.1737
 30
0.0000
 11
25.6032
 21
18.6253
 31
0.0000
  0
ARC
  8
21
 10
26.0548
 20
18.6253
 30
0.0000
 40
0.4516
 50
0.0000
 51
180.0000
  0
LINE
  8
21
 10
26.5063
 20
18.6253
 30
0.0000
 11
26.5063
 21
18.1737
 31
0.0000
  0
LINE
  8
21
 10
27.2288
 20
19.0768
 30
0.0000
 11
26.5063
 21
18.7156
 31
0.0000
  0
LINE
  8
21
 10
27.2288
 20
20.4363
 30
0.0000
 11
27.2288
 21
19.9847
 31
0.0000
  0
ARC
  8
21
 10
26.9579
 20
19.9847
 30
0.0000
 40
0.2709
 50
270.0000
 51
0.0000
  0
LINE
  8
21
 10
26.9579
 20
19.7138
 30
0.0000
 11
26.5063
 21
19.7138
 31
0.0000
  0
ARC
  8
21
 10
26.5063
 20
20.0750
 30
0.0000
 40
0.3612
 50
90.0000
 51
270.0000
  0
LINE
  8
21
 10
26.5063
 20
20.4363
 30
0.0000
 11
26.6869
 21
20.4363
 31
0.0000
  0
LINE
  8
21
 10
26.6869
 20
20.4363
 30
0.0000
 11
26.6869
 21
19.7138
 31
0.0000
  0
LINE
  8
21
 10
26.1451
 20
21.0164
 30
0.0000
 11
27.2288
 21
21.3776
 31
0.0000
  0
LINE
  8
21
 10
27.2288
 20
21.3776
 30
0.0000
 11
26.1451
 21
21.7389
 31
0.0000
  0
LINE
  8
21
 10
27.2288
 20
22.2703
 30
0.0000
 11
27.1385
 21
22.2703
 31
0.0000
  0
LINE
  8
21
 10
27.1385
 20
22.2703
 30
0.0000
 11
27.1385
 21
22.3606
 31
0.0000
  0
LINE
  8
21
 10
27.1385
 20
22.3606
 30
0.0000
 11
27.2288
 21
22.3606
 31
0.0000
  0
LINE
  8
21
 10
27.2288
 20
22.3606
 30
0.0000
 11
27.2288
 21
22.2703
 31
0.0000
  0
ARC
  8
21
 10
26.4160
 20
25.1314
 30
0.0000
 40
1.3396
 50
244.0110
 51
269.9999
  0
ARC
  8
21
 10
25.9373
 20
24.2433
 30
0.0000
 40
0.3341
 50
179.9998
 51
251.0758
  0
ARC
  8
21
 10
25.9374
 20
24.2433
 30
0.0000
 40
0.3342
 50
108.9243
 51
180.0000
  0
ARC
  8
21
 10
26.4160
 20
23.3553
 30
0.0000
 40
1.3396
 50
90.0001
 51
115.9890
  0
ARC
  8
21
 10
26.4160
 20
25.1314
 30
0.0000
 40
1.3396
 50
270.0000
 51
295.9889
  0
ARC
  8
21
 10
26.8947
 20
24.2433
 30
0.0000
 40
0.3342
 50
288.9250
 51
0.0000
  0
ARC
  8
21
 10
26.4160
 20
23.3552
 30
0.0000
 40
1.3396
 50
64.0111
 51
90.0000
  0
ARC
  8
21
 10
26.8946
 20
24.2433
 30
0.0000
 40
0.3342
 50
359.9999
 51
71.0745
  0
LINE
  8
21
 10
26.8676
 20
23.8821
 30
0.0000
 11
25.9644
 21
24.6046
 31
0.0000
  0
LINE
  8
21
 10
26.3285
 20
38.8366
 30
0.0000
 11
26.3285
 21
39.2740
 31
0.0000
  0
ARC
  8
21
 10
26.7660
 20
39.2740
 30
0.0000
 40
0.4374
 50
0.0000
 51
180.0000
  0
LINE
  8
21
 10
27.2034
 20
39.2740
 30
0.0000
 11
27.2034
 21
38.8366
 31
0.0000
  0
LINE
  8
21
 10
27.2034
 20
38.8366
 30
0.0000
 11
25.6286
 21
38.8366
 31
0.0000
  0
LINE
  8
21
 10
25.6286
 20
38.8366
 30
0.0000
 11
25.6286
 21
39.2740
 31
0.0000
  0
ARC
  8
21
 10
25.9786
 20
39.2740
 30
0.0000
 40
0.3500
 50
0.0000
 51
180.0000
  0
LINE
  8
21
 10
26.5910
 20
40.9966
 30
0.0000
 11
26.5910
 21
40.6029
 31
0.0000
  0
ARC
  8
21
 10
26.8972
 20
40.6029
 30
0.0000
 40
0.3062
 50
180.0000
 51
0.0000
  0
LINE
  8
21
 10
27.2034
 20
40.6029
 30
0.0000
 11
27.2034
 21
40.9966
 31
0.0000
  0
LINE
  8
21
 10
27.2034
 20
40.9966
 30
0.0000
 11
26.4160
 21
40.9966
 31
0.0000
  0
ARC
  8
21
 10
26.4160
 20
40.7341
 30
0.0000
 40
0.2625
 50
90.0000
 51
179.9993
  0
LINE
  8
21
 10
26.1535
 20
40.7341
 30
0.0000
 11
26.1535
 21
40.3842
 31
0.0000
  0
LINE
  8
21
 10
26.7660
 20
42.2810
 30
0.0000
 11
26.5910
 21
41.8436
 31
0.0000
  0
ARC
  8
21
 10
26.3804
 20
41.9278
 30
0.0000
 40
0.2268
 50
179.1807
 51
338.1990
  0
ARC
  8
21
 10
27.1470
 20
41.9168
 30
0.0000
 40
0.9936
 50
155.7612
 51
179.1807
  0
ARC
  8
21
 10
26.9766
 20
42.1968
 30
0.0000
 40
0.2268
 50
359.1807
 51
158.1990
  0
ARC
  8
21
 10
25.7197
 20
42.2147
 30
0.0000
 40
1.4839
 50
340.2099
 51
359.1807
  0
LINE
  8
21
 10
27.2034
 20
43.7669
 30
0.0000
 11
27.2034
 21
43.3295
 31
0.0000
  0
ARC
  8
21
 10
26.9409
 20
43.3295
 30
0.0000
 40
0.2625
 50
270.0007
 51
0.0000
  0
LINE
  8
21
 10
26.9409
 20
43.0670
 30
0.0000
 11
26.5035
 21
43.0670
 31
0.0000
  0
ARC
  8
21
 10
26.5035
 20
43.4170
 30
0.0000
 40
0.3500
 50
90.0000
 51
270.0000
  0
LINE
  8
21
 10
26.5035
 20
43.7669
 30
0.0000
 11
26.6785
 21
43.7669
 31
0.0000
  0
LINE
  8
21
 10
26.6785
 20
43.7669
 30
0.0000
 11
26.6785
 21
43.0670
 31
0.0000
  0
POINT
  8
23
 10
25.0000
 20
5.0000
 30
0.0000
  0
CIRCLE
  8
21
 10
25.0000
 20
5.0000
 30
0.0000
 40
3.1789
  0
CIRCLE
  8
21
 10
25.0000
 20
5.0000
 30
0.0000
 40
1.7463
  0
POINT
  8
23
 10
25.0000
 20
49.0000
 30
0.0000
  0
CIRCLE
  8
21
 10
25.0000
 20
49.0000
 30
0.0000
 40
3.1789
  0
CIRCLE
  8
21
 10
25.0000
 20
49.0000
 30
0.0000
 40
1.7463
  0
POINT
  8
23
 10
0.0000
 20
27.0000
 30
0.0000
  0
LINE
  8
51
 10
0.1000
 20
4.2200
 30
0.0000
 11
4.0000
 21
4.2200
 31
0.0000
  0
LINE
  8
51
 10
0.1000
 20
6.2200
 30
0.0000
 11
4.0000
 21
6.2200
 31
0.0000
  0
ARC
  8
51
 10
4.0000
 20
5.2200
 30
0.0000
 40
1.0000
 50
270.0000
 51
90.0000
  0
ARC
  8
51
 10
3.0000
 20
5.2200
 30
0.0000
 40
0.5000
 50
270.0000
 51
90.0000
  0
LINE
  8
51
 10
3.0000
 20
4.7200
 30
0.0000
 11
2.0000
 21
4.7200
 31
0.0000
  0
LINE
  8
51
 10
3.0000
 20
5.7200
 30
0.0000
 11
2.0000
 21
5.7200
 31
0.0000
  0
ARC
  8
51
 10
2.0000
 20
5.2200
 30
0.0000
 40
0.5000
 50
90.0000
 51
270.0000
  0
LINE
  8
21
 10
0.1000
 20
4.2200
 30
0.0000
 11
-1.0000
 21
4.2200
 31
0.0000
  0
LINE
  8
21
 10
0.1000
 20
6.2200
 30
0.0000
 11
-1.0000
 21
6.2200
 31
0.0000
  0
LINE
  8
21
 10
-1.0000
 20
6.9500
 30
0.0000
 11
0.0000
 21
6.9500
 31
0.0000
  0
LINE
  8
21
 10
0.0000
 20
6.9500
 30
0.0000
 11
0.0000
 21
7.4500
 31
0.0000
  0
LINE
  8
21
 10
0.0000
 20
7.4500
 30
0.0000
 11
-1.0000
 21
7.4500
 31
0.0000
  0
LINE
  8
21
 10
-1.0000
 20
2.9900
 30
0.0000
 11
0.0000
 21
2.9900
 31
0.0000
  0
LINE
  8
21
 10
0.0000
 20
2.9900
 30
0.0000
 11
0.0000
 21
3.4900
 31
0.0000
  0
LINE
  8
21
 10
0.0000
 20
3.4900
 30
0.0000
 11
-1.0000
 21
3.4900
 31
0.0000
  0
LINE
  8
51
 10
0.1000
 20
8.1800
 30
0.0000
 11
4.0000
 21
8.1800
 31
0.0000
  0
LINE
  8
51
 10
0.1000
 20
10.1800
 30
0.0000
 11
4.0000
 21
10.1800
 31
0.0000
  0
ARC
  8
51
 10
4.0000
 20
9.1800
 30
0.0000
 40
1.0000
 50
270.0000
 51
90.0000
  0
ARC
  8
51
 10
3.0000
 20
9.1800
 30
0.0000
 40
0.5000
 50
270.0000
 51
90.0000
  0
LINE
  8
51
 10
3.0000
 20
8.6800
 30
0.0000
 11
2.0000
 21
8.6800
 31
0.0000
  0
LINE
  8
51
 10
3.0000
 20
9.6800
 30
0.0000
 11
2.0000
 21
9.6800
 31
0.0000
  0
ARC
  8
51
 10
2.0000
 20
9.1800
 30
0.0000
 40
0.5000
 50
90.0000
 51
270.0000
  0
LINE
  8
21
 10
0.1000
 20
8.1800
 30
0.0000
 11
-1.0000
 21
8.1800
 31
0.0000
  0
LINE
  8
21
 10
0.1000
 20
10.1800
 30
0.0000
 11
-1.0000
 21
10.1800
 31
0.0000
  0
LINE
  8
21
 10
-1.0000
 20
10.9100
 30
0.0000
 11
0.0000
 21
10.9100
 31
0.0000
  0
LINE
  8
21
 10
0.0000
 20
10.9100
 30
0.0000
 11
0.0000
 21
11.4100
 31
0.0000
  0
LINE
  8
21
 10
0.0000
 20
11.4100
 30
0.0000
 11
-1.0000
 21
11.4100
 31
0.0000
  0
LINE
  8
51
 10
0.1000
 20
12.1400
 30
0.0000
 11
4.0000
 21
12.1400
 31
0.0000
  0
LINE
  8
51
 10
0.1000
 20
14.1400
 30
0.0000
 11
4.0000
 21
14.1400
 31
0.0000
  0
ARC
  8
51
 10
4.0000
 20
13.1400
 30
0.0000
 40
1.0000
 50
270.0000
 51
90.0000
  0
ARC
  8
51
 10
3.0000
 20
13.1400
 30
0.0000
 40
0.5000
 50
270.0000
 51
90.0000
  0
LINE
  8
51
 10
3.0000
 20
12.6400
 30
0.0000
 11
2.0000
 21
12.6400
 31
0.0000
  0
LINE
  8
51
 10
3.0000
 20
13.6400
 30
0.0000
 11
2.0000
 21
13.6400
 31
0.0000
  0
ARC
  8
51
 10
2.0000
 20
13.1400
 30
0.0000
 40
0.5000
 50
90.0000
 51
270.0000
  0
LINE
  8
21
 10
0.1000
 20
12.1400
 30
0.0000
 11
-1.0000
 21
12.1400
 31
0.0000
  0
LINE
  8
21
 10
0.1000
 20
14.1400
 30
0.0000
 11
-1.0000
 21
14.1400
 31
0.0000
  0
LINE
  8
21
 10
-1.0000
 20
14.8700
 30
0.0000
 11
0.0000
 21
14.8700
 31
0.0000
  0
LINE
  8
21
 10
0.0000
 20
14.8700
 30
0.0000
 11
0.0000
 21
15.3700
 31
0.0000
  0
LINE
  8
21
 10
0.0000
 20
15.3700
 30
0.0000
 11
-1.0000
 21
15.3700
 31
0.0000
  0
LINE
  8
51
 10
0.1000
 20
16.1000
 30
0.0000
 11
4.0000
 21
16.1000
 31
0.0000
  0
LINE
  8
51
 10
0.1000
 20
18.1000
 30
0.0000
 11
4.0000
 21
18.1000
 31
0.0000
  0
ARC
  8
51
 10
4.0000
 20
17.1000
 30
0.0000
 40
1.0000
 50
270.0000
 51
90.0000
  0
ARC
  8
51
 10
3.0000
 20
17.1000
 30
0.0000
 40
0.5000
 50
270.0000
 51
90.0000
  0
LINE
  8
51
 10
3.0000
 20
16.6000
 30
0.0000
 11
2.0000
 21
16.6000
 31
0.0000
  0
LINE
  8
51
 10
3.0000
 20
17.6000
 30
0.0000
 11
2.0000
 21
17.6000
 31
0.0000
  0
ARC
  8
51
 10
2.0000
 20
17.1000
 30
0.0000
 40
0.5000
 50
90.0000
 51
270.0000
  0
LINE
  8
21
 10
0.1000
 20
16.1000
 30
0.0000
 11
-1.0000
 21
16.1000
 31
0.0000
  0
LINE
  8
21
 10
0.1000
 20
18.1000
 30
0.0000
 11
-1.0000
 21
18.1000
 31
0.0000
  0
LINE
  8
21
 10
-1.0000
 20
18.8300
 30
0.0000
 11
0.0000
 21
18.8300
 31
0.0000
  0
LINE
  8
21
 10
0.0000
 20
18.8300
 30
0.0000
 11
0.0000
 21
19.3300
 31
0.0000
  0
LINE
  8
21
 10
0.0000
 20
19.3300
 30
0.0000
 11
-1.0000
 21
19.3300
 31
0.0000
  0
LINE
  8
51
 10
0.1000
 20
20.0600
 30
0.0000
 11
4.0000
 21
20.0600
 31
0.0000
  0
LINE
  8
51
 10
0.1000
 20
22.0600
 30
0.0000
 11
4.0000
 21
22.0600
 31
0.0000
  0
ARC
  8
51
 10
4.0000
 20
21.0600
 30
0.0000
 40
1.0000
 50
270.0000
 51
90.0000
  0
ARC
  8
51
 10
3.0000
 20
21.0600
 30
0.0000
 40
0.5000
 50
270.0000
 51
90.0000
  0
LINE
  8
51
 10
3.0000
 20
20.5600
 30
0.0000
 11
2.0000
 21
20.5600
 31
0.0000
  0
LINE
  8
51
 10
3.0000
 20
21.5600
 30
0.0000
 11
2.0000
 21
21.5600
 31
0.0000
  0
ARC
  8
51
 10
2.0000
 20
21.0600
 30
0.0000
 40
0.5000
 50
90.0000
 51
270.0000
  0
LINE
  8
21
 10
0.1000
 20
20.0600
 30
0.0000
 11
-1.0000
 21
20.0600
 31
0.0000
  0
LINE
  8
21
 10
0.1000
 20
22.0600
 30
0.0000
 11
-1.0000
 21
22.0600
 31
0.0000
  0
LINE
  8
21
 10
-1.0000
 20
22.7900
 30
0.0000
 11
0.0000
 21
22.7900
 31
0.0000
  0
LINE
  8
21
 10
0.0000
 20
22.7900
 30
0.0000
 11
0.0000
 21
23.2900
 31
0.0000
  0
LINE
  8
21
 10
0.0000
 20
23.2900
 30
0.0000
 11
-1.0000
 21
23.2900
 31
0.0000
  0
LINE
  8
51
 10
0.1000
 20
24.0200
 30
0.0000
 11
4.0000
 21
24.0200
 31
0.0000
  0
LINE
  8
51
 10
0.1000
 20
26.0200
 30
0.0000
 11
4.0000
 21
26.0200
 31
0.0000
  0
ARC
  8
51
 10
4.0000
 20
25.0200
 30
0.0000
 40
1.0000
 50
270.0000
 51
90.0000
  0
ARC
  8
51
 10
3.0000
 20
25.0200
 30
0.0000
 40
0.5000
 50
270.0000
 51
90.0000
  0
LINE
  8
51
 10
3.0000
 20
24.5200
 30
0.0000
 11
2.0000
 21
24.5200
 31
0.0000
  0
LINE
  8
51
 10
3.0000
 20
25.5200
 30
0.0000
 11
2.0000
 21
25.5200
 31
0.0000
  0
ARC
  8
51
 10
2.0000
 20
25.0200
 30
0.0000
 40
0.5000
 50
90.0000
 51
270.0000
  0
LINE
  8
21
 10
0.1000
 20
24.0200
 30
0.0000
 11
-1.0000
 21
24.0200
 31
0.0000
  0
LINE
  8
21
 10
0.1000
 20
26.0200
 30
0.0000
 11
-1.0000
 21
26.0200
 31
0.0000
  0
LINE
  8
21
 10
-1.0000
 20
26.7500
 30
0.0000
 11
0.0000
 21
26.7500
 31
0.0000
  0
LINE
  8
21
 10
0.0000
 20
26.7500
 30
0.0000
 11
0.0000
 21
27.2500
 31
0.0000
  0
LINE
  8
21
 10
0.0000
 20
27.2500
 30
0.0000
 11
-1.0000
 21
27.2500
 31
0.0000
  0
LINE
  8
51
 10
0.1000
 20
27.9800
 30
0.0000
 11
4.0000
 21
27.9800
 31
0.0000
  0
LINE
  8
51
 10
0.1000
 20
29.9800
 30
0.0000
 11
4.0000
 21
29.9800
 31
0.0000
  0
ARC
  8
51
 10
4.0000
 20
28.9800
 30
0.0000
 40
1.0000
 50
270.0000
 51
90.0000
  0
ARC
  8
51
 10
3.0000
 20
28.9800
 30
0.0000
 40
0.5000
 50
270.0000
 51
90.0000
  0
LINE
  8
51
 10
3.0000
 20
28.4800
 30
0.0000
 11
2.0000
 21
28.4800
 31
0.0000
  0
LINE
  8
51
 10
3.0000
 20
29.4800
 30
0.0000
 11
2.0000
 21
29.4800
 31
0.0000
  0
ARC
  8
51
 10
2.0000
 20
28.9800
 30
0.0000
 40
0.5000
 50
90.0000
 51
270.0000
  0
LINE
  8
21
 10
0.1000
 20
27.9800
 30
0.0000
 11
-1.0000
 21
27.9800
 31
0.0000
  0
LINE
  8
21
 10
0.1000
 20
29.9800
 30
0.0000
 11
-1.0000
 21
29.9800
 31
0.0000
  0
LINE
  8
21
 10
-1.0000
 20
30.7100
 30
0.0000
 11
0.0000
 21
30.7100
 31
0.0000
  0
LINE
  8
21
 10
0.0000
 20
30.7100
 30
0.0000
 11
0.0000
 21
31.2100
 31
0.0000
  0
LINE
  8
21
 10
0.0000
 20
31.2100
 30
0.0000
 11
-1.0000
 21
31.2100
 31
0.0000
  0
LINE
  8
51
 10
0.1000
 20
31.9400
 30
0.0000
 11
4.0000
 21
31.9400
 31
0.0000
  0
LINE
  8
51
 10
0.1000
 20
33.9400
 30
0.0000
 11
4.0000
 21
33.9400
 31
0.0000
  0
ARC
  8
51
 10
4.0000
 20
32.9400
 30
0.0000
 40
1.0000
 50
270.0000
 51
90.0000
  0
ARC
  8
51
 10
3.0000
 20
32.9400
 30
0.0000
 40
0.5000
 50
270.0000
 51
90.0000
  0
LINE
  8
51
 10
3.0000
 20
32.4400
 30
0.0000
 11
2.0000
 21
32.4400
 31
0.0000
  0
LINE
  8
51
 10
3.0000
 20
33.4400
 30
0.0000
 11
2.0000
 21
33.4400
 31
0.0000
  0
ARC
  8
51
 10
2.0000
 20
32.9400
 30
0.0000
 40
0.5000
 50
90.0000
 51
270.0000
  0
LINE
  8
21
 10
0.1000
 20
31.9400
 30
0.0000
 11
-1.0000
 21
31.9400
 31
0.0000
  0
LINE
  8
21
 10
0.1000
 20
33.9400
 30
0.0000
 11
-1.0000
 21
33.9400
 31
0.0000
  0
LINE
  8
21
 10
-1.0000
 20
34.6700
 30
0.0000
 11
0.0000
 21
34.6700
 31
0.0000
  0
LINE
  8
21
 10
0.0000
 20
34.6700
 30
0.0000
 11
0.0000
 21
35.1700
 31
0.0000
  0
LINE
  8
21
 10
0.0000
 20
35.1700
 30
0.0000
 11
-1.0000
 21
35.1700
 31
0.0000
  0
LINE
  8
51
 10
0.1000
 20
35.9000
 30
0.0000
 11
4.0000
 21
35.9000
 31
0.0000
  0
LINE
  8
51
 10
0.1000
 20
37.9000
 30
0.0000
 11
4.0000
 21
37.9000
 31
0.0000
  0
ARC
  8
51
 10
4.0000
 20
36.9000
 30
0.0000
 40
1.0000
 50
270.0000
 51
90.0000
  0
ARC
  8
51
 10
3.0000
 20
36.9000
 30
0.0000
 40
0.5000
 50
270.0000
 51
90.0000
  0
LINE
  8
51
 10
3.0000
 20
36.4000
 30
0.0000
 11
2.0000
 21
36.4000
 31
0.0000
  0
LINE
  8
51
 10
3.0000
 20
37.4000
 30
0.0000
 11
2.0000
 21
37.4000
 31
0.0000
  0
ARC
  8
51
 10
2.0000
 20
36.9000
 30
0.0000
 40
0.5000
 50
90.0000
 51
270.0000
  0
LINE
  8
21
 10
0.1000
 20
35.9000
 30
0.0000
 11
-1.0000
 21
35.9000
 31
0.0000
  0
LINE
  8
21
 10
0.1000
 20
37.9000
 30
0.0000
 11
-1.0000
 21
37.9000
 31
0.0000
  0
LINE
  8
21
 10
-1.0000
 20
38.6300
 30
0.0000
 11
0.0000
 21
38.6300
 31
0.0000
  0
LINE
  8
21
 10
0.0000
 20
38.6300
 30
0.0000
 11
0.0000
 21
39.1300
 31
0.0000
  0
LINE
  8
21
 10
0.0000
 20
39.1300
 30
0.0000
 11
-1.0000
 21
39.1300
 31
0.0000
  0
LINE
  8
51
 10
0.1000
 20
39.8600
 30
0.0000
 11
4.0000
 21
39.8600
 31
0.0000
  0
LINE
  8
51
 10
0.1000
 20
41.8600
 30
0.0000
 11
4.0000
 21
41.8600
 31
0.0000
  0
ARC
  8
51
 10
4.0000
 20
40.8600
 30
0.0000
 40
1.0000
 50
270.0000
 51
90.0000
  0
ARC
  8
51
 10
3.0000
 20
40.8600
 30
0.0000
 40
0.5000
 50
270.0000
 51
90.0000
  0
LINE
  8
51
 10
3.0000
 20
40.3600
 30
0.0000
 11
2.0000
 21
40.3600
 31
0.0000
  0
LINE
  8
51
 10
3.0000
 20
41.3600
 30
0.0000
 11
2.0000
 21
41.3600
 31
0.0000
  0
ARC
  8
51
 10
2.0000
 20
40.8600
 30
0.0000
 40
0.5000
 50
90.0000
 51
270.0000
  0
LINE
  8
21
 10
0.1000
 20
39.8600
 30
0.0000
 11
-1.0000
 21
39.8600
 31
0.0000
  0
LINE
  8
21
 10
0.1000
 20
41.8600
 30
0.0000
 11
-1.0000
 21
41.8600
 31
0.0000
  0
LINE
  8
21
 10
-1.0000
 20
42.5900
 30
0.0000
 11
0.0000
 21
42.5900
 31
0.0000
  0
LINE
  8
21
 10
0.0000
 20
42.5900
 30
0.0000
 11
0.0000
 21
43.0900
 31
0.0000
  0
LINE
  8
21
 10
0.0000
 20
43.0900
 30
0.0000
 11
-1.0000
 21
43.0900
 31
0.0000
  0
LINE
  8
51
 10
0.1000
 20
43.8200
 30
0.0000
 11
4.0000
 21
43.8200
 31
0.0000
  0
LINE
  8
51
 10
0.1000
 20
45.8200
 30
0.0000
 11
4.0000
 21
45.8200
 31
0.0000
  0
ARC
  8
51
 10
4.0000
 20
44.8200
 30
0.0000
 40
1.0000
 50
270.0000
 51
90.0000
  0
ARC
  8
51
 10
3.0000
 20
44.8200
 30
0.0000
 40
0.5000
 50
270.0000
 51
90.0000
  0
LINE
  8
51
 10
3.0000
 20
44.3200
 30
0.0000
 11
2.0000
 21
44.3200
 31
0.0000
  0
LINE
  8
51
 10
3.0000
 20
45.3200
 30
0.0000
 11
2.0000
 21
45.3200
 31
0.0000
  0
ARC
  8
51
 10
2.0000
 20
44.8200
 30
0.0000
 40
0.5000
 50
90.0000
 51
270.0000
  0
LINE
  8
21
 10
0.1000
 20
43.8200
 30
0.0000
 11
-1.0000
 21
43.8200
 31
0.0000
  0
LINE
  8
21
 10
0.1000
 20
45.8200
 30
0.0000
 11
-1.0000
 21
45.8200
 31
0.0000
  0
LINE
  8
21
 10
-1.0000
 20
46.5500
 30
0.0000
 11
0.0000
 21
46.5500
 31
0.0000
  0
LINE
  8
21
 10
0.0000
 20
46.5500
 30
0.0000
 11
0.0000
 21
47.0500
 31
0.0000
  0
LINE
  8
21
 10
0.0000
 20
47.0500
 30
0.0000
 11
-1.0000
 21
47.0500
 31
0.0000
  0
LINE
  8
51
 10
0.1000
 20
47.7800
 30
0.0000
 11
4.0000
 21
47.7800
 31
0.0000
  0
LINE
  8
51
 10
0.1000
 20
49.7800
 30
0.0000
 11
4.0000
 21
49.7800
 31
0.0000
  0
ARC
  8
51
 10
4.0000
 20
48.7800
 30
0.0000
 40
1.0000
 50
270.0000
 51
90.0000
  0
ARC
  8
51
 10
3.0000
 20
48.7800
 30
0.0000
 40
0.5000
 50
270.0000
 51
90.0000
  0
LINE
  8
51
 10
3.0000
 20
48.2800
 30
0.0000
 11
2.0000
 21
48.2800
 31
0.0000
  0
LINE
  8
51
 10
3.0000
 20
49.2800
 30
0.0000
 11
2.0000
 21
49.2800
 31
0.0000
  0
ARC
  8
51
 10
2.0000
 20
48.7800
 30
0.0000
 40
0.5000
 50
90.0000
 51
270.0000
  0
LINE
  8
21
 10
0.1000
 20
47.7800
 30
0.0000
 11
-1.0000
 21
47.7800
 31
0.0000
  0
LINE
  8
21
 10
0.1000
 20
49.7800
 30
0.0000
 11
-1.0000
 21
49.7800
 31
0.0000
  0
LINE
  8
21
 10
-1.0000
 20
50.5100
 30
0.0000
 11
0.0000
 21
50.5100
 31
0.0000
  0
LINE
  8
21
 10
0.0000
 20
50.5100
 30
0.0000
 11
0.0000
 21
51.0100
 31
0.0000
  0
LINE
  8
21
 10
0.0000
 20
51.0100
 30
0.0000
 11
-1.0000
 21
51.0100
 31
0.0000
  0
LINE
  8
21
 10
0.0000
 20
-7.2500
 30
0.0000
 11
-6.8000
 21
-7.2500
 31
0.0000
  0
LINE
  8
21
 10
0.0000
 20
61.2500
 30
0.0000
 11
-6.8000
 21
61.2500
 31
0.0000
  0
LINE
  8
21
 10
-1.0000
 20
0.2000
 30
0.0000
 11
-1.0000
 21
53.8000
 31
0.0000
  0
LINE
  8
21
 10
-1.0000
 20
53.8000
 30
0.0000
 11
0.0000
 21
53.8000
 31
0.0000
  0
LINE
  8
21
 10
0.0000
 20
53.8000
 30
0.0000
 11
0.0000
 21
56.3000
 31
0.0000
  0
LINE
  8
21
 10
0.0000
 20
56.3000
 30
0.0000
 11
0.0000
 21
58.0000
 31
0.0000
  0
LINE
  8
21
 10
0.0000
 20
58.0000
 30
0.0000
 11
0.0000
 21
59.7000
 31
0.0000
  0
LINE
  8
21
 10
0.0000
 20
59.7000
 30
0.0000
 11
0.0000
 21
61.2500
 31
0.0000
  0
LINE
  8
21
 10
0.0000
 20
-7.2500
 30
0.0000
 11
0.0000
 21
-5.7000
 31
0.0000
  0
LINE
  8
21
 10
0.0000
 20
-5.7000
 30
0.0000
 11
0.0000
 21
-4.0000
 31
0.0000
  0
LINE
  8
21
 10
0.0000
 20
-4.0000
 30
0.0000
 11
0.0000
 21
-2.3000
 31
0.0000
  0
LINE
  8
21
 10
0.0000
 20
-2.3000
 30
0.0000
 11
0.0000
 21
0.2000
 31
0.0000
  0
LINE
  8
21
 10
0.0000
 20
0.2000
 30
0.0000
 11
-1.0000
 21
0.2000
 31
0.0000
  0
LINE
  8
21
 10
-11.6000
 20
-0.5000
 30
0.0000
 11
-11.6000
 21
54.5000
 31
0.0000
  0
LINE
  8
21
 10
-11.6000
 20
54.5000
 30
0.0000
 11
-6.8000
 21
54.5000
 31
0.0000
  0
LINE
  8
21
 10
-6.8000
 20
54.5000
 30
0.0000
 11
-6.8000
 21
56.3000
 31
0.0000
  0
LINE
  8
21
 10
-6.8000
 20
56.3000
 30
0.0000
 11
-6.8000
 21
59.7000
 31
0.0000
  0
LINE
  8
21
 10
-6.8000
 20
59.7000
 30
0.0000
 11
-6.8000
 21
61.2500
 31
0.0000
  0
LINE
  8
21
 10
-6.8000
 20
-7.2500
 30
0.0000
 11
-6.8000
 21
-5.7000
 31
0.0000
  0
LINE
  8
21
 10
-6.8000
 20
-5.7000
 30
0.0000
 11
-6.8000
 21
-2.3000
 31
0.0000
  0
LINE
  8
21
 10
-6.8000
 20
-2.3000
 30
0.0000
 11
-6.8000
 21
-0.5000
 31
0.0000
  0
LINE
  8
21
 10
-6.8000
 20
-0.5000
 30
0.0000
 11
-11.6000
 21
-0.5000
 31
0.0000
  0
LINE
  8
21
 10
0.0000
 20
58.0000
 30
0.0000
 11
-2.8667
 21
58.0000
 31
0.0000
  0
LINE
  8
21
 10
-3.5480
 20
58.0000
 30
0.0000
 11
-3.6853
 21
58.0000
 31
0.0000
  0
LINE
  8
21
 10
-4.3667
 20
58.0000
 30
0.0000
 11
-7.2333
 21
58.0000
 31
0.0000
  0
LINE
  8
21
 10
-7.9147
 20
58.0000
 30
0.0000
 11
-8.0520
 21
58.0000
 31
0.0000
  0
LINE
  8
21
 10
-8.7333
 20
58.0000
 30
0.0000
 11
-11.6000
 21
58.0000
 31
0.0000
  0
LINE
  8
21
 10
-11.6000
 20
-4.0000
 30
0.0000
 11
-8.7333
 21
-4.0000
 31
0.0000
  0
LINE
  8
21
 10
-8.0520
 20
-4.0000
 30
0.0000
 11
-7.9147
 21
-4.0000
 31
0.0000
  0
LINE
  8
21
 10
-7.2333
 20
-4.0000
 30
0.0000
 11
-4.3667
 21
-4.0000
 31
0.0000
  0
LINE
  8
21
 10
-3.6853
 20
-4.0000
 30
0.0000
 11
-3.5480
 21
-4.0000
 31
0.0000
  0
LINE
  8
21
 10
-2.8667
 20
-4.0000
 30
0.0000
 11
0.0000
 21
-4.0000
 31
0.0000
  0
LINE
  8
21
 10
-6.8000
 20
59.7000
 30
0.0000
 11
-5.2000
 21
59.7000
 31
0.0000
  0
LINE
  8
21
 10
-4.2000
 20
59.7000
 30
0.0000
 11
-2.6000
 21
59.7000
 31
0.0000
  0
LINE
  8
21
 10
-1.6000
 20
59.7000
 30
0.0000
 11
0.0000
 21
59.7000
 31
0.0000
  0
LINE
  8
21
 10
-6.8000
 20
56.3000
 30
0.0000
 11
-5.2000
 21
56.3000
 31
0.0000
  0
LINE
  8
21
 10
-4.2000
 20
56.3000
 30
0.0000
 11
-2.6000
 21
56.3000
 31
0.0000
  0
LINE
  8
21
 10
-1.6000
 20
56.3000
 30
0.0000
 11
0.0000
 21
56.3000
 31
0.0000
  0
LINE
  8
21
 10
-6.8000
 20
-5.7000
 30
0.0000
 11
-5.2000
 21
-5.7000
 31
0.0000
  0
LINE
  8
21
 10
-4.2000
 20
-5.7000
 30
0.0000
 11
-2.6000
 21
-5.7000
 31
0.0000
  0
LINE
  8
21
 10
-1.6000
 20
-5.7000
 30
0.0000
 11
0.0000
 21
-5.7000
 31
0.0000
  0
LINE
  8
21
 10
-6.8000
 20
-2.3000
 30
0.0000
 11
-5.2000
 21
-2.3000
 31
0.0000
  0
LINE
  8
21
 10
-4.2000
 20
-2.3000
 30
0.0000
 11
-2.6000
 21
-2.3000
 31
0.0000
  0
LINE
  8
21
 10
-1.6000
 20
-2.3000
 30
0.0000
 11
0.0000
 21
-2.3000
 31
0.0000
  0
POINT
  8
23
 10
15.2375
 20
27.1588
 30
0.0000
  0
LINE
  8
21
 10
10.6337
 20
6.8388
 30
0.0000
 11
10.6337
 21
47.4788
 31
0.0000
  0
LINE
  8
21
 10
10.6337
 20
47.4788
 30
0.0000
 11
12.0625
 21
47.4788
 31
0.0000
  0
LINE
  8
21
 10
12.0625
 20
47.4788
 30
0.0000
 11
13.4912
 21
47.4788
 31
0.0000
  0
LINE
  8
21
 10
13.4912
 20
47.4788
 30
0.0000
 11
19.8413
 21
47.4788
 31
0.0000
  0
LINE
  8
21
 10
19.8413
 20
47.4788
 30
0.0000
 11
19.8413
 21
29.2226
 31
0.0000
  0
LINE
  8
21
 10
19.8413
 20
29.2226
 30
0.0000
 11
19.8413
 21
25.0950
 31
0.0000
  0
LINE
  8
21
 10
19.8413
 20
25.0950
 30
0.0000
 11
19.8413
 21
6.8388
 31
0.0000
  0
LINE
  8
21
 10
19.8413
 20
6.8388
 30
0.0000
 11
13.4912
 21
6.8388
 31
0.0000
  0
LINE
  8
21
 10
13.4912
 20
6.8388
 30
0.0000
 11
12.0625
 21
6.8388
 31
0.0000
  0
LINE
  8
21
 10
12.0625
 20
6.8388
 30
0.0000
 11
10.6337
 21
6.8388
 31
0.0000
  0
LINE
  8
21
 10
11.9037
 20
8.1088
 30
0.0000
 11
11.9037
 21
46.2088
 31
0.0000
  0
LINE
  8
21
 10
11.9037
 20
46.2088
 30
0.0000
 11
12.0625
 21
46.2088
 31
0.0000
  0
LINE
  8
21
 10
12.0625
 20
46.2088
 30
0.0000
 11
13.4912
 21
46.2088
 31
0.0000
  0
LINE
  8
21
 10
13.4912
 20
46.2088
 30
0.0000
 11
18.5713
 21
46.2088
 31
0.0000
  0
LINE
  8
21
 10
18.5713
 20
46.2088
 30
0.0000
 11
18.5713
 21
29.2226
 31
0.0000
  0
LINE
  8
21
 10
18.5713
 20
29.2226
 30
0.0000
 11
18.5713
 21
25.0950
 31
0.0000
  0
LINE
  8
21
 10
18.5713
 20
25.0950
 30
0.0000
 11
18.5713
 21
8.1088
 31
0.0000
  0
LINE
  8
21
 10
18.5713
 20
8.1088
 30
0.0000
 11
13.4912
 21
8.1088
 31
0.0000
  0
LINE
  8
21
 10
13.4912
 20
8.1088
 30
0.0000
 11
12.0625
 21
8.1088
 31
0.0000
  0
LINE
  8
21
 10
12.0625
 20
8.1088
 30
0.0000
 11
11.9037
 21
8.1088
 31
0.0000
  0
LINE
  8
21
 10
18.5713
 20
25.0950
 30
0.0000
 11
19.0475
 21
25.0950
 31
0.0000
  0
LINE
  8
21
 10
19.0475
 20
25.0950
 30
0.0000
 11
19.8413
 21
25.0950
 31
0.0000
  0
LINE
  8
21
 10
18.5713
 20
29.2226
 30
0.0000
 11
19.0475
 21
29.2226
 31
0.0000
  0
LINE
  8
21
 10
19.0475
 20
29.2226
 30
0.0000
 11
19.8413
 21
29.2226
 31
0.0000
  0
LINE
  8
21
 10
12.0625
 20
46.2088
 30
0.0000
 11
12.0625
 21
46.6851
 31
0.0000
  0
LINE
  8
21
 10
12.0625
 20
46.6851
 30
0.0000
 11
12.0625
 21
47.4788
 31
0.0000
  0
LINE
  8
21
 10
12.0625
 20
8.1088
 30
0.0000
 11
12.0625
 21
7.6325
 31
0.0000
  0
LINE
  8
21
 10
12.0625
 20
7.6325
 30
0.0000
 11
12.0625
 21
6.8388
 31
0.0000
  0
LINE
  8
21
 10
13.4912
 20
8.1088
 30
0.0000
 11
13.4912
 21
7.6325
 31
0.0000
  0
LINE
  8
21
 10
13.4912
 20
7.6325
 30
0.0000
 11
13.4912
 21
6.8388
 31
0.0000
  0
LINE
  8
21
 10
13.4912
 20
46.2088
 30
0.0000
 11
13.4912
 21
46.6851
 31
0.0000
  0
LINE
  8
21
 10
13.4912
 20
46.6851
 30
0.0000
 11
13.4912
 21
47.4788
 31
0.0000
  0
LINE
  8
21
 10
11.4275
 20
7.6325
 30
0.0000
 11
11.4275
 21
46.6851
 31
0.0000
  0
LINE
  8
21
 10
19.0475
 20
29.2226
 30
0.0000
 11
19.0475
 21
46.6851
 31
0.0000
  0
LINE
  8
21
 10
13.4912
 20
46.6851
 30
0.0000
 11
19.0475
 21
46.6851
 31
0.0000
  0
LINE
  8
21
 10
11.4275
 20
7.6325
 30
0.0000
 11
12.0625
 21
7.6325
 31
0.0000
  0
LINE
  8
21
 10
13.4912
 20
7.6325
 30
0.0000
 11
19.0475
 21
7.6325
 31
0.0000
  0
LINE
  8
21
 10
19.0475
 20
25.0950
 30
0.0000
 11
19.0475
 21
7.6325
 31
0.0000
  0
LINE
  8
21
 10
12.0625
 20
46.6851
 30
0.0000
 11
11.4275
 21
46.6851
 31
0.0000
  0
LINE
  8
21
 10
18.5713
 20
46.2088
 30
0.0000
 11
19.0475
 21
46.6851
 31
0.0000
  0
LINE
  8
21
 10
11.9037
 20
46.2088
 30
0.0000
 11
11.4275
 21
46.6851
 31
0.0000
  0
LINE
  8
21
 10
11.4275
 20
7.6325
 30
0.0000
 11
11.9037
 21
8.1088
 31
0.0000
  0
LINE
  8
21
 10
19.0475
 20
7.6325
 30
0.0000
 11
18.5713
 21
8.1088
 31
0.0000
  0
ARC
  8
21
 10
10.6337
 20
8.7438
 30
0.0000
 40
0.6350
 50
90.0000
 51
270.0000
  0
ARC
  8
21
 10
10.6337
 20
45.5738
 30
0.0000
 40
0.6350
 50
90.0000
 51
270.0000
  0
ARC
  8
21
 10
10.6337
 20
27.0794
 30
0.0000
 40
0.5556
 50
90.0000
 51
270.0000
  0
LINE
  8
21
 10
17.6187
 20
11.9188
 30
0.0000
 11
18.2537
 21
11.2838
 31
0.0000
  0
LINE
  8
21
 10
18.2537
 20
11.2838
 30
0.0000
 11
18.2537
 21
11.4425
 31
0.0000
  0
LINE
  8
21
 10
18.2537
 20
12.2363
 30
0.0000
 11
18.2537
 21
12.3950
 31
0.0000
  0
LINE
  8
21
 10
18.2537
 20
12.3950
 30
0.0000
 11
18.2537
 21
12.5538
 31
0.0000
  0
LINE
  8
21
 10
18.2537
 20
12.5538
 30
0.0000
 11
17.6187
 21
11.9188
 31
0.0000
  0
LINE
  8
21
 10
18.2537
 20
12.3950
 30
0.0000
 11
17.7775
 21
11.9188
 31
0.0000
  0
LINE
  8
21
 10
17.7775
 20
11.9188
 30
0.0000
 11
18.2537
 21
11.4425
 31
0.0000
  0
LINE
  8
21
 10
18.2537
 20
11.4425
 30
0.0000
 11
18.2537
 21
11.6013
 31
0.0000
  0
LINE
  8
21
 10
18.2537
 20
12.0775
 30
0.0000
 11
18.2537
 21
12.2363
 31
0.0000
  0
LINE
  8
21
 10
18.2537
 20
12.2363
 30
0.0000
 11
17.9362
 21
11.9188
 31
0.0000
  0
LINE
  8
21
 10
17.9362
 20
11.9188
 30
0.0000
 11
18.2537
 21
11.6013
 31
0.0000
  0
LINE
  8
21
 10
18.2537
 20
11.6013
 30
0.0000
 11
18.2537
 21
11.7599
 31
0.0000
  0
LINE
  8
21
 10
18.2537
 20
11.7599
 30
0.0000
 11
18.2537
 21
12.0775
 31
0.0000
  0
LINE
  8
21
 10
18.2537
 20
12.0775
 30
0.0000
 11
18.0950
 21
11.9188
 31
0.0000
  0
LINE
  8
21
 10
18.0950
 20
11.9188
 30
0.0000
 11
18.2537
 21
11.7599
 31
0.0000
  0
INSERT
  8
51
  2
RECT
 10
16.5075
 20
11.9188
 30
0.0000
 41
0.5080
 42
0.5080
 43
1.0000
 50
90.0000
  0
INSERT
  8
51
  2
RECT
 10
13.9675
 20
11.9188
 30
0.0000
 41
0.5080
 42
0.5080
 43
1.0000
 50
90.0000
  0
INSERT
  8
51
  2
RECT
 10
13.9675
 20
14.4588
 30
0.0000
 41
0.5080
 42
0.5080
 43
1.0000
 50
90.0000
  0
INSERT
  8
51
  2
RECT
 10
16.5075
 20
14.4588
 30
0.0000
 41
0.5080
 42
0.5080
 43
1.0000
 50
90.0000
  0
INSERT
  8
51
  2
RECT
 10
13.9675
 20
16.9988
 30
0.0000
 41
0.5080
 42
0.5080
 43
1.0000
 50
90.0000
  0
INSERT
  8
51
  2
RECT
 10
16.5075
 20
16.9988
 30
0.0000
 41
0.5080
 42
0.5080
 43
1.0000
 50
90.0000
  0
INSERT
  8
51
  2
RECT
 10
13.9675
 20
19.5388
 30
0.0000
 41
0.5080
 42
0.5080
 43
1.0000
 50
90.0000
  0
INSERT
  8
51
  2
RECT
 10
16.5075
 20
19.5388
 30
0.0000
 41
0.5080
 42
0.5080
 43
1.0000
 50
90.0000
  0
INSERT
  8
51
  2
RECT
 10
13.9675
 20
22.0787
 30
0.0000
 41
0.5080
 42
0.5080
 43
1.0000
 50
90.0000
  0
INSERT
  8
51
  2
RECT
 10
16.5075
 20
22.0787
 30
0.0000
 41
0.5080
 42
0.5080
 43
1.0000
 50
90.0000
  0
INSERT
  8
51
  2
RECT
 10
13.9675
 20
24.6188
 30
0.0000
 41
0.5080
 42
0.5080
 43
1.0000
 50
90.0000
  0
INSERT
  8
51
  2
RECT
 10
16.5075
 20
24.6188
 30
0.0000
 41
0.5080
 42
0.5080
 43
1.0000
 50
90.0000
  0
INSERT
  8
51
  2
RECT
 10
13.9675
 20
27.1588
 30
0.0000
 41
0.5080
 42
0.5080
 43
1.0000
 50
90.0000
  0
INSERT
  8
51
  2
RECT
 10
16.5075
 20
27.1588
 30
0.0000
 41
0.5080
 42
0.5080
 43
1.0000
 50
90.0000
  0
INSERT
  8
51
  2
RECT
 10
13.9675
 20
29.6988
 30
0.0000
 41
0.5080
 42
0.5080
 43
1.0000
 50
90.0000
  0
INSERT
  8
51
  2
RECT
 10
16.5075
 20
29.6988
 30
0.0000
 41
0.5080
 42
0.5080
 43
1.0000
 50
90.0000
  0
INSERT
  8
51
  2
RECT
 10
13.9675
 20
32.2388
 30
0.0000
 41
0.5080
 42
0.5080
 43
1.0000
 50
90.0000
  0
INSERT
  8
51
  2
RECT
 10
16.5075
 20
32.2388
 30
0.0000
 41
0.5080
 42
0.5080
 43
1.0000
 50
90.0000
  0
INSERT
  8
51
  2
RECT
 10
13.9675
 20
34.7788
 30
0.0000
 41
0.5080
 42
0.5080
 43
1.0000
 50
90.0000
  0
INSERT
  8
51
  2
RECT
 10
16.5075
 20
34.7788
 30
0.0000
 41
0.5080
 42
0.5080
 43
1.0000
 50
90.0000
  0
INSERT
  8
51
  2
RECT
 10
13.9675
 20
37.3188
 30
0.0000
 41
0.5080
 42
0.5080
 43
1.0000
 50
90.0000
  0
INSERT
  8
51
  2
RECT
 10
16.5075
 20
37.3188
 30
0.0000
 41
0.5080
 42
0.5080
 43
1.0000
 50
90.0000
  0
INSERT
  8
51
  2
RECT
 10
13.9675
 20
39.8588
 30
0.0000
 41
0.5080
 42
0.5080
 43
1.0000
 50
90.0000
  0
INSERT
  8
51
  2
RECT
 10
16.5075
 20
39.8588
 30
0.0000
 41
0.5080
 42
0.5080
 43
1.0000
 50
90.0000
  0
INSERT
  8
51
  2
RECT
 10
13.9675
 20
42.3987
 30
0.0000
 41
0.5080
 42
0.5080
 43
1.0000
 50
90.0000
  0
INSERT
  8
51
  2
RECT
 10
16.5075
 20
42.3987
 30
0.0000
 41
0.5080
 42
0.5080
 43
1.0000
 50
90.0000
  0
POINT
  8
23
 10
48.0000
 20
27.0000
 30
0.0000
  0
LINE
  8
20
 10
48.0000
 20
4.1200
 30
0.0000
 11
48.0000
 21
9.5600
 31
0.0000
  0
ARC
  8
20
 10
47.2000
 20
9.5600
 30
0.0000
 40
0.8000
 50
0.0000
 51
90.0000
  0
LINE
  8
20
 10
47.2000
 20
10.3600
 30
0.0000
 11
38.0000
 21
10.3600
 31
0.0000
  0
LINE
  8
20
 10
38.0000
 20
11.9600
 30
0.0000
 11
47.2000
 21
11.9600
 31
0.0000
  0
ARC
  8
20
 10
47.2000
 20
12.7600
 30
0.0000
 40
0.8000
 50
270.0000
 51
0.0000
  0
LINE
  8
20
 10
48.0000
 20
12.7600
 30
0.0000
 11
48.0000
 21
37.2800
 31
0.0000
  0
LINE
  8
20
 10
48.0000
 20
4.1200
 30
0.0000
 11
48.0000
 21
2.5000
 31
0.0000
  0
ARC
  8
20
 10
38.0000
 20
11.1600
 30
0.0000
 40
0.8000
 50
180.0000
 51
270.0000
  0
ARC
  8
20
 10
38.0000
 20
11.1600
 30
0.0000
 40
0.8000
 50
90.0000
 51
180.0000
  0
ARC
  8
20
 10
47.2000
 20
37.2800
 30
0.0000
 40
0.8000
 50
0.0000
 51
90.0000
  0
LINE
  8
20
 10
47.2000
 20
38.0800
 30
0.0000
 11
38.0000
 21
38.0800
 31
0.0000
  0
LINE
  8
20
 10
38.0000
 20
39.6800
 30
0.0000
 11
47.2000
 21
39.6800
 31
0.0000
  0
ARC
  8
20
 10
47.2000
 20
40.4800
 30
0.0000
 40
0.8000
 50
270.0000
 51
0.0000
  0
ARC
  8
20
 10
38.0000
 20
38.8800
 30
0.0000
 40
0.8000
 50
180.0000
 51
270.0000
  0
ARC
  8
20
 10
38.0000
 20
38.8800
 30
0.0000
 40
0.8000
 50
90.0000
 51
180.0000
  0
LINE
  8
20
 10
47.0000
 20
1.5000
 30
0.0000
 11
37.0000
 21
1.5000
 31
0.0000
  0
ARC
  8
20
 10
37.0000
 20
0.5000
 30
0.0000
 40
1.0000
 50
90.0000
 51
180.0000
  0
LINE
  8
20
 10
47.0000
 20
1.5000
 30
0.0000
 11
48.0000
 21
2.5000
 31
0.0000
  0
LINE
  8
20
 10
47.0000
 20
52.5000
 30
0.0000
 11
37.0000
 21
52.5000
 31
0.0000
  0
ARC
  8
20
 10
37.0000
 20
53.5000
 30
0.0000
 40
1.0000
 50
180.0000
 51
270.0000
  0
LINE
  8
20
 10
47.0000
 20
52.5000
 30
0.0000
 11
48.0000
 21
51.5000
 31
0.0000
  0
LINE
  8
20
 10
48.0000
 20
51.5000
 30
0.0000
 11
48.0000
 21
40.4800
 31
0.0000
  0
LINE
  8
21
 10
36.0404
 20
5.1708
 30
0.0000
 11
35.7808
 21
5.4954
 31
0.0000
  0
LINE
  8
21
 10
35.7808
 20
5.4954
 30
0.0000
 11
36.9492
 21
5.4954
 31
0.0000
  0
LINE
  8
21
 10
36.9492
 20
5.1708
 30
0.0000
 11
36.9492
 21
5.8199
 31
0.0000
  0
POINT
  8
23
 10
0.0000
 20
68.4213
 30
0.0000
  0
LINE
  8
48
 10
54.6100
 20
68.4213
 30
0.0000
 11
54.6100
 21
71.5962
 31
0.0000
  0
LINE
  8
48
 10
54.6100
 20
71.5962
 30
0.0000
 11
54.6100
 21
74.7713
 31
0.0000
  0
LINE
  8
48
 10
54.6100
 20
74.7713
 30
0.0000
 11
54.6100
 21
77.9463
 31
0.0000
  0
LINE
  8
48
 10
54.6100
 20
77.9463
 30
0.0000
 11
54.6100
 21
81.1213
 31
0.0000
  0
LINE
  8
48
 10
54.6100
 20
81.1213
 30
0.0000
 11
54.6100
 21
84.2963
 31
0.0000
  0
LINE
  8
48
 10
54.6100
 20
84.2963
 30
0.0000
 11
22.8600
 21
84.2963
 31
0.0000
  0
LINE
  8
48
 10
22.8600
 20
84.2963
 30
0.0000
 11
0.0000
 21
84.2963
 31
0.0000
  0
LINE
  8
48
 10
0.0000
 20
84.2963
 30
0.0000
 11
0.0000
 21
77.9463
 31
0.0000
  0
LINE
  8
48
 10
0.0000
 20
77.9463
 30
0.0000
 11
0.0000
 21
74.7713
 31
0.0000
  0
LINE
  8
48
 10
0.0000
 20
74.7713
 30
0.0000
 11
0.0000
 21
71.5962
 31
0.0000
  0
LINE
  8
48
 10
0.0000
 20
71.5962
 30
0.0000
 11
0.0000
 21
68.4213
 31
0.0000
  0
LINE
  8
48
 10
0.0000
 20
68.4213
 30
0.0000
 11
54.6100
 21
68.4213
 31
0.0000
  0
LINE
  8
48
 10
0.0000
 20
71.5962
 30
0.0000
 11
36.8300
 21
71.5962
 31
0.0000
  0
LINE
  8
48
 10
36.8300
 20
71.5962
 30
0.0000
 11
54.6100
 21
71.5962
 31
0.0000
  0
LINE
  8
48
 10
0.0000
 20
74.7713
 30
0.0000
 11
36.8300
 21
74.7713
 31
0.0000
  0
LINE
  8
48
 10
36.8300
 20
74.7713
 30
0.0000
 11
54.6100
 21
74.7713
 31
0.0000
  0
LINE
  8
48
 10
0.0000
 20
77.9463
 30
0.0000
 11
22.8600
 21
77.9463
 31
0.0000
  0
LINE
  8
48
 10
22.8600
 20
77.9463
 30
0.0000
 11
36.8300
 21
77.9463
 31
0.0000
  0
LINE
  8
48
 10
36.8300
 20
77.9463
 30
0.0000
 11
54.6100
 21
77.9463
 31
0.0000
  0
LINE
  8
48
 10
22.8600
 20
84.2963
 30
0.0000
 11
22.8600
 21
81.1213
 31
0.0000
  0
LINE
  8
48
 10
22.8600
 20
81.1213
 30
0.0000
 11
22.8600
 21
77.9463
 31
0.0000
  0
LINE
  8
48
 10
22.8600
 20
81.1213
 30
0.0000
 11
36.8300
 21
81.1213
 31
0.0000
  0
LINE
  8
48
 10
36.8300
 20
81.1213
 30
0.0000
 11
54.6100
 21
81.1213
 31
0.0000
  0
LINE
  8
48
 10
36.8300
 20
81.1213
 30
0.0000
 11
36.8300
 21
77.9463
 31
0.0000
  0
LINE
  8
48
 10
36.8300
 20
74.7713
 30
0.0000
 11
36.8300
 21
71.5962
 31
0.0000
  0
LINE
  8
21
 10
1.3589
 20
69.3314
 30
0.0000
 11
1.3589
 21
70.6776
 31
0.0000
  0
LINE
  8
21
 10
1.3589
 20
70.6776
 30
0.0000
 11
1.7328
 21
70.6776
 31
0.0000
  0
ARC
  8
21
 10
1.7328
 20
70.4532
 30
0.0000
 40
0.2244
 50
0.0000
 51
90.0000
  0
LINE
  8
21
 10
1.9572
 20
70.4532
 30
0.0000
 11
1.9572
 21
70.0045
 31
0.0000
  0
ARC
  8
21
 10
1.7328
 20
70.0045
 30
0.0000
 40
0.2244
 50
270.0008
 51
0.0000
  0
LINE
  8
21
 10
1.7328
 20
69.7802
 30
0.0000
 11
1.3589
 21
69.7802
 31
0.0000
  0
LINE
  8
21
 10
2.5485
 20
71.1264
 30
0.0000
 11
2.5485
 21
70.0045
 31
0.0000
  0
ARC
  8
21
 10
2.7729
 20
70.0045
 30
0.0000
 40
0.2244
 50
180.0000
 51
270.0000
  0
LINE
  8
21
 10
3.8564
 20
70.3037
 30
0.0000
 11
3.5199
 21
70.3037
 31
0.0000
  0
ARC
  8
21
 10
3.5199
 20
70.0419
 30
0.0000
 40
0.2618
 50
90.0000
 51
270.0000
  0
LINE
  8
21
 10
3.5199
 20
69.7802
 30
0.0000
 11
3.8564
 21
69.7802
 31
0.0000
  0
LINE
  8
21
 10
3.8564
 20
69.7802
 30
0.0000
 11
3.8564
 21
70.4532
 31
0.0000
  0
ARC
  8
21
 10
3.6320
 20
70.4532
 30
0.0000
 40
0.2244
 50
0.0000
 51
90.0000
  0
LINE
  8
21
 10
3.6320
 20
70.6776
 30
0.0000
 11
3.3329
 21
70.6776
 31
0.0000
  0
LINE
  8
21
 10
5.0241
 20
69.7802
 30
0.0000
 11
4.7250
 21
69.7802
 31
0.0000
  0
ARC
  8
21
 10
4.7250
 20
70.0045
 30
0.0000
 40
0.2244
 50
180.0000
 51
270.0000
  0
LINE
  8
21
 10
4.5006
 20
70.0045
 30
0.0000
 11
4.5006
 21
70.4532
 31
0.0000
  0
ARC
  8
21
 10
4.7250
 20
70.4532
 30
0.0000
 40
0.2244
 50
89.9992
 51
180.0000
  0
LINE
  8
21
 10
4.7250
 20
70.6776
 30
0.0000
 11
5.0241
 21
70.6776
 31
0.0000
  0
LINE
  8
21
 10
6.1464
 20
69.7802
 30
0.0000
 11
5.7725
 21
69.7802
 31
0.0000
  0
ARC
  8
21
 10
5.7725
 20
70.0045
 30
0.0000
 40
0.2244
 50
180.0000
 51
270.0000
  0
LINE
  8
21
 10
5.5481
 20
70.0045
 30
0.0000
 11
5.5481
 21
70.3785
 31
0.0000
  0
ARC
  8
21
 10
5.8473
 20
70.3785
 30
0.0000
 40
0.2992
 50
0.0000
 51
180.0000
  0
LINE
  8
21
 10
6.1464
 20
70.3785
 30
0.0000
 11
6.1464
 21
70.2289
 31
0.0000
  0
LINE
  8
21
 10
6.1464
 20
70.2289
 30
0.0000
 11
5.5481
 21
70.2289
 31
0.0000
  0
LINE
  8
21
 10
6.8130
 20
69.7802
 30
0.0000
 11
6.8130
 21
70.6776
 31
0.0000
  0
LINE
  8
21
 10
6.8130
 20
70.6776
 30
0.0000
 11
7.4861
 21
70.6776
 31
0.0000
  0
ARC
  8
21
 10
7.4861
 20
70.4532
 30
0.0000
 40
0.2244
 50
0.0000
 51
90.0000
  0
LINE
  8
21
 10
7.7105
 20
70.4532
 30
0.0000
 11
7.7105
 21
69.7802
 31
0.0000
  0
LINE
  8
21
 10
7.2617
 20
69.7802
 30
0.0000
 11
7.2617
 21
70.6776
 31
0.0000
  0
LINE
  8
21
 10
8.9754
 20
69.7802
 30
0.0000
 11
8.6014
 21
69.7802
 31
0.0000
  0
ARC
  8
21
 10
8.6014
 20
70.0045
 30
0.0000
 40
0.2244
 50
180.0000
 51
270.0000
  0
LINE
  8
21
 10
8.3771
 20
70.0045
 30
0.0000
 11
8.3771
 21
70.3785
 31
0.0000
  0
ARC
  8
21
 10
8.6762
 20
70.3785
 30
0.0000
 40
0.2992
 50
0.0000
 51
180.0000
  0
LINE
  8
21
 10
8.9754
 20
70.3785
 30
0.0000
 11
8.9754
 21
70.2289
 31
0.0000
  0
LINE
  8
21
 10
8.9754
 20
70.2289
 30
0.0000
 11
8.3771
 21
70.2289
 31
0.0000
  0
LINE
  8
21
 10
9.6090
 20
69.7802
 30
0.0000
 11
9.6090
 21
70.6776
 31
0.0000
  0
LINE
  8
21
 10
9.6090
 20
70.6776
 30
0.0000
 11
9.9830
 21
70.6776
 31
0.0000
  0
ARC
  8
21
 10
9.9830
 20
70.4532
 30
0.0000
 40
0.2244
 50
0.0000
 51
90.0000
  0
LINE
  8
21
 10
10.2074
 20
70.4532
 30
0.0000
 11
10.2074
 21
69.7802
 31
0.0000
  0
LINE
  8
21
 10
10.7198
 20
70.6776
 30
0.0000
 11
11.1685
 21
70.6776
 31
0.0000
  0
LINE
  8
21
 10
10.8694
 20
71.1264
 30
0.0000
 11
10.8694
 21
70.0045
 31
0.0000
  0
ARC
  8
21
 10
11.0937
 20
70.0045
 30
0.0000
 40
0.2244
 50
180.0000
 51
270.0000
  0
LINE
  8
21
 10
11.0937
 20
69.7802
 30
0.0000
 11
11.1685
 21
69.7802
 31
0.0000
  0
LINE
  8
21
 10
12.9635
 20
69.7802
 30
0.0000
 11
12.6643
 21
69.7802
 31
0.0000
  0
ARC
  8
21
 10
12.6643
 20
70.0045
 30
0.0000
 40
0.2244
 50
180.0000
 51
270.0000
  0
LINE
  8
21
 10
12.4400
 20
70.0045
 30
0.0000
 11
12.4400
 21
70.4532
 31
0.0000
  0
ARC
  8
21
 10
12.6643
 20
70.4532
 30
0.0000
 40
0.2244
 50
89.9992
 51
180.0000
  0
LINE
  8
21
 10
12.6643
 20
70.6776
 30
0.0000
 11
12.9635
 21
70.6776
 31
0.0000
  0
LINE
  8
21
 10
13.4875
 20
70.0793
 30
0.0000
 11
13.4875
 21
70.3785
 31
0.0000
  0
ARC
  8
21
 10
13.7866
 20
70.3785
 30
0.0000
 40
0.2992
 50
0.0000
 51
180.0000
  0
LINE
  8
21
 10
14.0858
 20
70.3785
 30
0.0000
 11
14.0858
 21
70.0793
 31
0.0000
  0
ARC
  8
21
 10
13.7866
 20
70.0793
 30
0.0000
 40
0.2992
 50
180.0000
 51
0.0000
  0
LINE
  8
21
 10
14.7524
 20
69.7802
 30
0.0000
 11
14.7524
 21
70.6776
 31
0.0000
  0
LINE
  8
21
 10
14.7524
 20
70.6776
 30
0.0000
 11
15.4255
 21
70.6776
 31
0.0000
  0
ARC
  8
21
 10
15.4255
 20
70.4532
 30
0.0000
 40
0.2244
 50
0.0000
 51
90.0000
  0
LINE
  8
21
 10
15.6498
 20
70.4532
 30
0.0000
 11
15.6498
 21
69.7802
 31
0.0000
  0
LINE
  8
21
 10
15.2011
 20
69.7802
 30
0.0000
 11
15.2011
 21
70.6776
 31
0.0000
  0
LINE
  8
21
 10
16.3706
 20
69.3314
 30
0.0000
 11
16.3706
 21
70.6776
 31
0.0000
  0
LINE
  8
21
 10
16.3706
 20
70.6776
 30
0.0000
 11
16.7446
 21
70.6776
 31
0.0000
  0
ARC
  8
21
 10
16.7446
 20
70.4532
 30
0.0000
 40
0.2244
 50
0.0000
 51
90.0000
  0
LINE
  8
21
 10
16.9690
 20
70.4532
 30
0.0000
 11
16.9690
 21
70.0045
 31
0.0000
  0
ARC
  8
21
 10
16.7446
 20
70.0045
 30
0.0000
 40
0.2244
 50
270.0008
 51
0.0000
  0
LINE
  8
21
 10
16.7446
 20
69.7802
 30
0.0000
 11
16.3706
 21
69.7802
 31
0.0000
  0
LINE
  8
21
 10
17.5484
 20
70.0793
 30
0.0000
 11
17.5484
 21
70.3785
 31
0.0000
  0
ARC
  8
21
 10
17.8475
 20
70.3785
 30
0.0000
 40
0.2992
 50
0.0000
 51
180.0000
  0
LINE
  8
21
 10
18.1467
 20
70.3785
 30
0.0000
 11
18.1467
 21
70.0793
 31
0.0000
  0
ARC
  8
21
 10
17.8475
 20
70.0793
 30
0.0000
 40
0.2992
 50
180.0000
 51
0.0000
  0
LINE
  8
21
 10
18.7804
 20
69.7802
 30
0.0000
 11
18.7804
 21
70.6776
 31
0.0000
  0
LINE
  8
21
 10
18.7804
 20
70.6776
 30
0.0000
 11
19.1543
 21
70.6776
 31
0.0000
  0
ARC
  8
21
 10
19.1543
 20
70.4532
 30
0.0000
 40
0.2244
 50
0.0000
 51
90.0000
  0
LINE
  8
21
 10
19.3787
 20
70.4532
 30
0.0000
 11
19.3787
 21
69.7802
 31
0.0000
  0
LINE
  8
21
 10
20.6106
 20
69.7802
 30
0.0000
 11
20.2367
 21
69.7802
 31
0.0000
  0
ARC
  8
21
 10
20.2367
 20
70.0045
 30
0.0000
 40
0.2244
 50
180.0000
 51
270.0000
  0
LINE
  8
21
 10
20.0123
 20
70.0045
 30
0.0000
 11
20.0123
 21
70.3785
 31
0.0000
  0
ARC
  8
21
 10
20.3115
 20
70.3785
 30
0.0000
 40
0.2992
 50
0.0000
 51
180.0000
  0
LINE
  8
21
 10
20.6106
 20
70.3785
 30
0.0000
 11
20.6106
 21
70.2289
 31
0.0000
  0
LINE
  8
21
 10
20.6106
 20
70.2289
 30
0.0000
 11
20.0123
 21
70.2289
 31
0.0000
  0
LINE
  8
21
 10
21.2443
 20
69.7802
 30
0.0000
 11
21.2443
 21
70.6776
 31
0.0000
  0
LINE
  8
21
 10
21.2443
 20
70.6776
 30
0.0000
 11
21.6182
 21
70.6776
 31
0.0000
  0
ARC
  8
21
 10
21.6182
 20
70.4532
 30
0.0000
 40
0.2244
 50
0.0000
 51
90.0000
  0
LINE
  8
21
 10
21.8426
 20
70.4532
 30
0.0000
 11
21.8426
 21
69.7802
 31
0.0000
  0
LINE
  8
21
 10
22.3550
 20
70.6776
 30
0.0000
 11
22.8038
 21
70.6776
 31
0.0000
  0
LINE
  8
21
 10
22.5046
 20
71.1264
 30
0.0000
 11
22.5046
 21
70.0045
 31
0.0000
  0
ARC
  8
21
 10
22.7290
 20
70.0045
 30
0.0000
 40
0.2244
 50
180.0000
 51
270.0000
  0
LINE
  8
21
 10
22.7290
 20
69.7802
 30
0.0000
 11
22.8038
 21
69.7802
 31
0.0000
  0
LINE
  8
21
 10
24.5594
 20
70.1541
 30
0.0000
 11
24.1854
 21
70.3037
 31
0.0000
  0
ARC
  8
21
 10
24.2574
 20
70.4837
 30
0.0000
 40
0.1939
 50
89.1810
 51
248.1986
  0
ARC
  8
21
 10
24.2481
 20
69.8284
 30
0.0000
 40
0.8493
 50
65.7609
 51
89.1810
  0
ARC
  8
21
 10
24.4874
 20
69.9740
 30
0.0000
 40
0.1939
 50
269.1810
 51
68.1986
  0
ARC
  8
21
 10
24.5027
 20
71.0485
 30
0.0000
 40
1.2684
 50
250.2096
 51
269.1810
  0
LINE
  8
21
 10
25.2393
 20
69.7802
 30
0.0000
 11
25.2393
 21
70.6776
 31
0.0000
  0
LINE
  8
21
 10
25.2019
 20
71.0516
 30
0.0000
 11
25.2019
 21
71.1264
 31
0.0000
  0
LINE
  8
21
 10
25.2019
 20
71.1264
 30
0.0000
 11
25.2767
 21
71.1264
 31
0.0000
  0
LINE
  8
21
 10
25.2767
 20
71.1264
 30
0.0000
 11
25.2767
 21
71.0516
 31
0.0000
  0
LINE
  8
21
 10
25.2767
 20
71.0516
 30
0.0000
 11
25.2019
 21
71.0516
 31
0.0000
  0
LINE
  8
21
 10
26.3968
 20
71.1264
 30
0.0000
 11
26.3968
 21
69.7802
 31
0.0000
  0
LINE
  8
21
 10
26.3968
 20
69.7802
 30
0.0000
 11
26.0229
 21
69.7802
 31
0.0000
  0
ARC
  8
21
 10
26.0229
 20
70.0045
 30
0.0000
 40
0.2244
 50
180.0000
 51
270.0000
  0
LINE
  8
21
 10
25.7985
 20
70.0045
 30
0.0000
 11
25.7985
 21
70.4532
 31
0.0000
  0
ARC
  8
21
 10
26.0229
 20
70.4532
 30
0.0000
 40
0.2244
 50
89.9992
 51
180.0000
  0
LINE
  8
21
 10
26.0229
 20
70.6776
 30
0.0000
 11
26.3968
 21
70.6776
 31
0.0000
  0
LINE
  8
21
 10
27.6374
 20
69.7802
 30
0.0000
 11
27.2635
 21
69.7802
 31
0.0000
  0
ARC
  8
21
 10
27.2635
 20
70.0045
 30
0.0000
 40
0.2244
 50
180.0000
 51
270.0000
  0
LINE
  8
21
 10
27.0391
 20
70.0045
 30
0.0000
 11
27.0391
 21
70.3785
 31
0.0000
  0
ARC
  8
21
 10
27.3382
 20
70.3785
 30
0.0000
 40
0.2992
 50
0.0000
 51
180.0000
  0
LINE
  8
21
 10
27.6374
 20
70.3785
 30
0.0000
 11
27.6374
 21
70.2289
 31
0.0000
  0
LINE
  8
21
 10
27.6374
 20
70.2289
 30
0.0000
 11
27.0391
 21
70.2289
 31
0.0000
  0
LINE
  8
48
 10
24.2316
 20
81.8578
 30
0.0000
 11
24.2316
 21
83.3311
 31
0.0000
  0
LINE
  8
48
 10
24.2316
 20
83.3311
 30
0.0000
 11
24.6408
 21
83.3311
 31
0.0000
  0
ARC
  8
48
 10
24.6408
 20
82.9218
 30
0.0000
 40
0.4092
 50
359.9996
 51
90.0000
  0
LINE
  8
48
 10
25.0500
 20
82.9218
 30
0.0000
 11
25.0500
 21
82.2671
 31
0.0000
  0
ARC
  8
48
 10
24.6408
 20
82.2671
 30
0.0000
 40
0.4092
 50
270.0004
 51
360.0000
  0
LINE
  8
48
 10
24.6408
 20
81.8578
 30
0.0000
 11
24.2316
 21
81.8578
 31
0.0000
  0
LINE
  8
48
 10
25.7505
 20
82.1852
 30
0.0000
 11
25.7505
 21
82.5126
 31
0.0000
  0
ARC
  8
48
 10
26.0778
 20
82.5126
 30
0.0000
 40
0.3274
 50
0.0000
 51
180.0000
  0
LINE
  8
48
 10
26.4052
 20
82.5126
 30
0.0000
 11
26.4052
 21
82.1852
 31
0.0000
  0
ARC
  8
48
 10
26.0778
 20
82.1852
 30
0.0000
 40
0.3274
 50
180.0000
 51
0.0000
  0
LINE
  8
48
 10
27.6139
 20
81.8578
 30
0.0000
 11
27.2865
 21
81.8578
 31
0.0000
  0
ARC
  8
48
 10
27.2865
 20
82.1034
 30
0.0000
 40
0.2455
 50
180.0000
 51
270.0000
  0
LINE
  8
48
 10
27.0410
 20
82.1034
 30
0.0000
 11
27.0410
 21
82.5945
 31
0.0000
  0
ARC
  8
48
 10
27.2865
 20
82.5945
 30
0.0000
 40
0.2455
 50
90.0000
 51
180.0000
  0
LINE
  8
48
 10
27.2865
 20
82.8400
 30
0.0000
 11
27.6139
 21
82.8400
 31
0.0000
  0
LINE
  8
48
 10
28.1181
 20
81.8578
 30
0.0000
 11
28.1181
 21
81.9397
 31
0.0000
  0
LINE
  8
48
 10
28.1181
 20
81.9397
 30
0.0000
 11
28.2000
 21
81.9397
 31
0.0000
  0
LINE
  8
48
 10
28.2000
 20
81.9397
 30
0.0000
 11
28.2000
 21
81.8578
 31
0.0000
  0
LINE
  8
48
 10
28.2000
 20
81.8578
 30
0.0000
 11
28.1181
 21
81.8578
 31
0.0000
  0
LINE
  8
48
 10
28.8077
 20
82.4308
 30
0.0000
 11
29.7898
 21
82.4308
 31
0.0000
  0
LINE
  8
48
 10
30.5248
 20
81.8578
 30
0.0000
 11
30.5248
 21
83.3311
 31
0.0000
  0
LINE
  8
48
 10
30.5248
 20
83.3311
 30
0.0000
 11
31.3432
 21
81.8578
 31
0.0000
  0
LINE
  8
48
 10
31.3432
 20
81.8578
 30
0.0000
 11
31.3432
 21
83.3311
 31
0.0000
  0
LINE
  8
48
 10
32.0436
 20
82.1852
 30
0.0000
 11
32.0436
 21
82.5126
 31
0.0000
  0
ARC
  8
48
 10
32.3710
 20
82.5126
 30
0.0000
 40
0.3274
 50
0.0000
 51
180.0000
  0
LINE
  8
48
 10
32.6984
 20
82.5126
 30
0.0000
 11
32.6984
 21
82.1852
 31
0.0000
  0
ARC
  8
48
 10
32.3710
 20
82.1852
 30
0.0000
 40
0.3274
 50
180.0000
 51
0.0000
  0
LINE
  8
48
 10
33.2716
 20
81.8578
 30
0.0000
 11
33.2716
 21
81.9397
 31
0.0000
  0
LINE
  8
48
 10
33.2716
 20
81.9397
 30
0.0000
 11
33.3534
 21
81.9397
 31
0.0000
  0
LINE
  8
48
 10
33.3534
 20
81.9397
 30
0.0000
 11
33.3534
 21
81.8578
 31
0.0000
  0
LINE
  8
48
 10
33.3534
 20
81.8578
 30
0.0000
 11
33.2716
 21
81.8578
 31
0.0000
  0
LINE
  8
48
 10
33.9158
 20
81.9806
 30
0.0000
 11
33.9158
 21
82.0625
 31
0.0000
  0
LINE
  8
48
 10
33.9158
 20
82.0625
 30
0.0000
 11
33.9976
 21
82.0625
 31
0.0000
  0
LINE
  8
48
 10
33.9976
 20
82.0625
 30
0.0000
 11
33.9976
 21
81.9806
 31
0.0000
  0
LINE
  8
48
 10
33.9976
 20
81.9806
 30
0.0000
 11
33.9158
 21
81.9806
 31
0.0000
  0
LINE
  8
48
 10
33.9158
 20
82.6354
 30
0.0000
 11
33.9158
 21
82.7172
 31
0.0000
  0
LINE
  8
48
 10
33.9158
 20
82.7172
 30
0.0000
 11
33.9976
 21
82.7172
 31
0.0000
  0
LINE
  8
48
 10
33.9976
 20
82.7172
 30
0.0000
 11
33.9976
 21
82.6354
 31
0.0000
  0
LINE
  8
48
 10
33.9976
 20
82.6354
 30
0.0000
 11
33.9158
 21
82.6354
 31
0.0000
  0
LINE
  8
48
 10
38.2016
 20
72.3329
 30
0.0000
 11
38.2016
 21
73.8060
 31
0.0000
  0
LINE
  8
48
 10
38.2016
 20
73.8060
 30
0.0000
 11
38.6108
 21
73.8060
 31
0.0000
  0
ARC
  8
48
 10
38.6108
 20
73.3968
 30
0.0000
 40
0.4092
 50
270.0000
 51
90.0000
  0
LINE
  8
48
 10
38.6108
 20
72.9876
 30
0.0000
 11
38.2016
 21
72.9876
 31
0.0000
  0
LINE
  8
48
 10
39.0200
 20
72.3329
 30
0.0000
 11
38.6927
 21
72.9876
 31
0.0000
  0
LINE
  8
48
 10
40.3143
 20
72.3329
 30
0.0000
 11
39.9051
 21
72.3329
 31
0.0000
  0
ARC
  8
48
 10
39.9051
 20
72.5784
 30
0.0000
 40
0.2455
 50
180.0000
 51
270.0000
  0
LINE
  8
48
 10
39.6596
 20
72.5784
 30
0.0000
 11
39.6596
 21
72.9876
 31
0.0000
  0
ARC
  8
48
 10
39.9870
 20
72.9876
 30
0.0000
 40
0.3274
 50
0.0000
 51
180.0000
  0
LINE
  8
48
 10
40.3143
 20
72.9876
 30
0.0000
 11
40.3143
 21
72.8239
 31
0.0000
  0
LINE
  8
48
 10
40.3143
 20
72.8239
 30
0.0000
 11
39.6596
 21
72.8239
 31
0.0000
  0
LINE
  8
48
 10
40.8984
 20
73.3150
 30
0.0000
 11
41.2258
 21
72.3329
 31
0.0000
  0
LINE
  8
48
 10
41.2258
 20
72.3329
 30
0.0000
 11
41.5532
 21
73.3150
 31
0.0000
  0
LINE
  8
48
 10
42.0768
 20
72.3329
 30
0.0000
 11
42.0768
 21
72.4147
 31
0.0000
  0
LINE
  8
48
 10
42.0768
 20
72.4147
 30
0.0000
 11
42.1586
 21
72.4147
 31
0.0000
  0
LINE
  8
48
 10
42.1586
 20
72.4147
 30
0.0000
 11
42.1586
 21
72.3329
 31
0.0000
  0
LINE
  8
48
 10
42.1586
 20
72.3329
 30
0.0000
 11
42.0768
 21
72.3329
 31
0.0000
  0
LINE
  8
48
 10
42.7210
 20
72.4556
 30
0.0000
 11
42.7210
 21
72.5375
 31
0.0000
  0
LINE
  8
48
 10
42.7210
 20
72.5375
 30
0.0000
 11
42.8028
 21
72.5375
 31
0.0000
  0
LINE
  8
48
 10
42.8028
 20
72.5375
 30
0.0000
 11
42.8028
 21
72.4556
 31
0.0000
  0
LINE
  8
48
 10
42.8028
 20
72.4556
 30
0.0000
 11
42.7210
 21
72.4556
 31
0.0000
  0
LINE
  8
48
 10
42.7210
 20
73.1104
 30
0.0000
 11
42.7210
 21
73.1922
 31
0.0000
  0
LINE
  8
48
 10
42.7210
 20
73.1922
 30
0.0000
 11
42.8028
 21
73.1922
 31
0.0000
  0
LINE
  8
48
 10
42.8028
 20
73.1922
 30
0.0000
 11
42.8028
 21
73.1104
 31
0.0000
  0
LINE
  8
48
 10
42.8028
 20
73.1104
 30
0.0000
 11
42.7210
 21
73.1104
 31
0.0000
  0
LINE
  8
48
 10
38.8564
 20
78.6829
 30
0.0000
 11
38.5290
 21
78.6829
 31
0.0000
  0
ARC
  8
48
 10
38.5290
 20
79.0102
 30
0.0000
 40
0.3274
 50
180.0000
 51
270.0000
  0
LINE
  8
48
 10
38.2016
 20
79.0102
 30
0.0000
 11
38.2016
 21
79.8287
 31
0.0000
  0
ARC
  8
48
 10
38.5290
 20
79.8287
 30
0.0000
 40
0.3274
 50
90.0005
 51
180.0000
  0
LINE
  8
48
 10
38.5290
 20
80.1561
 30
0.0000
 11
38.8564
 21
80.1561
 31
0.0000
  0
LINE
  8
48
 10
39.4777
 20
79.6650
 30
0.0000
 11
39.4777
 21
78.9284
 31
0.0000
  0
ARC
  8
48
 10
39.7232
 20
78.9284
 30
0.0000
 40
0.2455
 50
180.0000
 51
270.0000
  0
LINE
  8
48
 10
39.7232
 20
78.6829
 30
0.0000
 11
40.1324
 21
78.6829
 31
0.0000
  0
LINE
  8
48
 10
40.1324
 20
78.6829
 30
0.0000
 11
40.1324
 21
79.6650
 31
0.0000
  0
LINE
  8
48
 10
40.8501
 20
79.2558
 30
0.0000
 11
41.8322
 21
79.2558
 31
0.0000
  0
LINE
  8
48
 10
42.5708
 20
80.1561
 30
0.0000
 11
42.5708
 21
78.6829
 31
0.0000
  0
LINE
  8
48
 10
42.5708
 20
78.6829
 30
0.0000
 11
43.2256
 21
78.6829
 31
0.0000
  0
LINE
  8
48
 10
44.4344
 20
79.2558
 30
0.0000
 11
44.0661
 21
79.2558
 31
0.0000
  0
ARC
  8
48
 10
44.0661
 20
78.9693
 30
0.0000
 40
0.2865
 50
90.0000
 51
270.0000
  0
LINE
  8
48
 10
44.0661
 20
78.6829
 30
0.0000
 11
44.4344
 21
78.6829
 31
0.0000
  0
LINE
  8
48
 10
44.4344
 20
78.6829
 30
0.0000
 11
44.4344
 21
79.4194
 31
0.0000
  0
ARC
  8
48
 10
44.1889
 20
79.4194
 30
0.0000
 40
0.2455
 50
0.0000
 51
90.0000
  0
LINE
  8
48
 10
44.1889
 20
79.6650
 30
0.0000
 11
43.8615
 21
79.6650
 31
0.0000
  0
LINE
  8
48
 10
45.0771
 20
78.1918
 30
0.0000
 11
45.2408
 21
78.1918
 31
0.0000
  0
LINE
  8
48
 10
45.2408
 20
78.1918
 30
0.0000
 11
45.7319
 21
79.6650
 31
0.0000
  0
LINE
  8
48
 10
45.0771
 20
79.6650
 30
0.0000
 11
45.4045
 21
78.6829
 31
0.0000
  0
LINE
  8
48
 10
46.9707
 20
78.6829
 30
0.0000
 11
46.5615
 21
78.6829
 31
0.0000
  0
ARC
  8
48
 10
46.5615
 20
78.9284
 30
0.0000
 40
0.2455
 50
180.0000
 51
270.0000
  0
LINE
  8
48
 10
46.3159
 20
78.9284
 30
0.0000
 11
46.3159
 21
79.3376
 31
0.0000
  0
ARC
  8
48
 10
46.6433
 20
79.3376
 30
0.0000
 40
0.3274
 50
0.0000
 51
180.0000
  0
LINE
  8
48
 10
46.9707
 20
79.3376
 30
0.0000
 11
46.9707
 21
79.1739
 31
0.0000
  0
LINE
  8
48
 10
46.9707
 20
79.1739
 30
0.0000
 11
46.3159
 21
79.1739
 31
0.0000
  0
LINE
  8
48
 10
47.6643
 20
78.6829
 30
0.0000
 11
47.6643
 21
79.6650
 31
0.0000
  0
LINE
  8
48
 10
47.6643
 20
79.6650
 30
0.0000
 11
48.1553
 21
79.6650
 31
0.0000
  0
LINE
  8
48
 10
48.1553
 20
79.6650
 30
0.0000
 11
48.1553
 21
79.5013
 31
0.0000
  0
LINE
  8
48
 10
49.1769
 20
79.0921
 30
0.0000
 11
48.7677
 21
79.2558
 31
0.0000
  0
ARC
  8
48
 10
48.8465
 20
79.4528
 30
0.0000
 40
0.2122
 50
89.1816
 51
248.1986
  0
ARC
  8
48
 10
48.8362
 20
78.7356
 30
0.0000
 40
0.9294
 50
65.7610
 51
89.1816
  0
ARC
  8
48
 10
49.0981
 20
78.8950
 30
0.0000
 40
0.2122
 50
269.1816
 51
68.1989
  0
ARC
  8
48
 10
49.1149
 20
80.0707
 30
0.0000
 40
1.3880
 50
250.2089
 51
269.1815
  0
LINE
  8
48
 10
49.9224
 20
78.8056
 30
0.0000
 11
49.9224
 21
78.8875
 31
0.0000
  0
LINE
  8
48
 10
49.9224
 20
78.8875
 30
0.0000
 11
50.0043
 21
78.8875
 31
0.0000
  0
LINE
  8
48
 10
50.0043
 20
78.8875
 30
0.0000
 11
50.0043
 21
78.8056
 31
0.0000
  0
LINE
  8
48
 10
50.0043
 20
78.8056
 30
0.0000
 11
49.9224
 21
78.8056
 31
0.0000
  0
LINE
  8
48
 10
49.9224
 20
79.4604
 30
0.0000
 11
49.9224
 21
79.5422
 31
0.0000
  0
LINE
  8
48
 10
49.9224
 20
79.5422
 30
0.0000
 11
50.0043
 21
79.5422
 31
0.0000
  0
LINE
  8
48
 10
50.0043
 20
79.5422
 30
0.0000
 11
50.0043
 21
79.4604
 31
0.0000
  0
LINE
  8
48
 10
50.0043
 20
79.4604
 30
0.0000
 11
49.9224
 21
79.4604
 31
0.0000
  0
LINE
  8
48
 10
24.8864
 20
78.6829
 30
0.0000
 11
24.5590
 21
78.6829
 31
0.0000
  0
ARC
  8
48
 10
24.5590
 20
79.0102
 30
0.0000
 40
0.3274
 50
180.0000
 51
270.0000
  0
LINE
  8
48
 10
24.2316
 20
79.0102
 30
0.0000
 11
24.2316
 21
79.8287
 31
0.0000
  0
ARC
  8
48
 10
24.5590
 20
79.8287
 30
0.0000
 40
0.3274
 50
90.0005
 51
180.0000
  0
LINE
  8
48
 10
24.5590
 20
80.1561
 30
0.0000
 11
24.8864
 21
80.1561
 31
0.0000
  0
LINE
  8
48
 10
25.5077
 20
79.6650
 30
0.0000
 11
25.5077
 21
78.9284
 31
0.0000
  0
ARC
  8
48
 10
25.7532
 20
78.9284
 30
0.0000
 40
0.2455
 50
180.0000
 51
270.0000
  0
LINE
  8
48
 10
25.7532
 20
78.6829
 30
0.0000
 11
26.1624
 21
78.6829
 31
0.0000
  0
LINE
  8
48
 10
26.1624
 20
78.6829
 30
0.0000
 11
26.1624
 21
79.6650
 31
0.0000
  0
LINE
  8
48
 10
26.8347
 20
78.8056
 30
0.0000
 11
26.8347
 21
78.8875
 31
0.0000
  0
LINE
  8
48
 10
26.8347
 20
78.8875
 30
0.0000
 11
26.9166
 21
78.8875
 31
0.0000
  0
LINE
  8
48
 10
26.9166
 20
78.8875
 30
0.0000
 11
26.9166
 21
78.8056
 31
0.0000
  0
LINE
  8
48
 10
26.9166
 20
78.8056
 30
0.0000
 11
26.8347
 21
78.8056
 31
0.0000
  0
LINE
  8
48
 10
26.8347
 20
79.4604
 30
0.0000
 11
26.8347
 21
79.5422
 31
0.0000
  0
LINE
  8
48
 10
26.8347
 20
79.5422
 30
0.0000
 11
26.9166
 21
79.5422
 31
0.0000
  0
LINE
  8
48
 10
26.9166
 20
79.5422
 30
0.0000
 11
26.9166
 21
79.4604
 31
0.0000
  0
LINE
  8
48
 10
26.9166
 20
79.4604
 30
0.0000
 11
26.8347
 21
79.4604
 31
0.0000
  0
LINE
  8
48
 10
1.5353
 20
76.9811
 30
0.0000
 11
1.5353
 21
75.5079
 31
0.0000
  0
LINE
  8
48
 10
1.3716
 20
75.5079
 30
0.0000
 11
1.6990
 21
75.5079
 31
0.0000
  0
LINE
  8
48
 10
1.3716
 20
76.9811
 30
0.0000
 11
1.6990
 21
76.9811
 31
0.0000
  0
LINE
  8
48
 10
3.0232
 20
75.5079
 30
0.0000
 11
2.3685
 21
75.5079
 31
0.0000
  0
LINE
  8
48
 10
2.3685
 20
75.5079
 30
0.0000
 11
2.3685
 21
76.9811
 31
0.0000
  0
LINE
  8
48
 10
2.3685
 20
76.9811
 30
0.0000
 11
3.0232
 21
76.9811
 31
0.0000
  0
LINE
  8
48
 10
2.3685
 20
76.3263
 30
0.0000
 11
2.8596
 21
76.3263
 31
0.0000
  0
LINE
  8
48
 10
4.3116
 20
75.5079
 30
0.0000
 11
3.6569
 21
75.5079
 31
0.0000
  0
LINE
  8
48
 10
3.6569
 20
75.5079
 30
0.0000
 11
3.6569
 21
76.9811
 31
0.0000
  0
LINE
  8
48
 10
3.6569
 20
76.9811
 30
0.0000
 11
4.3116
 21
76.9811
 31
0.0000
  0
LINE
  8
48
 10
3.6569
 20
76.3263
 30
0.0000
 11
4.1479
 21
76.3263
 31
0.0000
  0
LINE
  8
48
 10
5.6000
 20
75.5079
 30
0.0000
 11
4.9452
 21
75.5079
 31
0.0000
  0
LINE
  8
48
 10
4.9452
 20
75.5079
 30
0.0000
 11
4.9452
 21
76.9811
 31
0.0000
  0
LINE
  8
48
 10
4.9452
 20
76.9811
 30
0.0000
 11
5.6000
 21
76.9811
 31
0.0000
  0
LINE
  8
48
 10
4.9452
 20
76.3263
 30
0.0000
 11
5.4363
 21
76.3263
 31
0.0000
  0
LINE
  8
48
 10
6.1136
 20
75.3442
 30
0.0000
 11
6.7684
 21
75.3442
 31
0.0000
  0
LINE
  8
48
 10
8.0776
 20
75.5079
 30
0.0000
 11
7.4229
 21
75.5079
 31
0.0000
  0
LINE
  8
48
 10
7.4229
 20
75.5079
 30
0.0000
 11
7.4229
 21
76.9811
 31
0.0000
  0
LINE
  8
48
 10
7.4229
 20
76.9811
 30
0.0000
 11
8.0776
 21
76.9811
 31
0.0000
  0
LINE
  8
48
 10
7.4229
 20
76.3263
 30
0.0000
 11
7.9139
 21
76.3263
 31
0.0000
  0
LINE
  8
48
 10
8.5762
 20
75.5079
 30
0.0000
 11
9.5584
 21
76.9811
 31
0.0000
  0
LINE
  8
48
 10
8.5762
 20
76.9811
 30
0.0000
 11
9.5584
 21
75.5079
 31
0.0000
  0
LINE
  8
48
 10
10.4548
 20
75.5079
 30
0.0000
 11
10.4548
 21
76.9811
 31
0.0000
  0
LINE
  8
48
 10
10.0455
 20
76.9811
 30
0.0000
 11
10.8640
 21
76.9811
 31
0.0000
  0
LINE
  8
48
 10
11.3662
 20
75.3442
 30
0.0000
 11
12.0210
 21
75.3442
 31
0.0000
  0
LINE
  8
48
 10
12.6979
 20
76.3263
 30
0.0000
 11
13.1071
 21
76.3263
 31
0.0000
  0
ARC
  8
48
 10
13.1071
 20
75.9171
 30
0.0000
 40
0.4092
 50
270.0000
 51
90.0000
  0
LINE
  8
48
 10
13.1071
 20
75.5079
 30
0.0000
 11
12.6979
 21
75.5079
 31
0.0000
  0
LINE
  8
48
 10
12.6979
 20
75.5079
 30
0.0000
 11
12.6979
 21
76.9811
 31
0.0000
  0
LINE
  8
48
 10
12.6979
 20
76.9811
 30
0.0000
 11
13.1071
 21
76.9811
 31
0.0000
  0
ARC
  8
48
 10
13.1071
 20
76.6537
 30
0.0000
 40
0.3274
 50
270.0000
 51
90.0000
  0
LINE
  8
48
 10
14.7373
 20
76.0808
 30
0.0000
 11
14.3690
 21
76.0808
 31
0.0000
  0
ARC
  8
48
 10
14.3690
 20
75.7943
 30
0.0000
 40
0.2865
 50
90.0000
 51
270.0000
  0
LINE
  8
48
 10
14.3690
 20
75.5079
 30
0.0000
 11
14.7373
 21
75.5079
 31
0.0000
  0
LINE
  8
48
 10
14.7373
 20
75.5079
 30
0.0000
 11
14.7373
 21
76.2445
 31
0.0000
  0
ARC
  8
48
 10
14.4918
 20
76.2445
 30
0.0000
 40
0.2455
 50
0.0000
 51
90.0000
  0
LINE
  8
48
 10
14.4918
 20
76.4900
 30
0.0000
 11
14.1644
 21
76.4900
 31
0.0000
  0
LINE
  8
48
 10
15.9615
 20
75.9171
 30
0.0000
 11
15.5523
 21
76.0808
 31
0.0000
  0
ARC
  8
48
 10
15.6311
 20
76.2778
 30
0.0000
 40
0.2122
 50
89.1816
 51
248.1986
  0
ARC
  8
48
 10
15.6209
 20
75.5606
 30
0.0000
 40
0.9294
 50
65.7610
 51
89.1816
  0
ARC
  8
48
 10
15.8827
 20
75.7200
 30
0.0000
 40
0.2122
 50
269.1816
 51
68.1989
  0
ARC
  8
48
 10
15.8995
 20
76.8957
 30
0.0000
 40
1.3880
 50
250.2089
 51
269.1815
  0
LINE
  8
48
 10
17.3726
 20
75.5079
 30
0.0000
 11
16.9634
 21
75.5079
 31
0.0000
  0
ARC
  8
48
 10
16.9634
 20
75.7534
 30
0.0000
 40
0.2455
 50
180.0000
 51
270.0000
  0
LINE
  8
48
 10
16.7179
 20
75.7534
 30
0.0000
 11
16.7179
 21
76.1626
 31
0.0000
  0
ARC
  8
48
 10
17.0453
 20
76.1626
 30
0.0000
 40
0.3274
 50
0.0000
 51
180.0000
  0
LINE
  8
48
 10
17.3726
 20
76.1626
 30
0.0000
 11
17.3726
 21
75.9989
 31
0.0000
  0
LINE
  8
48
 10
17.3726
 20
75.9989
 30
0.0000
 11
16.7179
 21
75.9989
 31
0.0000
  0
ARC
  8
48
 10
2.5856
 20
73.0695
 30
0.0000
 40
1.2140
 50
154.0109
 51
180.0000
  0
ARC
  8
48
 10
1.7808
 20
73.5032
 30
0.0000
 40
0.3028
 50
90.0000
 51
161.0756
  0
ARC
  8
48
 10
1.7808
 20
73.5032
 30
0.0000
 40
0.3028
 50
18.9237
 51
90.0001
  0
ARC
  8
48
 10
0.9760
 20
73.0695
 30
0.0000
 40
1.2140
 50
360.0000
 51
25.9897
  0
ARC
  8
48
 10
2.5856
 20
73.0695
 30
0.0000
 40
1.2140
 50
180.0000
 51
205.9889
  0
ARC
  8
48
 10
1.7808
 20
72.6357
 30
0.0000
 40
0.3028
 50
198.9251
 51
270.0001
  0
ARC
  8
48
 10
0.9760
 20
73.0695
 30
0.0000
 40
1.2140
 50
334.0105
 51
359.9999
  0
ARC
  8
48
 10
1.7808
 20
72.6357
 30
0.0000
 40
0.3028
 50
270.0000
 51
341.0759
  0
LINE
  8
48
 10
1.4534
 20
72.6602
 30
0.0000
 11
2.1082
 21
73.4787
 31
0.0000
  0
LINE
  8
48
 10
2.8582
 20
73.4787
 30
0.0000
 11
3.2674
 21
73.8060
 31
0.0000
  0
LINE
  8
48
 10
3.2674
 20
73.8060
 30
0.0000
 11
3.2674
 21
72.3329
 31
0.0000
  0
LINE
  8
48
 10
2.8582
 20
72.3329
 30
0.0000
 11
3.6766
 21
72.3329
 31
0.0000
  0
LINE
  8
48
 10
4.2671
 20
72.3329
 30
0.0000
 11
4.2671
 21
72.4147
 31
0.0000
  0
LINE
  8
48
 10
4.2671
 20
72.4147
 30
0.0000
 11
4.3489
 21
72.4147
 31
0.0000
  0
LINE
  8
48
 10
4.3489
 20
72.4147
 30
0.0000
 11
4.3489
 21
72.3329
 31
0.0000
  0
LINE
  8
48
 10
4.3489
 20
72.3329
 30
0.0000
 11
4.2671
 21
72.3329
 31
0.0000
  0
LINE
  8
48
 10
4.9394
 20
73.4787
 30
0.0000
 11
5.3486
 21
73.8060
 31
0.0000
  0
LINE
  8
48
 10
5.3486
 20
73.8060
 30
0.0000
 11
5.3486
 21
72.3329
 31
0.0000
  0
LINE
  8
48
 10
4.9394
 20
72.3329
 30
0.0000
 11
5.7578
 21
72.3329
 31
0.0000
  0
LINE
  8
48
 10
6.4260
 20
73.4787
 30
0.0000
 11
6.8352
 21
73.8060
 31
0.0000
  0
LINE
  8
48
 10
6.8352
 20
73.8060
 30
0.0000
 11
6.8352
 21
72.3329
 31
0.0000
  0
LINE
  8
48
 10
6.4260
 20
72.3329
 30
0.0000
 11
7.2444
 21
72.3329
 31
0.0000
  0
LINE
  8
48
 10
7.8349
 20
72.3329
 30
0.0000
 11
7.8349
 21
72.4147
 31
0.0000
  0
LINE
  8
48
 10
7.8349
 20
72.4147
 30
0.0000
 11
7.9167
 21
72.4147
 31
0.0000
  0
LINE
  8
48
 10
7.9167
 20
72.4147
 30
0.0000
 11
7.9167
 21
72.3329
 31
0.0000
  0
LINE
  8
48
 10
7.9167
 20
72.3329
 30
0.0000
 11
7.8349
 21
72.3329
 31
0.0000
  0
ARC
  8
48
 10
8.9573
 20
73.4378
 30
0.0000
 40
0.3683
 50
0.0000
 51
90.0000
  0
ARC
  8
48
 10
8.9573
 20
73.3329
 30
0.0000
 40
0.4732
 50
90.0000
 51
162.0549
  0
ARC
  8
48
 10
8.9300
 20
73.4378
 30
0.0000
 40
0.3956
 50
313.6022
 51
0.0000
  0
LINE
  8
48
 10
9.2028
 20
73.1513
 30
0.0000
 11
8.5072
 21
72.3329
 31
0.0000
  0
LINE
  8
48
 10
8.5072
 20
72.3329
 30
0.0000
 11
9.3256
 21
72.3329
 31
0.0000
  0
ARC
  8
48
 10
11.2078
 20
73.0695
 30
0.0000
 40
1.2140
 50
154.0109
 51
180.0000
  0
ARC
  8
48
 10
10.4029
 20
73.5032
 30
0.0000
 40
0.3028
 50
90.0000
 51
161.0756
  0
ARC
  8
48
 10
10.4029
 20
73.5032
 30
0.0000
 40
0.3028
 50
18.9237
 51
90.0001
  0
ARC
  8
48
 10
9.5982
 20
73.0695
 30
0.0000
 40
1.2140
 50
360.0000
 51
25.9897
  0
ARC
  8
48
 10
11.2078
 20
73.0695
 30
0.0000
 40
1.2140
 50
180.0000
 51
205.9889
  0
ARC
  8
48
 10
10.4029
 20
72.6357
 30
0.0000
 40
0.3028
 50
198.9251
 51
270.0001
  0
ARC
  8
48
 10
9.5981
 20
73.0695
 30
0.0000
 40
1.2140
 50
334.0105
 51
359.9999
  0
ARC
  8
48
 10
10.4029
 20
72.6357
 30
0.0000
 40
0.3028
 50
270.0000
 51
341.0759
  0
LINE
  8
48
 10
10.0756
 20
72.6602
 30
0.0000
 11
10.7303
 21
73.4787
 31
0.0000
  0
ARC
  8
48
 10
11.9304
 20
73.4378
 30
0.0000
 40
0.3683
 50
0.0000
 51
90.0000
  0
ARC
  8
48
 10
11.9304
 20
73.3329
 30
0.0000
 40
0.4732
 50
90.0000
 51
162.0549
  0
ARC
  8
48
 10
11.9032
 20
73.4378
 30
0.0000
 40
0.3956
 50
313.6022
 51
0.0000
  0
LINE
  8
48
 10
12.1760
 20
73.1513
 30
0.0000
 11
11.4803
 21
72.3329
 31
0.0000
  0
LINE
  8
48
 10
11.4803
 20
72.3329
 30
0.0000
 11
12.2987
 21
72.3329
 31
0.0000
  0
ARC
  8
48
 10
14.1809
 20
73.0695
 30
0.0000
 40
1.2140
 50
154.0109
 51
180.0000
  0
ARC
  8
48
 10
13.3761
 20
73.5032
 30
0.0000
 40
0.3028
 50
90.0000
 51
161.0756
  0
ARC
  8
48
 10
13.3761
 20
73.5032
 30
0.0000
 40
0.3028
 50
18.9237
 51
90.0001
  0
ARC
  8
48
 10
12.5713
 20
73.0695
 30
0.0000
 40
1.2140
 50
360.0000
 51
25.9897
  0
ARC
  8
48
 10
14.1809
 20
73.0695
 30
0.0000
 40
1.2140
 50
180.0000
 51
205.9889
  0
ARC
  8
48
 10
13.3761
 20
72.6357
 30
0.0000
 40
0.3028
 50
198.9251
 51
270.0001
  0
ARC
  8
48
 10
12.5713
 20
73.0695
 30
0.0000
 40
1.2140
 50
334.0105
 51
359.9999
  0
ARC
  8
48
 10
13.3761
 20
72.6357
 30
0.0000
 40
0.3028
 50
270.0000
 51
341.0759
  0
LINE
  8
48
 10
13.0487
 20
72.6602
 30
0.0000
 11
13.7035
 21
73.4787
 31
0.0000
  0
LINE
  8
48
 10
15.2463
 20
73.4787
 30
0.0000
 11
15.6555
 21
73.8060
 31
0.0000
  0
LINE
  8
48
 10
15.6555
 20
73.8060
 30
0.0000
 11
15.6555
 21
72.3329
 31
0.0000
  0
LINE
  8
48
 10
15.2463
 20
72.3329
 30
0.0000
 11
16.0647
 21
72.3329
 31
0.0000
  0
LINE
  8
48
 10
16.7329
 20
73.1513
 30
0.0000
 11
17.2239
 21
73.1513
 31
0.0000
  0
ARC
  8
48
 10
17.2239
 20
72.8239
 30
0.0000
 40
0.3274
 50
0.0000
 51
90.0000
  0
LINE
  8
48
 10
17.5513
 20
72.8239
 30
0.0000
 11
17.5513
 21
72.7421
 31
0.0000
  0
ARC
  8
48
 10
17.1421
 20
72.7421
 30
0.0000
 40
0.4092
 50
180.0000
 51
0.0000
  0
LINE
  8
48
 10
16.7329
 20
72.7421
 30
0.0000
 11
16.7329
 21
73.1513
 31
0.0000
  0
ARC
  8
48
 10
17.3876
 20
73.1513
 30
0.0000
 40
0.6548
 50
90.0003
 51
180.0000
  0
LINE
  8
48
 10
18.1913
 20
72.4556
 30
0.0000
 11
18.1913
 21
72.5375
 31
0.0000
  0
LINE
  8
48
 10
18.1913
 20
72.5375
 30
0.0000
 11
18.2732
 21
72.5375
 31
0.0000
  0
LINE
  8
48
 10
18.2732
 20
72.5375
 30
0.0000
 11
18.2732
 21
72.4556
 31
0.0000
  0
LINE
  8
48
 10
18.2732
 20
72.4556
 30
0.0000
 11
18.1913
 21
72.4556
 31
0.0000
  0
LINE
  8
48
 10
18.1913
 20
73.1104
 30
0.0000
 11
18.1913
 21
73.1922
 31
0.0000
  0
LINE
  8
48
 10
18.1913
 20
73.1922
 30
0.0000
 11
18.2732
 21
73.1922
 31
0.0000
  0
LINE
  8
48
 10
18.2732
 20
73.1922
 30
0.0000
 11
18.2732
 21
73.1104
 31
0.0000
  0
LINE
  8
48
 10
18.2732
 20
73.1104
 30
0.0000
 11
18.1913
 21
73.1104
 31
0.0000
  0
LINE
  8
48
 10
18.9132
 20
73.4787
 30
0.0000
 11
19.3224
 21
73.8060
 31
0.0000
  0
LINE
  8
48
 10
19.3224
 20
73.8060
 30
0.0000
 11
19.3224
 21
72.3329
 31
0.0000
  0
LINE
  8
48
 10
18.9132
 20
72.3329
 30
0.0000
 11
19.7316
 21
72.3329
 31
0.0000
  0
LINE
  8
48
 10
20.3997
 20
72.3329
 30
0.0000
 11
20.8908
 21
72.3329
 31
0.0000
  0
ARC
  8
48
 10
20.8908
 20
72.6602
 30
0.0000
 40
0.3274
 50
270.0000
 51
359.9995
  0
LINE
  8
48
 10
21.2182
 20
72.6602
 30
0.0000
 11
21.2182
 21
72.8239
 31
0.0000
  0
ARC
  8
48
 10
20.8908
 20
72.8239
 30
0.0000
 40
0.3274
 50
0.0000
 51
90.0000
  0
LINE
  8
48
 10
20.8908
 20
73.1513
 30
0.0000
 11
20.3997
 21
73.1513
 31
0.0000
  0
LINE
  8
48
 10
20.3997
 20
73.1513
 30
0.0000
 11
20.3997
 21
73.8060
 31
0.0000
  0
LINE
  8
48
 10
20.3997
 20
73.8060
 30
0.0000
 11
21.2182
 21
73.8060
 31
0.0000
  0
POINT
  8
23
 10
29.0513
 20
8.7313
 30
0.0000
  0
INSERT
  8
21
  2
RECT
 10
29.0513
 20
9.6253
 30
0.0000
 41
0.1676
 42
0.0559
 43
1.0000
 50
90.0000
  0
INSERT
  8
21
  2
RECT
 10
29.0513
 20
10.1283
 30
0.0000
 41
0.1676
 42
0.0559
 43
1.0000
 50
90.0000
  0
INSERT
  8
21
  2
RECT
 10
29.0513
 20
10.6032
 30
0.0000
 41
0.3353
 42
0.0559
 43
1.0000
 50
90.0000
  0
INSERT
  8
21
  2
RECT
 10
29.0513
 20
10.9106
 30
0.0000
 41
0.1676
 42
0.0559
 43
1.0000
 50
90.0000
  0
INSERT
  8
21
  2
RECT
 10
29.0513
 20
11.2459
 30
0.0000
 41
0.1676
 42
0.0559
 43
1.0000
 50
90.0000
  0
INSERT
  8
21
  2
RECT
 10
29.0513
 20
12.0002
 30
0.0000
 41
0.2235
 42
0.0559
 43
1.0000
 50
90.0000
  0
INSERT
  8
21
  2
RECT
 10
29.0513
 20
12.3076
 30
0.0000
 41
0.1676
 42
0.0559
 43
1.0000
 50
90.0000
  0
INSERT
  8
21
  2
RECT
 10
29.0513
 20
12.8105
 30
0.0000
 41
0.1676
 42
0.0559
 43
1.0000
 50
90.0000
  0
INSERT
  8
21
  2
RECT
 10
29.0513
 20
13.3134
 30
0.0000
 41
0.1676
 42
0.0559
 43
1.0000
 50
90.0000
  0
INSERT
  8
21
  2
RECT
 10
29.0513
 20
13.9281
 30
0.0000
 41
0.2794
 42
0.0559
 43
1.0000
 50
90.0000
  0
INSERT
  8
21
  2
RECT
 10
29.0513
 20
14.2354
 30
0.0000
 41
0.2235
 42
0.0559
 43
1.0000
 50
90.0000
  0
INSERT
  8
21
  2
RECT
 10
29.0513
 20
14.5987
 30
0.0000
 41
0.1676
 42
0.0559
 43
1.0000
 50
90.0000
  0
INSERT
  8
21
  2
RECT
 10
29.0513
 20
15.4089
 30
0.0000
 41
0.3353
 42
0.0559
 43
1.0000
 50
90.0000
  0
INSERT
  8
21
  2
RECT
 10
28.9954
 20
9.6253
 30
0.0000
 41
0.1676
 42
0.0559
 43
1.0000
 50
90.0000
  0
INSERT
  8
21
  2
RECT
 10
28.9954
 20
10.1283
 30
0.0000
 41
0.1676
 42
0.0559
 43
1.0000
 50
90.0000
  0
INSERT
  8
21
  2
RECT
 10
28.9954
 20
10.6871
 30
0.0000
 41
0.6147
 42
0.0559
 43
1.0000
 50
90.0000
  0
INSERT
  8
21
  2
RECT
 10
28.9954
 20
11.2459
 30
0.0000
 41
0.1676
 42
0.0559
 43
1.0000
 50
90.0000
  0
INSERT
  8
21
  2
RECT
 10
28.9954
 20
12.0841
 30
0.0000
 41
0.6147
 42
0.0559
 43
1.0000
 50
90.0000
  0
INSERT
  8
21
  2
RECT
 10
28.9954
 20
12.8105
 30
0.0000
 41
0.1676
 42
0.0559
 43
1.0000
 50
90.0000
  0
INSERT
  8
21
  2
RECT
 10
28.9954
 20
13.2855
 30
0.0000
 41
0.2235
 42
0.0559
 43
1.0000
 50
90.0000
  0
INSERT
  8
21
  2
RECT
 10
28.9954
 20
14.0399
 30
0.0000
 41
0.6147
 42
0.0559
 43
1.0000
 50
90.0000
  0
INSERT
  8
21
  2
RECT
 10
28.9954
 20
14.5987
 30
0.0000
 41
0.1676
 42
0.0559
 43
1.0000
 50
90.0000
  0
INSERT
  8
21
  2
RECT
 10
28.9954
 20
15.4369
 30
0.0000
 41
0.5029
 42
0.0559
 43
1.0000
 50
90.0000
  0
INSERT
  8
21
  2
RECT
 10
28.9395
 20
9.6253
 30
0.0000
 41
0.1676
 42
0.0559
 43
1.0000
 50
90.0000
  0
INSERT
  8
21
  2
RECT
 10
28.9395
 20
10.1283
 30
0.0000
 41
0.1676
 42
0.0559
 43
1.0000
 50
90.0000
  0
INSERT
  8
21
  2
RECT
 10
28.9395
 20
10.6591
 30
0.0000
 41
0.6706
 42
0.0559
 43
1.0000
 50
90.0000
  0
INSERT
  8
21
  2
RECT
 10
28.9395
 20
11.2459
 30
0.0000
 41
0.1676
 42
0.0559
 43
1.0000
 50
90.0000
  0
INSERT
  8
21
  2
RECT
 10
28.9395
 20
12.0841
 30
0.0000
 41
0.6147
 42
0.0559
 43
1.0000
 50
90.0000
  0
INSERT
  8
21
  2
RECT
 10
28.9395
 20
12.7826
 30
0.0000
 41
0.2235
 42
0.0559
 43
1.0000
 50
90.0000
  0
INSERT
  8
21
  2
RECT
 10
28.9395
 20
13.2855
 30
0.0000
 41
0.2235
 42
0.0559
 43
1.0000
 50
90.0000
  0
INSERT
  8
21
  2
RECT
 10
28.9395
 20
14.0119
 30
0.0000
 41
0.6706
 42
0.0559
 43
1.0000
 50
90.0000
  0
INSERT
  8
21
  2
RECT
 10
28.9395
 20
14.5987
 30
0.0000
 41
0.1676
 42
0.0559
 43
1.0000
 50
90.0000
  0
INSERT
  8
21
  2
RECT
 10
28.9395
 20
15.4369
 30
0.0000
 41
0.6147
 42
0.0559
 43
1.0000
 50
90.0000
  0
INSERT
  8
21
  2
RECT
 10
28.8836
 20
9.6253
 30
0.0000
 41
0.1676
 42
0.0559
 43
1.0000
 50
90.0000
  0
INSERT
  8
21
  2
RECT
 10
28.8836
 20
10.1283
 30
0.0000
 41
0.1676
 42
0.0559
 43
1.0000
 50
90.0000
  0
INSERT
  8
21
  2
RECT
 10
28.8836
 20
10.4077
 30
0.0000
 41
0.1676
 42
0.0559
 43
1.0000
 50
90.0000
  0
INSERT
  8
21
  2
RECT
 10
28.8836
 20
10.8826
 30
0.0000
 41
0.2235
 42
0.0559
 43
1.0000
 50
90.0000
  0
INSERT
  8
21
  2
RECT
 10
28.8836
 20
11.2459
 30
0.0000
 41
0.1676
 42
0.0559
 43
1.0000
 50
90.0000
  0
INSERT
  8
21
  2
RECT
 10
28.8836
 20
11.8326
 30
0.0000
 41
0.2235
 42
0.0559
 43
1.0000
 50
90.0000
  0
INSERT
  8
21
  2
RECT
 10
28.8836
 20
12.2517
 30
0.0000
 41
0.2794
 42
0.0559
 43
1.0000
 50
90.0000
  0
INSERT
  8
21
  2
RECT
 10
28.8836
 20
12.8105
 30
0.0000
 41
0.2794
 42
0.0559
 43
1.0000
 50
90.0000
  0
INSERT
  8
21
  2
RECT
 10
28.8836
 20
13.3134
 30
0.0000
 41
0.2794
 42
0.0559
 43
1.0000
 50
90.0000
  0
INSERT
  8
21
  2
RECT
 10
28.8836
 20
13.7605
 30
0.0000
 41
0.1676
 42
0.0559
 43
1.0000
 50
90.0000
  0
INSERT
  8
21
  2
RECT
 10
28.8836
 20
14.2354
 30
0.0000
 41
0.2235
 42
0.0559
 43
1.0000
 50
90.0000
  0
INSERT
  8
21
  2
RECT
 10
28.8836
 20
14.5987
 30
0.0000
 41
0.1676
 42
0.0559
 43
1.0000
 50
90.0000
  0
INSERT
  8
21
  2
RECT
 10
28.8836
 20
15.1854
 30
0.0000
 41
0.2235
 42
0.0559
 43
1.0000
 50
90.0000
  0
INSERT
  8
21
  2
RECT
 10
28.8836
 20
15.6045
 30
0.0000
 41
0.1676
 42
0.0559
 43
1.0000
 50
90.0000
  0
INSERT
  8
21
  2
RECT
 10
28.8277
 20
9.6253
 30
0.0000
 41
0.1676
 42
0.0559
 43
1.0000
 50
90.0000
  0
INSERT
  8
21
  2
RECT
 10
28.8277
 20
10.1283
 30
0.0000
 41
0.1676
 42
0.0559
 43
1.0000
 50
90.0000
  0
INSERT
  8
21
  2
RECT
 10
28.8277
 20
10.4077
 30
0.0000
 41
0.1676
 42
0.0559
 43
1.0000
 50
90.0000
  0
INSERT
  8
21
  2
RECT
 10
28.8277
 20
10.8826
 30
0.0000
 41
0.2235
 42
0.0559
 43
1.0000
 50
90.0000
  0
INSERT
  8
21
  2
RECT
 10
28.8277
 20
11.2459
 30
0.0000
 41
0.1676
 42
0.0559
 43
1.0000
 50
90.0000
  0
INSERT
  8
21
  2
RECT
 10
28.8277
 20
11.8047
 30
0.0000
 41
0.1676
 42
0.0559
 43
1.0000
 50
90.0000
  0
INSERT
  8
21
  2
RECT
 10
28.8277
 20
12.2796
 30
0.0000
 41
0.2235
 42
0.0559
 43
1.0000
 50
90.0000
  0
INSERT
  8
21
  2
RECT
 10
28.8277
 20
12.8105
 30
0.0000
 41
0.2794
 42
0.0559
 43
1.0000
 50
90.0000
  0
INSERT
  8
21
  2
RECT
 10
28.8277
 20
13.3134
 30
0.0000
 41
0.2794
 42
0.0559
 43
1.0000
 50
90.0000
  0
INSERT
  8
21
  2
RECT
 10
28.8277
 20
13.7046
 30
0.0000
 41
0.1676
 42
0.0559
 43
1.0000
 50
90.0000
  0
INSERT
  8
21
  2
RECT
 10
28.8277
 20
14.2354
 30
0.0000
 41
0.2235
 42
0.0559
 43
1.0000
 50
90.0000
  0
INSERT
  8
21
  2
RECT
 10
28.8277
 20
14.5987
 30
0.0000
 41
0.1676
 42
0.0559
 43
1.0000
 50
90.0000
  0
INSERT
  8
21
  2
RECT
 10
28.8277
 20
15.1575
 30
0.0000
 41
0.1676
 42
0.0559
 43
1.0000
 50
90.0000
  0
INSERT
  8
21
  2
RECT
 10
28.7719
 20
9.6253
 30
0.0000
 41
0.1676
 42
0.0559
 43
1.0000
 50
90.0000
  0
INSERT
  8
21
  2
RECT
 10
28.7719
 20
10.1283
 30
0.0000
 41
0.1676
 42
0.0559
 43
1.0000
 50
90.0000
  0
INSERT
  8
21
  2
RECT
 10
28.7719
 20
10.4077
 30
0.0000
 41
0.1676
 42
0.0559
 43
1.0000
 50
90.0000
  0
INSERT
  8
21
  2
RECT
 10
28.7719
 20
10.9106
 30
0.0000
 41
0.1676
 42
0.0559
 43
1.0000
 50
90.0000
  0
INSERT
  8
21
  2
RECT
 10
28.7719
 20
11.2459
 30
0.0000
 41
0.1676
 42
0.0559
 43
1.0000
 50
90.0000
  0
INSERT
  8
21
  2
RECT
 10
28.7719
 20
11.8047
 30
0.0000
 41
0.1676
 42
0.0559
 43
1.0000
 50
90.0000
  0
INSERT
  8
21
  2
RECT
 10
28.7719
 20
12.3076
 30
0.0000
 41
0.1676
 42
0.0559
 43
1.0000
 50
90.0000
  0
INSERT
  8
21
  2
RECT
 10
28.7719
 20
12.7826
 30
0.0000
 41
0.3353
 42
0.0559
 43
1.0000
 50
90.0000
  0
INSERT
  8
21
  2
RECT
 10
28.7719
 20
13.2855
 30
0.0000
 41
0.3353
 42
0.0559
 43
1.0000
 50
90.0000
  0
INSERT
  8
21
  2
RECT
 10
28.7719
 20
13.7325
 30
0.0000
 41
0.2235
 42
0.0559
 43
1.0000
 50
90.0000
  0
INSERT
  8
21
  2
RECT
 10
28.7719
 20
14.2354
 30
0.0000
 41
0.2235
 42
0.0559
 43
1.0000
 50
90.0000
  0
INSERT
  8
21
  2
RECT
 10
28.7719
 20
14.5987
 30
0.0000
 41
0.1676
 42
0.0559
 43
1.0000
 50
90.0000
  0
INSERT
  8
21
  2
RECT
 10
28.7719
 20
15.1575
 30
0.0000
 41
0.1676
 42
0.0559
 43
1.0000
 50
90.0000
  0
INSERT
  8
21
  2
RECT
 10
28.7160
 20
9.6253
 30
0.0000
 41
0.1676
 42
0.0559
 43
1.0000
 50
90.0000
  0
INSERT
  8
21
  2
RECT
 10
28.7160
 20
10.1283
 30
0.0000
 41
0.1676
 42
0.0559
 43
1.0000
 50
90.0000
  0
INSERT
  8
21
  2
RECT
 10
28.7160
 20
10.6591
 30
0.0000
 41
0.6706
 42
0.0559
 43
1.0000
 50
90.0000
  0
INSERT
  8
21
  2
RECT
 10
28.7160
 20
11.2459
 30
0.0000
 41
0.1676
 42
0.0559
 43
1.0000
 50
90.0000
  0
INSERT
  8
21
  2
RECT
 10
28.7160
 20
11.8047
 30
0.0000
 41
0.1676
 42
0.0559
 43
1.0000
 50
90.0000
  0
INSERT
  8
21
  2
RECT
 10
28.7160
 20
12.3076
 30
0.0000
 41
0.1676
 42
0.0559
 43
1.0000
 50
90.0000
  0
INSERT
  8
21
  2
RECT
 10
28.7160
 20
12.6987
 30
0.0000
 41
0.1676
 42
0.0559
 43
1.0000
 50
90.0000
  0
INSERT
  8
21
  2
RECT
 10
28.7160
 20
12.9223
 30
0.0000
 41
0.1676
 42
0.0559
 43
1.0000
 50
90.0000
  0
INSERT
  8
21
  2
RECT
 10
28.7160
 20
13.2017
 30
0.0000
 41
0.1676
 42
0.0559
 43
1.0000
 50
90.0000
  0
INSERT
  8
21
  2
RECT
 10
28.7160
 20
13.4252
 30
0.0000
 41
0.1676
 42
0.0559
 43
1.0000
 50
90.0000
  0
INSERT
  8
21
  2
RECT
 10
28.7160
 20
14.0119
 30
0.0000
 41
0.6706
 42
0.0559
 43
1.0000
 50
90.0000
  0
INSERT
  8
21
  2
RECT
 10
28.7160
 20
14.5987
 30
0.0000
 41
0.1676
 42
0.0559
 43
1.0000
 50
90.0000
  0
INSERT
  8
21
  2
RECT
 10
28.7160
 20
15.4089
 30
0.0000
 41
0.6706
 42
0.0559
 43
1.0000
 50
90.0000
  0
INSERT
  8
21
  2
RECT
 10
28.6601
 20
9.6253
 30
0.0000
 41
0.1676
 42
0.0559
 43
1.0000
 50
90.0000
  0
INSERT
  8
21
  2
RECT
 10
28.6601
 20
10.1283
 30
0.0000
 41
0.1676
 42
0.0559
 43
1.0000
 50
90.0000
  0
INSERT
  8
21
  2
RECT
 10
28.6601
 20
10.6871
 30
0.0000
 41
0.6147
 42
0.0559
 43
1.0000
 50
90.0000
  0
INSERT
  8
21
  2
RECT
 10
28.6601
 20
11.2459
 30
0.0000
 41
0.1676
 42
0.0559
 43
1.0000
 50
90.0000
  0
INSERT
  8
21
  2
RECT
 10
28.6601
 20
11.8047
 30
0.0000
 41
0.1676
 42
0.0559
 43
1.0000
 50
90.0000
  0
INSERT
  8
21
  2
RECT
 10
28.6601
 20
12.3076
 30
0.0000
 41
0.1676
 42
0.0559
 43
1.0000
 50
90.0000
  0
INSERT
  8
21
  2
RECT
 10
28.6601
 20
12.6987
 30
0.0000
 41
0.1676
 42
0.0559
 43
1.0000
 50
90.0000
  0
INSERT
  8
21
  2
RECT
 10
28.6601
 20
12.9223
 30
0.0000
 41
0.1676
 42
0.0559
 43
1.0000
 50
90.0000
  0
INSERT
  8
21
  2
RECT
 10
28.6601
 20
13.1737
 30
0.0000
 41
0.1118
 42
0.0559
 43
1.0000
 50
90.0000
  0
INSERT
  8
21
  2
RECT
 10
28.6601
 20
13.4252
 30
0.0000
 41
0.1676
 42
0.0559
 43
1.0000
 50
90.0000
  0
INSERT
  8
21
  2
RECT
 10
28.6601
 20
14.0119
 30
0.0000
 41
0.6706
 42
0.0559
 43
1.0000
 50
90.0000
  0
INSERT
  8
21
  2
RECT
 10
28.6601
 20
14.5987
 30
0.0000
 41
0.1676
 42
0.0559
 43
1.0000
 50
90.0000
  0
INSERT
  8
21
  2
RECT
 10
28.6601
 20
15.4089
 30
0.0000
 41
0.6706
 42
0.0559
 43
1.0000
 50
90.0000
  0
INSERT
  8
21
  2
RECT
 10
28.6042
 20
9.6253
 30
0.0000
 41
0.1676
 42
0.0559
 43
1.0000
 50
90.0000
  0
INSERT
  8
21
  2
RECT
 10
28.6042
 20
10.1283
 30
0.0000
 41
0.1676
 42
0.0559
 43
1.0000
 50
90.0000
  0
INSERT
  8
21
  2
RECT
 10
28.6042
 20
10.7150
 30
0.0000
 41
0.5588
 42
0.0559
 43
1.0000
 50
90.0000
  0
INSERT
  8
21
  2
RECT
 10
28.6042
 20
11.2459
 30
0.0000
 41
0.1676
 42
0.0559
 43
1.0000
 50
90.0000
  0
INSERT
  8
21
  2
RECT
 10
28.6042
 20
11.8047
 30
0.0000
 41
0.1676
 42
0.0559
 43
1.0000
 50
90.0000
  0
INSERT
  8
21
  2
RECT
 10
28.6042
 20
12.3076
 30
0.0000
 41
0.1676
 42
0.0559
 43
1.0000
 50
90.0000
  0
INSERT
  8
21
  2
RECT
 10
28.6042
 20
12.6429
 30
0.0000
 41
0.1676
 42
0.0559
 43
1.0000
 50
90.0000
  0
INSERT
  8
21
  2
RECT
 10
28.6042
 20
12.9502
 30
0.0000
 41
0.1118
 42
0.0559
 43
1.0000
 50
90.0000
  0
INSERT
  8
21
  2
RECT
 10
28.6042
 20
13.1458
 30
0.0000
 41
0.1676
 42
0.0559
 43
1.0000
 50
90.0000
  0
INSERT
  8
21
  2
RECT
 10
28.6042
 20
13.4252
 30
0.0000
 41
0.1676
 42
0.0559
 43
1.0000
 50
90.0000
  0
INSERT
  8
21
  2
RECT
 10
28.6042
 20
14.0678
 30
0.0000
 41
0.5588
 42
0.0559
 43
1.0000
 50
90.0000
  0
INSERT
  8
21
  2
RECT
 10
28.6042
 20
14.5987
 30
0.0000
 41
0.1676
 42
0.0559
 43
1.0000
 50
90.0000
  0
INSERT
  8
21
  2
RECT
 10
28.6042
 20
15.4089
 30
0.0000
 41
0.6706
 42
0.0559
 43
1.0000
 50
90.0000
  0
INSERT
  8
21
  2
RECT
 10
28.5483
 20
9.6253
 30
0.0000
 41
0.1676
 42
0.0559
 43
1.0000
 50
90.0000
  0
INSERT
  8
21
  2
RECT
 10
28.5483
 20
10.1003
 30
0.0000
 41
0.2235
 42
0.0559
 43
1.0000
 50
90.0000
  0
INSERT
  8
21
  2
RECT
 10
28.5483
 20
10.9106
 30
0.0000
 41
0.1676
 42
0.0559
 43
1.0000
 50
90.0000
  0
INSERT
  8
21
  2
RECT
 10
28.5483
 20
11.2459
 30
0.0000
 41
0.1676
 42
0.0559
 43
1.0000
 50
90.0000
  0
INSERT
  8
21
  2
RECT
 10
28.5483
 20
11.8047
 30
0.0000
 41
0.1676
 42
0.0559
 43
1.0000
 50
90.0000
  0
INSERT
  8
21
  2
RECT
 10
28.5483
 20
12.3076
 30
0.0000
 41
0.1676
 42
0.0559
 43
1.0000
 50
90.0000
  0
INSERT
  8
21
  2
RECT
 10
28.5483
 20
12.6429
 30
0.0000
 41
0.1676
 42
0.0559
 43
1.0000
 50
90.0000
  0
INSERT
  8
21
  2
RECT
 10
28.5483
 20
13.0620
 30
0.0000
 41
0.3353
 42
0.0559
 43
1.0000
 50
90.0000
  0
INSERT
  8
21
  2
RECT
 10
28.5483
 20
13.4811
 30
0.0000
 41
0.1676
 42
0.0559
 43
1.0000
 50
90.0000
  0
INSERT
  8
21
  2
RECT
 10
28.5483
 20
14.2354
 30
0.0000
 41
0.2235
 42
0.0559
 43
1.0000
 50
90.0000
  0
INSERT
  8
21
  2
RECT
 10
28.5483
 20
14.5987
 30
0.0000
 41
0.1676
 42
0.0559
 43
1.0000
 50
90.0000
  0
INSERT
  8
21
  2
RECT
 10
28.5483
 20
15.1575
 30
0.0000
 41
0.1676
 42
0.0559
 43
1.0000
 50
90.0000
  0
INSERT
  8
21
  2
RECT
 10
28.5483
 20
15.6604
 30
0.0000
 41
0.1676
 42
0.0559
 43
1.0000
 50
90.0000
  0
INSERT
  8
21
  2
RECT
 10
28.4925
 20
9.6253
 30
0.0000
 41
0.1676
 42
0.0559
 43
1.0000
 50
90.0000
  0
INSERT
  8
21
  2
RECT
 10
28.4925
 20
10.1003
 30
0.0000
 41
0.2235
 42
0.0559
 43
1.0000
 50
90.0000
  0
INSERT
  8
21
  2
RECT
 10
28.4925
 20
10.9106
 30
0.0000
 41
0.1676
 42
0.0559
 43
1.0000
 50
90.0000
  0
INSERT
  8
21
  2
RECT
 10
28.4925
 20
11.2459
 30
0.0000
 41
0.1676
 42
0.0559
 43
1.0000
 50
90.0000
  0
INSERT
  8
21
  2
RECT
 10
28.4925
 20
11.8047
 30
0.0000
 41
0.1676
 42
0.0559
 43
1.0000
 50
90.0000
  0
INSERT
  8
21
  2
RECT
 10
28.4925
 20
12.2796
 30
0.0000
 41
0.2235
 42
0.0559
 43
1.0000
 50
90.0000
  0
INSERT
  8
21
  2
RECT
 10
28.4925
 20
12.6429
 30
0.0000
 41
0.1676
 42
0.0559
 43
1.0000
 50
90.0000
  0
INSERT
  8
21
  2
RECT
 10
28.4925
 20
13.0340
 30
0.0000
 41
0.2794
 42
0.0559
 43
1.0000
 50
90.0000
  0
INSERT
  8
21
  2
RECT
 10
28.4925
 20
13.4811
 30
0.0000
 41
0.1676
 42
0.0559
 43
1.0000
 50
90.0000
  0
INSERT
  8
21
  2
RECT
 10
28.4925
 20
14.2354
 30
0.0000
 41
0.2235
 42
0.0559
 43
1.0000
 50
90.0000
  0
INSERT
  8
21
  2
RECT
 10
28.4925
 20
14.5987
 30
0.0000
 41
0.1676
 42
0.0559
 43
1.0000
 50
90.0000
  0
INSERT
  8
21
  2
RECT
 10
28.4925
 20
15.1575
 30
0.0000
 41
0.1676
 42
0.0559
 43
1.0000
 50
90.0000
  0
INSERT
  8
21
  2
RECT
 10
28.4925
 20
15.6604
 30
0.0000
 41
0.1676
 42
0.0559
 43
1.0000
 50
90.0000
  0
INSERT
  8
21
  2
RECT
 10
28.4366
 20
9.6533
 30
0.0000
 41
0.2235
 42
0.0559
 43
1.0000
 50
90.0000
  0
INSERT
  8
21
  2
RECT
 10
28.4366
 20
10.0724
 30
0.0000
 41
0.1676
 42
0.0559
 43
1.0000
 50
90.0000
  0
INSERT
  8
21
  2
RECT
 10
28.4366
 20
10.8826
 30
0.0000
 41
0.2235
 42
0.0559
 43
1.0000
 50
90.0000
  0
INSERT
  8
21
  2
RECT
 10
28.4366
 20
11.2738
 30
0.0000
 41
0.2235
 42
0.0559
 43
1.0000
 50
90.0000
  0
INSERT
  8
21
  2
RECT
 10
28.4366
 20
11.8326
 30
0.0000
 41
0.2235
 42
0.0559
 43
1.0000
 50
90.0000
  0
INSERT
  8
21
  2
RECT
 10
28.4366
 20
12.2796
 30
0.0000
 41
0.2235
 42
0.0559
 43
1.0000
 50
90.0000
  0
INSERT
  8
21
  2
RECT
 10
28.4366
 20
12.6149
 30
0.0000
 41
0.2235
 42
0.0559
 43
1.0000
 50
90.0000
  0
INSERT
  8
21
  2
RECT
 10
28.4366
 20
13.0620
 30
0.0000
 41
0.2235
 42
0.0559
 43
1.0000
 50
90.0000
  0
INSERT
  8
21
  2
RECT
 10
28.4366
 20
13.4811
 30
0.0000
 41
0.1676
 42
0.0559
 43
1.0000
 50
90.0000
  0
INSERT
  8
21
  2
RECT
 10
28.4366
 20
14.2075
 30
0.0000
 41
0.1676
 42
0.0559
 43
1.0000
 50
90.0000
  0
INSERT
  8
21
  2
RECT
 10
28.4366
 20
14.6266
 30
0.0000
 41
0.2235
 42
0.0559
 43
1.0000
 50
90.0000
  0
INSERT
  8
21
  2
RECT
 10
28.4366
 20
15.1854
 30
0.0000
 41
0.2235
 42
0.0559
 43
1.0000
 50
90.0000
  0
INSERT
  8
21
  2
RECT
 10
28.4366
 20
15.6324
 30
0.0000
 41
0.2235
 42
0.0559
 43
1.0000
 50
90.0000
  0
INSERT
  8
21
  2
RECT
 10
28.3807
 20
9.8489
 30
0.0000
 41
0.6147
 42
0.0559
 43
1.0000
 50
90.0000
  0
INSERT
  8
21
  2
RECT
 10
28.3807
 20
10.6591
 30
0.0000
 41
0.5588
 42
0.0559
 43
1.0000
 50
90.0000
  0
INSERT
  8
21
  2
RECT
 10
28.3807
 20
11.4135
 30
0.0000
 41
0.5029
 42
0.0559
 43
1.0000
 50
90.0000
  0
INSERT
  8
21
  2
RECT
 10
28.3807
 20
12.0561
 30
0.0000
 41
0.6706
 42
0.0559
 43
1.0000
 50
90.0000
  0
INSERT
  8
21
  2
RECT
 10
28.3807
 20
12.5870
 30
0.0000
 41
0.1676
 42
0.0559
 43
1.0000
 50
90.0000
  0
INSERT
  8
21
  2
RECT
 10
28.3807
 20
13.0620
 30
0.0000
 41
0.2235
 42
0.0559
 43
1.0000
 50
90.0000
  0
INSERT
  8
21
  2
RECT
 10
28.3807
 20
13.5090
 30
0.0000
 41
0.2235
 42
0.0559
 43
1.0000
 50
90.0000
  0
INSERT
  8
21
  2
RECT
 10
28.3807
 20
14.0119
 30
0.0000
 41
0.5588
 42
0.0559
 43
1.0000
 50
90.0000
  0
INSERT
  8
21
  2
RECT
 10
28.3807
 20
14.7384
 30
0.0000
 41
0.4470
 42
0.0559
 43
1.0000
 50
90.0000
  0
INSERT
  8
21
  2
RECT
 10
28.3807
 20
15.4089
 30
0.0000
 41
0.5588
 42
0.0559
 43
1.0000
 50
90.0000
  0
INSERT
  8
21
  2
RECT
 10
28.3248
 20
9.8209
 30
0.0000
 41
0.5588
 42
0.0559
 43
1.0000
 50
90.0000
  0
INSERT
  8
21
  2
RECT
 10
28.3248
 20
10.6591
 30
0.0000
 41
0.5588
 42
0.0559
 43
1.0000
 50
90.0000
  0
INSERT
  8
21
  2
RECT
 10
28.3248
 20
11.4135
 30
0.0000
 41
0.5029
 42
0.0559
 43
1.0000
 50
90.0000
  0
INSERT
  8
21
  2
RECT
 10
28.3248
 20
12.0841
 30
0.0000
 41
0.6147
 42
0.0559
 43
1.0000
 50
90.0000
  0
INSERT
  8
21
  2
RECT
 10
28.3248
 20
12.5870
 30
0.0000
 41
0.1676
 42
0.0559
 43
1.0000
 50
90.0000
  0
INSERT
  8
21
  2
RECT
 10
28.3248
 20
13.0340
 30
0.0000
 41
0.1676
 42
0.0559
 43
1.0000
 50
90.0000
  0
INSERT
  8
21
  2
RECT
 10
28.3248
 20
13.5369
 30
0.0000
 41
0.1676
 42
0.0559
 43
1.0000
 50
90.0000
  0
INSERT
  8
21
  2
RECT
 10
28.3248
 20
13.9840
 30
0.0000
 41
0.6147
 42
0.0559
 43
1.0000
 50
90.0000
  0
INSERT
  8
21
  2
RECT
 10
28.3248
 20
14.7663
 30
0.0000
 41
0.5029
 42
0.0559
 43
1.0000
 50
90.0000
  0
INSERT
  8
21
  2
RECT
 10
28.3248
 20
15.4089
 30
0.0000
 41
0.4470
 42
0.0559
 43
1.0000
 50
90.0000
  0
INSERT
  8
21
  2
RECT
 10
28.2689
 20
9.6253
 30
0.0000
 41
0.1676
 42
0.0559
 43
1.0000
 50
90.0000
  0
INSERT
  8
21
  2
RECT
 10
28.2689
 20
9.9047
 30
0.0000
 41
0.2794
 42
0.0559
 43
1.0000
 50
90.0000
  0
INSERT
  8
21
  2
RECT
 10
28.2689
 20
10.6312
 30
0.0000
 41
0.3912
 42
0.0559
 43
1.0000
 50
90.0000
  0
INSERT
  8
21
  2
RECT
 10
28.2689
 20
11.2459
 30
0.0000
 41
0.1676
 42
0.0559
 43
1.0000
 50
90.0000
  0
INSERT
  8
21
  2
RECT
 10
28.2689
 20
11.5252
 30
0.0000
 41
0.2794
 42
0.0559
 43
1.0000
 50
90.0000
  0
INSERT
  8
21
  2
RECT
 10
28.2689
 20
12.0002
 30
0.0000
 41
0.3353
 42
0.0559
 43
1.0000
 50
90.0000
  0
INSERT
  8
21
  2
RECT
 10
28.2689
 20
12.3076
 30
0.0000
 41
0.1676
 42
0.0559
 43
1.0000
 50
90.0000
  0
INSERT
  8
21
  2
RECT
 10
28.2689
 20
12.5590
 30
0.0000
 41
0.2235
 42
0.0559
 43
1.0000
 50
90.0000
  0
INSERT
  8
21
  2
RECT
 10
28.2689
 20
13.0340
 30
0.0000
 41
0.1676
 42
0.0559
 43
1.0000
 50
90.0000
  0
INSERT
  8
21
  2
RECT
 10
28.2689
 20
13.5369
 30
0.0000
 41
0.1676
 42
0.0559
 43
1.0000
 50
90.0000
  0
INSERT
  8
21
  2
RECT
 10
28.2689
 20
13.9840
 30
0.0000
 41
0.3912
 42
0.0559
 43
1.0000
 50
90.0000
  0
INSERT
  8
21
  2
RECT
 10
28.2689
 20
14.5987
 30
0.0000
 41
0.1676
 42
0.0559
 43
1.0000
 50
90.0000
  0
INSERT
  8
21
  2
RECT
 10
28.2689
 20
14.8780
 30
0.0000
 41
0.2794
 42
0.0559
 43
1.0000
 50
90.0000
  0
INSERT
  8
21
  2
RECT
 10
28.2689
 20
15.4089
 30
0.0000
 41
0.3353
 42
0.0559
 43
1.0000
 50
90.0000
  0
INSERT
  8
21
  2
RECT
 10
28.2131
 20
9.6253
 30
0.0000
 41
0.1676
 42
0.0559
 43
1.0000
 50
90.0000
  0
INSERT
  8
21
  2
RECT
 10
28.2131
 20
12.3076
 30
0.0000
 41
0.1676
 42
0.0559
 43
1.0000
 50
90.0000
  0
INSERT
  8
21
  2
RECT
 10
28.1572
 20
9.6253
 30
0.0000
 41
0.1676
 42
0.0559
 43
1.0000
 50
90.0000
  0
INSERT
  8
21
  2
RECT
 10
28.1572
 20
12.3076
 30
0.0000
 41
0.1676
 42
0.0559
 43
1.0000
 50
90.0000
  0
INSERT
  8
21
  2
RECT
 10
28.1013
 20
9.6253
 30
0.0000
 41
0.1676
 42
0.0559
 43
1.0000
 50
90.0000
  0
INSERT
  8
21
  2
RECT
 10
28.1013
 20
12.3076
 30
0.0000
 41
0.1676
 42
0.0559
 43
1.0000
 50
90.0000
  0
INSERT
  8
21
  2
RECT
 10
28.0454
 20
9.6253
 30
0.0000
 41
0.1676
 42
0.0559
 43
1.0000
 50
90.0000
  0
INSERT
  8
21
  2
RECT
 10
28.0454
 20
12.3076
 30
0.0000
 41
0.1676
 42
0.0559
 43
1.0000
 50
90.0000
  0
INSERT
  8
21
  2
RECT
 10
27.9895
 20
9.6253
 30
0.0000
 41
0.1676
 42
0.0559
 43
1.0000
 50
90.0000
  0
INSERT
  8
21
  2
RECT
 10
27.9895
 20
12.3076
 30
0.0000
 41
0.1676
 42
0.0559
 43
1.0000
 50
90.0000
  0
INSERT
  8
21
  2
RECT
 10
27.9337
 20
9.6253
 30
0.0000
 41
0.1676
 42
0.0559
 43
1.0000
 50
90.0000
  0
INSERT
  8
21
  2
RECT
 10
27.9337
 20
12.3076
 30
0.0000
 41
0.1676
 42
0.0559
 43
1.0000
 50
90.0000
  0
INSERT
  8
21
  2
RECT
 10
27.8778
 20
9.6253
 30
0.0000
 41
0.1676
 42
0.0559
 43
1.0000
 50
90.0000
  0
INSERT
  8
21
  2
RECT
 10
27.8219
 20
9.6253
 30
0.0000
 41
0.1676
 42
0.0559
 43
1.0000
 50
90.0000
  0
INSERT
  8
21
  2
RECT
 10
27.7660
 20
9.0386
 30
0.0000
 41
0.2235
 42
0.0559
 43
1.0000
 50
90.0000
  0
INSERT
  8
21
  2
RECT
 10
27.7660
 20
9.6253
 30
0.0000
 41
0.1676
 42
0.0559
 43
1.0000
 50
90.0000
  0
INSERT
  8
21
  2
RECT
 10
27.7660
 20
9.9047
 30
0.0000
 41
0.1676
 42
0.0559
 43
1.0000
 50
90.0000
  0
INSERT
  8
21
  2
RECT
 10
27.7660
 20
10.6591
 30
0.0000
 41
0.2235
 42
0.0559
 43
1.0000
 50
90.0000
  0
INSERT
  8
21
  2
RECT
 10
27.7660
 20
11.1900
 30
0.0000
 41
0.1676
 42
0.0559
 43
1.0000
 50
90.0000
  0
INSERT
  8
21
  2
RECT
 10
27.7660
 20
11.6929
 30
0.0000
 41
0.1676
 42
0.0559
 43
1.0000
 50
90.0000
  0
INSERT
  8
21
  2
RECT
 10
27.7660
 20
12.6149
 30
0.0000
 41
0.2235
 42
0.0559
 43
1.0000
 50
90.0000
  0
INSERT
  8
21
  2
RECT
 10
27.7660
 20
13.3693
 30
0.0000
 41
0.1676
 42
0.0559
 43
1.0000
 50
90.0000
  0
INSERT
  8
21
  2
RECT
 10
27.7660
 20
14.1516
 30
0.0000
 41
0.1676
 42
0.0559
 43
1.0000
 50
90.0000
  0
INSERT
  8
21
  2
RECT
 10
27.7660
 20
14.4310
 30
0.0000
 41
0.1676
 42
0.0559
 43
1.0000
 50
90.0000
  0
INSERT
  8
21
  2
RECT
 10
27.7660
 20
14.7663
 30
0.0000
 41
0.1676
 42
0.0559
 43
1.0000
 50
90.0000
  0
INSERT
  8
21
  2
RECT
 10
27.7660
 20
15.6045
 30
0.0000
 41
0.1676
 42
0.0559
 43
1.0000
 50
90.0000
  0
INSERT
  8
21
  2
RECT
 10
27.7660
 20
16.3309
 30
0.0000
 41
0.1676
 42
0.0559
 43
1.0000
 50
90.0000
  0
INSERT
  8
21
  2
RECT
 10
27.7101
 20
9.0386
 30
0.0000
 41
0.4470
 42
0.0559
 43
1.0000
 50
90.0000
  0
INSERT
  8
21
  2
RECT
 10
27.7101
 20
9.8209
 30
0.0000
 41
0.5588
 42
0.0559
 43
1.0000
 50
90.0000
  0
INSERT
  8
21
  2
RECT
 10
27.7101
 20
10.6591
 30
0.0000
 41
0.4470
 42
0.0559
 43
1.0000
 50
90.0000
  0
INSERT
  8
21
  2
RECT
 10
27.7101
 20
11.1900
 30
0.0000
 41
0.1676
 42
0.0559
 43
1.0000
 50
90.0000
  0
INSERT
  8
21
  2
RECT
 10
27.7101
 20
11.6929
 30
0.0000
 41
0.1676
 42
0.0559
 43
1.0000
 50
90.0000
  0
INSERT
  8
21
  2
RECT
 10
27.7101
 20
12.5870
 30
0.0000
 41
0.5029
 42
0.0559
 43
1.0000
 50
90.0000
  0
INSERT
  8
21
  2
RECT
 10
27.7101
 20
13.3693
 30
0.0000
 41
0.3912
 42
0.0559
 43
1.0000
 50
90.0000
  0
INSERT
  8
21
  2
RECT
 10
27.7101
 20
14.2354
 30
0.0000
 41
0.5588
 42
0.0559
 43
1.0000
 50
90.0000
  0
INSERT
  8
21
  2
RECT
 10
27.7101
 20
14.7663
 30
0.0000
 41
0.1676
 42
0.0559
 43
1.0000
 50
90.0000
  0
INSERT
  8
21
  2
RECT
 10
27.7101
 20
15.6045
 30
0.0000
 41
0.3912
 42
0.0559
 43
1.0000
 50
90.0000
  0
INSERT
  8
21
  2
RECT
 10
27.7101
 20
16.3030
 30
0.0000
 41
0.4470
 42
0.0559
 43
1.0000
 50
90.0000
  0
INSERT
  8
21
  2
RECT
 10
27.6543
 20
9.0386
 30
0.0000
 41
0.5588
 42
0.0559
 43
1.0000
 50
90.0000
  0
INSERT
  8
21
  2
RECT
 10
27.6543
 20
9.8489
 30
0.0000
 41
0.6147
 42
0.0559
 43
1.0000
 50
90.0000
  0
INSERT
  8
21
  2
RECT
 10
27.6543
 20
10.6591
 30
0.0000
 41
0.5588
 42
0.0559
 43
1.0000
 50
90.0000
  0
INSERT
  8
21
  2
RECT
 10
27.6543
 20
11.1900
 30
0.0000
 41
0.1676
 42
0.0559
 43
1.0000
 50
90.0000
  0
INSERT
  8
21
  2
RECT
 10
27.6543
 20
11.6929
 30
0.0000
 41
0.1676
 42
0.0559
 43
1.0000
 50
90.0000
  0
INSERT
  8
21
  2
RECT
 10
27.6543
 20
12.5870
 30
0.0000
 41
0.6147
 42
0.0559
 43
1.0000
 50
90.0000
  0
INSERT
  8
21
  2
RECT
 10
27.6543
 20
13.3693
 30
0.0000
 41
0.5029
 42
0.0559
 43
1.0000
 50
90.0000
  0
INSERT
  8
21
  2
RECT
 10
27.6543
 20
14.2075
 30
0.0000
 41
0.6147
 42
0.0559
 43
1.0000
 50
90.0000
  0
INSERT
  8
21
  2
RECT
 10
27.6543
 20
14.7663
 30
0.0000
 41
0.1676
 42
0.0559
 43
1.0000
 50
90.0000
  0
INSERT
  8
21
  2
RECT
 10
27.6543
 20
15.6324
 30
0.0000
 41
0.5588
 42
0.0559
 43
1.0000
 50
90.0000
  0
INSERT
  8
21
  2
RECT
 10
27.6543
 20
16.3309
 30
0.0000
 41
0.6147
 42
0.0559
 43
1.0000
 50
90.0000
  0
INSERT
  8
21
  2
RECT
 10
27.5984
 20
8.8710
 30
0.0000
 41
0.2235
 42
0.0559
 43
1.0000
 50
90.0000
  0
INSERT
  8
21
  2
RECT
 10
27.5984
 20
9.2342
 30
0.0000
 41
0.2794
 42
0.0559
 43
1.0000
 50
90.0000
  0
INSERT
  8
21
  2
RECT
 10
27.5984
 20
9.6812
 30
0.0000
 41
0.2794
 42
0.0559
 43
1.0000
 50
90.0000
  0
INSERT
  8
21
  2
RECT
 10
27.5984
 20
10.0444
 30
0.0000
 41
0.2235
 42
0.0559
 43
1.0000
 50
90.0000
  0
INSERT
  8
21
  2
RECT
 10
27.5984
 20
10.4635
 30
0.0000
 41
0.2794
 42
0.0559
 43
1.0000
 50
90.0000
  0
INSERT
  8
21
  2
RECT
 10
27.5984
 20
10.8547
 30
0.0000
 41
0.1676
 42
0.0559
 43
1.0000
 50
90.0000
  0
INSERT
  8
21
  2
RECT
 10
27.5984
 20
11.1900
 30
0.0000
 41
0.1676
 42
0.0559
 43
1.0000
 50
90.0000
  0
INSERT
  8
21
  2
RECT
 10
27.5984
 20
11.6929
 30
0.0000
 41
0.1676
 42
0.0559
 43
1.0000
 50
90.0000
  0
INSERT
  8
21
  2
RECT
 10
27.5984
 20
12.3914
 30
0.0000
 41
0.2235
 42
0.0559
 43
1.0000
 50
90.0000
  0
INSERT
  8
21
  2
RECT
 10
27.5984
 20
12.8384
 30
0.0000
 41
0.2235
 42
0.0559
 43
1.0000
 50
90.0000
  0
INSERT
  8
21
  2
RECT
 10
27.5984
 20
13.2017
 30
0.0000
 41
0.2794
 42
0.0559
 43
1.0000
 50
90.0000
  0
INSERT
  8
21
  2
RECT
 10
27.5984
 20
13.5369
 30
0.0000
 41
0.2794
 42
0.0559
 43
1.0000
 50
90.0000
  0
INSERT
  8
21
  2
RECT
 10
27.5984
 20
14.0119
 30
0.0000
 41
0.2235
 42
0.0559
 43
1.0000
 50
90.0000
  0
INSERT
  8
21
  2
RECT
 10
27.5984
 20
14.3751
 30
0.0000
 41
0.2794
 42
0.0559
 43
1.0000
 50
90.0000
  0
INSERT
  8
21
  2
RECT
 10
27.5984
 20
14.7663
 30
0.0000
 41
0.1676
 42
0.0559
 43
1.0000
 50
90.0000
  0
INSERT
  8
21
  2
RECT
 10
27.5984
 20
15.4369
 30
0.0000
 41
0.2794
 42
0.0559
 43
1.0000
 50
90.0000
  0
INSERT
  8
21
  2
RECT
 10
27.5984
 20
15.8001
 30
0.0000
 41
0.2235
 42
0.0559
 43
1.0000
 50
90.0000
  0
INSERT
  8
21
  2
RECT
 10
27.5984
 20
16.1354
 30
0.0000
 41
0.2235
 42
0.0559
 43
1.0000
 50
90.0000
  0
INSERT
  8
21
  2
RECT
 10
27.5984
 20
16.4986
 30
0.0000
 41
0.1676
 42
0.0559
 43
1.0000
 50
90.0000
  0
INSERT
  8
21
  2
RECT
 10
27.5425
 20
8.8151
 30
0.0000
 41
0.2235
 42
0.0559
 43
1.0000
 50
90.0000
  0
INSERT
  8
21
  2
RECT
 10
27.5425
 20
9.2621
 30
0.0000
 41
0.2235
 42
0.0559
 43
1.0000
 50
90.0000
  0
INSERT
  8
21
  2
RECT
 10
27.5425
 20
9.6253
 30
0.0000
 41
0.1676
 42
0.0559
 43
1.0000
 50
90.0000
  0
INSERT
  8
21
  2
RECT
 10
27.5425
 20
10.0724
 30
0.0000
 41
0.1676
 42
0.0559
 43
1.0000
 50
90.0000
  0
INSERT
  8
21
  2
RECT
 10
27.5425
 20
10.4077
 30
0.0000
 41
0.1676
 42
0.0559
 43
1.0000
 50
90.0000
  0
INSERT
  8
21
  2
RECT
 10
27.5425
 20
10.8547
 30
0.0000
 41
0.0559
 42
0.0559
 43
1.0000
 50
90.0000
  0
INSERT
  8
21
  2
RECT
 10
27.5425
 20
11.1900
 30
0.0000
 41
0.1676
 42
0.0559
 43
1.0000
 50
90.0000
  0
INSERT
  8
21
  2
RECT
 10
27.5425
 20
11.6929
 30
0.0000
 41
0.1676
 42
0.0559
 43
1.0000
 50
90.0000
  0
INSERT
  8
21
  2
RECT
 10
27.5425
 20
12.3635
 30
0.0000
 41
0.0559
 42
0.0559
 43
1.0000
 50
90.0000
  0
INSERT
  8
21
  2
RECT
 10
27.5425
 20
12.8664
 30
0.0000
 41
0.1676
 42
0.0559
 43
1.0000
 50
90.0000
  0
INSERT
  8
21
  2
RECT
 10
27.5425
 20
13.1458
 30
0.0000
 41
0.1676
 42
0.0559
 43
1.0000
 50
90.0000
  0
INSERT
  8
21
  2
RECT
 10
27.5425
 20
13.5928
 30
0.0000
 41
0.1676
 42
0.0559
 43
1.0000
 50
90.0000
  0
INSERT
  8
21
  2
RECT
 10
27.5425
 20
13.9560
 30
0.0000
 41
0.2235
 42
0.0559
 43
1.0000
 50
90.0000
  0
INSERT
  8
21
  2
RECT
 10
27.5425
 20
14.4031
 30
0.0000
 41
0.2235
 42
0.0559
 43
1.0000
 50
90.0000
  0
INSERT
  8
21
  2
RECT
 10
27.5425
 20
14.7663
 30
0.0000
 41
0.1676
 42
0.0559
 43
1.0000
 50
90.0000
  0
INSERT
  8
21
  2
RECT
 10
27.5425
 20
15.3530
 30
0.0000
 41
0.2235
 42
0.0559
 43
1.0000
 50
90.0000
  0
INSERT
  8
21
  2
RECT
 10
27.5425
 20
16.0795
 30
0.0000
 41
0.2235
 42
0.0559
 43
1.0000
 50
90.0000
  0
INSERT
  8
21
  2
RECT
 10
27.5425
 20
16.4986
 30
0.0000
 41
0.0559
 42
0.0559
 43
1.0000
 50
90.0000
  0
INSERT
  8
21
  2
RECT
 10
27.4866
 20
8.7871
 30
0.0000
 41
0.1676
 42
0.0559
 43
1.0000
 50
90.0000
  0
INSERT
  8
21
  2
RECT
 10
27.4866
 20
9.2901
 30
0.0000
 41
0.1676
 42
0.0559
 43
1.0000
 50
90.0000
  0
INSERT
  8
21
  2
RECT
 10
27.4866
 20
9.6253
 30
0.0000
 41
0.1676
 42
0.0559
 43
1.0000
 50
90.0000
  0
INSERT
  8
21
  2
RECT
 10
27.4866
 20
10.1003
 30
0.0000
 41
0.2235
 42
0.0559
 43
1.0000
 50
90.0000
  0
INSERT
  8
21
  2
RECT
 10
27.4866
 20
10.4077
 30
0.0000
 41
0.1676
 42
0.0559
 43
1.0000
 50
90.0000
  0
INSERT
  8
21
  2
RECT
 10
27.4866
 20
11.1900
 30
0.0000
 41
0.1676
 42
0.0559
 43
1.0000
 50
90.0000
  0
INSERT
  8
21
  2
RECT
 10
27.4866
 20
11.6929
 30
0.0000
 41
0.1676
 42
0.0559
 43
1.0000
 50
90.0000
  0
INSERT
  8
21
  2
RECT
 10
27.4866
 20
12.8664
 30
0.0000
 41
0.1676
 42
0.0559
 43
1.0000
 50
90.0000
  0
INSERT
  8
21
  2
RECT
 10
27.4866
 20
13.1458
 30
0.0000
 41
0.1676
 42
0.0559
 43
1.0000
 50
90.0000
  0
INSERT
  8
21
  2
RECT
 10
27.4866
 20
13.6208
 30
0.0000
 41
0.2235
 42
0.0559
 43
1.0000
 50
90.0000
  0
INSERT
  8
21
  2
RECT
 10
27.4866
 20
13.9281
 30
0.0000
 41
0.1676
 42
0.0559
 43
1.0000
 50
90.0000
  0
INSERT
  8
21
  2
RECT
 10
27.4866
 20
14.4310
 30
0.0000
 41
0.1676
 42
0.0559
 43
1.0000
 50
90.0000
  0
INSERT
  8
21
  2
RECT
 10
27.4866
 20
14.7663
 30
0.0000
 41
0.1676
 42
0.0559
 43
1.0000
 50
90.0000
  0
INSERT
  8
21
  2
RECT
 10
27.4866
 20
15.3251
 30
0.0000
 41
0.1676
 42
0.0559
 43
1.0000
 50
90.0000
  0
INSERT
  8
21
  2
RECT
 10
27.4866
 20
16.0515
 30
0.0000
 41
0.1676
 42
0.0559
 43
1.0000
 50
90.0000
  0
INSERT
  8
21
  2
RECT
 10
27.4307
 20
8.7871
 30
0.0000
 41
0.1676
 42
0.0559
 43
1.0000
 50
90.0000
  0
INSERT
  8
21
  2
RECT
 10
27.4307
 20
9.2901
 30
0.0000
 41
0.1676
 42
0.0559
 43
1.0000
 50
90.0000
  0
INSERT
  8
21
  2
RECT
 10
27.4307
 20
9.6253
 30
0.0000
 41
0.1676
 42
0.0559
 43
1.0000
 50
90.0000
  0
INSERT
  8
21
  2
RECT
 10
27.4307
 20
10.1003
 30
0.0000
 41
0.2235
 42
0.0559
 43
1.0000
 50
90.0000
  0
INSERT
  8
21
  2
RECT
 10
27.4307
 20
10.4077
 30
0.0000
 41
0.1676
 42
0.0559
 43
1.0000
 50
90.0000
  0
INSERT
  8
21
  2
RECT
 10
27.4307
 20
11.1900
 30
0.0000
 41
0.1676
 42
0.0559
 43
1.0000
 50
90.0000
  0
INSERT
  8
21
  2
RECT
 10
27.4307
 20
11.6929
 30
0.0000
 41
0.1676
 42
0.0559
 43
1.0000
 50
90.0000
  0
INSERT
  8
21
  2
RECT
 10
27.4307
 20
12.8105
 30
0.0000
 41
0.2794
 42
0.0559
 43
1.0000
 50
90.0000
  0
INSERT
  8
21
  2
RECT
 10
27.4307
 20
13.1458
 30
0.0000
 41
0.1676
 42
0.0559
 43
1.0000
 50
90.0000
  0
INSERT
  8
21
  2
RECT
 10
27.4307
 20
13.6487
 30
0.0000
 41
0.1676
 42
0.0559
 43
1.0000
 50
90.0000
  0
INSERT
  8
21
  2
RECT
 10
27.4307
 20
13.9281
 30
0.0000
 41
0.1676
 42
0.0559
 43
1.0000
 50
90.0000
  0
INSERT
  8
21
  2
RECT
 10
27.4307
 20
14.4310
 30
0.0000
 41
0.1676
 42
0.0559
 43
1.0000
 50
90.0000
  0
INSERT
  8
21
  2
RECT
 10
27.4307
 20
14.7663
 30
0.0000
 41
0.1676
 42
0.0559
 43
1.0000
 50
90.0000
  0
INSERT
  8
21
  2
RECT
 10
27.4307
 20
15.3251
 30
0.0000
 41
0.1676
 42
0.0559
 43
1.0000
 50
90.0000
  0
INSERT
  8
21
  2
RECT
 10
27.4307
 20
16.0515
 30
0.0000
 41
0.1676
 42
0.0559
 43
1.0000
 50
90.0000
  0
INSERT
  8
21
  2
RECT
 10
27.3749
 20
8.7871
 30
0.0000
 41
0.1676
 42
0.0559
 43
1.0000
 50
90.0000
  0
INSERT
  8
21
  2
RECT
 10
27.3749
 20
9.2901
 30
0.0000
 41
0.1676
 42
0.0559
 43
1.0000
 50
90.0000
  0
INSERT
  8
21
  2
RECT
 10
27.3749
 20
9.6253
 30
0.0000
 41
0.1676
 42
0.0559
 43
1.0000
 50
90.0000
  0
INSERT
  8
21
  2
RECT
 10
27.3749
 20
10.1283
 30
0.0000
 41
0.1676
 42
0.0559
 43
1.0000
 50
90.0000
  0
INSERT
  8
21
  2
RECT
 10
27.3749
 20
10.6312
 30
0.0000
 41
0.7264
 42
0.0559
 43
1.0000
 50
90.0000
  0
INSERT
  8
21
  2
RECT
 10
27.3749
 20
11.1900
 30
0.0000
 41
0.1676
 42
0.0559
 43
1.0000
 50
90.0000
  0
INSERT
  8
21
  2
RECT
 10
27.3749
 20
11.6929
 30
0.0000
 41
0.1676
 42
0.0559
 43
1.0000
 50
90.0000
  0
INSERT
  8
21
  2
RECT
 10
27.3749
 20
12.6429
 30
0.0000
 41
0.5029
 42
0.0559
 43
1.0000
 50
90.0000
  0
INSERT
  8
21
  2
RECT
 10
27.3749
 20
13.1178
 30
0.0000
 41
0.2235
 42
0.0559
 43
1.0000
 50
90.0000
  0
INSERT
  8
21
  2
RECT
 10
27.3749
 20
13.6487
 30
0.0000
 41
0.1676
 42
0.0559
 43
1.0000
 50
90.0000
  0
INSERT
  8
21
  2
RECT
 10
27.3749
 20
13.9281
 30
0.0000
 41
0.1676
 42
0.0559
 43
1.0000
 50
90.0000
  0
INSERT
  8
21
  2
RECT
 10
27.3749
 20
14.4310
 30
0.0000
 41
0.1676
 42
0.0559
 43
1.0000
 50
90.0000
  0
INSERT
  8
21
  2
RECT
 10
27.3749
 20
14.7663
 30
0.0000
 41
0.1676
 42
0.0559
 43
1.0000
 50
90.0000
  0
INSERT
  8
21
  2
RECT
 10
27.3749
 20
15.3251
 30
0.0000
 41
0.1676
 42
0.0559
 43
1.0000
 50
90.0000
  0
INSERT
  8
21
  2
RECT
 10
27.3749
 20
16.3030
 30
0.0000
 41
0.6706
 42
0.0559
 43
1.0000
 50
90.0000
  0
INSERT
  8
21
  2
RECT
 10
27.3190
 20
8.7871
 30
0.0000
 41
0.1676
 42
0.0559
 43
1.0000
 50
90.0000
  0
INSERT
  8
21
  2
RECT
 10
27.3190
 20
9.2901
 30
0.0000
 41
0.1676
 42
0.0559
 43
1.0000
 50
90.0000
  0
INSERT
  8
21
  2
RECT
 10
27.3190
 20
9.6253
 30
0.0000
 41
0.1676
 42
0.0559
 43
1.0000
 50
90.0000
  0
INSERT
  8
21
  2
RECT
 10
27.3190
 20
10.1283
 30
0.0000
 41
0.1676
 42
0.0559
 43
1.0000
 50
90.0000
  0
INSERT
  8
21
  2
RECT
 10
27.3190
 20
10.6312
 30
0.0000
 41
0.7264
 42
0.0559
 43
1.0000
 50
90.0000
  0
INSERT
  8
21
  2
RECT
 10
27.3190
 20
11.1900
 30
0.0000
 41
0.1676
 42
0.0559
 43
1.0000
 50
90.0000
  0
INSERT
  8
21
  2
RECT
 10
27.3190
 20
11.6929
 30
0.0000
 41
0.1676
 42
0.0559
 43
1.0000
 50
90.0000
  0
INSERT
  8
21
  2
RECT
 10
27.3190
 20
12.5870
 30
0.0000
 41
0.5029
 42
0.0559
 43
1.0000
 50
90.0000
  0
INSERT
  8
21
  2
RECT
 10
27.3190
 20
13.1178
 30
0.0000
 41
0.2235
 42
0.0559
 43
1.0000
 50
90.0000
  0
INSERT
  8
21
  2
RECT
 10
27.3190
 20
13.6487
 30
0.0000
 41
0.1676
 42
0.0559
 43
1.0000
 50
90.0000
  0
INSERT
  8
21
  2
RECT
 10
27.3190
 20
13.9281
 30
0.0000
 41
0.1676
 42
0.0559
 43
1.0000
 50
90.0000
  0
INSERT
  8
21
  2
RECT
 10
27.3190
 20
14.4310
 30
0.0000
 41
0.1676
 42
0.0559
 43
1.0000
 50
90.0000
  0
INSERT
  8
21
  2
RECT
 10
27.3190
 20
14.7663
 30
0.0000
 41
0.1676
 42
0.0559
 43
1.0000
 50
90.0000
  0
INSERT
  8
21
  2
RECT
 10
27.3190
 20
15.3251
 30
0.0000
 41
0.1676
 42
0.0559
 43
1.0000
 50
90.0000
  0
INSERT
  8
21
  2
RECT
 10
27.3190
 20
16.3030
 30
0.0000
 41
0.6706
 42
0.0559
 43
1.0000
 50
90.0000
  0
INSERT
  8
21
  2
RECT
 10
27.2631
 20
8.7871
 30
0.0000
 41
0.1676
 42
0.0559
 43
1.0000
 50
90.0000
  0
INSERT
  8
21
  2
RECT
 10
27.2631
 20
9.2901
 30
0.0000
 41
0.1676
 42
0.0559
 43
1.0000
 50
90.0000
  0
INSERT
  8
21
  2
RECT
 10
27.2631
 20
9.6253
 30
0.0000
 41
0.1676
 42
0.0559
 43
1.0000
 50
90.0000
  0
INSERT
  8
21
  2
RECT
 10
27.2631
 20
10.1003
 30
0.0000
 41
0.2235
 42
0.0559
 43
1.0000
 50
90.0000
  0
INSERT
  8
21
  2
RECT
 10
27.2631
 20
10.4077
 30
0.0000
 41
0.1676
 42
0.0559
 43
1.0000
 50
90.0000
  0
INSERT
  8
21
  2
RECT
 10
27.2631
 20
10.9106
 30
0.0000
 41
0.1676
 42
0.0559
 43
1.0000
 50
90.0000
  0
INSERT
  8
21
  2
RECT
 10
27.2631
 20
11.1900
 30
0.0000
 41
0.1676
 42
0.0559
 43
1.0000
 50
90.0000
  0
INSERT
  8
21
  2
RECT
 10
27.2631
 20
11.6929
 30
0.0000
 41
0.1676
 42
0.0559
 43
1.0000
 50
90.0000
  0
INSERT
  8
21
  2
RECT
 10
27.2631
 20
12.4473
 30
0.0000
 41
0.3353
 42
0.0559
 43
1.0000
 50
90.0000
  0
INSERT
  8
21
  2
RECT
 10
27.2631
 20
13.1458
 30
0.0000
 41
0.1676
 42
0.0559
 43
1.0000
 50
90.0000
  0
INSERT
  8
21
  2
RECT
 10
27.2631
 20
13.6487
 30
0.0000
 41
0.1676
 42
0.0559
 43
1.0000
 50
90.0000
  0
INSERT
  8
21
  2
RECT
 10
27.2631
 20
13.9281
 30
0.0000
 41
0.1676
 42
0.0559
 43
1.0000
 50
90.0000
  0
INSERT
  8
21
  2
RECT
 10
27.2631
 20
14.4310
 30
0.0000
 41
0.1676
 42
0.0559
 43
1.0000
 50
90.0000
  0
INSERT
  8
21
  2
RECT
 10
27.2631
 20
14.7663
 30
0.0000
 41
0.1676
 42
0.0559
 43
1.0000
 50
90.0000
  0
INSERT
  8
21
  2
RECT
 10
27.2631
 20
15.3251
 30
0.0000
 41
0.1676
 42
0.0559
 43
1.0000
 50
90.0000
  0
INSERT
  8
21
  2
RECT
 10
27.2631
 20
16.0515
 30
0.0000
 41
0.1676
 42
0.0559
 43
1.0000
 50
90.0000
  0
INSERT
  8
21
  2
RECT
 10
27.2631
 20
16.5544
 30
0.0000
 41
0.1676
 42
0.0559
 43
1.0000
 50
90.0000
  0
INSERT
  8
21
  2
RECT
 10
27.2072
 20
8.7871
 30
0.0000
 41
0.1676
 42
0.0559
 43
1.0000
 50
90.0000
  0
INSERT
  8
21
  2
RECT
 10
27.2072
 20
9.2901
 30
0.0000
 41
0.1676
 42
0.0559
 43
1.0000
 50
90.0000
  0
INSERT
  8
21
  2
RECT
 10
27.2072
 20
9.6253
 30
0.0000
 41
0.1676
 42
0.0559
 43
1.0000
 50
90.0000
  0
INSERT
  8
21
  2
RECT
 10
27.2072
 20
10.1003
 30
0.0000
 41
0.2235
 42
0.0559
 43
1.0000
 50
90.0000
  0
INSERT
  8
21
  2
RECT
 10
27.2072
 20
10.4077
 30
0.0000
 41
0.1676
 42
0.0559
 43
1.0000
 50
90.0000
  0
INSERT
  8
21
  2
RECT
 10
27.2072
 20
10.9106
 30
0.0000
 41
0.1676
 42
0.0559
 43
1.0000
 50
90.0000
  0
INSERT
  8
21
  2
RECT
 10
27.2072
 20
11.2179
 30
0.0000
 41
0.2235
 42
0.0559
 43
1.0000
 50
90.0000
  0
INSERT
  8
21
  2
RECT
 10
27.2072
 20
11.6929
 30
0.0000
 41
0.1676
 42
0.0559
 43
1.0000
 50
90.0000
  0
INSERT
  8
21
  2
RECT
 10
27.2072
 20
12.3635
 30
0.0000
 41
0.1676
 42
0.0559
 43
1.0000
 50
90.0000
  0
INSERT
  8
21
  2
RECT
 10
27.2072
 20
13.1458
 30
0.0000
 41
0.1676
 42
0.0559
 43
1.0000
 50
90.0000
  0
INSERT
  8
21
  2
RECT
 10
27.2072
 20
13.6208
 30
0.0000
 41
0.2235
 42
0.0559
 43
1.0000
 50
90.0000
  0
INSERT
  8
21
  2
RECT
 10
27.2072
 20
13.9281
 30
0.0000
 41
0.1676
 42
0.0559
 43
1.0000
 50
90.0000
  0
INSERT
  8
21
  2
RECT
 10
27.2072
 20
14.4310
 30
0.0000
 41
0.1676
 42
0.0559
 43
1.0000
 50
90.0000
  0
INSERT
  8
21
  2
RECT
 10
27.2072
 20
14.7663
 30
0.0000
 41
0.1676
 42
0.0559
 43
1.0000
 50
90.0000
  0
INSERT
  8
21
  2
RECT
 10
27.2072
 20
15.3251
 30
0.0000
 41
0.1676
 42
0.0559
 43
1.0000
 50
90.0000
  0
INSERT
  8
21
  2
RECT
 10
27.2072
 20
16.0515
 30
0.0000
 41
0.1676
 42
0.0559
 43
1.0000
 50
90.0000
  0
INSERT
  8
21
  2
RECT
 10
27.2072
 20
16.5544
 30
0.0000
 41
0.1676
 42
0.0559
 43
1.0000
 50
90.0000
  0
INSERT
  8
21
  2
RECT
 10
27.1513
 20
8.8151
 30
0.0000
 41
0.2235
 42
0.0559
 43
1.0000
 50
90.0000
  0
INSERT
  8
21
  2
RECT
 10
27.1513
 20
9.2621
 30
0.0000
 41
0.2235
 42
0.0559
 43
1.0000
 50
90.0000
  0
INSERT
  8
21
  2
RECT
 10
27.1513
 20
9.6253
 30
0.0000
 41
0.1676
 42
0.0559
 43
1.0000
 50
90.0000
  0
INSERT
  8
21
  2
RECT
 10
27.1513
 20
10.0724
 30
0.0000
 41
0.1676
 42
0.0559
 43
1.0000
 50
90.0000
  0
INSERT
  8
21
  2
RECT
 10
27.1513
 20
10.4077
 30
0.0000
 41
0.1676
 42
0.0559
 43
1.0000
 50
90.0000
  0
INSERT
  8
21
  2
RECT
 10
27.1513
 20
10.8826
 30
0.0000
 41
0.2235
 42
0.0559
 43
1.0000
 50
90.0000
  0
INSERT
  8
21
  2
RECT
 10
27.1513
 20
11.2179
 30
0.0000
 41
0.2235
 42
0.0559
 43
1.0000
 50
90.0000
  0
INSERT
  8
21
  2
RECT
 10
27.1513
 20
11.6650
 30
0.0000
 41
0.2235
 42
0.0559
 43
1.0000
 50
90.0000
  0
INSERT
  8
21
  2
RECT
 10
27.1513
 20
12.3635
 30
0.0000
 41
0.1676
 42
0.0559
 43
1.0000
 50
90.0000
  0
INSERT
  8
21
  2
RECT
 10
27.1513
 20
12.8105
 30
0.0000
 41
0.0559
 42
0.0559
 43
1.0000
 50
90.0000
  0
INSERT
  8
21
  2
RECT
 10
27.1513
 20
13.1458
 30
0.0000
 41
0.1676
 42
0.0559
 43
1.0000
 50
90.0000
  0
INSERT
  8
21
  2
RECT
 10
27.1513
 20
13.5928
 30
0.0000
 41
0.1676
 42
0.0559
 43
1.0000
 50
90.0000
  0
INSERT
  8
21
  2
RECT
 10
27.1513
 20
13.9281
 30
0.0000
 41
0.1676
 42
0.0559
 43
1.0000
 50
90.0000
  0
INSERT
  8
21
  2
RECT
 10
27.1513
 20
14.4310
 30
0.0000
 41
0.1676
 42
0.0559
 43
1.0000
 50
90.0000
  0
INSERT
  8
21
  2
RECT
 10
27.1513
 20
14.7942
 30
0.0000
 41
0.2235
 42
0.0559
 43
1.0000
 50
90.0000
  0
INSERT
  8
21
  2
RECT
 10
27.1513
 20
15.3530
 30
0.0000
 41
0.2235
 42
0.0559
 43
1.0000
 50
90.0000
  0
INSERT
  8
21
  2
RECT
 10
27.1513
 20
16.0515
 30
0.0000
 41
0.1676
 42
0.0559
 43
1.0000
 50
90.0000
  0
INSERT
  8
21
  2
RECT
 10
27.1513
 20
16.5265
 30
0.0000
 41
0.2235
 42
0.0559
 43
1.0000
 50
90.0000
  0
INSERT
  8
21
  2
RECT
 10
27.0954
 20
9.0665
 30
0.0000
 41
0.6147
 42
0.0559
 43
1.0000
 50
90.0000
  0
INSERT
  8
21
  2
RECT
 10
27.0954
 20
9.8489
 30
0.0000
 41
0.6147
 42
0.0559
 43
1.0000
 50
90.0000
  0
INSERT
  8
21
  2
RECT
 10
27.0954
 20
10.4635
 30
0.0000
 41
0.2794
 42
0.0559
 43
1.0000
 50
90.0000
  0
INSERT
  8
21
  2
RECT
 10
27.0954
 20
10.8268
 30
0.0000
 41
0.2235
 42
0.0559
 43
1.0000
 50
90.0000
  0
INSERT
  8
21
  2
RECT
 10
27.0954
 20
11.4414
 30
0.0000
 41
0.6706
 42
0.0559
 43
1.0000
 50
90.0000
  0
INSERT
  8
21
  2
RECT
 10
27.0954
 20
12.4193
 30
0.0000
 41
0.2794
 42
0.0559
 43
1.0000
 50
90.0000
  0
INSERT
  8
21
  2
RECT
 10
27.0954
 20
12.7826
 30
0.0000
 41
0.2235
 42
0.0559
 43
1.0000
 50
90.0000
  0
INSERT
  8
21
  2
RECT
 10
27.0954
 20
13.3693
 30
0.0000
 41
0.6147
 42
0.0559
 43
1.0000
 50
90.0000
  0
INSERT
  8
21
  2
RECT
 10
27.0954
 20
13.9281
 30
0.0000
 41
0.1676
 42
0.0559
 43
1.0000
 50
90.0000
  0
INSERT
  8
21
  2
RECT
 10
27.0954
 20
14.4310
 30
0.0000
 41
0.1676
 42
0.0559
 43
1.0000
 50
90.0000
  0
INSERT
  8
21
  2
RECT
 10
27.0954
 20
14.9339
 30
0.0000
 41
0.5029
 42
0.0559
 43
1.0000
 50
90.0000
  0
INSERT
  8
21
  2
RECT
 10
27.0954
 20
15.6045
 30
0.0000
 41
0.6147
 42
0.0559
 43
1.0000
 50
90.0000
  0
INSERT
  8
21
  2
RECT
 10
27.0954
 20
16.1354
 30
0.0000
 41
0.2235
 42
0.0559
 43
1.0000
 50
90.0000
  0
INSERT
  8
21
  2
RECT
 10
27.0954
 20
16.4706
 30
0.0000
 41
0.2235
 42
0.0559
 43
1.0000
 50
90.0000
  0
INSERT
  8
21
  2
RECT
 10
27.0396
 20
9.0386
 30
0.0000
 41
0.5588
 42
0.0559
 43
1.0000
 50
90.0000
  0
INSERT
  8
21
  2
RECT
 10
27.0396
 20
9.8489
 30
0.0000
 41
0.6147
 42
0.0559
 43
1.0000
 50
90.0000
  0
INSERT
  8
21
  2
RECT
 10
27.0396
 20
10.6312
 30
0.0000
 41
0.5029
 42
0.0559
 43
1.0000
 50
90.0000
  0
INSERT
  8
21
  2
RECT
 10
27.0396
 20
11.4135
 30
0.0000
 41
0.6147
 42
0.0559
 43
1.0000
 50
90.0000
  0
INSERT
  8
21
  2
RECT
 10
27.0396
 20
12.6429
 30
0.0000
 41
0.6147
 42
0.0559
 43
1.0000
 50
90.0000
  0
INSERT
  8
21
  2
RECT
 10
27.0396
 20
13.3693
 30
0.0000
 41
0.5029
 42
0.0559
 43
1.0000
 50
90.0000
  0
INSERT
  8
21
  2
RECT
 10
27.0396
 20
13.9281
 30
0.0000
 41
0.1676
 42
0.0559
 43
1.0000
 50
90.0000
  0
INSERT
  8
21
  2
RECT
 10
27.0396
 20
14.4310
 30
0.0000
 41
0.1676
 42
0.0559
 43
1.0000
 50
90.0000
  0
INSERT
  8
21
  2
RECT
 10
27.0396
 20
14.9619
 30
0.0000
 41
0.5588
 42
0.0559
 43
1.0000
 50
90.0000
  0
INSERT
  8
21
  2
RECT
 10
27.0396
 20
15.6324
 30
0.0000
 41
0.5588
 42
0.0559
 43
1.0000
 50
90.0000
  0
INSERT
  8
21
  2
RECT
 10
27.0396
 20
16.3030
 30
0.0000
 41
0.5588
 42
0.0559
 43
1.0000
 50
90.0000
  0
INSERT
  8
21
  2
RECT
 10
26.9837
 20
9.0386
 30
0.0000
 41
0.4470
 42
0.0559
 43
1.0000
 50
90.0000
  0
INSERT
  8
21
  2
RECT
 10
26.9837
 20
9.8209
 30
0.0000
 41
0.5588
 42
0.0559
 43
1.0000
 50
90.0000
  0
INSERT
  8
21
  2
RECT
 10
26.9837
 20
10.6312
 30
0.0000
 41
0.3912
 42
0.0559
 43
1.0000
 50
90.0000
  0
INSERT
  8
21
  2
RECT
 10
26.9837
 20
11.1900
 30
0.0000
 41
0.1676
 42
0.0559
 43
1.0000
 50
90.0000
  0
INSERT
  8
21
  2
RECT
 10
26.9837
 20
11.4973
 30
0.0000
 41
0.3353
 42
0.0559
 43
1.0000
 50
90.0000
  0
INSERT
  8
21
  2
RECT
 10
26.9837
 20
12.6149
 30
0.0000
 41
0.4470
 42
0.0559
 43
1.0000
 50
90.0000
  0
INSERT
  8
21
  2
RECT
 10
26.9837
 20
13.3693
 30
0.0000
 41
0.3912
 42
0.0559
 43
1.0000
 50
90.0000
  0
INSERT
  8
21
  2
RECT
 10
26.9837
 20
13.9281
 30
0.0000
 41
0.1676
 42
0.0559
 43
1.0000
 50
90.0000
  0
INSERT
  8
21
  2
RECT
 10
26.9837
 20
14.4310
 30
0.0000
 41
0.1676
 42
0.0559
 43
1.0000
 50
90.0000
  0
INSERT
  8
21
  2
RECT
 10
26.9837
 20
14.7663
 30
0.0000
 41
0.1676
 42
0.0559
 43
1.0000
 50
90.0000
  0
INSERT
  8
21
  2
RECT
 10
26.9837
 20
15.0736
 30
0.0000
 41
0.3353
 42
0.0559
 43
1.0000
 50
90.0000
  0
INSERT
  8
21
  2
RECT
 10
26.9837
 20
15.6045
 30
0.0000
 41
0.3912
 42
0.0559
 43
1.0000
 50
90.0000
  0
INSERT
  8
21
  2
RECT
 10
26.9837
 20
16.3030
 30
0.0000
 41
0.4470
 42
0.0559
 43
1.0000
 50
90.0000
  0
INSERT
  8
21
  2
RECT
 10
26.9278
 20
9.0386
 30
0.0000
 41
0.1118
 42
0.0559
 43
1.0000
 50
90.0000
  0
INSERT
  8
21
  2
RECT
 10
26.9278
 20
11.4973
 30
0.0000
 41
0.1118
 42
0.0559
 43
1.0000
 50
90.0000
  0
INSERT
  8
21
  2
RECT
 10
26.9278
 20
12.6149
 30
0.0000
 41
0.1118
 42
0.0559
 43
1.0000
 50
90.0000
  0
INSERT
  8
21
  2
RECT
 10
26.9278
 20
13.3972
 30
0.0000
 41
0.1118
 42
0.0559
 43
1.0000
 50
90.0000
  0
INSERT
  8
21
  2
RECT
 10
26.9278
 20
15.6324
 30
0.0000
 41
0.1118
 42
0.0559
 43
1.0000
 50
90.0000
  0
INSERT
  8
21
  2
RECT
 10
26.9278
 20
16.3030
 30
0.0000
 41
0.1118
 42
0.0559
 43
1.0000
 50
90.0000
  0
INSERT
  8
21
  2
RECT
 10
26.2573
 20
10.7988
 30
0.0000
 41
0.1676
 42
0.0559
 43
1.0000
 50
90.0000
  0
INSERT
  8
21
  2
RECT
 10
26.2573
 20
14.5428
 30
0.0000
 41
0.1676
 42
0.0559
 43
1.0000
 50
90.0000
  0
INSERT
  8
21
  2
RECT
 10
26.2014
 20
10.7988
 30
0.0000
 41
0.2794
 42
0.0559
 43
1.0000
 50
90.0000
  0
INSERT
  8
21
  2
RECT
 10
26.2014
 20
14.5428
 30
0.0000
 41
0.2794
 42
0.0559
 43
1.0000
 50
90.0000
  0
INSERT
  8
21
  2
RECT
 10
26.1455
 20
10.8268
 30
0.0000
 41
0.4470
 42
0.0559
 43
1.0000
 50
90.0000
  0
INSERT
  8
21
  2
RECT
 10
26.1455
 20
14.5148
 30
0.0000
 41
0.4470
 42
0.0559
 43
1.0000
 50
90.0000
  0
INSERT
  8
21
  2
RECT
 10
26.0896
 20
10.8268
 30
0.0000
 41
0.5588
 42
0.0559
 43
1.0000
 50
90.0000
  0
INSERT
  8
21
  2
RECT
 10
26.0896
 20
14.5148
 30
0.0000
 41
0.5588
 42
0.0559
 43
1.0000
 50
90.0000
  0
INSERT
  8
21
  2
RECT
 10
26.0337
 20
10.8547
 30
0.0000
 41
0.7264
 42
0.0559
 43
1.0000
 50
90.0000
  0
INSERT
  8
21
  2
RECT
 10
26.0337
 20
14.4869
 30
0.0000
 41
0.7264
 42
0.0559
 43
1.0000
 50
90.0000
  0
INSERT
  8
21
  2
RECT
 10
25.9779
 20
10.8547
 30
0.0000
 41
0.8382
 42
0.0559
 43
1.0000
 50
90.0000
  0
INSERT
  8
21
  2
RECT
 10
25.9779
 20
11.7208
 30
0.0000
 41
0.1118
 42
0.0559
 43
1.0000
 50
90.0000
  0
INSERT
  8
21
  2
RECT
 10
25.9779
 20
13.6208
 30
0.0000
 41
0.1118
 42
0.0559
 43
1.0000
 50
90.0000
  0
INSERT
  8
21
  2
RECT
 10
25.9779
 20
14.4869
 30
0.0000
 41
0.8382
 42
0.0559
 43
1.0000
 50
90.0000
  0
INSERT
  8
21
  2
RECT
 10
25.9220
 20
10.8826
 30
0.0000
 41
1.0058
 42
0.0559
 43
1.0000
 50
90.0000
  0
INSERT
  8
21
  2
RECT
 10
25.9220
 20
11.6929
 30
0.0000
 41
0.2794
 42
0.0559
 43
1.0000
 50
90.0000
  0
INSERT
  8
21
  2
RECT
 10
25.9220
 20
13.6487
 30
0.0000
 41
0.2794
 42
0.0559
 43
1.0000
 50
90.0000
  0
INSERT
  8
21
  2
RECT
 10
25.9220
 20
14.4590
 30
0.0000
 41
1.0058
 42
0.0559
 43
1.0000
 50
90.0000
  0
INSERT
  8
21
  2
RECT
 10
25.8661
 20
11.0782
 30
0.0000
 41
1.5088
 42
0.0559
 43
1.0000
 50
90.0000
  0
INSERT
  8
21
  2
RECT
 10
25.8661
 20
14.2634
 30
0.0000
 41
1.5088
 42
0.0559
 43
1.0000
 50
90.0000
  0
INSERT
  8
21
  2
RECT
 10
25.8102
 20
11.0782
 30
0.0000
 41
1.6205
 42
0.0559
 43
1.0000
 50
90.0000
  0
INSERT
  8
21
  2
RECT
 10
25.8102
 20
14.2634
 30
0.0000
 41
1.6205
 42
0.0559
 43
1.0000
 50
90.0000
  0
INSERT
  8
21
  2
RECT
 10
25.7543
 20
11.0503
 30
0.0000
 41
1.6764
 42
0.0559
 43
1.0000
 50
90.0000
  0
INSERT
  8
21
  2
RECT
 10
25.7543
 20
14.2913
 30
0.0000
 41
1.6764
 42
0.0559
 43
1.0000
 50
90.0000
  0
INSERT
  8
21
  2
RECT
 10
25.6985
 20
11.0503
 30
0.0000
 41
1.6764
 42
0.0559
 43
1.0000
 50
90.0000
  0
INSERT
  8
21
  2
RECT
 10
25.6985
 20
14.2913
 30
0.0000
 41
1.6764
 42
0.0559
 43
1.0000
 50
90.0000
  0
INSERT
  8
21
  2
RECT
 10
25.6426
 20
11.0782
 30
0.0000
 41
1.7323
 42
0.0559
 43
1.0000
 50
90.0000
  0
INSERT
  8
21
  2
RECT
 10
25.6426
 20
14.2634
 30
0.0000
 41
1.7323
 42
0.0559
 43
1.0000
 50
90.0000
  0
INSERT
  8
21
  2
RECT
 10
25.5867
 20
11.1062
 30
0.0000
 41
1.6764
 42
0.0559
 43
1.0000
 50
90.0000
  0
INSERT
  8
21
  2
RECT
 10
25.5867
 20
14.2354
 30
0.0000
 41
1.6764
 42
0.0559
 43
1.0000
 50
90.0000
  0
INSERT
  8
21
  2
RECT
 10
25.5308
 20
11.1620
 30
0.0000
 41
1.6764
 42
0.0559
 43
1.0000
 50
90.0000
  0
INSERT
  8
21
  2
RECT
 10
25.5308
 20
14.1796
 30
0.0000
 41
1.6764
 42
0.0559
 43
1.0000
 50
90.0000
  0
INSERT
  8
21
  2
RECT
 10
25.4749
 20
11.1620
 30
0.0000
 41
1.6764
 42
0.0559
 43
1.0000
 50
90.0000
  0
INSERT
  8
21
  2
RECT
 10
25.4749
 20
14.1796
 30
0.0000
 41
1.6764
 42
0.0559
 43
1.0000
 50
90.0000
  0
INSERT
  8
21
  2
RECT
 10
25.4191
 20
11.2179
 30
0.0000
 41
1.6764
 42
0.0559
 43
1.0000
 50
90.0000
  0
INSERT
  8
21
  2
RECT
 10
25.4191
 20
14.1237
 30
0.0000
 41
1.6764
 42
0.0559
 43
1.0000
 50
90.0000
  0
INSERT
  8
21
  2
RECT
 10
25.3632
 20
11.2459
 30
0.0000
 41
1.6205
 42
0.0559
 43
1.0000
 50
90.0000
  0
INSERT
  8
21
  2
RECT
 10
25.3632
 20
14.0957
 30
0.0000
 41
1.6205
 42
0.0559
 43
1.0000
 50
90.0000
  0
INSERT
  8
21
  2
RECT
 10
25.3073
 20
11.2738
 30
0.0000
 41
1.5646
 42
0.0559
 43
1.0000
 50
90.0000
  0
INSERT
  8
21
  2
RECT
 10
25.3073
 20
14.0678
 30
0.0000
 41
1.5646
 42
0.0559
 43
1.0000
 50
90.0000
  0
INSERT
  8
21
  2
RECT
 10
25.2514
 20
11.3017
 30
0.0000
 41
1.6205
 42
0.0559
 43
1.0000
 50
90.0000
  0
INSERT
  8
21
  2
RECT
 10
25.2514
 20
14.0399
 30
0.0000
 41
1.6205
 42
0.0559
 43
1.0000
 50
90.0000
  0
INSERT
  8
21
  2
RECT
 10
25.1955
 20
11.3297
 30
0.0000
 41
1.5646
 42
0.0559
 43
1.0000
 50
90.0000
  0
INSERT
  8
21
  2
RECT
 10
25.1955
 20
14.0119
 30
0.0000
 41
1.5646
 42
0.0559
 43
1.0000
 50
90.0000
  0
INSERT
  8
21
  2
RECT
 10
25.1396
 20
11.3856
 30
0.0000
 41
1.5646
 42
0.0559
 43
1.0000
 50
90.0000
  0
INSERT
  8
21
  2
RECT
 10
25.1396
 20
13.9560
 30
0.0000
 41
1.5646
 42
0.0559
 43
1.0000
 50
90.0000
  0
INSERT
  8
21
  2
RECT
 10
25.0838
 20
11.3856
 30
0.0000
 41
1.5646
 42
0.0559
 43
1.0000
 50
90.0000
  0
INSERT
  8
21
  2
RECT
 10
25.0838
 20
13.9560
 30
0.0000
 41
1.5646
 42
0.0559
 43
1.0000
 50
90.0000
  0
INSERT
  8
21
  2
RECT
 10
25.0279
 20
11.4135
 30
0.0000
 41
1.5088
 42
0.0559
 43
1.0000
 50
90.0000
  0
INSERT
  8
21
  2
RECT
 10
25.0279
 20
13.9281
 30
0.0000
 41
1.5088
 42
0.0559
 43
1.0000
 50
90.0000
  0
INSERT
  8
21
  2
RECT
 10
24.9720
 20
11.4135
 30
0.0000
 41
1.6205
 42
0.0559
 43
1.0000
 50
90.0000
  0
INSERT
  8
21
  2
RECT
 10
24.9720
 20
13.9281
 30
0.0000
 41
1.6205
 42
0.0559
 43
1.0000
 50
90.0000
  0
INSERT
  8
21
  2
RECT
 10
24.9161
 20
11.4135
 30
0.0000
 41
1.6205
 42
0.0559
 43
1.0000
 50
90.0000
  0
INSERT
  8
21
  2
RECT
 10
24.9161
 20
13.9281
 30
0.0000
 41
1.6205
 42
0.0559
 43
1.0000
 50
90.0000
  0
INSERT
  8
21
  2
RECT
 10
24.8603
 20
11.4135
 30
0.0000
 41
1.7323
 42
0.0559
 43
1.0000
 50
90.0000
  0
INSERT
  8
21
  2
RECT
 10
24.8603
 20
13.9281
 30
0.0000
 41
1.7323
 42
0.0559
 43
1.0000
 50
90.0000
  0
INSERT
  8
21
  2
RECT
 10
24.8044
 20
11.4135
 30
0.0000
 41
1.7323
 42
0.0559
 43
1.0000
 50
90.0000
  0
INSERT
  8
21
  2
RECT
 10
24.8044
 20
13.9281
 30
0.0000
 41
1.7323
 42
0.0559
 43
1.0000
 50
90.0000
  0
INSERT
  8
21
  2
RECT
 10
24.7485
 20
11.4414
 30
0.0000
 41
1.7882
 42
0.0559
 43
1.0000
 50
90.0000
  0
INSERT
  8
21
  2
RECT
 10
24.7485
 20
13.9002
 30
0.0000
 41
1.7882
 42
0.0559
 43
1.0000
 50
90.0000
  0
INSERT
  8
21
  2
RECT
 10
24.6926
 20
11.4135
 30
0.0000
 41
1.8440
 42
0.0559
 43
1.0000
 50
90.0000
  0
INSERT
  8
21
  2
RECT
 10
24.6926
 20
13.9281
 30
0.0000
 41
1.8440
 42
0.0559
 43
1.0000
 50
90.0000
  0
INSERT
  8
21
  2
RECT
 10
24.6367
 20
11.4135
 30
0.0000
 41
1.8440
 42
0.0559
 43
1.0000
 50
90.0000
  0
INSERT
  8
21
  2
RECT
 10
24.6367
 20
13.9281
 30
0.0000
 41
1.8440
 42
0.0559
 43
1.0000
 50
90.0000
  0
INSERT
  8
21
  2
RECT
 10
24.5809
 20
11.3297
 30
0.0000
 41
1.7882
 42
0.0559
 43
1.0000
 50
90.0000
  0
INSERT
  8
21
  2
RECT
 10
24.5809
 20
14.0119
 30
0.0000
 41
1.7882
 42
0.0559
 43
1.0000
 50
90.0000
  0
INSERT
  8
21
  2
RECT
 10
24.5250
 20
11.3017
 30
0.0000
 41
1.7323
 42
0.0559
 43
1.0000
 50
90.0000
  0
INSERT
  8
21
  2
RECT
 10
24.5250
 20
14.0399
 30
0.0000
 41
1.7323
 42
0.0559
 43
1.0000
 50
90.0000
  0
INSERT
  8
21
  2
RECT
 10
24.4691
 20
11.2738
 30
0.0000
 41
1.6764
 42
0.0559
 43
1.0000
 50
90.0000
  0
INSERT
  8
21
  2
RECT
 10
24.4691
 20
14.0678
 30
0.0000
 41
1.6764
 42
0.0559
 43
1.0000
 50
90.0000
  0
INSERT
  8
21
  2
RECT
 10
24.4132
 20
11.2179
 30
0.0000
 41
1.6764
 42
0.0559
 43
1.0000
 50
90.0000
  0
INSERT
  8
21
  2
RECT
 10
24.4132
 20
14.1237
 30
0.0000
 41
1.6764
 42
0.0559
 43
1.0000
 50
90.0000
  0
INSERT
  8
21
  2
RECT
 10
24.3573
 20
11.0503
 30
0.0000
 41
1.8999
 42
0.0559
 43
1.0000
 50
90.0000
  0
INSERT
  8
21
  2
RECT
 10
24.3573
 20
14.2913
 30
0.0000
 41
1.8999
 42
0.0559
 43
1.0000
 50
90.0000
  0
INSERT
  8
21
  2
RECT
 10
24.3015
 20
10.8826
 30
0.0000
 41
2.1234
 42
0.0559
 43
1.0000
 50
90.0000
  0
INSERT
  8
21
  2
RECT
 10
24.3015
 20
14.4590
 30
0.0000
 41
2.1234
 42
0.0559
 43
1.0000
 50
90.0000
  0
INSERT
  8
21
  2
RECT
 10
24.2456
 20
10.7429
 30
0.0000
 41
2.2911
 42
0.0559
 43
1.0000
 50
90.0000
  0
INSERT
  8
21
  2
RECT
 10
24.2456
 20
14.5987
 30
0.0000
 41
2.2911
 42
0.0559
 43
1.0000
 50
90.0000
  0
INSERT
  8
21
  2
RECT
 10
24.1897
 20
10.7429
 30
0.0000
 41
2.2911
 42
0.0559
 43
1.0000
 50
90.0000
  0
INSERT
  8
21
  2
RECT
 10
24.1897
 20
14.5987
 30
0.0000
 41
2.2911
 42
0.0559
 43
1.0000
 50
90.0000
  0
INSERT
  8
21
  2
RECT
 10
24.1338
 20
10.7429
 30
0.0000
 41
2.2911
 42
0.0559
 43
1.0000
 50
90.0000
  0
INSERT
  8
21
  2
RECT
 10
24.1338
 20
14.5987
 30
0.0000
 41
2.2911
 42
0.0559
 43
1.0000
 50
90.0000
  0
INSERT
  8
21
  2
RECT
 10
24.0779
 20
10.7150
 30
0.0000
 41
2.2352
 42
0.0559
 43
1.0000
 50
90.0000
  0
INSERT
  8
21
  2
RECT
 10
24.0779
 20
14.6266
 30
0.0000
 41
2.2352
 42
0.0559
 43
1.0000
 50
90.0000
  0
INSERT
  8
21
  2
RECT
 10
24.0221
 20
10.7150
 30
0.0000
 41
2.2352
 42
0.0559
 43
1.0000
 50
90.0000
  0
INSERT
  8
21
  2
RECT
 10
24.0221
 20
14.6266
 30
0.0000
 41
2.2352
 42
0.0559
 43
1.0000
 50
90.0000
  0
INSERT
  8
21
  2
RECT
 10
23.9662
 20
10.7150
 30
0.0000
 41
2.2352
 42
0.0559
 43
1.0000
 50
90.0000
  0
INSERT
  8
21
  2
RECT
 10
23.9662
 20
14.6266
 30
0.0000
 41
2.2352
 42
0.0559
 43
1.0000
 50
90.0000
  0
INSERT
  8
21
  2
RECT
 10
23.9103
 20
10.7150
 30
0.0000
 41
2.2352
 42
0.0559
 43
1.0000
 50
90.0000
  0
INSERT
  8
21
  2
RECT
 10
23.9103
 20
14.6266
 30
0.0000
 41
2.2352
 42
0.0559
 43
1.0000
 50
90.0000
  0
INSERT
  8
21
  2
RECT
 10
23.8544
 20
10.7150
 30
0.0000
 41
2.2352
 42
0.0559
 43
1.0000
 50
90.0000
  0
INSERT
  8
21
  2
RECT
 10
23.8544
 20
14.6266
 30
0.0000
 41
2.2352
 42
0.0559
 43
1.0000
 50
90.0000
  0
INSERT
  8
21
  2
RECT
 10
23.7985
 20
10.7150
 30
0.0000
 41
2.2352
 42
0.0559
 43
1.0000
 50
90.0000
  0
INSERT
  8
21
  2
RECT
 10
23.7985
 20
14.6266
 30
0.0000
 41
2.2352
 42
0.0559
 43
1.0000
 50
90.0000
  0
INSERT
  8
21
  2
RECT
 10
23.7427
 20
10.7150
 30
0.0000
 41
2.2352
 42
0.0559
 43
1.0000
 50
90.0000
  0
INSERT
  8
21
  2
RECT
 10
23.7427
 20
14.6266
 30
0.0000
 41
2.2352
 42
0.0559
 43
1.0000
 50
90.0000
  0
INSERT
  8
21
  2
RECT
 10
23.6868
 20
10.7150
 30
0.0000
 41
2.2352
 42
0.0559
 43
1.0000
 50
90.0000
  0
INSERT
  8
21
  2
RECT
 10
23.6868
 20
14.6266
 30
0.0000
 41
2.2352
 42
0.0559
 43
1.0000
 50
90.0000
  0
INSERT
  8
21
  2
RECT
 10
23.6309
 20
10.7150
 30
0.0000
 41
2.2352
 42
0.0559
 43
1.0000
 50
90.0000
  0
INSERT
  8
21
  2
RECT
 10
23.6309
 20
14.6266
 30
0.0000
 41
2.2352
 42
0.0559
 43
1.0000
 50
90.0000
  0
INSERT
  8
21
  2
RECT
 10
23.5750
 20
10.7150
 30
0.0000
 41
2.2352
 42
0.0559
 43
1.0000
 50
90.0000
  0
INSERT
  8
21
  2
RECT
 10
23.5750
 20
14.6266
 30
0.0000
 41
2.2352
 42
0.0559
 43
1.0000
 50
90.0000
  0
INSERT
  8
21
  2
RECT
 10
23.5191
 20
10.7429
 30
0.0000
 41
2.2911
 42
0.0559
 43
1.0000
 50
90.0000
  0
INSERT
  8
21
  2
RECT
 10
23.5191
 20
14.5987
 30
0.0000
 41
2.2911
 42
0.0559
 43
1.0000
 50
90.0000
  0
INSERT
  8
21
  2
RECT
 10
23.4633
 20
10.7429
 30
0.0000
 41
2.2911
 42
0.0559
 43
1.0000
 50
90.0000
  0
INSERT
  8
21
  2
RECT
 10
23.4633
 20
14.5987
 30
0.0000
 41
2.2911
 42
0.0559
 43
1.0000
 50
90.0000
  0
INSERT
  8
21
  2
RECT
 10
23.4074
 20
10.7709
 30
0.0000
 41
2.3470
 42
0.0559
 43
1.0000
 50
90.0000
  0
INSERT
  8
21
  2
RECT
 10
23.4074
 20
14.5707
 30
0.0000
 41
2.3470
 42
0.0559
 43
1.0000
 50
90.0000
  0
INSERT
  8
21
  2
RECT
 10
23.3515
 20
10.9385
 30
0.0000
 41
2.0117
 42
0.0559
 43
1.0000
 50
90.0000
  0
INSERT
  8
21
  2
RECT
 10
23.3515
 20
14.4031
 30
0.0000
 41
2.0117
 42
0.0559
 43
1.0000
 50
90.0000
  0
INSERT
  8
21
  2
RECT
 10
23.2956
 20
11.1062
 30
0.0000
 41
1.7882
 42
0.0559
 43
1.0000
 50
90.0000
  0
INSERT
  8
21
  2
RECT
 10
23.2956
 20
14.2354
 30
0.0000
 41
1.7882
 42
0.0559
 43
1.0000
 50
90.0000
  0
INSERT
  8
21
  2
RECT
 10
23.2397
 20
11.2459
 30
0.0000
 41
1.6205
 42
0.0559
 43
1.0000
 50
90.0000
  0
INSERT
  8
21
  2
RECT
 10
23.2397
 20
14.0957
 30
0.0000
 41
1.6205
 42
0.0559
 43
1.0000
 50
90.0000
  0
INSERT
  8
21
  2
RECT
 10
23.1838
 20
11.2738
 30
0.0000
 41
1.6764
 42
0.0559
 43
1.0000
 50
90.0000
  0
INSERT
  8
21
  2
RECT
 10
23.1838
 20
14.0678
 30
0.0000
 41
1.6764
 42
0.0559
 43
1.0000
 50
90.0000
  0
INSERT
  8
21
  2
RECT
 10
23.1280
 20
11.3297
 30
0.0000
 41
1.6764
 42
0.0559
 43
1.0000
 50
90.0000
  0
INSERT
  8
21
  2
RECT
 10
23.1280
 20
14.0119
 30
0.0000
 41
1.6764
 42
0.0559
 43
1.0000
 50
90.0000
  0
INSERT
  8
21
  2
RECT
 10
23.0721
 20
11.3856
 30
0.0000
 41
1.7882
 42
0.0559
 43
1.0000
 50
90.0000
  0
INSERT
  8
21
  2
RECT
 10
23.0721
 20
13.9560
 30
0.0000
 41
1.7882
 42
0.0559
 43
1.0000
 50
90.0000
  0
INSERT
  8
21
  2
RECT
 10
23.0162
 20
11.4694
 30
0.0000
 41
1.9558
 42
0.0559
 43
1.0000
 50
90.0000
  0
INSERT
  8
21
  2
RECT
 10
23.0162
 20
13.8722
 30
0.0000
 41
1.9558
 42
0.0559
 43
1.0000
 50
90.0000
  0
INSERT
  8
21
  2
RECT
 10
22.9603
 20
12.6708
 30
0.0000
 41
4.2469
 42
0.0559
 43
1.0000
 50
90.0000
  0
INSERT
  8
21
  2
RECT
 10
22.9045
 20
12.6708
 30
0.0000
 41
4.2469
 42
0.0559
 43
1.0000
 50
90.0000
  0
INSERT
  8
21
  2
RECT
 10
22.8486
 20
12.6708
 30
0.0000
 41
4.1351
 42
0.0559
 43
1.0000
 50
90.0000
  0
INSERT
  8
21
  2
RECT
 10
22.7927
 20
12.6708
 30
0.0000
 41
4.1351
 42
0.0559
 43
1.0000
 50
90.0000
  0
INSERT
  8
21
  2
RECT
 10
22.7368
 20
12.6708
 30
0.0000
 41
4.1351
 42
0.0559
 43
1.0000
 50
90.0000
  0
INSERT
  8
21
  2
RECT
 10
22.6809
 20
12.6708
 30
0.0000
 41
4.0234
 42
0.0559
 43
1.0000
 50
90.0000
  0
INSERT
  8
21
  2
RECT
 10
22.6251
 20
12.6708
 30
0.0000
 41
4.0234
 42
0.0559
 43
1.0000
 50
90.0000
  0
INSERT
  8
21
  2
RECT
 10
22.5692
 20
12.6708
 30
0.0000
 41
4.1351
 42
0.0559
 43
1.0000
 50
90.0000
  0
INSERT
  8
21
  2
RECT
 10
22.5133
 20
12.6708
 30
0.0000
 41
4.2469
 42
0.0559
 43
1.0000
 50
90.0000
  0
INSERT
  8
21
  2
RECT
 10
22.4574
 20
12.6708
 30
0.0000
 41
4.2469
 42
0.0559
 43
1.0000
 50
90.0000
  0
INSERT
  8
21
  2
RECT
 10
22.4015
 20
12.6708
 30
0.0000
 41
4.3586
 42
0.0559
 43
1.0000
 50
90.0000
  0
INSERT
  8
21
  2
RECT
 10
22.3457
 20
12.6708
 30
0.0000
 41
4.4704
 42
0.0559
 43
1.0000
 50
90.0000
  0
INSERT
  8
21
  2
RECT
 10
22.2898
 20
12.6708
 30
0.0000
 41
4.4704
 42
0.0559
 43
1.0000
 50
90.0000
  0
INSERT
  8
21
  2
RECT
 10
22.2339
 20
12.6708
 30
0.0000
 41
4.5822
 42
0.0559
 43
1.0000
 50
90.0000
  0
INSERT
  8
21
  2
RECT
 10
22.1780
 20
12.6708
 30
0.0000
 41
4.6939
 42
0.0559
 43
1.0000
 50
90.0000
  0
INSERT
  8
21
  2
RECT
 10
22.1221
 20
12.6708
 30
0.0000
 41
4.8057
 42
0.0559
 43
1.0000
 50
90.0000
  0
INSERT
  8
21
  2
RECT
 10
22.0663
 20
12.6708
 30
0.0000
 41
4.8057
 42
0.0559
 43
1.0000
 50
90.0000
  0
INSERT
  8
21
  2
RECT
 10
22.0104
 20
12.6708
 30
0.0000
 41
4.9174
 42
0.0559
 43
1.0000
 50
90.0000
  0
INSERT
  8
21
  2
RECT
 10
21.9545
 20
12.6708
 30
0.0000
 41
4.9174
 42
0.0559
 43
1.0000
 50
90.0000
  0
INSERT
  8
21
  2
RECT
 10
21.8986
 20
12.6708
 30
0.0000
 41
4.8057
 42
0.0559
 43
1.0000
 50
90.0000
  0
INSERT
  8
21
  2
RECT
 10
21.8427
 20
12.6708
 30
0.0000
 41
4.6939
 42
0.0559
 43
1.0000
 50
90.0000
  0
INSERT
  8
21
  2
RECT
 10
21.7869
 20
10.9106
 30
0.0000
 41
1.0617
 42
0.0559
 43
1.0000
 50
90.0000
  0
INSERT
  8
21
  2
RECT
 10
21.7869
 20
12.6708
 30
0.0000
 41
2.1234
 42
0.0559
 43
1.0000
 50
90.0000
  0
INSERT
  8
21
  2
RECT
 10
21.7869
 20
14.4310
 30
0.0000
 41
1.0617
 42
0.0559
 43
1.0000
 50
90.0000
  0
INSERT
  8
21
  2
RECT
 10
21.7310
 20
10.8826
 30
0.0000
 41
0.8941
 42
0.0559
 43
1.0000
 50
90.0000
  0
INSERT
  8
21
  2
RECT
 10
21.7310
 20
12.6708
 30
0.0000
 41
1.7882
 42
0.0559
 43
1.0000
 50
90.0000
  0
INSERT
  8
21
  2
RECT
 10
21.7310
 20
14.4590
 30
0.0000
 41
0.8941
 42
0.0559
 43
1.0000
 50
90.0000
  0
INSERT
  8
21
  2
RECT
 10
21.6751
 20
10.8826
 30
0.0000
 41
0.7823
 42
0.0559
 43
1.0000
 50
90.0000
  0
INSERT
  8
21
  2
RECT
 10
21.6751
 20
12.6708
 30
0.0000
 41
1.5646
 42
0.0559
 43
1.0000
 50
90.0000
  0
INSERT
  8
21
  2
RECT
 10
21.6751
 20
14.4590
 30
0.0000
 41
0.7823
 42
0.0559
 43
1.0000
 50
90.0000
  0
INSERT
  8
21
  2
RECT
 10
21.6192
 20
10.8547
 30
0.0000
 41
0.6147
 42
0.0559
 43
1.0000
 50
90.0000
  0
INSERT
  8
21
  2
RECT
 10
21.6192
 20
12.6708
 30
0.0000
 41
1.2294
 42
0.0559
 43
1.0000
 50
90.0000
  0
INSERT
  8
21
  2
RECT
 10
21.6192
 20
14.4869
 30
0.0000
 41
0.6147
 42
0.0559
 43
1.0000
 50
90.0000
  0
INSERT
  8
21
  2
RECT
 10
21.5633
 20
10.8547
 30
0.0000
 41
0.5029
 42
0.0559
 43
1.0000
 50
90.0000
  0
INSERT
  8
21
  2
RECT
 10
21.5633
 20
12.6708
 30
0.0000
 41
1.1176
 42
0.0559
 43
1.0000
 50
90.0000
  0
INSERT
  8
21
  2
RECT
 10
21.5633
 20
14.4869
 30
0.0000
 41
0.5029
 42
0.0559
 43
1.0000
 50
90.0000
  0
INSERT
  8
21
  2
RECT
 10
21.5075
 20
10.8268
 30
0.0000
 41
0.3353
 42
0.0559
 43
1.0000
 50
90.0000
  0
INSERT
  8
21
  2
RECT
 10
21.5075
 20
12.6708
 30
0.0000
 41
1.1176
 42
0.0559
 43
1.0000
 50
90.0000
  0
INSERT
  8
21
  2
RECT
 10
21.5075
 20
14.5148
 30
0.0000
 41
0.3353
 42
0.0559
 43
1.0000
 50
90.0000
  0
INSERT
  8
21
  2
RECT
 10
21.4516
 20
10.8268
 30
0.0000
 41
0.2235
 42
0.0559
 43
1.0000
 50
90.0000
  0
INSERT
  8
21
  2
RECT
 10
21.4516
 20
12.6708
 30
0.0000
 41
1.1176
 42
0.0559
 43
1.0000
 50
90.0000
  0
INSERT
  8
21
  2
RECT
 10
21.4516
 20
14.5148
 30
0.0000
 41
0.2235
 42
0.0559
 43
1.0000
 50
90.0000
  0
INSERT
  8
21
  2
RECT
 10
21.3957
 20
10.7988
 30
0.0000
 41
0.0559
 42
0.0559
 43
1.0000
 50
90.0000
  0
INSERT
  8
21
  2
RECT
 10
21.3957
 20
12.6708
 30
0.0000
 41
1.1176
 42
0.0559
 43
1.0000
 50
90.0000
  0
INSERT
  8
21
  2
RECT
 10
21.3957
 20
14.5428
 30
0.0000
 41
0.0559
 42
0.0559
 43
1.0000
 50
90.0000
  0
INSERT
  8
21
  2
RECT
 10
21.3398
 20
12.6708
 30
0.0000
 41
1.1176
 42
0.0559
 43
1.0000
 50
90.0000
  0
INSERT
  8
21
  2
RECT
 10
21.2839
 20
12.6708
 30
0.0000
 41
1.0058
 42
0.0559
 43
1.0000
 50
90.0000
  0
INSERT
  8
21
  2
RECT
 10
21.2280
 20
12.6708
 30
0.0000
 41
1.0058
 42
0.0559
 43
1.0000
 50
90.0000
  0
INSERT
  8
21
  2
RECT
 10
21.1722
 20
12.6708
 30
0.0000
 41
1.0058
 42
0.0559
 43
1.0000
 50
90.0000
  0
INSERT
  8
21
  2
RECT
 10
21.1163
 20
12.6708
 30
0.0000
 41
1.0058
 42
0.0559
 43
1.0000
 50
90.0000
  0
INSERT
  8
21
  2
RECT
 10
21.0604
 20
12.6708
 30
0.0000
 41
1.0058
 42
0.0559
 43
1.0000
 50
90.0000
  0
INSERT
  8
21
  2
RECT
 10
21.0045
 20
12.6708
 30
0.0000
 41
0.8941
 42
0.0559
 43
1.0000
 50
90.0000
  0
INSERT
  8
21
  2
RECT
 10
20.9487
 20
12.6708
 30
0.0000
 41
0.8941
 42
0.0559
 43
1.0000
 50
90.0000
  0
INSERT
  8
21
  2
RECT
 10
20.8928
 20
12.6708
 30
0.0000
 41
0.8941
 42
0.0559
 43
1.0000
 50
90.0000
  0
INSERT
  8
21
  2
RECT
 10
20.8369
 20
12.6708
 30
0.0000
 41
0.8941
 42
0.0559
 43
1.0000
 50
90.0000
  0
INSERT
  8
21
  2
RECT
 10
20.7810
 20
12.6708
 30
0.0000
 41
0.8941
 42
0.0559
 43
1.0000
 50
90.0000
  0
POINT
  8
23
 10
30.6388
 20
50.9588
 30
0.0000
  0
ENDSEC
  0
EOF
