  0
SECTION
  2
HEADER
  9
$ACADVER
  1
AC1009
  9
$FILLMODE
 70
0
  9
$EXTMIN
 10
-11.6635
 20
-11.0150
 30
0.0000
  9
$EXTMAX
 10
65.0150
 20
84.3725
 30
0.0000
  0
ENDSEC
  0
SECTION
  2
TABLES
  0
TABLE
  2
LTYPE
 70
1
  0
LTYPE
  2
CONTINUOUS
 70
64
  3
Solid line
 72
65
 73
0
 40
0
  0
ENDTAB
  0
TABLE
  2
LAYER
 70
255
  0
LAYER
  2
19
 70
64
 62
53
  6
CONTINUOUS
  0
LAYER
  2
20
 70
64
 62
30
  6
CONTINUOUS
  0
LAYER
  2
22
 70
64
 62
253
  6
CONTINUOUS
  0
LAYER
  2
39
 70
64
 62
22
  6
CONTINUOUS
  0
LAYER
  2
40
 70
64
 62
175
  6
CONTINUOUS
  0
LAYER
  2
49
 70
64
 62
253
  6
CONTINUOUS
  0
LAYER
  2
52
 70
64
 62
253
  6
CONTINUOUS
  0
ENDTAB
  0
ENDSEC
  0
SECTION
  2
BLOCKS
  0
BLOCK
  8
0
  2
RECT
 70
64
 10
0.0000
 20
0.0000
 30
0.0000
  3
RECT
  0
SOLID
  8
0
 10
-0.5000
 20
-0.5000
 30
0.0000
 11
0.5000
 21
-0.5000
 31
0.0000
 12
-0.5000
 22
0.5000
 32
0.0000
 13
0.5000
 23
0.5000
 33
0.0000
  0
ENDBLK
  8
0
  0
BLOCK
  8
0
  2
PIE
 70
64
 10
0.0000
 20
0.0000
 30
0.0000
  3
PIE
  0
CIRCLE
  8
0
 10
0.0000
 20
0.0000
 30
0.0000
 40
0.5000
  0
ENDBLK
  8
0
  0
BLOCK
  8
0
  2
OCTAGONP
 70
64
 10
0.0000
 20
0.0000
 30
0.0000
  3
OCTAGONP
  0
POLYLINE
  8
0
 66
1
 10
0.0000
 20
0.0000
 30
0.0000
 40
0.0000
 41
0.0000
 70
1
  0
VERTEX
  8
0
 10
-0.5000
 20
-0.2071
 30
0.0000
  0
VERTEX
  8
0
 10
-0.5000
 20
0.2071
 30
0.0000
  0
VERTEX
  8
0
 10
-0.2071
 20
0.5000
 30
0.0000
  0
VERTEX
  8
0
 10
0.2071
 20
0.5000
 30
0.0000
  0
VERTEX
  8
0
 10
0.5000
 20
0.2071
 30
0.0000
  0
VERTEX
  8
0
 10
0.5000
 20
-0.2071
 30
0.0000
  0
VERTEX
  8
0
 10
0.2071
 20
-0.5000
 30
0.0000
  0
VERTEX
  8
0
 10
-0.2071
 20
-0.5000
 30
0.0000
  0
SEQEND
  8
0
  0
ENDBLK
  8
0
  0
BLOCK
  8
0
  2
SQUAREP
 70
64
 10
0.0000
 20
0.0000
 30
0.0000
  3
SQUAREP
  0
SOLID
  8
0
 10
-0.5000
 20
-0.5000
 30
0.0000
 11
0.5000
 21
-0.5000
 31
0.0000
 12
-0.5000
 22
0.5000
 32
0.0000
 13
0.5000
 23
0.5000
 33
0.0000
  0
ENDBLK
  8
0
  0
BLOCK
  8
0
  2
ROUNDP
 70
64
 10
0.0000
 20
0.0000
 30
0.0000
  3
ROUNDP
  0
CIRCLE
  8
0
 10
0.0000
 20
0.0000
 30
0.0000
 40
0.5000
  0
ENDBLK
  8
0
  0
BLOCK
  8
0
  2
ANNULUSP
 70
64
 10
0.0000
 20
0.0000
 30
0.0000
  3
ANNULUSP
  0
CIRCLE
  8
0
 10
0.0000
 20
0.0000
 30
0.0000
 40
0.5000
  0
ENDBLK
  8
0
  0
BLOCK
  8
0
  2
THERMALP
 70
64
 10
0.0000
 20
0.0000
 30
0.0000
  3
THERMALP
  0
LINE
  8
0
 10
-0.2379
 20
0.4500
 30
0.0000
 11
0.2379
 21
0.4500
 31
0.0000
  0
LINE
  8
0
 10
0.4500
 20
0.2379
 30
0.0000
 11
0.4500
 21
-0.2379
 31
0.0000
  0
LINE
  8
0
 10
0.2379
 20
-0.4500
 30
0.0000
 11
-0.2379
 21
-0.4500
 31
0.0000
  0
LINE
  8
0
 10
-0.4500
 20
-0.2379
 30
0.0000
 11
-0.4500
 21
0.2379
 31
0.0000
  0
ENDBLK
  8
0
  0
BLOCK
  8
0
  2
OCTAGONV
 70
64
 10
0.0000
 20
0.0000
 30
0.0000
  3
OCTAGONV
  0
POLYLINE
  8
0
 66
1
 10
0.0000
 20
0.0000
 30
0.0000
 40
0.0000
 41
0.0000
 70
1
  0
VERTEX
  8
0
 10
-0.5000
 20
-0.2071
 30
0.0000
  0
VERTEX
  8
0
 10
-0.5000
 20
0.2071
 30
0.0000
  0
VERTEX
  8
0
 10
-0.2071
 20
0.5000
 30
0.0000
  0
VERTEX
  8
0
 10
0.2071
 20
0.5000
 30
0.0000
  0
VERTEX
  8
0
 10
0.5000
 20
0.2071
 30
0.0000
  0
VERTEX
  8
0
 10
0.5000
 20
-0.2071
 30
0.0000
  0
VERTEX
  8
0
 10
0.2071
 20
-0.5000
 30
0.0000
  0
VERTEX
  8
0
 10
-0.2071
 20
-0.5000
 30
0.0000
  0
SEQEND
  8
0
  0
ENDBLK
  8
0
  0
BLOCK
  8
0
  2
SQUAREV
 70
64
 10
0.0000
 20
0.0000
 30
0.0000
  3
SQUAREV
  0
SOLID
  8
0
 10
-0.5000
 20
-0.5000
 30
0.0000
 11
0.5000
 21
-0.5000
 31
0.0000
 12
-0.5000
 22
0.5000
 32
0.0000
 13
0.5000
 23
0.5000
 33
0.0000
  0
ENDBLK
  8
0
  0
BLOCK
  8
0
  2
ROUNDV
 70
64
 10
0.0000
 20
0.0000
 30
0.0000
  3
ROUNDV
  0
CIRCLE
  8
0
 10
0.0000
 20
0.0000
 30
0.0000
 40
0.5000
  0
ENDBLK
  8
0
  0
BLOCK
  8
0
  2
ANNULUSV
 70
64
 10
0.0000
 20
0.0000
 30
0.0000
  3
ANNULUSV
  0
CIRCLE
  8
0
 10
0.0000
 20
0.0000
 30
0.0000
 40
0.5000
  0
ENDBLK
  8
0
  0
BLOCK
  8
0
  2
THERMALV
 70
64
 10
0.0000
 20
0.0000
 30
0.0000
  3
THERMALV
  0
LINE
  8
0
 10
-0.2379
 20
0.4500
 30
0.0000
 11
0.2379
 21
0.4500
 31
0.0000
  0
LINE
  8
0
 10
0.4500
 20
0.2379
 30
0.0000
 11
0.4500
 21
-0.2379
 31
0.0000
  0
LINE
  8
0
 10
0.2379
 20
-0.4500
 30
0.0000
 11
-0.2379
 21
-0.4500
 31
0.0000
  0
LINE
  8
0
 10
-0.4500
 20
-0.2379
 30
0.0000
 11
-0.4500
 21
0.2379
 31
0.0000
  0
ENDBLK
  8
0
  0
ENDSEC
  0
SECTION
  2
ENTITIES
  0
LINE
  8
20
 10
0.0000
 20
0.0000
 30
0.0000
 11
44.0000
 21
0.0000
 31
0.0000
  0
LINE
  8
20
 10
0.0000
 20
54.0000
 30
0.0000
 11
0.0000
 21
0.0000
 31
0.0000
  0
LINE
  8
20
 10
0.0000
 20
54.0000
 30
0.0000
 11
44.0000
 21
54.0000
 31
0.0000
  0
LINE
  8
20
 10
44.0000
 20
54.0000
 30
0.0000
 11
44.0000
 21
0.0000
 31
0.0000
  0
LINE
  8
22
 10
26.1767
 20
32.7742
 30
0.0000
 11
25.0083
 21
32.7742
 31
0.0000
  0
LINE
  8
22
 10
25.3978
 20
32.7742
 30
0.0000
 11
25.3978
 21
32.4496
 31
0.0000
  0
ARC
  8
22
 10
25.5925
 20
32.4496
 30
0.0000
 40
0.1947
 50
180.0000
 51
269.9982
  0
LINE
  8
22
 10
25.5925
 20
32.2549
 30
0.0000
 11
26.1767
 21
32.2549
 31
0.0000
  0
LINE
  8
22
 10
25.3978
 20
31.8422
 30
0.0000
 11
25.3978
 21
31.4528
 31
0.0000
  0
LINE
  8
22
 10
25.0083
 20
31.7124
 30
0.0000
 11
25.9820
 21
31.7124
 31
0.0000
  0
ARC
  8
22
 10
25.9820
 20
31.5177
 30
0.0000
 40
0.1947
 50
0.0000
 51
90.0000
  0
LINE
  8
22
 10
26.1767
 20
31.5177
 30
0.0000
 11
26.1767
 21
31.4528
 31
0.0000
  0
LINE
  8
22
 10
25.3978
 20
31.1183
 30
0.0000
 11
25.3978
 21
30.7289
 31
0.0000
  0
LINE
  8
22
 10
25.0083
 20
30.9885
 30
0.0000
 11
25.9820
 21
30.9885
 31
0.0000
  0
ARC
  8
22
 10
25.9820
 20
30.7938
 30
0.0000
 40
0.1947
 50
0.0000
 51
90.0000
  0
LINE
  8
22
 10
26.1767
 20
30.7938
 30
0.0000
 11
26.1767
 21
30.7289
 31
0.0000
  0
LINE
  8
22
 10
26.5662
 20
30.2537
 30
0.0000
 11
25.3978
 21
30.2537
 31
0.0000
  0
LINE
  8
22
 10
25.3978
 20
30.2537
 30
0.0000
 11
25.3978
 21
29.9292
 31
0.0000
  0
ARC
  8
22
 10
25.5925
 20
29.9292
 30
0.0000
 40
0.1947
 50
180.0000
 51
269.9982
  0
LINE
  8
22
 10
25.5925
 20
29.7344
 30
0.0000
 11
25.9820
 21
29.7344
 31
0.0000
  0
ARC
  8
22
 10
25.9820
 20
29.9292
 30
0.0000
 40
0.1947
 50
270.0000
 51
0.0009
  0
LINE
  8
22
 10
26.1767
 20
29.9292
 30
0.0000
 11
26.1767
 21
30.2537
 31
0.0000
  0
LINE
  8
22
 10
26.0793
 20
29.2704
 30
0.0000
 11
26.0144
 21
29.2704
 31
0.0000
  0
LINE
  8
22
 10
26.0144
 20
29.2704
 30
0.0000
 11
26.0144
 21
29.2055
 31
0.0000
  0
LINE
  8
22
 10
26.0144
 20
29.2055
 30
0.0000
 11
26.0793
 21
29.2055
 31
0.0000
  0
LINE
  8
22
 10
26.0793
 20
29.2055
 30
0.0000
 11
26.0793
 21
29.2704
 31
0.0000
  0
LINE
  8
22
 10
25.5600
 20
29.2704
 30
0.0000
 11
25.4951
 21
29.2704
 31
0.0000
  0
LINE
  8
22
 10
25.4951
 20
29.2704
 30
0.0000
 11
25.4951
 21
29.2055
 31
0.0000
  0
LINE
  8
22
 10
25.4951
 20
29.2055
 30
0.0000
 11
25.5600
 21
29.2055
 31
0.0000
  0
LINE
  8
22
 10
25.5600
 20
29.2055
 30
0.0000
 11
25.5600
 21
29.2704
 31
0.0000
  0
LINE
  8
22
 10
26.3065
 20
28.7737
 30
0.0000
 11
24.8785
 21
28.2544
 31
0.0000
  0
LINE
  8
22
 10
26.3065
 20
27.8593
 30
0.0000
 11
24.8785
 21
27.3400
 31
0.0000
  0
LINE
  8
22
 10
26.1767
 20
26.3934
 30
0.0000
 11
26.1767
 21
26.7180
 31
0.0000
  0
ARC
  8
22
 10
25.9820
 20
26.7180
 30
0.0000
 40
0.1947
 50
0.0000
 51
90.0000
  0
LINE
  8
22
 10
25.9820
 20
26.9127
 30
0.0000
 11
25.5925
 21
26.9127
 31
0.0000
  0
ARC
  8
22
 10
25.5925
 20
26.7180
 30
0.0000
 40
0.1947
 50
90.0000
 51
180.0000
  0
LINE
  8
22
 10
25.3978
 20
26.7180
 30
0.0000
 11
25.3978
 21
26.3934
 31
0.0000
  0
LINE
  8
22
 10
25.3978
 20
26.3934
 30
0.0000
 11
26.3714
 21
26.3934
 31
0.0000
  0
ARC
  8
22
 10
26.3714
 20
26.5881
 30
0.0000
 40
0.1947
 50
270.0000
 51
0.0009
  0
LINE
  8
22
 10
26.5662
 20
26.5882
 30
0.0000
 11
26.5662
 21
26.8478
 31
0.0000
  0
LINE
  8
22
 10
26.1767
 20
25.8852
 30
0.0000
 11
25.3978
 21
25.8852
 31
0.0000
  0
LINE
  8
22
 10
25.0732
 20
25.9176
 30
0.0000
 11
25.0083
 21
25.9176
 31
0.0000
  0
LINE
  8
22
 10
25.0083
 20
25.9176
 30
0.0000
 11
25.0083
 21
25.8527
 31
0.0000
  0
LINE
  8
22
 10
25.0083
 20
25.8527
 30
0.0000
 11
25.0732
 21
25.8527
 31
0.0000
  0
LINE
  8
22
 10
25.0732
 20
25.8527
 30
0.0000
 11
25.0732
 21
25.9176
 31
0.0000
  0
LINE
  8
22
 10
25.3978
 20
25.5176
 30
0.0000
 11
25.3978
 21
25.1282
 31
0.0000
  0
LINE
  8
22
 10
25.0083
 20
25.3878
 30
0.0000
 11
25.9820
 21
25.3878
 31
0.0000
  0
ARC
  8
22
 10
25.9820
 20
25.1931
 30
0.0000
 40
0.1947
 50
0.0000
 51
90.0000
  0
LINE
  8
22
 10
26.1767
 20
25.1931
 30
0.0000
 11
26.1767
 21
25.1282
 31
0.0000
  0
LINE
  8
22
 10
26.1767
 20
24.6589
 30
0.0000
 11
25.0083
 21
24.6589
 31
0.0000
  0
LINE
  8
22
 10
25.3978
 20
24.6589
 30
0.0000
 11
25.3978
 21
24.3344
 31
0.0000
  0
ARC
  8
22
 10
25.5925
 20
24.3344
 30
0.0000
 40
0.1947
 50
180.0000
 51
269.9982
  0
LINE
  8
22
 10
25.5925
 20
24.1396
 30
0.0000
 11
26.1767
 21
24.1396
 31
0.0000
  0
LINE
  8
22
 10
25.3978
 20
23.5921
 30
0.0000
 11
25.9820
 21
23.5921
 31
0.0000
  0
ARC
  8
22
 10
25.9820
 20
23.3974
 30
0.0000
 40
0.1947
 50
0.0000
 51
90.0000
  0
LINE
  8
22
 10
26.1767
 20
23.3974
 30
0.0000
 11
26.1767
 21
23.0728
 31
0.0000
  0
LINE
  8
22
 10
26.1767
 20
23.0728
 30
0.0000
 11
25.3978
 21
23.0728
 31
0.0000
  0
LINE
  8
22
 10
25.0083
 20
22.5194
 30
0.0000
 11
26.1767
 21
22.5194
 31
0.0000
  0
LINE
  8
22
 10
26.1767
 20
22.5194
 30
0.0000
 11
26.1767
 21
22.1949
 31
0.0000
  0
ARC
  8
22
 10
25.9820
 20
22.1949
 30
0.0000
 40
0.1947
 50
270.0018
 51
360.0000
  0
LINE
  8
22
 10
25.9820
 20
22.0001
 30
0.0000
 11
25.5925
 21
22.0001
 31
0.0000
  0
ARC
  8
22
 10
25.5925
 20
22.1949
 30
0.0000
 40
0.1947
 50
179.9991
 51
270.0000
  0
LINE
  8
22
 10
25.3978
 20
22.1949
 30
0.0000
 11
25.3978
 21
22.5194
 31
0.0000
  0
LINE
  8
22
 10
26.1767
 20
21.5742
 30
0.0000
 11
26.1118
 21
21.5742
 31
0.0000
  0
LINE
  8
22
 10
26.1118
 20
21.5742
 30
0.0000
 11
26.1118
 21
21.5093
 31
0.0000
  0
LINE
  8
22
 10
26.1118
 20
21.5093
 30
0.0000
 11
26.1767
 21
21.5093
 31
0.0000
  0
LINE
  8
22
 10
26.1767
 20
21.5093
 30
0.0000
 11
26.1767
 21
21.5742
 31
0.0000
  0
LINE
  8
22
 10
26.1767
 20
20.6218
 30
0.0000
 11
26.1767
 21
20.8815
 31
0.0000
  0
ARC
  8
22
 10
25.9820
 20
20.8815
 30
0.0000
 40
0.1947
 50
0.0000
 51
90.0000
  0
LINE
  8
22
 10
25.9820
 20
21.0762
 30
0.0000
 11
25.5925
 21
21.0762
 31
0.0000
  0
ARC
  8
22
 10
25.5925
 20
20.8815
 30
0.0000
 40
0.1947
 50
90.0000
 51
180.0000
  0
LINE
  8
22
 10
25.3978
 20
20.8815
 30
0.0000
 11
25.3978
 21
20.6218
 31
0.0000
  0
LINE
  8
22
 10
25.9171
 20
20.2012
 30
0.0000
 11
25.6574
 21
20.2012
 31
0.0000
  0
ARC
  8
22
 10
25.6574
 20
19.9416
 30
0.0000
 40
0.2596
 50
90.0000
 51
270.0000
  0
LINE
  8
22
 10
25.6574
 20
19.6819
 30
0.0000
 11
25.9171
 21
19.6819
 31
0.0000
  0
ARC
  8
22
 10
25.9171
 20
19.9416
 30
0.0000
 40
0.2596
 50
270.0000
 51
90.0000
  0
LINE
  8
22
 10
26.1767
 20
19.1500
 30
0.0000
 11
25.3978
 21
19.1500
 31
0.0000
  0
LINE
  8
22
 10
25.3978
 20
19.1500
 30
0.0000
 11
25.3978
 21
18.5658
 31
0.0000
  0
ARC
  8
22
 10
25.5925
 20
18.5658
 30
0.0000
 40
0.1947
 50
180.0000
 51
270.0000
  0
LINE
  8
22
 10
25.5925
 20
18.3710
 30
0.0000
 11
26.1767
 21
18.3710
 31
0.0000
  0
LINE
  8
22
 10
26.1767
 20
18.7605
 30
0.0000
 11
25.3978
 21
18.7605
 31
0.0000
  0
LINE
  8
22
 10
26.3065
 20
17.8771
 30
0.0000
 11
24.8785
 21
17.3578
 31
0.0000
  0
LINE
  8
22
 10
27.7571
 20
32.3198
 30
0.0000
 11
27.6273
 21
32.6444
 31
0.0000
  0
ARC
  8
22
 10
27.4711
 20
32.5819
 30
0.0000
 40
0.1683
 50
21.8011
 51
180.8182
  0
ARC
  8
22
 10
28.0398
 20
32.5900
 30
0.0000
 40
0.7371
 50
180.8181
 51
204.2389
  0
ARC
  8
22
 10
27.9134
 20
32.3823
 30
0.0000
 40
0.1683
 50
201.8014
 51
0.8181
  0
ARC
  8
22
 10
26.9810
 20
32.3690
 30
0.0000
 40
1.1008
 50
0.8181
 51
19.7910
  0
LINE
  8
22
 10
27.3028
 20
31.7892
 30
0.0000
 11
28.0817
 21
31.5296
 31
0.0000
  0
LINE
  8
22
 10
28.0817
 20
31.5296
 30
0.0000
 11
27.3028
 21
31.2700
 31
0.0000
  0
LINE
  8
22
 10
28.0817
 20
30.3175
 30
0.0000
 11
28.0817
 21
30.6420
 31
0.0000
  0
ARC
  8
22
 10
27.8870
 20
30.6420
 30
0.0000
 40
0.1947
 50
0.0000
 51
90.0000
  0
LINE
  8
22
 10
27.8870
 20
30.8367
 30
0.0000
 11
27.5624
 21
30.8367
 31
0.0000
  0
ARC
  8
22
 10
27.5624
 20
30.5771
 30
0.0000
 40
0.2596
 50
90.0000
 51
270.0000
  0
LINE
  8
22
 10
27.5624
 20
30.3175
 30
0.0000
 11
27.6922
 21
30.3175
 31
0.0000
  0
LINE
  8
22
 10
27.6922
 20
30.3175
 30
0.0000
 11
27.6922
 21
30.8367
 31
0.0000
  0
LINE
  8
22
 10
28.0817
 20
29.8080
 30
0.0000
 11
27.3028
 21
29.8080
 31
0.0000
  0
LINE
  8
22
 10
27.3028
 20
29.8080
 30
0.0000
 11
27.3028
 21
29.4835
 31
0.0000
  0
ARC
  8
22
 10
27.4975
 20
29.4835
 30
0.0000
 40
0.1947
 50
180.0000
 51
269.9982
  0
LINE
  8
22
 10
27.4975
 20
29.2888
 30
0.0000
 11
28.0817
 21
29.2888
 31
0.0000
  0
LINE
  8
22
 10
28.4712
 20
28.7354
 30
0.0000
 11
27.3028
 21
28.7354
 31
0.0000
  0
LINE
  8
22
 10
27.3028
 20
28.7354
 30
0.0000
 11
27.3028
 21
28.4108
 31
0.0000
  0
ARC
  8
22
 10
27.4975
 20
28.4108
 30
0.0000
 40
0.1947
 50
180.0000
 51
269.9982
  0
LINE
  8
22
 10
27.4975
 20
28.2161
 30
0.0000
 11
27.8870
 21
28.2161
 31
0.0000
  0
ARC
  8
22
 10
27.8870
 20
28.4108
 30
0.0000
 40
0.1947
 50
270.0000
 51
0.0009
  0
LINE
  8
22
 10
28.0817
 20
28.4108
 30
0.0000
 11
28.0817
 21
28.7354
 31
0.0000
  0
LINE
  8
22
 10
28.0817
 20
27.2314
 30
0.0000
 11
28.0817
 21
27.5559
 31
0.0000
  0
ARC
  8
22
 10
27.8870
 20
27.5559
 30
0.0000
 40
0.1947
 50
0.0000
 51
90.0000
  0
LINE
  8
22
 10
27.8870
 20
27.7506
 30
0.0000
 11
27.5624
 21
27.7506
 31
0.0000
  0
ARC
  8
22
 10
27.5624
 20
27.4910
 30
0.0000
 40
0.2596
 50
90.0000
 51
270.0000
  0
LINE
  8
22
 10
27.5624
 20
27.2314
 30
0.0000
 11
27.6922
 21
27.2314
 31
0.0000
  0
LINE
  8
22
 10
27.6922
 20
27.2314
 30
0.0000
 11
27.6922
 21
27.7506
 31
0.0000
  0
LINE
  8
22
 10
27.3028
 20
26.8568
 30
0.0000
 11
27.3028
 21
26.4673
 31
0.0000
  0
LINE
  8
22
 10
26.9133
 20
26.7270
 30
0.0000
 11
27.8870
 21
26.7270
 31
0.0000
  0
ARC
  8
22
 10
27.8870
 20
26.5322
 30
0.0000
 40
0.1947
 50
0.0000
 51
90.0000
  0
LINE
  8
22
 10
28.0817
 20
26.5322
 30
0.0000
 11
28.0817
 21
26.4673
 31
0.0000
  0
LINE
  8
22
 10
28.0817
 20
25.5169
 30
0.0000
 11
28.0817
 21
25.8414
 31
0.0000
  0
ARC
  8
22
 10
27.8870
 20
25.8414
 30
0.0000
 40
0.1947
 50
0.0000
 51
90.0000
  0
LINE
  8
22
 10
27.8870
 20
26.0362
 30
0.0000
 11
27.5624
 21
26.0362
 31
0.0000
  0
ARC
  8
22
 10
27.5624
 20
25.7765
 30
0.0000
 40
0.2596
 50
90.0000
 51
270.0000
  0
LINE
  8
22
 10
27.5624
 20
25.5169
 30
0.0000
 11
27.6922
 21
25.5169
 31
0.0000
  0
LINE
  8
22
 10
27.6922
 20
25.5169
 30
0.0000
 11
27.6922
 21
26.0362
 31
0.0000
  0
LINE
  8
22
 10
28.0817
 20
25.0008
 30
0.0000
 11
27.3028
 21
25.0008
 31
0.0000
  0
LINE
  8
22
 10
27.3028
 20
25.0008
 30
0.0000
 11
27.3028
 21
24.6113
 31
0.0000
  0
LINE
  8
22
 10
27.3028
 20
24.6113
 30
0.0000
 11
27.4326
 21
24.6113
 31
0.0000
  0
LINE
  8
22
 10
27.7571
 20
23.8235
 30
0.0000
 11
27.6273
 21
24.1481
 31
0.0000
  0
ARC
  8
22
 10
27.4711
 20
24.0856
 30
0.0000
 40
0.1683
 50
21.8011
 51
180.8182
  0
ARC
  8
22
 10
28.0398
 20
24.0937
 30
0.0000
 40
0.7371
 50
180.8181
 51
204.2389
  0
ARC
  8
22
 10
27.9134
 20
23.8860
 30
0.0000
 40
0.1683
 50
201.8014
 51
0.8181
  0
ARC
  8
22
 10
26.9810
 20
23.8727
 30
0.0000
 40
1.1008
 50
0.8181
 51
19.7910
  0
LINE
  8
22
 10
28.0817
 20
22.7356
 30
0.0000
 11
28.0817
 21
23.0601
 31
0.0000
  0
ARC
  8
22
 10
27.8870
 20
23.0601
 30
0.0000
 40
0.1947
 50
0.0000
 51
90.0000
  0
LINE
  8
22
 10
27.8870
 20
23.2549
 30
0.0000
 11
27.5624
 21
23.2549
 31
0.0000
  0
ARC
  8
22
 10
27.5624
 20
22.9952
 30
0.0000
 40
0.2596
 50
90.0000
 51
270.0000
  0
LINE
  8
22
 10
27.5624
 20
22.7356
 30
0.0000
 11
27.6922
 21
22.7356
 31
0.0000
  0
LINE
  8
22
 10
27.6922
 20
22.7356
 30
0.0000
 11
27.6922
 21
23.2549
 31
0.0000
  0
LINE
  8
22
 10
28.0817
 20
22.2262
 30
0.0000
 11
27.3028
 21
22.2262
 31
0.0000
  0
LINE
  8
22
 10
27.3028
 20
22.2262
 30
0.0000
 11
27.3028
 21
21.9016
 31
0.0000
  0
ARC
  8
22
 10
27.4975
 20
21.9016
 30
0.0000
 40
0.1947
 50
180.0000
 51
269.9982
  0
LINE
  8
22
 10
27.4975
 20
21.7069
 30
0.0000
 11
28.0817
 21
21.7069
 31
0.0000
  0
LINE
  8
22
 10
27.1729
 20
21.1862
 30
0.0000
 11
26.9133
 21
20.8616
 31
0.0000
  0
LINE
  8
22
 10
26.9133
 20
20.8616
 30
0.0000
 11
28.0817
 21
20.8616
 31
0.0000
  0
LINE
  8
22
 10
28.0817
 20
21.1862
 30
0.0000
 11
28.0817
 21
20.5371
 31
0.0000
  0
LINE
  8
22
 10
27.5624
 20
19.3941
 30
0.0000
 11
27.5624
 21
19.7835
 31
0.0000
  0
ARC
  8
22
 10
27.3028
 20
19.7835
 30
0.0000
 40
0.2596
 50
0.0000
 51
90.0000
  0
LINE
  8
22
 10
27.3028
 20
20.0432
 30
0.0000
 11
27.2379
 21
20.0432
 31
0.0000
  0
ARC
  8
22
 10
27.2379
 20
19.7186
 30
0.0000
 40
0.3246
 50
90.0000
 51
270.0000
  0
LINE
  8
22
 10
27.2379
 20
19.3941
 30
0.0000
 11
27.5624
 21
19.3941
 31
0.0000
  0
ARC
  8
22
 10
27.5624
 20
19.9133
 30
0.0000
 40
0.5193
 50
270.0000
 51
0.0000
  0
LINE
  8
22
 10
27.4326
 20
18.9002
 30
0.0000
 11
27.4326
 21
18.5107
 31
0.0000
  0
ARC
  8
22
 10
27.6922
 20
18.5107
 30
0.0000
 40
0.2596
 50
180.0000
 51
270.0000
  0
LINE
  8
22
 10
27.6922
 20
18.2511
 30
0.0000
 11
27.7571
 21
18.2511
 31
0.0000
  0
ARC
  8
22
 10
27.7571
 20
18.5756
 30
0.0000
 40
0.3246
 50
270.0000
 51
90.0000
  0
LINE
  8
22
 10
27.7571
 20
18.9002
 30
0.0000
 11
27.4326
 21
18.9002
 31
0.0000
  0
ARC
  8
22
 10
27.4326
 20
18.3809
 30
0.0000
 40
0.5193
 50
90.0000
 51
179.9993
  0
LINE
  8
22
 10
28.0817
 20
17.7572
 30
0.0000
 11
28.0817
 21
17.3677
 31
0.0000
  0
ARC
  8
22
 10
27.8221
 20
17.3677
 30
0.0000
 40
0.2596
 50
270.0000
 51
0.0000
  0
LINE
  8
22
 10
27.8221
 20
17.1081
 30
0.0000
 11
27.6922
 21
17.1081
 31
0.0000
  0
ARC
  8
22
 10
27.6922
 20
17.3677
 30
0.0000
 40
0.2596
 50
180.0000
 51
270.0000
  0
LINE
  8
22
 10
27.4326
 20
17.3677
 30
0.0000
 11
27.4326
 21
17.7572
 31
0.0000
  0
LINE
  8
22
 10
27.4326
 20
17.7572
 30
0.0000
 11
26.9133
 21
17.7572
 31
0.0000
  0
LINE
  8
22
 10
26.9133
 20
17.7572
 30
0.0000
 11
26.9133
 21
17.1081
 31
0.0000
  0
LINE
  8
52
 10
0.1000
 20
49.7800
 30
0.0000
 11
4.0000
 21
49.7800
 31
0.0000
  0
LINE
  8
52
 10
0.1000
 20
47.7800
 30
0.0000
 11
4.0000
 21
47.7800
 31
0.0000
  0
ARC
  8
52
 10
4.0000
 20
48.7800
 30
0.0000
 40
1.0000
 50
270.0000
 51
90.0000
  0
ARC
  8
52
 10
3.0000
 20
48.7800
 30
0.0000
 40
0.5000
 50
270.0000
 51
90.0000
  0
LINE
  8
52
 10
3.0000
 20
49.2800
 30
0.0000
 11
2.0000
 21
49.2800
 31
0.0000
  0
LINE
  8
52
 10
3.0000
 20
48.2800
 30
0.0000
 11
2.0000
 21
48.2800
 31
0.0000
  0
ARC
  8
52
 10
2.0000
 20
48.7800
 30
0.0000
 40
0.5000
 50
90.0000
 51
270.0000
  0
LINE
  8
22
 10
0.1000
 20
49.7800
 30
0.0000
 11
-1.0000
 21
49.7800
 31
0.0000
  0
LINE
  8
22
 10
0.1000
 20
47.7800
 30
0.0000
 11
-1.0000
 21
47.7800
 31
0.0000
  0
LINE
  8
22
 10
-1.0000
 20
47.0500
 30
0.0000
 11
0.0000
 21
47.0500
 31
0.0000
  0
LINE
  8
22
 10
0.0000
 20
47.0500
 30
0.0000
 11
0.0000
 21
46.5500
 31
0.0000
  0
LINE
  8
22
 10
0.0000
 20
46.5500
 30
0.0000
 11
-1.0000
 21
46.5500
 31
0.0000
  0
LINE
  8
22
 10
-1.0000
 20
51.0100
 30
0.0000
 11
0.0000
 21
51.0100
 31
0.0000
  0
LINE
  8
22
 10
0.0000
 20
51.0100
 30
0.0000
 11
0.0000
 21
50.5100
 31
0.0000
  0
LINE
  8
22
 10
0.0000
 20
50.5100
 30
0.0000
 11
-1.0000
 21
50.5100
 31
0.0000
  0
LINE
  8
52
 10
0.1000
 20
45.8200
 30
0.0000
 11
4.0000
 21
45.8200
 31
0.0000
  0
LINE
  8
52
 10
0.1000
 20
43.8200
 30
0.0000
 11
4.0000
 21
43.8200
 31
0.0000
  0
ARC
  8
52
 10
4.0000
 20
44.8200
 30
0.0000
 40
1.0000
 50
270.0000
 51
90.0000
  0
ARC
  8
52
 10
3.0000
 20
44.8200
 30
0.0000
 40
0.5000
 50
270.0000
 51
90.0000
  0
LINE
  8
52
 10
3.0000
 20
45.3200
 30
0.0000
 11
2.0000
 21
45.3200
 31
0.0000
  0
LINE
  8
52
 10
3.0000
 20
44.3200
 30
0.0000
 11
2.0000
 21
44.3200
 31
0.0000
  0
ARC
  8
52
 10
2.0000
 20
44.8200
 30
0.0000
 40
0.5000
 50
90.0000
 51
270.0000
  0
LINE
  8
22
 10
0.1000
 20
45.8200
 30
0.0000
 11
-1.0000
 21
45.8200
 31
0.0000
  0
LINE
  8
22
 10
0.1000
 20
43.8200
 30
0.0000
 11
-1.0000
 21
43.8200
 31
0.0000
  0
LINE
  8
22
 10
-1.0000
 20
43.0900
 30
0.0000
 11
0.0000
 21
43.0900
 31
0.0000
  0
LINE
  8
22
 10
0.0000
 20
43.0900
 30
0.0000
 11
0.0000
 21
42.5900
 31
0.0000
  0
LINE
  8
22
 10
0.0000
 20
42.5900
 30
0.0000
 11
-1.0000
 21
42.5900
 31
0.0000
  0
LINE
  8
52
 10
0.1000
 20
41.8600
 30
0.0000
 11
4.0000
 21
41.8600
 31
0.0000
  0
LINE
  8
52
 10
0.1000
 20
39.8600
 30
0.0000
 11
4.0000
 21
39.8600
 31
0.0000
  0
ARC
  8
52
 10
4.0000
 20
40.8600
 30
0.0000
 40
1.0000
 50
270.0000
 51
90.0000
  0
ARC
  8
52
 10
3.0000
 20
40.8600
 30
0.0000
 40
0.5000
 50
270.0000
 51
90.0000
  0
LINE
  8
52
 10
3.0000
 20
41.3600
 30
0.0000
 11
2.0000
 21
41.3600
 31
0.0000
  0
LINE
  8
52
 10
3.0000
 20
40.3600
 30
0.0000
 11
2.0000
 21
40.3600
 31
0.0000
  0
ARC
  8
52
 10
2.0000
 20
40.8600
 30
0.0000
 40
0.5000
 50
90.0000
 51
270.0000
  0
LINE
  8
22
 10
0.1000
 20
41.8600
 30
0.0000
 11
-1.0000
 21
41.8600
 31
0.0000
  0
LINE
  8
22
 10
0.1000
 20
39.8600
 30
0.0000
 11
-1.0000
 21
39.8600
 31
0.0000
  0
LINE
  8
22
 10
-1.0000
 20
39.1300
 30
0.0000
 11
0.0000
 21
39.1300
 31
0.0000
  0
LINE
  8
22
 10
0.0000
 20
39.1300
 30
0.0000
 11
0.0000
 21
38.6300
 31
0.0000
  0
LINE
  8
22
 10
0.0000
 20
38.6300
 30
0.0000
 11
-1.0000
 21
38.6300
 31
0.0000
  0
LINE
  8
52
 10
0.1000
 20
37.9000
 30
0.0000
 11
4.0000
 21
37.9000
 31
0.0000
  0
LINE
  8
52
 10
0.1000
 20
35.9000
 30
0.0000
 11
4.0000
 21
35.9000
 31
0.0000
  0
ARC
  8
52
 10
4.0000
 20
36.9000
 30
0.0000
 40
1.0000
 50
270.0000
 51
90.0000
  0
ARC
  8
52
 10
3.0000
 20
36.9000
 30
0.0000
 40
0.5000
 50
270.0000
 51
90.0000
  0
LINE
  8
52
 10
3.0000
 20
37.4000
 30
0.0000
 11
2.0000
 21
37.4000
 31
0.0000
  0
LINE
  8
52
 10
3.0000
 20
36.4000
 30
0.0000
 11
2.0000
 21
36.4000
 31
0.0000
  0
ARC
  8
52
 10
2.0000
 20
36.9000
 30
0.0000
 40
0.5000
 50
90.0000
 51
270.0000
  0
LINE
  8
22
 10
0.1000
 20
37.9000
 30
0.0000
 11
-1.0000
 21
37.9000
 31
0.0000
  0
LINE
  8
22
 10
0.1000
 20
35.9000
 30
0.0000
 11
-1.0000
 21
35.9000
 31
0.0000
  0
LINE
  8
22
 10
-1.0000
 20
35.1700
 30
0.0000
 11
0.0000
 21
35.1700
 31
0.0000
  0
LINE
  8
22
 10
0.0000
 20
35.1700
 30
0.0000
 11
0.0000
 21
34.6700
 31
0.0000
  0
LINE
  8
22
 10
0.0000
 20
34.6700
 30
0.0000
 11
-1.0000
 21
34.6700
 31
0.0000
  0
LINE
  8
52
 10
0.1000
 20
33.9400
 30
0.0000
 11
4.0000
 21
33.9400
 31
0.0000
  0
LINE
  8
52
 10
0.1000
 20
31.9400
 30
0.0000
 11
4.0000
 21
31.9400
 31
0.0000
  0
ARC
  8
52
 10
4.0000
 20
32.9400
 30
0.0000
 40
1.0000
 50
270.0000
 51
90.0000
  0
ARC
  8
52
 10
3.0000
 20
32.9400
 30
0.0000
 40
0.5000
 50
270.0000
 51
90.0000
  0
LINE
  8
52
 10
3.0000
 20
33.4400
 30
0.0000
 11
2.0000
 21
33.4400
 31
0.0000
  0
LINE
  8
52
 10
3.0000
 20
32.4400
 30
0.0000
 11
2.0000
 21
32.4400
 31
0.0000
  0
ARC
  8
52
 10
2.0000
 20
32.9400
 30
0.0000
 40
0.5000
 50
90.0000
 51
270.0000
  0
LINE
  8
22
 10
0.1000
 20
33.9400
 30
0.0000
 11
-1.0000
 21
33.9400
 31
0.0000
  0
LINE
  8
22
 10
0.1000
 20
31.9400
 30
0.0000
 11
-1.0000
 21
31.9400
 31
0.0000
  0
LINE
  8
22
 10
-1.0000
 20
31.2100
 30
0.0000
 11
0.0000
 21
31.2100
 31
0.0000
  0
LINE
  8
22
 10
0.0000
 20
31.2100
 30
0.0000
 11
0.0000
 21
30.7100
 31
0.0000
  0
LINE
  8
22
 10
0.0000
 20
30.7100
 30
0.0000
 11
-1.0000
 21
30.7100
 31
0.0000
  0
LINE
  8
52
 10
0.1000
 20
29.9800
 30
0.0000
 11
4.0000
 21
29.9800
 31
0.0000
  0
LINE
  8
52
 10
0.1000
 20
27.9800
 30
0.0000
 11
4.0000
 21
27.9800
 31
0.0000
  0
ARC
  8
52
 10
4.0000
 20
28.9800
 30
0.0000
 40
1.0000
 50
270.0000
 51
90.0000
  0
ARC
  8
52
 10
3.0000
 20
28.9800
 30
0.0000
 40
0.5000
 50
270.0000
 51
90.0000
  0
LINE
  8
52
 10
3.0000
 20
29.4800
 30
0.0000
 11
2.0000
 21
29.4800
 31
0.0000
  0
LINE
  8
52
 10
3.0000
 20
28.4800
 30
0.0000
 11
2.0000
 21
28.4800
 31
0.0000
  0
ARC
  8
52
 10
2.0000
 20
28.9800
 30
0.0000
 40
0.5000
 50
90.0000
 51
270.0000
  0
LINE
  8
22
 10
0.1000
 20
29.9800
 30
0.0000
 11
-1.0000
 21
29.9800
 31
0.0000
  0
LINE
  8
22
 10
0.1000
 20
27.9800
 30
0.0000
 11
-1.0000
 21
27.9800
 31
0.0000
  0
LINE
  8
22
 10
-1.0000
 20
27.2500
 30
0.0000
 11
0.0000
 21
27.2500
 31
0.0000
  0
LINE
  8
22
 10
0.0000
 20
27.2500
 30
0.0000
 11
0.0000
 21
26.7500
 31
0.0000
  0
LINE
  8
22
 10
0.0000
 20
26.7500
 30
0.0000
 11
-1.0000
 21
26.7500
 31
0.0000
  0
LINE
  8
52
 10
0.1000
 20
26.0200
 30
0.0000
 11
4.0000
 21
26.0200
 31
0.0000
  0
LINE
  8
52
 10
0.1000
 20
24.0200
 30
0.0000
 11
4.0000
 21
24.0200
 31
0.0000
  0
ARC
  8
52
 10
4.0000
 20
25.0200
 30
0.0000
 40
1.0000
 50
270.0000
 51
90.0000
  0
ARC
  8
52
 10
3.0000
 20
25.0200
 30
0.0000
 40
0.5000
 50
270.0000
 51
90.0000
  0
LINE
  8
52
 10
3.0000
 20
25.5200
 30
0.0000
 11
2.0000
 21
25.5200
 31
0.0000
  0
LINE
  8
52
 10
3.0000
 20
24.5200
 30
0.0000
 11
2.0000
 21
24.5200
 31
0.0000
  0
ARC
  8
52
 10
2.0000
 20
25.0200
 30
0.0000
 40
0.5000
 50
90.0000
 51
270.0000
  0
LINE
  8
22
 10
0.1000
 20
26.0200
 30
0.0000
 11
-1.0000
 21
26.0200
 31
0.0000
  0
LINE
  8
22
 10
0.1000
 20
24.0200
 30
0.0000
 11
-1.0000
 21
24.0200
 31
0.0000
  0
LINE
  8
22
 10
-1.0000
 20
23.2900
 30
0.0000
 11
0.0000
 21
23.2900
 31
0.0000
  0
LINE
  8
22
 10
0.0000
 20
23.2900
 30
0.0000
 11
0.0000
 21
22.7900
 31
0.0000
  0
LINE
  8
22
 10
0.0000
 20
22.7900
 30
0.0000
 11
-1.0000
 21
22.7900
 31
0.0000
  0
LINE
  8
52
 10
0.1000
 20
22.0600
 30
0.0000
 11
4.0000
 21
22.0600
 31
0.0000
  0
LINE
  8
52
 10
0.1000
 20
20.0600
 30
0.0000
 11
4.0000
 21
20.0600
 31
0.0000
  0
ARC
  8
52
 10
4.0000
 20
21.0600
 30
0.0000
 40
1.0000
 50
270.0000
 51
90.0000
  0
ARC
  8
52
 10
3.0000
 20
21.0600
 30
0.0000
 40
0.5000
 50
270.0000
 51
90.0000
  0
LINE
  8
52
 10
3.0000
 20
21.5600
 30
0.0000
 11
2.0000
 21
21.5600
 31
0.0000
  0
LINE
  8
52
 10
3.0000
 20
20.5600
 30
0.0000
 11
2.0000
 21
20.5600
 31
0.0000
  0
ARC
  8
52
 10
2.0000
 20
21.0600
 30
0.0000
 40
0.5000
 50
90.0000
 51
270.0000
  0
LINE
  8
22
 10
0.1000
 20
22.0600
 30
0.0000
 11
-1.0000
 21
22.0600
 31
0.0000
  0
LINE
  8
22
 10
0.1000
 20
20.0600
 30
0.0000
 11
-1.0000
 21
20.0600
 31
0.0000
  0
LINE
  8
22
 10
-1.0000
 20
19.3300
 30
0.0000
 11
0.0000
 21
19.3300
 31
0.0000
  0
LINE
  8
22
 10
0.0000
 20
19.3300
 30
0.0000
 11
0.0000
 21
18.8300
 31
0.0000
  0
LINE
  8
22
 10
0.0000
 20
18.8300
 30
0.0000
 11
-1.0000
 21
18.8300
 31
0.0000
  0
LINE
  8
52
 10
0.1000
 20
18.1000
 30
0.0000
 11
4.0000
 21
18.1000
 31
0.0000
  0
LINE
  8
52
 10
0.1000
 20
16.1000
 30
0.0000
 11
4.0000
 21
16.1000
 31
0.0000
  0
ARC
  8
52
 10
4.0000
 20
17.1000
 30
0.0000
 40
1.0000
 50
270.0000
 51
90.0000
  0
ARC
  8
52
 10
3.0000
 20
17.1000
 30
0.0000
 40
0.5000
 50
270.0000
 51
90.0000
  0
LINE
  8
52
 10
3.0000
 20
17.6000
 30
0.0000
 11
2.0000
 21
17.6000
 31
0.0000
  0
LINE
  8
52
 10
3.0000
 20
16.6000
 30
0.0000
 11
2.0000
 21
16.6000
 31
0.0000
  0
ARC
  8
52
 10
2.0000
 20
17.1000
 30
0.0000
 40
0.5000
 50
90.0000
 51
270.0000
  0
LINE
  8
22
 10
0.1000
 20
18.1000
 30
0.0000
 11
-1.0000
 21
18.1000
 31
0.0000
  0
LINE
  8
22
 10
0.1000
 20
16.1000
 30
0.0000
 11
-1.0000
 21
16.1000
 31
0.0000
  0
LINE
  8
22
 10
-1.0000
 20
15.3700
 30
0.0000
 11
0.0000
 21
15.3700
 31
0.0000
  0
LINE
  8
22
 10
0.0000
 20
15.3700
 30
0.0000
 11
0.0000
 21
14.8700
 31
0.0000
  0
LINE
  8
22
 10
0.0000
 20
14.8700
 30
0.0000
 11
-1.0000
 21
14.8700
 31
0.0000
  0
LINE
  8
52
 10
0.1000
 20
14.1400
 30
0.0000
 11
4.0000
 21
14.1400
 31
0.0000
  0
LINE
  8
52
 10
0.1000
 20
12.1400
 30
0.0000
 11
4.0000
 21
12.1400
 31
0.0000
  0
ARC
  8
52
 10
4.0000
 20
13.1400
 30
0.0000
 40
1.0000
 50
270.0000
 51
90.0000
  0
ARC
  8
52
 10
3.0000
 20
13.1400
 30
0.0000
 40
0.5000
 50
270.0000
 51
90.0000
  0
LINE
  8
52
 10
3.0000
 20
13.6400
 30
0.0000
 11
2.0000
 21
13.6400
 31
0.0000
  0
LINE
  8
52
 10
3.0000
 20
12.6400
 30
0.0000
 11
2.0000
 21
12.6400
 31
0.0000
  0
ARC
  8
52
 10
2.0000
 20
13.1400
 30
0.0000
 40
0.5000
 50
90.0000
 51
270.0000
  0
LINE
  8
22
 10
0.1000
 20
14.1400
 30
0.0000
 11
-1.0000
 21
14.1400
 31
0.0000
  0
LINE
  8
22
 10
0.1000
 20
12.1400
 30
0.0000
 11
-1.0000
 21
12.1400
 31
0.0000
  0
LINE
  8
22
 10
-1.0000
 20
11.4100
 30
0.0000
 11
0.0000
 21
11.4100
 31
0.0000
  0
LINE
  8
22
 10
0.0000
 20
11.4100
 30
0.0000
 11
0.0000
 21
10.9100
 31
0.0000
  0
LINE
  8
22
 10
0.0000
 20
10.9100
 30
0.0000
 11
-1.0000
 21
10.9100
 31
0.0000
  0
LINE
  8
52
 10
0.1000
 20
10.1800
 30
0.0000
 11
4.0000
 21
10.1800
 31
0.0000
  0
LINE
  8
52
 10
0.1000
 20
8.1800
 30
0.0000
 11
4.0000
 21
8.1800
 31
0.0000
  0
ARC
  8
52
 10
4.0000
 20
9.1800
 30
0.0000
 40
1.0000
 50
270.0000
 51
90.0000
  0
ARC
  8
52
 10
3.0000
 20
9.1800
 30
0.0000
 40
0.5000
 50
270.0000
 51
90.0000
  0
LINE
  8
52
 10
3.0000
 20
9.6800
 30
0.0000
 11
2.0000
 21
9.6800
 31
0.0000
  0
LINE
  8
52
 10
3.0000
 20
8.6800
 30
0.0000
 11
2.0000
 21
8.6800
 31
0.0000
  0
ARC
  8
52
 10
2.0000
 20
9.1800
 30
0.0000
 40
0.5000
 50
90.0000
 51
270.0000
  0
LINE
  8
22
 10
0.1000
 20
10.1800
 30
0.0000
 11
-1.0000
 21
10.1800
 31
0.0000
  0
LINE
  8
22
 10
0.1000
 20
8.1800
 30
0.0000
 11
-1.0000
 21
8.1800
 31
0.0000
  0
LINE
  8
22
 10
-1.0000
 20
7.4500
 30
0.0000
 11
0.0000
 21
7.4500
 31
0.0000
  0
LINE
  8
22
 10
0.0000
 20
7.4500
 30
0.0000
 11
0.0000
 21
6.9500
 31
0.0000
  0
LINE
  8
22
 10
0.0000
 20
6.9500
 30
0.0000
 11
-1.0000
 21
6.9500
 31
0.0000
  0
LINE
  8
52
 10
0.1000
 20
6.2200
 30
0.0000
 11
4.0000
 21
6.2200
 31
0.0000
  0
LINE
  8
52
 10
0.1000
 20
4.2200
 30
0.0000
 11
4.0000
 21
4.2200
 31
0.0000
  0
ARC
  8
52
 10
4.0000
 20
5.2200
 30
0.0000
 40
1.0000
 50
270.0000
 51
90.0000
  0
ARC
  8
52
 10
3.0000
 20
5.2200
 30
0.0000
 40
0.5000
 50
270.0000
 51
90.0000
  0
LINE
  8
52
 10
3.0000
 20
5.7200
 30
0.0000
 11
2.0000
 21
5.7200
 31
0.0000
  0
LINE
  8
52
 10
3.0000
 20
4.7200
 30
0.0000
 11
2.0000
 21
4.7200
 31
0.0000
  0
ARC
  8
52
 10
2.0000
 20
5.2200
 30
0.0000
 40
0.5000
 50
90.0000
 51
270.0000
  0
LINE
  8
22
 10
0.1000
 20
6.2200
 30
0.0000
 11
-1.0000
 21
6.2200
 31
0.0000
  0
LINE
  8
22
 10
0.1000
 20
4.2200
 30
0.0000
 11
-1.0000
 21
4.2200
 31
0.0000
  0
LINE
  8
22
 10
-1.0000
 20
3.4900
 30
0.0000
 11
0.0000
 21
3.4900
 31
0.0000
  0
LINE
  8
22
 10
0.0000
 20
3.4900
 30
0.0000
 11
0.0000
 21
2.9900
 31
0.0000
  0
LINE
  8
22
 10
0.0000
 20
2.9900
 30
0.0000
 11
-1.0000
 21
2.9900
 31
0.0000
  0
LINE
  8
22
 10
0.0000
 20
61.2500
 30
0.0000
 11
-6.8000
 21
61.2500
 31
0.0000
  0
LINE
  8
22
 10
0.0000
 20
-7.2500
 30
0.0000
 11
-6.8000
 21
-7.2500
 31
0.0000
  0
LINE
  8
22
 10
-1.0000
 20
53.8000
 30
0.0000
 11
-1.0000
 21
0.2000
 31
0.0000
  0
LINE
  8
22
 10
-1.0000
 20
0.2000
 30
0.0000
 11
0.0000
 21
0.2000
 31
0.0000
  0
LINE
  8
22
 10
0.0000
 20
0.2000
 30
0.0000
 11
0.0000
 21
-7.2500
 31
0.0000
  0
LINE
  8
22
 10
0.0000
 20
61.2500
 30
0.0000
 11
0.0000
 21
53.8000
 31
0.0000
  0
LINE
  8
22
 10
0.0000
 20
53.8000
 30
0.0000
 11
-1.0000
 21
53.8000
 31
0.0000
  0
LINE
  8
22
 10
-11.6000
 20
54.5000
 30
0.0000
 11
-11.6000
 21
-0.5000
 31
0.0000
  0
LINE
  8
22
 10
-11.6000
 20
-0.5000
 30
0.0000
 11
-6.8000
 21
-0.5000
 31
0.0000
  0
LINE
  8
22
 10
-6.8000
 20
-0.5000
 30
0.0000
 11
-6.8000
 21
-7.2500
 31
0.0000
  0
LINE
  8
22
 10
-6.8000
 20
61.2500
 30
0.0000
 11
-6.8000
 21
54.5000
 31
0.0000
  0
LINE
  8
22
 10
-6.8000
 20
54.5000
 30
0.0000
 11
-11.6000
 21
54.5000
 31
0.0000
  0
LINE
  8
22
 10
44.0000
 20
54.2500
 30
0.0000
 11
44.0000
 21
46.2500
 31
0.0000
  0
LINE
  8
22
 10
44.0000
 20
46.2500
 30
0.0000
 11
44.0000
 21
44.4000
 31
0.0000
  0
LINE
  8
22
 10
44.0000
 20
44.4000
 30
0.0000
 11
44.0000
 21
42.7500
 31
0.0000
  0
LINE
  8
22
 10
44.0000
 20
42.7500
 30
0.0000
 11
44.0000
 21
11.2500
 31
0.0000
  0
LINE
  8
22
 10
44.0000
 20
11.2500
 30
0.0000
 11
44.0000
 21
9.6000
 31
0.0000
  0
LINE
  8
22
 10
44.0000
 20
9.6000
 30
0.0000
 11
44.0000
 21
7.7500
 31
0.0000
  0
LINE
  8
22
 10
44.0000
 20
7.7500
 30
0.0000
 11
44.0000
 21
-0.2500
 31
0.0000
  0
LINE
  8
22
 10
44.0000
 20
-0.2500
 30
0.0000
 11
39.0000
 21
-0.2500
 31
0.0000
  0
LINE
  8
22
 10
39.0000
 20
-0.2500
 30
0.0000
 11
28.9000
 21
-0.2500
 31
0.0000
  0
LINE
  8
22
 10
28.9000
 20
-0.2500
 30
0.0000
 11
28.9000
 21
11.2500
 31
0.0000
  0
LINE
  8
22
 10
28.9000
 20
11.2500
 30
0.0000
 11
28.9000
 21
12.2500
 31
0.0000
  0
LINE
  8
22
 10
28.9000
 20
12.2500
 30
0.0000
 11
28.9000
 21
41.7500
 31
0.0000
  0
LINE
  8
22
 10
28.9000
 20
41.7500
 30
0.0000
 11
28.9000
 21
42.7500
 31
0.0000
  0
LINE
  8
22
 10
28.9000
 20
42.7500
 30
0.0000
 11
28.9000
 21
54.2500
 31
0.0000
  0
LINE
  8
22
 10
28.9000
 20
54.2500
 30
0.0000
 11
39.0000
 21
54.2500
 31
0.0000
  0
LINE
  8
22
 10
39.0000
 20
54.2500
 30
0.0000
 11
44.0000
 21
54.2500
 31
0.0000
  0
LINE
  8
22
 10
39.0000
 20
7.7500
 30
0.0000
 11
44.0000
 21
7.7500
 31
0.0000
  0
LINE
  8
22
 10
39.0000
 20
46.2500
 30
0.0000
 11
44.0000
 21
46.2500
 31
0.0000
  0
LINE
  8
22
 10
29.2500
 20
42.7500
 30
0.0000
 11
39.0000
 21
42.7500
 31
0.0000
  0
LINE
  8
22
 10
39.0000
 20
42.7500
 30
0.0000
 11
39.0000
 21
44.4000
 31
0.0000
  0
LINE
  8
22
 10
39.0000
 20
44.4000
 30
0.0000
 11
39.0000
 21
46.2500
 31
0.0000
  0
LINE
  8
22
 10
39.0000
 20
7.7500
 30
0.0000
 11
39.0000
 21
9.6000
 31
0.0000
  0
LINE
  8
22
 10
39.0000
 20
9.6000
 30
0.0000
 11
39.0000
 21
11.2500
 31
0.0000
  0
LINE
  8
22
 10
39.0000
 20
11.2500
 30
0.0000
 11
29.2500
 21
11.2500
 31
0.0000
  0
LINE
  8
22
 10
44.0000
 20
9.6000
 30
0.0000
 11
40.0000
 21
9.6000
 31
0.0000
  0
LINE
  8
22
 10
40.0000
 20
9.6000
 30
0.0000
 11
39.0000
 21
9.6000
 31
0.0000
  0
LINE
  8
22
 10
44.0000
 20
44.4000
 30
0.0000
 11
40.2500
 21
44.4000
 31
0.0000
  0
LINE
  8
22
 10
40.2500
 20
44.4000
 30
0.0000
 11
39.0000
 21
44.4000
 31
0.0000
  0
LINE
  8
22
 10
44.0000
 20
42.7500
 30
0.0000
 11
42.7500
 21
42.7500
 31
0.0000
  0
ARC
  8
22
 10
42.7500
 20
41.7500
 30
0.0000
 40
1.0000
 50
90.0000
 51
180.0000
  0
LINE
  8
22
 10
41.7500
 20
41.7500
 30
0.0000
 11
41.7500
 21
12.2500
 31
0.0000
  0
ARC
  8
22
 10
42.7500
 20
12.2500
 30
0.0000
 40
1.0000
 50
180.0000
 51
270.0000
  0
LINE
  8
22
 10
42.7500
 20
11.2500
 30
0.0000
 11
44.0000
 21
11.2500
 31
0.0000
  0
LINE
  8
22
 10
28.9000
 20
41.7500
 30
0.0000
 11
29.2500
 21
41.7500
 31
0.0000
  0
LINE
  8
22
 10
29.2500
 20
41.7500
 30
0.0000
 11
40.2500
 21
41.7500
 31
0.0000
  0
LINE
  8
22
 10
40.2500
 20
41.7500
 30
0.0000
 11
40.2500
 21
44.4000
 31
0.0000
  0
LINE
  8
22
 10
28.9000
 20
12.2500
 30
0.0000
 11
29.2500
 21
12.2500
 31
0.0000
  0
LINE
  8
22
 10
29.2500
 20
12.2500
 30
0.0000
 11
40.0000
 21
12.2500
 31
0.0000
  0
LINE
  8
22
 10
40.0000
 20
12.2500
 30
0.0000
 11
40.0000
 21
9.6000
 31
0.0000
  0
LINE
  8
22
 10
41.7500
 20
41.7500
 30
0.0000
 11
41.0000
 21
41.7500
 31
0.0000
  0
LINE
  8
22
 10
41.0000
 20
41.7500
 30
0.0000
 11
41.0000
 21
12.2500
 31
0.0000
  0
LINE
  8
22
 10
41.0000
 20
12.2500
 30
0.0000
 11
41.7500
 21
12.2500
 31
0.0000
  0
LINE
  8
22
 10
39.0000
 20
53.2500
 30
0.0000
 11
30.0000
 21
53.2500
 31
0.0000
  0
LINE
  8
22
 10
30.0000
 20
53.2500
 30
0.0000
 11
30.0000
 21
47.5000
 31
0.0000
  0
LINE
  8
22
 10
30.0000
 20
47.5000
 30
0.0000
 11
39.0000
 21
47.5000
 31
0.0000
  0
LINE
  8
22
 10
39.0000
 20
46.7500
 30
0.0000
 11
29.7500
 21
46.7500
 31
0.0000
  0
LINE
  8
22
 10
29.7500
 20
46.7500
 30
0.0000
 11
29.7500
 21
43.7500
 31
0.0000
  0
LINE
  8
22
 10
29.7500
 20
43.7500
 30
0.0000
 11
39.0000
 21
43.7500
 31
0.0000
  0
LINE
  8
22
 10
39.0000
 20
6.5000
 30
0.0000
 11
30.0000
 21
6.5000
 31
0.0000
  0
LINE
  8
22
 10
30.0000
 20
6.5000
 30
0.0000
 11
30.0000
 21
0.7500
 31
0.0000
  0
LINE
  8
22
 10
30.0000
 20
0.7500
 30
0.0000
 11
39.0000
 21
0.7500
 31
0.0000
  0
LINE
  8
22
 10
39.0000
 20
10.2500
 30
0.0000
 11
29.7500
 21
10.2500
 31
0.0000
  0
LINE
  8
22
 10
29.7500
 20
10.2500
 30
0.0000
 11
29.7500
 21
7.2500
 31
0.0000
  0
LINE
  8
22
 10
29.7500
 20
7.2500
 30
0.0000
 11
39.0000
 21
7.2500
 31
0.0000
  0
LINE
  8
22
 10
29.2500
 20
42.7500
 30
0.0000
 11
29.2500
 21
41.7500
 31
0.0000
  0
LINE
  8
22
 10
29.2500
 20
11.2500
 30
0.0000
 11
29.2500
 21
12.2500
 31
0.0000
  0
LINE
  8
22
 10
42.0000
 20
53.3000
 30
0.0000
 11
42.0000
 21
47.5000
 31
0.0000
  0
LINE
  8
22
 10
42.0000
 20
47.5000
 30
0.0000
 11
39.7500
 21
47.5000
 31
0.0000
  0
LINE
  8
22
 10
39.7500
 20
47.5000
 30
0.0000
 11
39.7500
 21
48.8000
 31
0.0000
  0
LINE
  8
22
 10
39.7500
 20
48.8000
 30
0.0000
 11
39.0000
 21
48.8000
 31
0.0000
  0
LINE
  8
22
 10
42.0000
 20
53.3000
 30
0.0000
 11
39.7500
 21
53.3000
 31
0.0000
  0
LINE
  8
22
 10
39.7500
 20
53.3000
 30
0.0000
 11
39.7500
 21
52.1000
 31
0.0000
  0
LINE
  8
22
 10
39.7500
 20
52.1000
 30
0.0000
 11
39.0000
 21
52.1000
 31
0.0000
  0
LINE
  8
22
 10
42.0000
 20
6.5000
 30
0.0000
 11
42.0000
 21
0.7000
 31
0.0000
  0
LINE
  8
22
 10
42.0000
 20
0.7000
 30
0.0000
 11
39.7500
 21
0.7000
 31
0.0000
  0
LINE
  8
22
 10
39.7500
 20
0.7000
 30
0.0000
 11
39.7500
 21
2.0000
 31
0.0000
  0
LINE
  8
22
 10
39.7500
 20
2.0000
 30
0.0000
 11
39.0000
 21
2.0000
 31
0.0000
  0
LINE
  8
22
 10
42.0000
 20
6.5000
 30
0.0000
 11
39.7500
 21
6.5000
 31
0.0000
  0
LINE
  8
22
 10
39.7500
 20
6.5000
 30
0.0000
 11
39.7500
 21
5.2000
 31
0.0000
  0
LINE
  8
22
 10
39.7500
 20
5.2000
 30
0.0000
 11
39.0000
 21
5.2000
 31
0.0000
  0
LINE
  8
22
 10
39.0000
 20
52.1000
 30
0.0000
 11
39.0000
 21
54.2500
 31
0.0000
  0
LINE
  8
22
 10
39.0000
 20
48.8000
 30
0.0000
 11
39.0000
 21
46.2500
 31
0.0000
  0
LINE
  8
22
 10
39.0000
 20
7.7500
 30
0.0000
 11
39.0000
 21
5.2000
 31
0.0000
  0
LINE
  8
22
 10
39.0000
 20
2.0000
 30
0.0000
 11
39.0000
 21
-0.2500
 31
0.0000
  0
LINE
  8
22
 10
44.0000
 20
54.2500
 30
0.0000
 11
44.7500
 21
54.2500
 31
0.0000
  0
LINE
  8
22
 10
44.7500
 20
54.2500
 30
0.0000
 11
44.7500
 21
46.0000
 31
0.0000
  0
ARC
  8
22
 10
45.7500
 20
46.0000
 30
0.0000
 40
1.0000
 50
180.0000
 51
270.0000
  0
LINE
  8
22
 10
45.7500
 20
45.0000
 30
0.0000
 11
52.2500
 21
45.0000
 31
0.0000
  0
LINE
  8
22
 10
52.2500
 20
9.0000
 30
0.0000
 11
45.7500
 21
9.0000
 31
0.0000
  0
ARC
  8
22
 10
45.7500
 20
8.0000
 30
0.0000
 40
1.0000
 50
90.0000
 51
180.0000
  0
LINE
  8
22
 10
44.7500
 20
8.0000
 30
0.0000
 11
44.7500
 21
7.0000
 31
0.0000
  0
LINE
  8
22
 10
44.7500
 20
-0.2500
 30
0.0000
 11
44.0000
 21
-0.2500
 31
0.0000
  0
ARC
  8
22
 10
52.2500
 20
44.0000
 30
0.0000
 40
1.0000
 50
0.0000
 51
90.0000
  0
LINE
  8
22
 10
53.2500
 20
44.0000
 30
0.0000
 11
53.2500
 21
10.0000
 31
0.0000
  0
ARC
  8
22
 10
52.2500
 20
10.0000
 30
0.0000
 40
1.0000
 50
270.0000
 51
0.0000
  0
LINE
  8
22
 10
44.7500
 20
7.0000
 30
0.0000
 11
44.7500
 21
-0.2500
 31
0.0000
  0
LINE
  8
22
 10
44.7500
 20
46.0000
 30
0.0000
 11
44.7500
 21
8.0000
 31
0.0000
  0
LINE
  8
22
 10
31.6246
 20
13.6001
 30
0.0000
 11
31.8842
 21
13.9246
 31
0.0000
  0
LINE
  8
22
 10
31.8842
 20
13.9246
 30
0.0000
 11
30.7158
 21
13.9246
 31
0.0000
  0
LINE
  8
22
 10
30.7158
 20
13.6001
 30
0.0000
 11
30.7158
 21
14.2492
 31
0.0000
  0
LINE
  8
22
 10
35.9246
 20
12.4571
 30
0.0000
 11
36.1842
 21
12.7816
 31
0.0000
  0
LINE
  8
22
 10
36.1842
 20
12.7816
 30
0.0000
 11
35.0158
 21
12.7816
 31
0.0000
  0
LINE
  8
22
 10
35.0158
 20
12.4571
 30
0.0000
 11
35.0158
 21
13.1062
 31
0.0000
  0
LINE
  8
22
 10
35.0158
 20
13.6001
 30
0.0000
 11
35.0158
 21
13.9246
 31
0.0000
  0
ARC
  8
22
 10
35.3404
 20
13.9246
 30
0.0000
 40
0.3246
 50
0.0000
 51
180.0000
  0
LINE
  8
22
 10
36.1842
 20
13.6001
 30
0.0000
 11
36.1842
 21
13.9896
 31
0.0000
  0
ARC
  8
22
 10
35.9246
 20
13.9896
 30
0.0000
 40
0.2596
 50
0.0000
 51
180.0000
  0
LINE
  8
22
 10
35.6649
 20
13.9896
 30
0.0000
 11
35.6649
 21
13.7299
 31
0.0000
  0
ARC
  8
22
 10
35.7921
 20
40.0078
 30
0.0000
 40
0.2921
 50
0.0000
 51
90.0000
  0
ARC
  8
22
 10
35.7089
 20
40.0078
 30
0.0000
 40
0.3753
 50
287.9451
 51
359.9999
  0
ARC
  8
22
 10
35.7921
 20
39.9862
 30
0.0000
 40
0.3138
 50
90.0004
 51
136.3960
  0
LINE
  8
22
 10
35.5649
 20
40.2025
 30
0.0000
 11
34.9158
 21
39.6508
 31
0.0000
  0
LINE
  8
22
 10
34.9158
 20
39.6508
 30
0.0000
 11
34.9158
 21
40.2999
 31
0.0000
  0
LINE
  8
22
 10
36.0842
 20
41.0534
 30
0.0000
 11
35.1754
 21
40.7938
 31
0.0000
  0
LINE
  8
22
 10
35.1754
 20
40.7938
 30
0.0000
 11
35.1754
 21
41.4429
 31
0.0000
  0
LINE
  8
22
 10
35.4351
 20
41.2482
 30
0.0000
 11
34.9158
 21
41.2482
 31
0.0000
  0
LINE
  8
22
 10
31.5246
 20
39.6508
 30
0.0000
 11
31.7842
 21
39.9754
 31
0.0000
  0
LINE
  8
22
 10
31.7842
 20
39.9754
 30
0.0000
 11
30.6158
 21
39.9754
 31
0.0000
  0
LINE
  8
22
 10
30.6158
 20
39.6508
 30
0.0000
 11
30.6158
 21
40.2999
 31
0.0000
  0
ARC
  8
22
 10
31.4921
 20
41.1508
 30
0.0000
 40
0.2921
 50
0.0000
 51
90.0000
  0
ARC
  8
22
 10
31.4089
 20
41.1508
 30
0.0000
 40
0.3753
 50
287.9451
 51
359.9999
  0
ARC
  8
22
 10
31.4921
 20
41.1292
 30
0.0000
 40
0.3138
 50
90.0004
 51
136.3960
  0
LINE
  8
22
 10
31.2649
 20
41.3455
 30
0.0000
 11
30.6158
 21
40.7938
 31
0.0000
  0
LINE
  8
22
 10
30.6158
 20
40.7938
 30
0.0000
 11
30.6158
 21
41.4429
 31
0.0000
  0
INSERT
  8
22
  2
RECT
 10
38.6250
 20
38.8800
 30
0.0000
 41
0.5000
 42
4.7500
 43
1.0000
 50
270.0000
  0
INSERT
  8
22
  2
RECT
 10
33.3750
 20
38.8800
 30
0.0000
 41
0.5000
 42
2.7500
 43
1.0000
 50
270.0000
  0
INSERT
  8
52
  2
RECT
 10
31.5000
 20
38.8800
 30
0.0000
 41
0.5000
 42
1.0000
 43
1.0000
 50
270.0000
  0
INSERT
  8
52
  2
RECT
 10
35.5000
 20
38.8800
 30
0.0000
 41
0.5000
 42
1.5000
 43
1.0000
 50
270.0000
  0
INSERT
  8
22
  2
RECT
 10
38.6250
 20
36.7200
 30
0.0000
 41
0.5000
 42
4.7500
 43
1.0000
 50
270.0000
  0
INSERT
  8
22
  2
RECT
 10
33.3750
 20
36.7200
 30
0.0000
 41
0.5000
 42
2.7500
 43
1.0000
 50
270.0000
  0
INSERT
  8
52
  2
RECT
 10
31.5000
 20
36.7200
 30
0.0000
 41
0.5000
 42
1.0000
 43
1.0000
 50
270.0000
  0
INSERT
  8
52
  2
RECT
 10
35.5000
 20
36.7200
 30
0.0000
 41
0.5000
 42
1.5000
 43
1.0000
 50
270.0000
  0
INSERT
  8
22
  2
RECT
 10
38.6250
 20
34.5600
 30
0.0000
 41
0.5000
 42
4.7500
 43
1.0000
 50
270.0000
  0
INSERT
  8
22
  2
RECT
 10
33.3750
 20
34.5600
 30
0.0000
 41
0.5000
 42
2.7500
 43
1.0000
 50
270.0000
  0
INSERT
  8
52
  2
RECT
 10
31.5000
 20
34.5600
 30
0.0000
 41
0.5000
 42
1.0000
 43
1.0000
 50
270.0000
  0
INSERT
  8
52
  2
RECT
 10
35.5000
 20
34.5600
 30
0.0000
 41
0.5000
 42
1.5000
 43
1.0000
 50
270.0000
  0
INSERT
  8
22
  2
RECT
 10
38.6250
 20
32.4000
 30
0.0000
 41
0.5000
 42
4.7500
 43
1.0000
 50
270.0000
  0
INSERT
  8
22
  2
RECT
 10
33.3750
 20
32.4000
 30
0.0000
 41
0.5000
 42
2.7500
 43
1.0000
 50
270.0000
  0
INSERT
  8
52
  2
RECT
 10
31.5000
 20
32.4000
 30
0.0000
 41
0.5000
 42
1.0000
 43
1.0000
 50
270.0000
  0
INSERT
  8
52
  2
RECT
 10
35.5000
 20
32.4000
 30
0.0000
 41
0.5000
 42
1.5000
 43
1.0000
 50
270.0000
  0
INSERT
  8
22
  2
RECT
 10
38.6250
 20
30.2400
 30
0.0000
 41
0.5000
 42
4.7500
 43
1.0000
 50
270.0000
  0
INSERT
  8
22
  2
RECT
 10
33.3750
 20
30.2400
 30
0.0000
 41
0.5000
 42
2.7500
 43
1.0000
 50
270.0000
  0
INSERT
  8
52
  2
RECT
 10
31.5000
 20
30.2400
 30
0.0000
 41
0.5000
 42
1.0000
 43
1.0000
 50
270.0000
  0
INSERT
  8
52
  2
RECT
 10
35.5000
 20
30.2400
 30
0.0000
 41
0.5000
 42
1.5000
 43
1.0000
 50
270.0000
  0
INSERT
  8
22
  2
RECT
 10
38.6250
 20
28.0800
 30
0.0000
 41
0.5000
 42
4.7500
 43
1.0000
 50
270.0000
  0
INSERT
  8
22
  2
RECT
 10
33.3750
 20
28.0800
 30
0.0000
 41
0.5000
 42
2.7500
 43
1.0000
 50
270.0000
  0
INSERT
  8
52
  2
RECT
 10
31.5000
 20
28.0800
 30
0.0000
 41
0.5000
 42
1.0000
 43
1.0000
 50
270.0000
  0
INSERT
  8
52
  2
RECT
 10
35.5000
 20
28.0800
 30
0.0000
 41
0.5000
 42
1.5000
 43
1.0000
 50
270.0000
  0
INSERT
  8
22
  2
RECT
 10
38.6250
 20
25.9200
 30
0.0000
 41
0.5000
 42
4.7500
 43
1.0000
 50
270.0000
  0
INSERT
  8
22
  2
RECT
 10
33.3750
 20
25.9200
 30
0.0000
 41
0.5000
 42
2.7500
 43
1.0000
 50
270.0000
  0
INSERT
  8
52
  2
RECT
 10
31.5000
 20
25.9200
 30
0.0000
 41
0.5000
 42
1.0000
 43
1.0000
 50
270.0000
  0
INSERT
  8
52
  2
RECT
 10
35.5000
 20
25.9200
 30
0.0000
 41
0.5000
 42
1.5000
 43
1.0000
 50
270.0000
  0
INSERT
  8
22
  2
RECT
 10
38.6250
 20
23.7600
 30
0.0000
 41
0.5000
 42
4.7500
 43
1.0000
 50
270.0000
  0
INSERT
  8
22
  2
RECT
 10
33.3750
 20
23.7600
 30
0.0000
 41
0.5000
 42
2.7500
 43
1.0000
 50
270.0000
  0
INSERT
  8
52
  2
RECT
 10
31.5000
 20
23.7600
 30
0.0000
 41
0.5000
 42
1.0000
 43
1.0000
 50
270.0000
  0
INSERT
  8
52
  2
RECT
 10
35.5000
 20
23.7600
 30
0.0000
 41
0.5000
 42
1.5000
 43
1.0000
 50
270.0000
  0
INSERT
  8
22
  2
RECT
 10
38.6250
 20
21.6000
 30
0.0000
 41
0.5000
 42
4.7500
 43
1.0000
 50
270.0000
  0
INSERT
  8
22
  2
RECT
 10
33.3750
 20
21.6000
 30
0.0000
 41
0.5000
 42
2.7500
 43
1.0000
 50
270.0000
  0
INSERT
  8
52
  2
RECT
 10
31.5000
 20
21.6000
 30
0.0000
 41
0.5000
 42
1.0000
 43
1.0000
 50
270.0000
  0
INSERT
  8
52
  2
RECT
 10
35.5000
 20
21.6000
 30
0.0000
 41
0.5000
 42
1.5000
 43
1.0000
 50
270.0000
  0
INSERT
  8
22
  2
RECT
 10
38.6250
 20
19.4400
 30
0.0000
 41
0.5000
 42
4.7500
 43
1.0000
 50
270.0000
  0
INSERT
  8
22
  2
RECT
 10
33.3750
 20
19.4400
 30
0.0000
 41
0.5000
 42
2.7500
 43
1.0000
 50
270.0000
  0
INSERT
  8
52
  2
RECT
 10
31.5000
 20
19.4400
 30
0.0000
 41
0.5000
 42
1.0000
 43
1.0000
 50
270.0000
  0
INSERT
  8
52
  2
RECT
 10
35.5000
 20
19.4400
 30
0.0000
 41
0.5000
 42
1.5000
 43
1.0000
 50
270.0000
  0
INSERT
  8
22
  2
RECT
 10
38.6250
 20
17.2800
 30
0.0000
 41
0.5000
 42
4.7500
 43
1.0000
 50
270.0000
  0
INSERT
  8
22
  2
RECT
 10
33.3750
 20
17.2800
 30
0.0000
 41
0.5000
 42
2.7500
 43
1.0000
 50
270.0000
  0
INSERT
  8
52
  2
RECT
 10
31.5000
 20
17.2800
 30
0.0000
 41
0.5000
 42
1.0000
 43
1.0000
 50
270.0000
  0
INSERT
  8
52
  2
RECT
 10
35.5000
 20
17.2800
 30
0.0000
 41
0.5000
 42
1.5000
 43
1.0000
 50
270.0000
  0
INSERT
  8
22
  2
RECT
 10
38.6250
 20
15.1200
 30
0.0000
 41
0.5000
 42
4.7500
 43
1.0000
 50
270.0000
  0
INSERT
  8
22
  2
RECT
 10
33.3750
 20
15.1200
 30
0.0000
 41
0.5000
 42
2.7500
 43
1.0000
 50
270.0000
  0
INSERT
  8
52
  2
RECT
 10
31.5000
 20
15.1200
 30
0.0000
 41
0.5000
 42
1.0000
 43
1.0000
 50
270.0000
  0
INSERT
  8
52
  2
RECT
 10
35.5000
 20
15.1200
 30
0.0000
 41
0.5000
 42
1.5000
 43
1.0000
 50
270.0000
  0
CIRCLE
  8
20
 10
33.4000
 20
3.6000
 30
0.0000
 40
1.6500
  0
CIRCLE
  8
20
 10
33.4000
 20
50.4000
 30
0.0000
 40
1.6500
  0
LINE
  8
22
 10
52.9336
 20
69.3314
 30
0.0000
 11
52.9336
 21
70.6776
 31
0.0000
  0
LINE
  8
22
 10
52.9336
 20
70.6776
 30
0.0000
 11
52.5597
 21
70.6776
 31
0.0000
  0
ARC
  8
22
 10
52.5597
 20
70.4532
 30
0.0000
 40
0.2244
 50
90.0000
 51
179.9992
  0
LINE
  8
22
 10
52.3353
 20
70.4532
 30
0.0000
 11
52.3353
 21
70.0045
 31
0.0000
  0
ARC
  8
22
 10
52.5597
 20
70.0045
 30
0.0000
 40
0.2244
 50
180.0000
 51
270.0000
  0
LINE
  8
22
 10
52.5597
 20
69.7802
 30
0.0000
 11
52.9336
 21
69.7802
 31
0.0000
  0
LINE
  8
22
 10
51.7440
 20
71.1264
 30
0.0000
 11
51.7440
 21
70.0045
 31
0.0000
  0
ARC
  8
22
 10
51.5196
 20
70.0045
 30
0.0000
 40
0.2244
 50
270.0008
 51
0.0000
  0
LINE
  8
22
 10
50.4361
 20
70.3037
 30
0.0000
 11
50.7726
 21
70.3037
 31
0.0000
  0
ARC
  8
22
 10
50.7726
 20
70.0419
 30
0.0000
 40
0.2618
 50
270.0000
 51
90.0000
  0
LINE
  8
22
 10
50.7726
 20
69.7802
 30
0.0000
 11
50.4361
 21
69.7802
 31
0.0000
  0
LINE
  8
22
 10
50.4361
 20
69.7802
 30
0.0000
 11
50.4361
 21
70.4532
 31
0.0000
  0
ARC
  8
22
 10
50.6605
 20
70.4532
 30
0.0000
 40
0.2244
 50
89.9992
 51
180.0000
  0
LINE
  8
22
 10
50.6605
 20
70.6776
 30
0.0000
 11
50.9596
 21
70.6776
 31
0.0000
  0
LINE
  8
22
 10
49.2684
 20
69.7802
 30
0.0000
 11
49.5675
 21
69.7802
 31
0.0000
  0
ARC
  8
22
 10
49.5675
 20
70.0045
 30
0.0000
 40
0.2244
 50
270.0000
 51
0.0008
  0
LINE
  8
22
 10
49.7919
 20
70.0045
 30
0.0000
 11
49.7919
 21
70.4532
 31
0.0000
  0
ARC
  8
22
 10
49.5675
 20
70.4532
 30
0.0000
 40
0.2244
 50
0.0000
 51
90.0000
  0
LINE
  8
22
 10
49.5675
 20
70.6776
 30
0.0000
 11
49.2684
 21
70.6776
 31
0.0000
  0
LINE
  8
22
 10
48.1461
 20
69.7802
 30
0.0000
 11
48.5200
 21
69.7802
 31
0.0000
  0
ARC
  8
22
 10
48.5200
 20
70.0045
 30
0.0000
 40
0.2244
 50
270.0000
 51
0.0008
  0
LINE
  8
22
 10
48.7444
 20
70.0045
 30
0.0000
 11
48.7444
 21
70.3785
 31
0.0000
  0
ARC
  8
22
 10
48.4452
 20
70.3785
 30
0.0000
 40
0.2992
 50
0.0000
 51
180.0000
  0
LINE
  8
22
 10
48.1461
 20
70.3785
 30
0.0000
 11
48.1461
 21
70.2289
 31
0.0000
  0
LINE
  8
22
 10
48.1461
 20
70.2289
 30
0.0000
 11
48.7444
 21
70.2289
 31
0.0000
  0
LINE
  8
22
 10
47.4795
 20
69.7802
 30
0.0000
 11
47.4795
 21
70.6776
 31
0.0000
  0
LINE
  8
22
 10
47.4795
 20
70.6776
 30
0.0000
 11
46.8064
 21
70.6776
 31
0.0000
  0
ARC
  8
22
 10
46.8064
 20
70.4532
 30
0.0000
 40
0.2244
 50
90.0000
 51
179.9992
  0
LINE
  8
22
 10
46.5820
 20
70.4532
 30
0.0000
 11
46.5820
 21
69.7802
 31
0.0000
  0
LINE
  8
22
 10
47.0308
 20
69.7802
 30
0.0000
 11
47.0308
 21
70.6776
 31
0.0000
  0
LINE
  8
22
 10
45.3171
 20
69.7802
 30
0.0000
 11
45.6911
 21
69.7802
 31
0.0000
  0
ARC
  8
22
 10
45.6911
 20
70.0045
 30
0.0000
 40
0.2244
 50
270.0000
 51
0.0008
  0
LINE
  8
22
 10
45.9154
 20
70.0045
 30
0.0000
 11
45.9154
 21
70.3785
 31
0.0000
  0
ARC
  8
22
 10
45.6163
 20
70.3785
 30
0.0000
 40
0.2992
 50
0.0000
 51
180.0000
  0
LINE
  8
22
 10
45.3171
 20
70.3785
 30
0.0000
 11
45.3171
 21
70.2289
 31
0.0000
  0
LINE
  8
22
 10
45.3171
 20
70.2289
 30
0.0000
 11
45.9154
 21
70.2289
 31
0.0000
  0
LINE
  8
22
 10
44.6835
 20
69.7802
 30
0.0000
 11
44.6835
 21
70.6776
 31
0.0000
  0
LINE
  8
22
 10
44.6835
 20
70.6776
 30
0.0000
 11
44.3095
 21
70.6776
 31
0.0000
  0
ARC
  8
22
 10
44.3095
 20
70.4532
 30
0.0000
 40
0.2244
 50
90.0000
 51
179.9992
  0
LINE
  8
22
 10
44.0851
 20
70.4532
 30
0.0000
 11
44.0851
 21
69.7802
 31
0.0000
  0
LINE
  8
22
 10
43.5727
 20
70.6776
 30
0.0000
 11
43.1240
 21
70.6776
 31
0.0000
  0
LINE
  8
22
 10
43.4231
 20
71.1264
 30
0.0000
 11
43.4231
 21
70.0045
 31
0.0000
  0
ARC
  8
22
 10
43.1988
 20
70.0045
 30
0.0000
 40
0.2244
 50
269.9992
 51
360.0000
  0
LINE
  8
22
 10
43.1988
 20
69.7802
 30
0.0000
 11
43.1240
 21
69.7802
 31
0.0000
  0
LINE
  8
22
 10
41.3684
 20
70.1541
 30
0.0000
 11
41.7423
 21
70.3037
 31
0.0000
  0
ARC
  8
22
 10
41.6703
 20
70.4837
 30
0.0000
 40
0.1939
 50
291.8014
 51
90.8190
  0
ARC
  8
22
 10
41.6797
 20
69.8284
 30
0.0000
 40
0.8493
 50
90.8190
 51
114.2391
  0
ARC
  8
22
 10
41.4404
 20
69.9740
 30
0.0000
 40
0.1939
 50
111.8014
 51
270.8190
  0
ARC
  8
22
 10
41.4250
 20
71.0485
 30
0.0000
 40
1.2684
 50
270.8190
 51
289.7904
  0
LINE
  8
22
 10
40.6682
 20
70.0793
 30
0.0000
 11
40.6682
 21
70.3785
 31
0.0000
  0
ARC
  8
22
 10
40.3690
 20
70.3785
 30
0.0000
 40
0.2992
 50
0.0000
 51
180.0000
  0
LINE
  8
22
 10
40.0699
 20
70.3785
 30
0.0000
 11
40.0699
 21
70.0793
 31
0.0000
  0
ARC
  8
22
 10
40.3690
 20
70.0793
 30
0.0000
 40
0.2992
 50
180.0000
 51
0.0000
  0
LINE
  8
22
 10
39.4699
 20
71.1264
 30
0.0000
 11
39.4699
 21
70.0045
 31
0.0000
  0
ARC
  8
22
 10
39.2456
 20
70.0045
 30
0.0000
 40
0.2244
 50
270.0008
 51
0.0000
  0
LINE
  8
22
 10
38.1621
 20
71.1264
 30
0.0000
 11
38.1621
 21
69.7802
 31
0.0000
  0
LINE
  8
22
 10
38.1621
 20
69.7802
 30
0.0000
 11
38.5360
 21
69.7802
 31
0.0000
  0
ARC
  8
22
 10
38.5360
 20
70.0045
 30
0.0000
 40
0.2244
 50
270.0000
 51
0.0008
  0
LINE
  8
22
 10
38.7604
 20
70.0045
 30
0.0000
 11
38.7604
 21
70.4532
 31
0.0000
  0
ARC
  8
22
 10
38.5360
 20
70.4532
 30
0.0000
 40
0.2244
 50
0.0000
 51
90.0000
  0
LINE
  8
22
 10
38.5360
 20
70.6776
 30
0.0000
 11
38.1621
 21
70.6776
 31
0.0000
  0
LINE
  8
22
 10
36.9215
 20
69.7802
 30
0.0000
 11
37.2954
 21
69.7802
 31
0.0000
  0
ARC
  8
22
 10
37.2954
 20
70.0045
 30
0.0000
 40
0.2244
 50
270.0000
 51
0.0008
  0
LINE
  8
22
 10
37.5198
 20
70.0045
 30
0.0000
 11
37.5198
 21
70.3785
 31
0.0000
  0
ARC
  8
22
 10
37.2206
 20
70.3785
 30
0.0000
 40
0.2992
 50
0.0000
 51
180.0000
  0
LINE
  8
22
 10
36.9215
 20
70.3785
 30
0.0000
 11
36.9215
 21
70.2289
 31
0.0000
  0
LINE
  8
22
 10
36.9215
 20
70.2289
 30
0.0000
 11
37.5198
 21
70.2289
 31
0.0000
  0
LINE
  8
22
 10
36.2781
 20
69.7802
 30
0.0000
 11
36.2781
 21
70.6776
 31
0.0000
  0
LINE
  8
22
 10
36.2781
 20
70.6776
 30
0.0000
 11
35.8294
 21
70.6776
 31
0.0000
  0
LINE
  8
22
 10
35.8294
 20
70.6776
 30
0.0000
 11
35.8294
 21
70.5280
 31
0.0000
  0
LINE
  8
22
 10
34.1591
 20
70.1541
 30
0.0000
 11
34.5330
 21
70.3037
 31
0.0000
  0
ARC
  8
22
 10
34.4610
 20
70.4837
 30
0.0000
 40
0.1939
 50
291.8014
 51
90.8190
  0
ARC
  8
22
 10
34.4704
 20
69.8284
 30
0.0000
 40
0.8493
 50
90.8190
 51
114.2391
  0
ARC
  8
22
 10
34.2311
 20
69.9740
 30
0.0000
 40
0.1939
 50
111.8014
 51
270.8190
  0
ARC
  8
22
 10
34.2157
 20
71.0485
 30
0.0000
 40
1.2684
 50
270.8190
 51
289.7904
  0
LINE
  8
22
 10
33.4791
 20
69.7802
 30
0.0000
 11
33.4791
 21
70.6776
 31
0.0000
  0
LINE
  8
22
 10
33.5165
 20
71.0516
 30
0.0000
 11
33.5165
 21
71.1264
 31
0.0000
  0
LINE
  8
22
 10
33.5165
 20
71.1264
 30
0.0000
 11
33.4417
 21
71.1264
 31
0.0000
  0
LINE
  8
22
 10
33.4417
 20
71.1264
 30
0.0000
 11
33.4417
 21
71.0516
 31
0.0000
  0
LINE
  8
22
 10
33.4417
 20
71.0516
 30
0.0000
 11
33.5165
 21
71.0516
 31
0.0000
  0
LINE
  8
22
 10
32.3216
 20
71.1264
 30
0.0000
 11
32.3216
 21
69.7802
 31
0.0000
  0
LINE
  8
22
 10
32.3216
 20
69.7802
 30
0.0000
 11
32.6956
 21
69.7802
 31
0.0000
  0
ARC
  8
22
 10
32.6956
 20
70.0045
 30
0.0000
 40
0.2244
 50
270.0000
 51
0.0008
  0
LINE
  8
22
 10
32.9199
 20
70.0045
 30
0.0000
 11
32.9199
 21
70.4532
 31
0.0000
  0
ARC
  8
22
 10
32.6956
 20
70.4532
 30
0.0000
 40
0.2244
 50
0.0000
 51
90.0000
  0
LINE
  8
22
 10
32.6956
 20
70.6776
 30
0.0000
 11
32.3216
 21
70.6776
 31
0.0000
  0
LINE
  8
22
 10
31.0811
 20
69.7802
 30
0.0000
 11
31.4550
 21
69.7802
 31
0.0000
  0
ARC
  8
22
 10
31.4550
 20
70.0045
 30
0.0000
 40
0.2244
 50
270.0000
 51
0.0008
  0
LINE
  8
22
 10
31.6794
 20
70.0045
 30
0.0000
 11
31.6794
 21
70.3785
 31
0.0000
  0
ARC
  8
22
 10
31.3802
 20
70.3785
 30
0.0000
 40
0.2992
 50
0.0000
 51
180.0000
  0
LINE
  8
22
 10
31.0811
 20
70.3785
 30
0.0000
 11
31.0811
 21
70.2289
 31
0.0000
  0
LINE
  8
22
 10
31.0811
 20
70.2289
 30
0.0000
 11
31.6794
 21
70.2289
 31
0.0000
  0
INSERT
  8
22
  2
RECT
 10
27.9488
 20
42.3747
 30
0.0000
 41
0.1676
 42
0.0559
 43
1.0000
 50
270.0000
  0
INSERT
  8
22
  2
RECT
 10
27.9488
 20
41.8717
 30
0.0000
 41
0.1676
 42
0.0559
 43
1.0000
 50
270.0000
  0
INSERT
  8
22
  2
RECT
 10
27.9488
 20
41.3968
 30
0.0000
 41
0.3353
 42
0.0559
 43
1.0000
 50
270.0000
  0
INSERT
  8
22
  2
RECT
 10
27.9488
 20
41.0894
 30
0.0000
 41
0.1676
 42
0.0559
 43
1.0000
 50
270.0000
  0
INSERT
  8
22
  2
RECT
 10
27.9488
 20
40.7542
 30
0.0000
 41
0.1676
 42
0.0559
 43
1.0000
 50
270.0000
  0
INSERT
  8
22
  2
RECT
 10
27.9488
 20
39.9998
 30
0.0000
 41
0.2235
 42
0.0559
 43
1.0000
 50
270.0000
  0
INSERT
  8
22
  2
RECT
 10
27.9488
 20
39.6924
 30
0.0000
 41
0.1676
 42
0.0559
 43
1.0000
 50
270.0000
  0
INSERT
  8
22
  2
RECT
 10
27.9488
 20
39.1895
 30
0.0000
 41
0.1676
 42
0.0559
 43
1.0000
 50
270.0000
  0
INSERT
  8
22
  2
RECT
 10
27.9488
 20
38.6866
 30
0.0000
 41
0.1676
 42
0.0559
 43
1.0000
 50
270.0000
  0
INSERT
  8
22
  2
RECT
 10
27.9488
 20
38.0719
 30
0.0000
 41
0.2794
 42
0.0559
 43
1.0000
 50
270.0000
  0
INSERT
  8
22
  2
RECT
 10
27.9488
 20
37.7646
 30
0.0000
 41
0.2235
 42
0.0559
 43
1.0000
 50
270.0000
  0
INSERT
  8
22
  2
RECT
 10
27.9488
 20
37.4014
 30
0.0000
 41
0.1676
 42
0.0559
 43
1.0000
 50
270.0000
  0
INSERT
  8
22
  2
RECT
 10
27.9488
 20
36.5911
 30
0.0000
 41
0.3353
 42
0.0559
 43
1.0000
 50
270.0000
  0
INSERT
  8
22
  2
RECT
 10
27.8929
 20
42.3747
 30
0.0000
 41
0.1676
 42
0.0559
 43
1.0000
 50
270.0000
  0
INSERT
  8
22
  2
RECT
 10
27.8929
 20
41.8717
 30
0.0000
 41
0.1676
 42
0.0559
 43
1.0000
 50
270.0000
  0
INSERT
  8
22
  2
RECT
 10
27.8929
 20
41.3130
 30
0.0000
 41
0.6147
 42
0.0559
 43
1.0000
 50
270.0000
  0
INSERT
  8
22
  2
RECT
 10
27.8929
 20
40.7542
 30
0.0000
 41
0.1676
 42
0.0559
 43
1.0000
 50
270.0000
  0
INSERT
  8
22
  2
RECT
 10
27.8929
 20
39.9160
 30
0.0000
 41
0.6147
 42
0.0559
 43
1.0000
 50
270.0000
  0
INSERT
  8
22
  2
RECT
 10
27.8929
 20
39.1895
 30
0.0000
 41
0.1676
 42
0.0559
 43
1.0000
 50
270.0000
  0
INSERT
  8
22
  2
RECT
 10
27.8929
 20
38.7145
 30
0.0000
 41
0.2235
 42
0.0559
 43
1.0000
 50
270.0000
  0
INSERT
  8
22
  2
RECT
 10
27.8929
 20
37.9601
 30
0.0000
 41
0.6147
 42
0.0559
 43
1.0000
 50
270.0000
  0
INSERT
  8
22
  2
RECT
 10
27.8929
 20
37.4014
 30
0.0000
 41
0.1676
 42
0.0559
 43
1.0000
 50
270.0000
  0
INSERT
  8
22
  2
RECT
 10
27.8929
 20
36.5632
 30
0.0000
 41
0.5029
 42
0.0559
 43
1.0000
 50
270.0000
  0
INSERT
  8
22
  2
RECT
 10
27.8370
 20
42.3747
 30
0.0000
 41
0.1676
 42
0.0559
 43
1.0000
 50
270.0000
  0
INSERT
  8
22
  2
RECT
 10
27.8370
 20
41.8717
 30
0.0000
 41
0.1676
 42
0.0559
 43
1.0000
 50
270.0000
  0
INSERT
  8
22
  2
RECT
 10
27.8370
 20
41.3409
 30
0.0000
 41
0.6706
 42
0.0559
 43
1.0000
 50
270.0000
  0
INSERT
  8
22
  2
RECT
 10
27.8370
 20
40.7542
 30
0.0000
 41
0.1676
 42
0.0559
 43
1.0000
 50
270.0000
  0
INSERT
  8
22
  2
RECT
 10
27.8370
 20
39.9160
 30
0.0000
 41
0.6147
 42
0.0559
 43
1.0000
 50
270.0000
  0
INSERT
  8
22
  2
RECT
 10
27.8370
 20
39.2174
 30
0.0000
 41
0.2235
 42
0.0559
 43
1.0000
 50
270.0000
  0
INSERT
  8
22
  2
RECT
 10
27.8370
 20
38.7145
 30
0.0000
 41
0.2235
 42
0.0559
 43
1.0000
 50
270.0000
  0
INSERT
  8
22
  2
RECT
 10
27.8370
 20
37.9881
 30
0.0000
 41
0.6706
 42
0.0559
 43
1.0000
 50
270.0000
  0
INSERT
  8
22
  2
RECT
 10
27.8370
 20
37.4014
 30
0.0000
 41
0.1676
 42
0.0559
 43
1.0000
 50
270.0000
  0
INSERT
  8
22
  2
RECT
 10
27.8370
 20
36.5632
 30
0.0000
 41
0.6147
 42
0.0559
 43
1.0000
 50
270.0000
  0
INSERT
  8
22
  2
RECT
 10
27.7811
 20
42.3747
 30
0.0000
 41
0.1676
 42
0.0559
 43
1.0000
 50
270.0000
  0
INSERT
  8
22
  2
RECT
 10
27.7811
 20
41.8717
 30
0.0000
 41
0.1676
 42
0.0559
 43
1.0000
 50
270.0000
  0
INSERT
  8
22
  2
RECT
 10
27.7811
 20
41.5924
 30
0.0000
 41
0.1676
 42
0.0559
 43
1.0000
 50
270.0000
  0
INSERT
  8
22
  2
RECT
 10
27.7811
 20
41.1174
 30
0.0000
 41
0.2235
 42
0.0559
 43
1.0000
 50
270.0000
  0
INSERT
  8
22
  2
RECT
 10
27.7811
 20
40.7542
 30
0.0000
 41
0.1676
 42
0.0559
 43
1.0000
 50
270.0000
  0
INSERT
  8
22
  2
RECT
 10
27.7811
 20
40.1674
 30
0.0000
 41
0.2235
 42
0.0559
 43
1.0000
 50
270.0000
  0
INSERT
  8
22
  2
RECT
 10
27.7811
 20
39.7483
 30
0.0000
 41
0.2794
 42
0.0559
 43
1.0000
 50
270.0000
  0
INSERT
  8
22
  2
RECT
 10
27.7811
 20
39.1895
 30
0.0000
 41
0.2794
 42
0.0559
 43
1.0000
 50
270.0000
  0
INSERT
  8
22
  2
RECT
 10
27.7811
 20
38.6866
 30
0.0000
 41
0.2794
 42
0.0559
 43
1.0000
 50
270.0000
  0
INSERT
  8
22
  2
RECT
 10
27.7811
 20
38.2396
 30
0.0000
 41
0.1676
 42
0.0559
 43
1.0000
 50
270.0000
  0
INSERT
  8
22
  2
RECT
 10
27.7811
 20
37.7646
 30
0.0000
 41
0.2235
 42
0.0559
 43
1.0000
 50
270.0000
  0
INSERT
  8
22
  2
RECT
 10
27.7811
 20
37.4014
 30
0.0000
 41
0.1676
 42
0.0559
 43
1.0000
 50
270.0000
  0
INSERT
  8
22
  2
RECT
 10
27.7811
 20
36.8146
 30
0.0000
 41
0.2235
 42
0.0559
 43
1.0000
 50
270.0000
  0
INSERT
  8
22
  2
RECT
 10
27.7811
 20
36.3955
 30
0.0000
 41
0.1676
 42
0.0559
 43
1.0000
 50
270.0000
  0
INSERT
  8
22
  2
RECT
 10
27.7252
 20
42.3747
 30
0.0000
 41
0.1676
 42
0.0559
 43
1.0000
 50
270.0000
  0
INSERT
  8
22
  2
RECT
 10
27.7252
 20
41.8717
 30
0.0000
 41
0.1676
 42
0.0559
 43
1.0000
 50
270.0000
  0
INSERT
  8
22
  2
RECT
 10
27.7252
 20
41.5924
 30
0.0000
 41
0.1676
 42
0.0559
 43
1.0000
 50
270.0000
  0
INSERT
  8
22
  2
RECT
 10
27.7252
 20
41.1174
 30
0.0000
 41
0.2235
 42
0.0559
 43
1.0000
 50
270.0000
  0
INSERT
  8
22
  2
RECT
 10
27.7252
 20
40.7542
 30
0.0000
 41
0.1676
 42
0.0559
 43
1.0000
 50
270.0000
  0
INSERT
  8
22
  2
RECT
 10
27.7252
 20
40.1954
 30
0.0000
 41
0.1676
 42
0.0559
 43
1.0000
 50
270.0000
  0
INSERT
  8
22
  2
RECT
 10
27.7252
 20
39.7204
 30
0.0000
 41
0.2235
 42
0.0559
 43
1.0000
 50
270.0000
  0
INSERT
  8
22
  2
RECT
 10
27.7252
 20
39.1895
 30
0.0000
 41
0.2794
 42
0.0559
 43
1.0000
 50
270.0000
  0
INSERT
  8
22
  2
RECT
 10
27.7252
 20
38.6866
 30
0.0000
 41
0.2794
 42
0.0559
 43
1.0000
 50
270.0000
  0
INSERT
  8
22
  2
RECT
 10
27.7252
 20
38.2954
 30
0.0000
 41
0.1676
 42
0.0559
 43
1.0000
 50
270.0000
  0
INSERT
  8
22
  2
RECT
 10
27.7252
 20
37.7646
 30
0.0000
 41
0.2235
 42
0.0559
 43
1.0000
 50
270.0000
  0
INSERT
  8
22
  2
RECT
 10
27.7252
 20
37.4014
 30
0.0000
 41
0.1676
 42
0.0559
 43
1.0000
 50
270.0000
  0
INSERT
  8
22
  2
RECT
 10
27.7252
 20
36.8426
 30
0.0000
 41
0.1676
 42
0.0559
 43
1.0000
 50
270.0000
  0
INSERT
  8
22
  2
RECT
 10
27.6694
 20
42.3747
 30
0.0000
 41
0.1676
 42
0.0559
 43
1.0000
 50
270.0000
  0
INSERT
  8
22
  2
RECT
 10
27.6694
 20
41.8717
 30
0.0000
 41
0.1676
 42
0.0559
 43
1.0000
 50
270.0000
  0
INSERT
  8
22
  2
RECT
 10
27.6694
 20
41.5924
 30
0.0000
 41
0.1676
 42
0.0559
 43
1.0000
 50
270.0000
  0
INSERT
  8
22
  2
RECT
 10
27.6694
 20
41.0894
 30
0.0000
 41
0.1676
 42
0.0559
 43
1.0000
 50
270.0000
  0
INSERT
  8
22
  2
RECT
 10
27.6694
 20
40.7542
 30
0.0000
 41
0.1676
 42
0.0559
 43
1.0000
 50
270.0000
  0
INSERT
  8
22
  2
RECT
 10
27.6694
 20
40.1954
 30
0.0000
 41
0.1676
 42
0.0559
 43
1.0000
 50
270.0000
  0
INSERT
  8
22
  2
RECT
 10
27.6694
 20
39.6924
 30
0.0000
 41
0.1676
 42
0.0559
 43
1.0000
 50
270.0000
  0
INSERT
  8
22
  2
RECT
 10
27.6694
 20
39.2174
 30
0.0000
 41
0.3353
 42
0.0559
 43
1.0000
 50
270.0000
  0
INSERT
  8
22
  2
RECT
 10
27.6694
 20
38.7145
 30
0.0000
 41
0.3353
 42
0.0559
 43
1.0000
 50
270.0000
  0
INSERT
  8
22
  2
RECT
 10
27.6694
 20
38.2675
 30
0.0000
 41
0.2235
 42
0.0559
 43
1.0000
 50
270.0000
  0
INSERT
  8
22
  2
RECT
 10
27.6694
 20
37.7646
 30
0.0000
 41
0.2235
 42
0.0559
 43
1.0000
 50
270.0000
  0
INSERT
  8
22
  2
RECT
 10
27.6694
 20
37.4014
 30
0.0000
 41
0.1676
 42
0.0559
 43
1.0000
 50
270.0000
  0
INSERT
  8
22
  2
RECT
 10
27.6694
 20
36.8426
 30
0.0000
 41
0.1676
 42
0.0559
 43
1.0000
 50
270.0000
  0
INSERT
  8
22
  2
RECT
 10
27.6135
 20
42.3747
 30
0.0000
 41
0.1676
 42
0.0559
 43
1.0000
 50
270.0000
  0
INSERT
  8
22
  2
RECT
 10
27.6135
 20
41.8717
 30
0.0000
 41
0.1676
 42
0.0559
 43
1.0000
 50
270.0000
  0
INSERT
  8
22
  2
RECT
 10
27.6135
 20
41.3409
 30
0.0000
 41
0.6706
 42
0.0559
 43
1.0000
 50
270.0000
  0
INSERT
  8
22
  2
RECT
 10
27.6135
 20
40.7542
 30
0.0000
 41
0.1676
 42
0.0559
 43
1.0000
 50
270.0000
  0
INSERT
  8
22
  2
RECT
 10
27.6135
 20
40.1954
 30
0.0000
 41
0.1676
 42
0.0559
 43
1.0000
 50
270.0000
  0
INSERT
  8
22
  2
RECT
 10
27.6135
 20
39.6924
 30
0.0000
 41
0.1676
 42
0.0559
 43
1.0000
 50
270.0000
  0
INSERT
  8
22
  2
RECT
 10
27.6135
 20
39.3013
 30
0.0000
 41
0.1676
 42
0.0559
 43
1.0000
 50
270.0000
  0
INSERT
  8
22
  2
RECT
 10
27.6135
 20
39.0778
 30
0.0000
 41
0.1676
 42
0.0559
 43
1.0000
 50
270.0000
  0
INSERT
  8
22
  2
RECT
 10
27.6135
 20
38.7983
 30
0.0000
 41
0.1676
 42
0.0559
 43
1.0000
 50
270.0000
  0
INSERT
  8
22
  2
RECT
 10
27.6135
 20
38.5748
 30
0.0000
 41
0.1676
 42
0.0559
 43
1.0000
 50
270.0000
  0
INSERT
  8
22
  2
RECT
 10
27.6135
 20
37.9881
 30
0.0000
 41
0.6706
 42
0.0559
 43
1.0000
 50
270.0000
  0
INSERT
  8
22
  2
RECT
 10
27.6135
 20
37.4014
 30
0.0000
 41
0.1676
 42
0.0559
 43
1.0000
 50
270.0000
  0
INSERT
  8
22
  2
RECT
 10
27.6135
 20
36.5911
 30
0.0000
 41
0.6706
 42
0.0559
 43
1.0000
 50
270.0000
  0
INSERT
  8
22
  2
RECT
 10
27.5576
 20
42.3747
 30
0.0000
 41
0.1676
 42
0.0559
 43
1.0000
 50
270.0000
  0
INSERT
  8
22
  2
RECT
 10
27.5576
 20
41.8717
 30
0.0000
 41
0.1676
 42
0.0559
 43
1.0000
 50
270.0000
  0
INSERT
  8
22
  2
RECT
 10
27.5576
 20
41.3130
 30
0.0000
 41
0.6147
 42
0.0559
 43
1.0000
 50
270.0000
  0
INSERT
  8
22
  2
RECT
 10
27.5576
 20
40.7542
 30
0.0000
 41
0.1676
 42
0.0559
 43
1.0000
 50
270.0000
  0
INSERT
  8
22
  2
RECT
 10
27.5576
 20
40.1954
 30
0.0000
 41
0.1676
 42
0.0559
 43
1.0000
 50
270.0000
  0
INSERT
  8
22
  2
RECT
 10
27.5576
 20
39.6924
 30
0.0000
 41
0.1676
 42
0.0559
 43
1.0000
 50
270.0000
  0
INSERT
  8
22
  2
RECT
 10
27.5576
 20
39.3013
 30
0.0000
 41
0.1676
 42
0.0559
 43
1.0000
 50
270.0000
  0
INSERT
  8
22
  2
RECT
 10
27.5576
 20
39.0778
 30
0.0000
 41
0.1676
 42
0.0559
 43
1.0000
 50
270.0000
  0
INSERT
  8
22
  2
RECT
 10
27.5576
 20
38.8263
 30
0.0000
 41
0.1118
 42
0.0559
 43
1.0000
 50
270.0000
  0
INSERT
  8
22
  2
RECT
 10
27.5576
 20
38.5748
 30
0.0000
 41
0.1676
 42
0.0559
 43
1.0000
 50
270.0000
  0
INSERT
  8
22
  2
RECT
 10
27.5576
 20
37.9881
 30
0.0000
 41
0.6706
 42
0.0559
 43
1.0000
 50
270.0000
  0
INSERT
  8
22
  2
RECT
 10
27.5576
 20
37.4014
 30
0.0000
 41
0.1676
 42
0.0559
 43
1.0000
 50
270.0000
  0
INSERT
  8
22
  2
RECT
 10
27.5576
 20
36.5911
 30
0.0000
 41
0.6706
 42
0.0559
 43
1.0000
 50
270.0000
  0
INSERT
  8
22
  2
RECT
 10
27.5017
 20
42.3747
 30
0.0000
 41
0.1676
 42
0.0559
 43
1.0000
 50
270.0000
  0
INSERT
  8
22
  2
RECT
 10
27.5017
 20
41.8717
 30
0.0000
 41
0.1676
 42
0.0559
 43
1.0000
 50
270.0000
  0
INSERT
  8
22
  2
RECT
 10
27.5017
 20
41.2850
 30
0.0000
 41
0.5588
 42
0.0559
 43
1.0000
 50
270.0000
  0
INSERT
  8
22
  2
RECT
 10
27.5017
 20
40.7542
 30
0.0000
 41
0.1676
 42
0.0559
 43
1.0000
 50
270.0000
  0
INSERT
  8
22
  2
RECT
 10
27.5017
 20
40.1954
 30
0.0000
 41
0.1676
 42
0.0559
 43
1.0000
 50
270.0000
  0
INSERT
  8
22
  2
RECT
 10
27.5017
 20
39.6924
 30
0.0000
 41
0.1676
 42
0.0559
 43
1.0000
 50
270.0000
  0
INSERT
  8
22
  2
RECT
 10
27.5017
 20
39.3572
 30
0.0000
 41
0.1676
 42
0.0559
 43
1.0000
 50
270.0000
  0
INSERT
  8
22
  2
RECT
 10
27.5017
 20
39.0498
 30
0.0000
 41
0.1118
 42
0.0559
 43
1.0000
 50
270.0000
  0
INSERT
  8
22
  2
RECT
 10
27.5017
 20
38.8542
 30
0.0000
 41
0.1676
 42
0.0559
 43
1.0000
 50
270.0000
  0
INSERT
  8
22
  2
RECT
 10
27.5017
 20
38.5748
 30
0.0000
 41
0.1676
 42
0.0559
 43
1.0000
 50
270.0000
  0
INSERT
  8
22
  2
RECT
 10
27.5017
 20
37.9322
 30
0.0000
 41
0.5588
 42
0.0559
 43
1.0000
 50
270.0000
  0
INSERT
  8
22
  2
RECT
 10
27.5017
 20
37.4014
 30
0.0000
 41
0.1676
 42
0.0559
 43
1.0000
 50
270.0000
  0
INSERT
  8
22
  2
RECT
 10
27.5017
 20
36.5911
 30
0.0000
 41
0.6706
 42
0.0559
 43
1.0000
 50
270.0000
  0
INSERT
  8
22
  2
RECT
 10
27.4458
 20
42.3747
 30
0.0000
 41
0.1676
 42
0.0559
 43
1.0000
 50
270.0000
  0
INSERT
  8
22
  2
RECT
 10
27.4458
 20
41.8997
 30
0.0000
 41
0.2235
 42
0.0559
 43
1.0000
 50
270.0000
  0
INSERT
  8
22
  2
RECT
 10
27.4458
 20
41.0894
 30
0.0000
 41
0.1676
 42
0.0559
 43
1.0000
 50
270.0000
  0
INSERT
  8
22
  2
RECT
 10
27.4458
 20
40.7542
 30
0.0000
 41
0.1676
 42
0.0559
 43
1.0000
 50
270.0000
  0
INSERT
  8
22
  2
RECT
 10
27.4458
 20
40.1954
 30
0.0000
 41
0.1676
 42
0.0559
 43
1.0000
 50
270.0000
  0
INSERT
  8
22
  2
RECT
 10
27.4458
 20
39.6924
 30
0.0000
 41
0.1676
 42
0.0559
 43
1.0000
 50
270.0000
  0
INSERT
  8
22
  2
RECT
 10
27.4458
 20
39.3572
 30
0.0000
 41
0.1676
 42
0.0559
 43
1.0000
 50
270.0000
  0
INSERT
  8
22
  2
RECT
 10
27.4458
 20
38.9381
 30
0.0000
 41
0.3353
 42
0.0559
 43
1.0000
 50
270.0000
  0
INSERT
  8
22
  2
RECT
 10
27.4458
 20
38.5190
 30
0.0000
 41
0.1676
 42
0.0559
 43
1.0000
 50
270.0000
  0
INSERT
  8
22
  2
RECT
 10
27.4458
 20
37.7646
 30
0.0000
 41
0.2235
 42
0.0559
 43
1.0000
 50
270.0000
  0
INSERT
  8
22
  2
RECT
 10
27.4458
 20
37.4014
 30
0.0000
 41
0.1676
 42
0.0559
 43
1.0000
 50
270.0000
  0
INSERT
  8
22
  2
RECT
 10
27.4458
 20
36.8426
 30
0.0000
 41
0.1676
 42
0.0559
 43
1.0000
 50
270.0000
  0
INSERT
  8
22
  2
RECT
 10
27.4458
 20
36.3396
 30
0.0000
 41
0.1676
 42
0.0559
 43
1.0000
 50
270.0000
  0
INSERT
  8
22
  2
RECT
 10
27.3900
 20
42.3747
 30
0.0000
 41
0.1676
 42
0.0559
 43
1.0000
 50
270.0000
  0
INSERT
  8
22
  2
RECT
 10
27.3900
 20
41.8997
 30
0.0000
 41
0.2235
 42
0.0559
 43
1.0000
 50
270.0000
  0
INSERT
  8
22
  2
RECT
 10
27.3900
 20
41.0894
 30
0.0000
 41
0.1676
 42
0.0559
 43
1.0000
 50
270.0000
  0
INSERT
  8
22
  2
RECT
 10
27.3900
 20
40.7542
 30
0.0000
 41
0.1676
 42
0.0559
 43
1.0000
 50
270.0000
  0
INSERT
  8
22
  2
RECT
 10
27.3900
 20
40.1954
 30
0.0000
 41
0.1676
 42
0.0559
 43
1.0000
 50
270.0000
  0
INSERT
  8
22
  2
RECT
 10
27.3900
 20
39.7204
 30
0.0000
 41
0.2235
 42
0.0559
 43
1.0000
 50
270.0000
  0
INSERT
  8
22
  2
RECT
 10
27.3900
 20
39.3572
 30
0.0000
 41
0.1676
 42
0.0559
 43
1.0000
 50
270.0000
  0
INSERT
  8
22
  2
RECT
 10
27.3900
 20
38.9660
 30
0.0000
 41
0.2794
 42
0.0559
 43
1.0000
 50
270.0000
  0
INSERT
  8
22
  2
RECT
 10
27.3900
 20
38.5190
 30
0.0000
 41
0.1676
 42
0.0559
 43
1.0000
 50
270.0000
  0
INSERT
  8
22
  2
RECT
 10
27.3900
 20
37.7646
 30
0.0000
 41
0.2235
 42
0.0559
 43
1.0000
 50
270.0000
  0
INSERT
  8
22
  2
RECT
 10
27.3900
 20
37.4014
 30
0.0000
 41
0.1676
 42
0.0559
 43
1.0000
 50
270.0000
  0
INSERT
  8
22
  2
RECT
 10
27.3900
 20
36.8426
 30
0.0000
 41
0.1676
 42
0.0559
 43
1.0000
 50
270.0000
  0
INSERT
  8
22
  2
RECT
 10
27.3900
 20
36.3396
 30
0.0000
 41
0.1676
 42
0.0559
 43
1.0000
 50
270.0000
  0
INSERT
  8
22
  2
RECT
 10
27.3341
 20
42.3467
 30
0.0000
 41
0.2235
 42
0.0559
 43
1.0000
 50
270.0000
  0
INSERT
  8
22
  2
RECT
 10
27.3341
 20
41.9276
 30
0.0000
 41
0.1676
 42
0.0559
 43
1.0000
 50
270.0000
  0
INSERT
  8
22
  2
RECT
 10
27.3341
 20
41.1174
 30
0.0000
 41
0.2235
 42
0.0559
 43
1.0000
 50
270.0000
  0
INSERT
  8
22
  2
RECT
 10
27.3341
 20
40.7262
 30
0.0000
 41
0.2235
 42
0.0559
 43
1.0000
 50
270.0000
  0
INSERT
  8
22
  2
RECT
 10
27.3341
 20
40.1674
 30
0.0000
 41
0.2235
 42
0.0559
 43
1.0000
 50
270.0000
  0
INSERT
  8
22
  2
RECT
 10
27.3341
 20
39.7204
 30
0.0000
 41
0.2235
 42
0.0559
 43
1.0000
 50
270.0000
  0
INSERT
  8
22
  2
RECT
 10
27.3341
 20
39.3851
 30
0.0000
 41
0.2235
 42
0.0559
 43
1.0000
 50
270.0000
  0
INSERT
  8
22
  2
RECT
 10
27.3341
 20
38.9381
 30
0.0000
 41
0.2235
 42
0.0559
 43
1.0000
 50
270.0000
  0
INSERT
  8
22
  2
RECT
 10
27.3341
 20
38.5190
 30
0.0000
 41
0.1676
 42
0.0559
 43
1.0000
 50
270.0000
  0
INSERT
  8
22
  2
RECT
 10
27.3341
 20
37.7925
 30
0.0000
 41
0.1676
 42
0.0559
 43
1.0000
 50
270.0000
  0
INSERT
  8
22
  2
RECT
 10
27.3341
 20
37.3734
 30
0.0000
 41
0.2235
 42
0.0559
 43
1.0000
 50
270.0000
  0
INSERT
  8
22
  2
RECT
 10
27.3341
 20
36.8146
 30
0.0000
 41
0.2235
 42
0.0559
 43
1.0000
 50
270.0000
  0
INSERT
  8
22
  2
RECT
 10
27.3341
 20
36.3676
 30
0.0000
 41
0.2235
 42
0.0559
 43
1.0000
 50
270.0000
  0
INSERT
  8
22
  2
RECT
 10
27.2782
 20
42.1512
 30
0.0000
 41
0.6147
 42
0.0559
 43
1.0000
 50
270.0000
  0
INSERT
  8
22
  2
RECT
 10
27.2782
 20
41.3409
 30
0.0000
 41
0.5588
 42
0.0559
 43
1.0000
 50
270.0000
  0
INSERT
  8
22
  2
RECT
 10
27.2782
 20
40.5865
 30
0.0000
 41
0.5029
 42
0.0559
 43
1.0000
 50
270.0000
  0
INSERT
  8
22
  2
RECT
 10
27.2782
 20
39.9439
 30
0.0000
 41
0.6706
 42
0.0559
 43
1.0000
 50
270.0000
  0
INSERT
  8
22
  2
RECT
 10
27.2782
 20
39.4130
 30
0.0000
 41
0.1676
 42
0.0559
 43
1.0000
 50
270.0000
  0
INSERT
  8
22
  2
RECT
 10
27.2782
 20
38.9381
 30
0.0000
 41
0.2235
 42
0.0559
 43
1.0000
 50
270.0000
  0
INSERT
  8
22
  2
RECT
 10
27.2782
 20
38.4910
 30
0.0000
 41
0.2235
 42
0.0559
 43
1.0000
 50
270.0000
  0
INSERT
  8
22
  2
RECT
 10
27.2782
 20
37.9881
 30
0.0000
 41
0.5588
 42
0.0559
 43
1.0000
 50
270.0000
  0
INSERT
  8
22
  2
RECT
 10
27.2782
 20
37.2617
 30
0.0000
 41
0.4470
 42
0.0559
 43
1.0000
 50
270.0000
  0
INSERT
  8
22
  2
RECT
 10
27.2782
 20
36.5911
 30
0.0000
 41
0.5588
 42
0.0559
 43
1.0000
 50
270.0000
  0
INSERT
  8
22
  2
RECT
 10
27.2223
 20
42.1791
 30
0.0000
 41
0.5588
 42
0.0559
 43
1.0000
 50
270.0000
  0
INSERT
  8
22
  2
RECT
 10
27.2223
 20
41.3409
 30
0.0000
 41
0.5588
 42
0.0559
 43
1.0000
 50
270.0000
  0
INSERT
  8
22
  2
RECT
 10
27.2223
 20
40.5865
 30
0.0000
 41
0.5029
 42
0.0559
 43
1.0000
 50
270.0000
  0
INSERT
  8
22
  2
RECT
 10
27.2223
 20
39.9160
 30
0.0000
 41
0.6147
 42
0.0559
 43
1.0000
 50
270.0000
  0
INSERT
  8
22
  2
RECT
 10
27.2223
 20
39.4130
 30
0.0000
 41
0.1676
 42
0.0559
 43
1.0000
 50
270.0000
  0
INSERT
  8
22
  2
RECT
 10
27.2223
 20
38.9660
 30
0.0000
 41
0.1676
 42
0.0559
 43
1.0000
 50
270.0000
  0
INSERT
  8
22
  2
RECT
 10
27.2223
 20
38.4631
 30
0.0000
 41
0.1676
 42
0.0559
 43
1.0000
 50
270.0000
  0
INSERT
  8
22
  2
RECT
 10
27.2223
 20
38.0160
 30
0.0000
 41
0.6147
 42
0.0559
 43
1.0000
 50
270.0000
  0
INSERT
  8
22
  2
RECT
 10
27.2223
 20
37.2337
 30
0.0000
 41
0.5029
 42
0.0559
 43
1.0000
 50
270.0000
  0
INSERT
  8
22
  2
RECT
 10
27.2223
 20
36.5911
 30
0.0000
 41
0.4470
 42
0.0559
 43
1.0000
 50
270.0000
  0
INSERT
  8
22
  2
RECT
 10
27.1664
 20
42.3747
 30
0.0000
 41
0.1676
 42
0.0559
 43
1.0000
 50
270.0000
  0
INSERT
  8
22
  2
RECT
 10
27.1664
 20
42.0953
 30
0.0000
 41
0.2794
 42
0.0559
 43
1.0000
 50
270.0000
  0
INSERT
  8
22
  2
RECT
 10
27.1664
 20
41.3688
 30
0.0000
 41
0.3912
 42
0.0559
 43
1.0000
 50
270.0000
  0
INSERT
  8
22
  2
RECT
 10
27.1664
 20
40.7542
 30
0.0000
 41
0.1676
 42
0.0559
 43
1.0000
 50
270.0000
  0
INSERT
  8
22
  2
RECT
 10
27.1664
 20
40.4748
 30
0.0000
 41
0.2794
 42
0.0559
 43
1.0000
 50
270.0000
  0
INSERT
  8
22
  2
RECT
 10
27.1664
 20
39.9998
 30
0.0000
 41
0.3353
 42
0.0559
 43
1.0000
 50
270.0000
  0
INSERT
  8
22
  2
RECT
 10
27.1664
 20
39.6924
 30
0.0000
 41
0.1676
 42
0.0559
 43
1.0000
 50
270.0000
  0
INSERT
  8
22
  2
RECT
 10
27.1664
 20
39.4410
 30
0.0000
 41
0.2235
 42
0.0559
 43
1.0000
 50
270.0000
  0
INSERT
  8
22
  2
RECT
 10
27.1664
 20
38.9660
 30
0.0000
 41
0.1676
 42
0.0559
 43
1.0000
 50
270.0000
  0
INSERT
  8
22
  2
RECT
 10
27.1664
 20
38.4631
 30
0.0000
 41
0.1676
 42
0.0559
 43
1.0000
 50
270.0000
  0
INSERT
  8
22
  2
RECT
 10
27.1664
 20
38.0160
 30
0.0000
 41
0.3912
 42
0.0559
 43
1.0000
 50
270.0000
  0
INSERT
  8
22
  2
RECT
 10
27.1664
 20
37.4014
 30
0.0000
 41
0.1676
 42
0.0559
 43
1.0000
 50
270.0000
  0
INSERT
  8
22
  2
RECT
 10
27.1664
 20
37.1219
 30
0.0000
 41
0.2794
 42
0.0559
 43
1.0000
 50
270.0000
  0
INSERT
  8
22
  2
RECT
 10
27.1664
 20
36.5911
 30
0.0000
 41
0.3353
 42
0.0559
 43
1.0000
 50
270.0000
  0
INSERT
  8
22
  2
RECT
 10
27.1105
 20
42.3747
 30
0.0000
 41
0.1676
 42
0.0559
 43
1.0000
 50
270.0000
  0
INSERT
  8
22
  2
RECT
 10
27.1105
 20
39.6924
 30
0.0000
 41
0.1676
 42
0.0559
 43
1.0000
 50
270.0000
  0
INSERT
  8
22
  2
RECT
 10
27.0547
 20
42.3747
 30
0.0000
 41
0.1676
 42
0.0559
 43
1.0000
 50
270.0000
  0
INSERT
  8
22
  2
RECT
 10
27.0547
 20
39.6924
 30
0.0000
 41
0.1676
 42
0.0559
 43
1.0000
 50
270.0000
  0
INSERT
  8
22
  2
RECT
 10
26.9988
 20
42.3747
 30
0.0000
 41
0.1676
 42
0.0559
 43
1.0000
 50
270.0000
  0
INSERT
  8
22
  2
RECT
 10
26.9988
 20
39.6924
 30
0.0000
 41
0.1676
 42
0.0559
 43
1.0000
 50
270.0000
  0
INSERT
  8
22
  2
RECT
 10
26.9429
 20
42.3747
 30
0.0000
 41
0.1676
 42
0.0559
 43
1.0000
 50
270.0000
  0
INSERT
  8
22
  2
RECT
 10
26.9429
 20
39.6924
 30
0.0000
 41
0.1676
 42
0.0559
 43
1.0000
 50
270.0000
  0
INSERT
  8
22
  2
RECT
 10
26.8870
 20
42.3747
 30
0.0000
 41
0.1676
 42
0.0559
 43
1.0000
 50
270.0000
  0
INSERT
  8
22
  2
RECT
 10
26.8870
 20
39.6924
 30
0.0000
 41
0.1676
 42
0.0559
 43
1.0000
 50
270.0000
  0
INSERT
  8
22
  2
RECT
 10
26.8312
 20
42.3747
 30
0.0000
 41
0.1676
 42
0.0559
 43
1.0000
 50
270.0000
  0
INSERT
  8
22
  2
RECT
 10
26.8312
 20
39.6924
 30
0.0000
 41
0.1676
 42
0.0559
 43
1.0000
 50
270.0000
  0
INSERT
  8
22
  2
RECT
 10
26.7753
 20
42.3747
 30
0.0000
 41
0.1676
 42
0.0559
 43
1.0000
 50
270.0000
  0
INSERT
  8
22
  2
RECT
 10
26.7194
 20
42.3747
 30
0.0000
 41
0.1676
 42
0.0559
 43
1.0000
 50
270.0000
  0
INSERT
  8
22
  2
RECT
 10
26.6635
 20
42.9614
 30
0.0000
 41
0.2235
 42
0.0559
 43
1.0000
 50
270.0000
  0
INSERT
  8
22
  2
RECT
 10
26.6635
 20
42.3747
 30
0.0000
 41
0.1676
 42
0.0559
 43
1.0000
 50
270.0000
  0
INSERT
  8
22
  2
RECT
 10
26.6635
 20
42.0953
 30
0.0000
 41
0.1676
 42
0.0559
 43
1.0000
 50
270.0000
  0
INSERT
  8
22
  2
RECT
 10
26.6635
 20
41.3409
 30
0.0000
 41
0.2235
 42
0.0559
 43
1.0000
 50
270.0000
  0
INSERT
  8
22
  2
RECT
 10
26.6635
 20
40.8100
 30
0.0000
 41
0.1676
 42
0.0559
 43
1.0000
 50
270.0000
  0
INSERT
  8
22
  2
RECT
 10
26.6635
 20
40.3071
 30
0.0000
 41
0.1676
 42
0.0559
 43
1.0000
 50
270.0000
  0
INSERT
  8
22
  2
RECT
 10
26.6635
 20
39.3851
 30
0.0000
 41
0.2235
 42
0.0559
 43
1.0000
 50
270.0000
  0
INSERT
  8
22
  2
RECT
 10
26.6635
 20
38.6307
 30
0.0000
 41
0.1676
 42
0.0559
 43
1.0000
 50
270.0000
  0
INSERT
  8
22
  2
RECT
 10
26.6635
 20
37.8484
 30
0.0000
 41
0.1676
 42
0.0559
 43
1.0000
 50
270.0000
  0
INSERT
  8
22
  2
RECT
 10
26.6635
 20
37.5690
 30
0.0000
 41
0.1676
 42
0.0559
 43
1.0000
 50
270.0000
  0
INSERT
  8
22
  2
RECT
 10
26.6635
 20
37.2337
 30
0.0000
 41
0.1676
 42
0.0559
 43
1.0000
 50
270.0000
  0
INSERT
  8
22
  2
RECT
 10
26.6635
 20
36.3955
 30
0.0000
 41
0.1676
 42
0.0559
 43
1.0000
 50
270.0000
  0
INSERT
  8
22
  2
RECT
 10
26.6635
 20
35.6691
 30
0.0000
 41
0.1676
 42
0.0559
 43
1.0000
 50
270.0000
  0
INSERT
  8
22
  2
RECT
 10
26.6076
 20
42.9614
 30
0.0000
 41
0.4470
 42
0.0559
 43
1.0000
 50
270.0000
  0
INSERT
  8
22
  2
RECT
 10
26.6076
 20
42.1791
 30
0.0000
 41
0.5588
 42
0.0559
 43
1.0000
 50
270.0000
  0
INSERT
  8
22
  2
RECT
 10
26.6076
 20
41.3409
 30
0.0000
 41
0.4470
 42
0.0559
 43
1.0000
 50
270.0000
  0
INSERT
  8
22
  2
RECT
 10
26.6076
 20
40.8100
 30
0.0000
 41
0.1676
 42
0.0559
 43
1.0000
 50
270.0000
  0
INSERT
  8
22
  2
RECT
 10
26.6076
 20
40.3071
 30
0.0000
 41
0.1676
 42
0.0559
 43
1.0000
 50
270.0000
  0
INSERT
  8
22
  2
RECT
 10
26.6076
 20
39.4130
 30
0.0000
 41
0.5029
 42
0.0559
 43
1.0000
 50
270.0000
  0
INSERT
  8
22
  2
RECT
 10
26.6076
 20
38.6307
 30
0.0000
 41
0.3912
 42
0.0559
 43
1.0000
 50
270.0000
  0
INSERT
  8
22
  2
RECT
 10
26.6076
 20
37.7646
 30
0.0000
 41
0.5588
 42
0.0559
 43
1.0000
 50
270.0000
  0
INSERT
  8
22
  2
RECT
 10
26.6076
 20
37.2337
 30
0.0000
 41
0.1676
 42
0.0559
 43
1.0000
 50
270.0000
  0
INSERT
  8
22
  2
RECT
 10
26.6076
 20
36.3955
 30
0.0000
 41
0.3912
 42
0.0559
 43
1.0000
 50
270.0000
  0
INSERT
  8
22
  2
RECT
 10
26.6076
 20
35.6970
 30
0.0000
 41
0.4470
 42
0.0559
 43
1.0000
 50
270.0000
  0
INSERT
  8
22
  2
RECT
 10
26.5518
 20
42.9614
 30
0.0000
 41
0.5588
 42
0.0559
 43
1.0000
 50
270.0000
  0
INSERT
  8
22
  2
RECT
 10
26.5518
 20
42.1512
 30
0.0000
 41
0.6147
 42
0.0559
 43
1.0000
 50
270.0000
  0
INSERT
  8
22
  2
RECT
 10
26.5518
 20
41.3409
 30
0.0000
 41
0.5588
 42
0.0559
 43
1.0000
 50
270.0000
  0
INSERT
  8
22
  2
RECT
 10
26.5518
 20
40.8100
 30
0.0000
 41
0.1676
 42
0.0559
 43
1.0000
 50
270.0000
  0
INSERT
  8
22
  2
RECT
 10
26.5518
 20
40.3071
 30
0.0000
 41
0.1676
 42
0.0559
 43
1.0000
 50
270.0000
  0
INSERT
  8
22
  2
RECT
 10
26.5518
 20
39.4130
 30
0.0000
 41
0.6147
 42
0.0559
 43
1.0000
 50
270.0000
  0
INSERT
  8
22
  2
RECT
 10
26.5518
 20
38.6307
 30
0.0000
 41
0.5029
 42
0.0559
 43
1.0000
 50
270.0000
  0
INSERT
  8
22
  2
RECT
 10
26.5518
 20
37.7925
 30
0.0000
 41
0.6147
 42
0.0559
 43
1.0000
 50
270.0000
  0
INSERT
  8
22
  2
RECT
 10
26.5518
 20
37.2337
 30
0.0000
 41
0.1676
 42
0.0559
 43
1.0000
 50
270.0000
  0
INSERT
  8
22
  2
RECT
 10
26.5518
 20
36.3676
 30
0.0000
 41
0.5588
 42
0.0559
 43
1.0000
 50
270.0000
  0
INSERT
  8
22
  2
RECT
 10
26.5518
 20
35.6691
 30
0.0000
 41
0.6147
 42
0.0559
 43
1.0000
 50
270.0000
  0
INSERT
  8
22
  2
RECT
 10
26.4959
 20
43.1290
 30
0.0000
 41
0.2235
 42
0.0559
 43
1.0000
 50
270.0000
  0
INSERT
  8
22
  2
RECT
 10
26.4959
 20
42.7658
 30
0.0000
 41
0.2794
 42
0.0559
 43
1.0000
 50
270.0000
  0
INSERT
  8
22
  2
RECT
 10
26.4959
 20
42.3188
 30
0.0000
 41
0.2794
 42
0.0559
 43
1.0000
 50
270.0000
  0
INSERT
  8
22
  2
RECT
 10
26.4959
 20
41.9556
 30
0.0000
 41
0.2235
 42
0.0559
 43
1.0000
 50
270.0000
  0
INSERT
  8
22
  2
RECT
 10
26.4959
 20
41.5365
 30
0.0000
 41
0.2794
 42
0.0559
 43
1.0000
 50
270.0000
  0
INSERT
  8
22
  2
RECT
 10
26.4959
 20
41.1453
 30
0.0000
 41
0.1676
 42
0.0559
 43
1.0000
 50
270.0000
  0
INSERT
  8
22
  2
RECT
 10
26.4959
 20
40.8100
 30
0.0000
 41
0.1676
 42
0.0559
 43
1.0000
 50
270.0000
  0
INSERT
  8
22
  2
RECT
 10
26.4959
 20
40.3071
 30
0.0000
 41
0.1676
 42
0.0559
 43
1.0000
 50
270.0000
  0
INSERT
  8
22
  2
RECT
 10
26.4959
 20
39.6086
 30
0.0000
 41
0.2235
 42
0.0559
 43
1.0000
 50
270.0000
  0
INSERT
  8
22
  2
RECT
 10
26.4959
 20
39.1616
 30
0.0000
 41
0.2235
 42
0.0559
 43
1.0000
 50
270.0000
  0
INSERT
  8
22
  2
RECT
 10
26.4959
 20
38.7983
 30
0.0000
 41
0.2794
 42
0.0559
 43
1.0000
 50
270.0000
  0
INSERT
  8
22
  2
RECT
 10
26.4959
 20
38.4631
 30
0.0000
 41
0.2794
 42
0.0559
 43
1.0000
 50
270.0000
  0
INSERT
  8
22
  2
RECT
 10
26.4959
 20
37.9881
 30
0.0000
 41
0.2235
 42
0.0559
 43
1.0000
 50
270.0000
  0
INSERT
  8
22
  2
RECT
 10
26.4959
 20
37.6249
 30
0.0000
 41
0.2794
 42
0.0559
 43
1.0000
 50
270.0000
  0
INSERT
  8
22
  2
RECT
 10
26.4959
 20
37.2337
 30
0.0000
 41
0.1676
 42
0.0559
 43
1.0000
 50
270.0000
  0
INSERT
  8
22
  2
RECT
 10
26.4959
 20
36.5632
 30
0.0000
 41
0.2794
 42
0.0559
 43
1.0000
 50
270.0000
  0
INSERT
  8
22
  2
RECT
 10
26.4959
 20
36.1999
 30
0.0000
 41
0.2235
 42
0.0559
 43
1.0000
 50
270.0000
  0
INSERT
  8
22
  2
RECT
 10
26.4959
 20
35.8647
 30
0.0000
 41
0.2235
 42
0.0559
 43
1.0000
 50
270.0000
  0
INSERT
  8
22
  2
RECT
 10
26.4959
 20
35.5014
 30
0.0000
 41
0.1676
 42
0.0559
 43
1.0000
 50
270.0000
  0
INSERT
  8
22
  2
RECT
 10
26.4400
 20
43.1849
 30
0.0000
 41
0.2235
 42
0.0559
 43
1.0000
 50
270.0000
  0
INSERT
  8
22
  2
RECT
 10
26.4400
 20
42.7379
 30
0.0000
 41
0.2235
 42
0.0559
 43
1.0000
 50
270.0000
  0
INSERT
  8
22
  2
RECT
 10
26.4400
 20
42.3747
 30
0.0000
 41
0.1676
 42
0.0559
 43
1.0000
 50
270.0000
  0
INSERT
  8
22
  2
RECT
 10
26.4400
 20
41.9276
 30
0.0000
 41
0.1676
 42
0.0559
 43
1.0000
 50
270.0000
  0
INSERT
  8
22
  2
RECT
 10
26.4400
 20
41.5924
 30
0.0000
 41
0.1676
 42
0.0559
 43
1.0000
 50
270.0000
  0
INSERT
  8
22
  2
RECT
 10
26.4400
 20
41.1453
 30
0.0000
 41
0.0559
 42
0.0559
 43
1.0000
 50
270.0000
  0
INSERT
  8
22
  2
RECT
 10
26.4400
 20
40.8100
 30
0.0000
 41
0.1676
 42
0.0559
 43
1.0000
 50
270.0000
  0
INSERT
  8
22
  2
RECT
 10
26.4400
 20
40.3071
 30
0.0000
 41
0.1676
 42
0.0559
 43
1.0000
 50
270.0000
  0
INSERT
  8
22
  2
RECT
 10
26.4400
 20
39.6365
 30
0.0000
 41
0.0559
 42
0.0559
 43
1.0000
 50
270.0000
  0
INSERT
  8
22
  2
RECT
 10
26.4400
 20
39.1336
 30
0.0000
 41
0.1676
 42
0.0559
 43
1.0000
 50
270.0000
  0
INSERT
  8
22
  2
RECT
 10
26.4400
 20
38.8542
 30
0.0000
 41
0.1676
 42
0.0559
 43
1.0000
 50
270.0000
  0
INSERT
  8
22
  2
RECT
 10
26.4400
 20
38.4072
 30
0.0000
 41
0.1676
 42
0.0559
 43
1.0000
 50
270.0000
  0
INSERT
  8
22
  2
RECT
 10
26.4400
 20
38.0440
 30
0.0000
 41
0.2235
 42
0.0559
 43
1.0000
 50
270.0000
  0
INSERT
  8
22
  2
RECT
 10
26.4400
 20
37.5969
 30
0.0000
 41
0.2235
 42
0.0559
 43
1.0000
 50
270.0000
  0
INSERT
  8
22
  2
RECT
 10
26.4400
 20
37.2337
 30
0.0000
 41
0.1676
 42
0.0559
 43
1.0000
 50
270.0000
  0
INSERT
  8
22
  2
RECT
 10
26.4400
 20
36.6470
 30
0.0000
 41
0.2235
 42
0.0559
 43
1.0000
 50
270.0000
  0
INSERT
  8
22
  2
RECT
 10
26.4400
 20
35.9205
 30
0.0000
 41
0.2235
 42
0.0559
 43
1.0000
 50
270.0000
  0
INSERT
  8
22
  2
RECT
 10
26.4400
 20
35.5014
 30
0.0000
 41
0.0559
 42
0.0559
 43
1.0000
 50
270.0000
  0
INSERT
  8
22
  2
RECT
 10
26.3841
 20
43.2129
 30
0.0000
 41
0.1676
 42
0.0559
 43
1.0000
 50
270.0000
  0
INSERT
  8
22
  2
RECT
 10
26.3841
 20
42.7099
 30
0.0000
 41
0.1676
 42
0.0559
 43
1.0000
 50
270.0000
  0
INSERT
  8
22
  2
RECT
 10
26.3841
 20
42.3747
 30
0.0000
 41
0.1676
 42
0.0559
 43
1.0000
 50
270.0000
  0
INSERT
  8
22
  2
RECT
 10
26.3841
 20
41.8997
 30
0.0000
 41
0.2235
 42
0.0559
 43
1.0000
 50
270.0000
  0
INSERT
  8
22
  2
RECT
 10
26.3841
 20
41.5924
 30
0.0000
 41
0.1676
 42
0.0559
 43
1.0000
 50
270.0000
  0
INSERT
  8
22
  2
RECT
 10
26.3841
 20
40.8100
 30
0.0000
 41
0.1676
 42
0.0559
 43
1.0000
 50
270.0000
  0
INSERT
  8
22
  2
RECT
 10
26.3841
 20
40.3071
 30
0.0000
 41
0.1676
 42
0.0559
 43
1.0000
 50
270.0000
  0
INSERT
  8
22
  2
RECT
 10
26.3841
 20
39.1336
 30
0.0000
 41
0.1676
 42
0.0559
 43
1.0000
 50
270.0000
  0
INSERT
  8
22
  2
RECT
 10
26.3841
 20
38.8542
 30
0.0000
 41
0.1676
 42
0.0559
 43
1.0000
 50
270.0000
  0
INSERT
  8
22
  2
RECT
 10
26.3841
 20
38.3792
 30
0.0000
 41
0.2235
 42
0.0559
 43
1.0000
 50
270.0000
  0
INSERT
  8
22
  2
RECT
 10
26.3841
 20
38.0719
 30
0.0000
 41
0.1676
 42
0.0559
 43
1.0000
 50
270.0000
  0
INSERT
  8
22
  2
RECT
 10
26.3841
 20
37.5690
 30
0.0000
 41
0.1676
 42
0.0559
 43
1.0000
 50
270.0000
  0
INSERT
  8
22
  2
RECT
 10
26.3841
 20
37.2337
 30
0.0000
 41
0.1676
 42
0.0559
 43
1.0000
 50
270.0000
  0
INSERT
  8
22
  2
RECT
 10
26.3841
 20
36.6749
 30
0.0000
 41
0.1676
 42
0.0559
 43
1.0000
 50
270.0000
  0
INSERT
  8
22
  2
RECT
 10
26.3841
 20
35.9485
 30
0.0000
 41
0.1676
 42
0.0559
 43
1.0000
 50
270.0000
  0
INSERT
  8
22
  2
RECT
 10
26.3282
 20
43.2129
 30
0.0000
 41
0.1676
 42
0.0559
 43
1.0000
 50
270.0000
  0
INSERT
  8
22
  2
RECT
 10
26.3282
 20
42.7099
 30
0.0000
 41
0.1676
 42
0.0559
 43
1.0000
 50
270.0000
  0
INSERT
  8
22
  2
RECT
 10
26.3282
 20
42.3747
 30
0.0000
 41
0.1676
 42
0.0559
 43
1.0000
 50
270.0000
  0
INSERT
  8
22
  2
RECT
 10
26.3282
 20
41.8997
 30
0.0000
 41
0.2235
 42
0.0559
 43
1.0000
 50
270.0000
  0
INSERT
  8
22
  2
RECT
 10
26.3282
 20
41.5924
 30
0.0000
 41
0.1676
 42
0.0559
 43
1.0000
 50
270.0000
  0
INSERT
  8
22
  2
RECT
 10
26.3282
 20
40.8100
 30
0.0000
 41
0.1676
 42
0.0559
 43
1.0000
 50
270.0000
  0
INSERT
  8
22
  2
RECT
 10
26.3282
 20
40.3071
 30
0.0000
 41
0.1676
 42
0.0559
 43
1.0000
 50
270.0000
  0
INSERT
  8
22
  2
RECT
 10
26.3282
 20
39.1895
 30
0.0000
 41
0.2794
 42
0.0559
 43
1.0000
 50
270.0000
  0
INSERT
  8
22
  2
RECT
 10
26.3282
 20
38.8542
 30
0.0000
 41
0.1676
 42
0.0559
 43
1.0000
 50
270.0000
  0
INSERT
  8
22
  2
RECT
 10
26.3282
 20
38.3513
 30
0.0000
 41
0.1676
 42
0.0559
 43
1.0000
 50
270.0000
  0
INSERT
  8
22
  2
RECT
 10
26.3282
 20
38.0719
 30
0.0000
 41
0.1676
 42
0.0559
 43
1.0000
 50
270.0000
  0
INSERT
  8
22
  2
RECT
 10
26.3282
 20
37.5690
 30
0.0000
 41
0.1676
 42
0.0559
 43
1.0000
 50
270.0000
  0
INSERT
  8
22
  2
RECT
 10
26.3282
 20
37.2337
 30
0.0000
 41
0.1676
 42
0.0559
 43
1.0000
 50
270.0000
  0
INSERT
  8
22
  2
RECT
 10
26.3282
 20
36.6749
 30
0.0000
 41
0.1676
 42
0.0559
 43
1.0000
 50
270.0000
  0
INSERT
  8
22
  2
RECT
 10
26.3282
 20
35.9485
 30
0.0000
 41
0.1676
 42
0.0559
 43
1.0000
 50
270.0000
  0
INSERT
  8
22
  2
RECT
 10
26.2724
 20
43.2129
 30
0.0000
 41
0.1676
 42
0.0559
 43
1.0000
 50
270.0000
  0
INSERT
  8
22
  2
RECT
 10
26.2724
 20
42.7099
 30
0.0000
 41
0.1676
 42
0.0559
 43
1.0000
 50
270.0000
  0
INSERT
  8
22
  2
RECT
 10
26.2724
 20
42.3747
 30
0.0000
 41
0.1676
 42
0.0559
 43
1.0000
 50
270.0000
  0
INSERT
  8
22
  2
RECT
 10
26.2724
 20
41.8717
 30
0.0000
 41
0.1676
 42
0.0559
 43
1.0000
 50
270.0000
  0
INSERT
  8
22
  2
RECT
 10
26.2724
 20
41.3688
 30
0.0000
 41
0.7264
 42
0.0559
 43
1.0000
 50
270.0000
  0
INSERT
  8
22
  2
RECT
 10
26.2724
 20
40.8100
 30
0.0000
 41
0.1676
 42
0.0559
 43
1.0000
 50
270.0000
  0
INSERT
  8
22
  2
RECT
 10
26.2724
 20
40.3071
 30
0.0000
 41
0.1676
 42
0.0559
 43
1.0000
 50
270.0000
  0
INSERT
  8
22
  2
RECT
 10
26.2724
 20
39.3572
 30
0.0000
 41
0.5029
 42
0.0559
 43
1.0000
 50
270.0000
  0
INSERT
  8
22
  2
RECT
 10
26.2724
 20
38.8822
 30
0.0000
 41
0.2235
 42
0.0559
 43
1.0000
 50
270.0000
  0
INSERT
  8
22
  2
RECT
 10
26.2724
 20
38.3513
 30
0.0000
 41
0.1676
 42
0.0559
 43
1.0000
 50
270.0000
  0
INSERT
  8
22
  2
RECT
 10
26.2724
 20
38.0719
 30
0.0000
 41
0.1676
 42
0.0559
 43
1.0000
 50
270.0000
  0
INSERT
  8
22
  2
RECT
 10
26.2724
 20
37.5690
 30
0.0000
 41
0.1676
 42
0.0559
 43
1.0000
 50
270.0000
  0
INSERT
  8
22
  2
RECT
 10
26.2724
 20
37.2337
 30
0.0000
 41
0.1676
 42
0.0559
 43
1.0000
 50
270.0000
  0
INSERT
  8
22
  2
RECT
 10
26.2724
 20
36.6749
 30
0.0000
 41
0.1676
 42
0.0559
 43
1.0000
 50
270.0000
  0
INSERT
  8
22
  2
RECT
 10
26.2724
 20
35.6970
 30
0.0000
 41
0.6706
 42
0.0559
 43
1.0000
 50
270.0000
  0
INSERT
  8
22
  2
RECT
 10
26.2165
 20
43.2129
 30
0.0000
 41
0.1676
 42
0.0559
 43
1.0000
 50
270.0000
  0
INSERT
  8
22
  2
RECT
 10
26.2165
 20
42.7099
 30
0.0000
 41
0.1676
 42
0.0559
 43
1.0000
 50
270.0000
  0
INSERT
  8
22
  2
RECT
 10
26.2165
 20
42.3747
 30
0.0000
 41
0.1676
 42
0.0559
 43
1.0000
 50
270.0000
  0
INSERT
  8
22
  2
RECT
 10
26.2165
 20
41.8717
 30
0.0000
 41
0.1676
 42
0.0559
 43
1.0000
 50
270.0000
  0
INSERT
  8
22
  2
RECT
 10
26.2165
 20
41.3688
 30
0.0000
 41
0.7264
 42
0.0559
 43
1.0000
 50
270.0000
  0
INSERT
  8
22
  2
RECT
 10
26.2165
 20
40.8100
 30
0.0000
 41
0.1676
 42
0.0559
 43
1.0000
 50
270.0000
  0
INSERT
  8
22
  2
RECT
 10
26.2165
 20
40.3071
 30
0.0000
 41
0.1676
 42
0.0559
 43
1.0000
 50
270.0000
  0
INSERT
  8
22
  2
RECT
 10
26.2165
 20
39.4130
 30
0.0000
 41
0.5029
 42
0.0559
 43
1.0000
 50
270.0000
  0
INSERT
  8
22
  2
RECT
 10
26.2165
 20
38.8822
 30
0.0000
 41
0.2235
 42
0.0559
 43
1.0000
 50
270.0000
  0
INSERT
  8
22
  2
RECT
 10
26.2165
 20
38.3513
 30
0.0000
 41
0.1676
 42
0.0559
 43
1.0000
 50
270.0000
  0
INSERT
  8
22
  2
RECT
 10
26.2165
 20
38.0719
 30
0.0000
 41
0.1676
 42
0.0559
 43
1.0000
 50
270.0000
  0
INSERT
  8
22
  2
RECT
 10
26.2165
 20
37.5690
 30
0.0000
 41
0.1676
 42
0.0559
 43
1.0000
 50
270.0000
  0
INSERT
  8
22
  2
RECT
 10
26.2165
 20
37.2337
 30
0.0000
 41
0.1676
 42
0.0559
 43
1.0000
 50
270.0000
  0
INSERT
  8
22
  2
RECT
 10
26.2165
 20
36.6749
 30
0.0000
 41
0.1676
 42
0.0559
 43
1.0000
 50
270.0000
  0
INSERT
  8
22
  2
RECT
 10
26.2165
 20
35.6970
 30
0.0000
 41
0.6706
 42
0.0559
 43
1.0000
 50
270.0000
  0
INSERT
  8
22
  2
RECT
 10
26.1606
 20
43.2129
 30
0.0000
 41
0.1676
 42
0.0559
 43
1.0000
 50
270.0000
  0
INSERT
  8
22
  2
RECT
 10
26.1606
 20
42.7099
 30
0.0000
 41
0.1676
 42
0.0559
 43
1.0000
 50
270.0000
  0
INSERT
  8
22
  2
RECT
 10
26.1606
 20
42.3747
 30
0.0000
 41
0.1676
 42
0.0559
 43
1.0000
 50
270.0000
  0
INSERT
  8
22
  2
RECT
 10
26.1606
 20
41.8997
 30
0.0000
 41
0.2235
 42
0.0559
 43
1.0000
 50
270.0000
  0
INSERT
  8
22
  2
RECT
 10
26.1606
 20
41.5924
 30
0.0000
 41
0.1676
 42
0.0559
 43
1.0000
 50
270.0000
  0
INSERT
  8
22
  2
RECT
 10
26.1606
 20
41.0894
 30
0.0000
 41
0.1676
 42
0.0559
 43
1.0000
 50
270.0000
  0
INSERT
  8
22
  2
RECT
 10
26.1606
 20
40.8100
 30
0.0000
 41
0.1676
 42
0.0559
 43
1.0000
 50
270.0000
  0
INSERT
  8
22
  2
RECT
 10
26.1606
 20
40.3071
 30
0.0000
 41
0.1676
 42
0.0559
 43
1.0000
 50
270.0000
  0
INSERT
  8
22
  2
RECT
 10
26.1606
 20
39.5527
 30
0.0000
 41
0.3353
 42
0.0559
 43
1.0000
 50
270.0000
  0
INSERT
  8
22
  2
RECT
 10
26.1606
 20
38.8542
 30
0.0000
 41
0.1676
 42
0.0559
 43
1.0000
 50
270.0000
  0
INSERT
  8
22
  2
RECT
 10
26.1606
 20
38.3513
 30
0.0000
 41
0.1676
 42
0.0559
 43
1.0000
 50
270.0000
  0
INSERT
  8
22
  2
RECT
 10
26.1606
 20
38.0719
 30
0.0000
 41
0.1676
 42
0.0559
 43
1.0000
 50
270.0000
  0
INSERT
  8
22
  2
RECT
 10
26.1606
 20
37.5690
 30
0.0000
 41
0.1676
 42
0.0559
 43
1.0000
 50
270.0000
  0
INSERT
  8
22
  2
RECT
 10
26.1606
 20
37.2337
 30
0.0000
 41
0.1676
 42
0.0559
 43
1.0000
 50
270.0000
  0
INSERT
  8
22
  2
RECT
 10
26.1606
 20
36.6749
 30
0.0000
 41
0.1676
 42
0.0559
 43
1.0000
 50
270.0000
  0
INSERT
  8
22
  2
RECT
 10
26.1606
 20
35.9485
 30
0.0000
 41
0.1676
 42
0.0559
 43
1.0000
 50
270.0000
  0
INSERT
  8
22
  2
RECT
 10
26.1606
 20
35.4456
 30
0.0000
 41
0.1676
 42
0.0559
 43
1.0000
 50
270.0000
  0
INSERT
  8
22
  2
RECT
 10
26.1047
 20
43.2129
 30
0.0000
 41
0.1676
 42
0.0559
 43
1.0000
 50
270.0000
  0
INSERT
  8
22
  2
RECT
 10
26.1047
 20
42.7099
 30
0.0000
 41
0.1676
 42
0.0559
 43
1.0000
 50
270.0000
  0
INSERT
  8
22
  2
RECT
 10
26.1047
 20
42.3747
 30
0.0000
 41
0.1676
 42
0.0559
 43
1.0000
 50
270.0000
  0
INSERT
  8
22
  2
RECT
 10
26.1047
 20
41.8997
 30
0.0000
 41
0.2235
 42
0.0559
 43
1.0000
 50
270.0000
  0
INSERT
  8
22
  2
RECT
 10
26.1047
 20
41.5924
 30
0.0000
 41
0.1676
 42
0.0559
 43
1.0000
 50
270.0000
  0
INSERT
  8
22
  2
RECT
 10
26.1047
 20
41.0894
 30
0.0000
 41
0.1676
 42
0.0559
 43
1.0000
 50
270.0000
  0
INSERT
  8
22
  2
RECT
 10
26.1047
 20
40.7821
 30
0.0000
 41
0.2235
 42
0.0559
 43
1.0000
 50
270.0000
  0
INSERT
  8
22
  2
RECT
 10
26.1047
 20
40.3071
 30
0.0000
 41
0.1676
 42
0.0559
 43
1.0000
 50
270.0000
  0
INSERT
  8
22
  2
RECT
 10
26.1047
 20
39.6365
 30
0.0000
 41
0.1676
 42
0.0559
 43
1.0000
 50
270.0000
  0
INSERT
  8
22
  2
RECT
 10
26.1047
 20
38.8542
 30
0.0000
 41
0.1676
 42
0.0559
 43
1.0000
 50
270.0000
  0
INSERT
  8
22
  2
RECT
 10
26.1047
 20
38.3792
 30
0.0000
 41
0.2235
 42
0.0559
 43
1.0000
 50
270.0000
  0
INSERT
  8
22
  2
RECT
 10
26.1047
 20
38.0719
 30
0.0000
 41
0.1676
 42
0.0559
 43
1.0000
 50
270.0000
  0
INSERT
  8
22
  2
RECT
 10
26.1047
 20
37.5690
 30
0.0000
 41
0.1676
 42
0.0559
 43
1.0000
 50
270.0000
  0
INSERT
  8
22
  2
RECT
 10
26.1047
 20
37.2337
 30
0.0000
 41
0.1676
 42
0.0559
 43
1.0000
 50
270.0000
  0
INSERT
  8
22
  2
RECT
 10
26.1047
 20
36.6749
 30
0.0000
 41
0.1676
 42
0.0559
 43
1.0000
 50
270.0000
  0
INSERT
  8
22
  2
RECT
 10
26.1047
 20
35.9485
 30
0.0000
 41
0.1676
 42
0.0559
 43
1.0000
 50
270.0000
  0
INSERT
  8
22
  2
RECT
 10
26.1047
 20
35.4456
 30
0.0000
 41
0.1676
 42
0.0559
 43
1.0000
 50
270.0000
  0
INSERT
  8
22
  2
RECT
 10
26.0488
 20
43.1849
 30
0.0000
 41
0.2235
 42
0.0559
 43
1.0000
 50
270.0000
  0
INSERT
  8
22
  2
RECT
 10
26.0488
 20
42.7379
 30
0.0000
 41
0.2235
 42
0.0559
 43
1.0000
 50
270.0000
  0
INSERT
  8
22
  2
RECT
 10
26.0488
 20
42.3747
 30
0.0000
 41
0.1676
 42
0.0559
 43
1.0000
 50
270.0000
  0
INSERT
  8
22
  2
RECT
 10
26.0488
 20
41.9276
 30
0.0000
 41
0.1676
 42
0.0559
 43
1.0000
 50
270.0000
  0
INSERT
  8
22
  2
RECT
 10
26.0488
 20
41.5924
 30
0.0000
 41
0.1676
 42
0.0559
 43
1.0000
 50
270.0000
  0
INSERT
  8
22
  2
RECT
 10
26.0488
 20
41.1174
 30
0.0000
 41
0.2235
 42
0.0559
 43
1.0000
 50
270.0000
  0
INSERT
  8
22
  2
RECT
 10
26.0488
 20
40.7821
 30
0.0000
 41
0.2235
 42
0.0559
 43
1.0000
 50
270.0000
  0
INSERT
  8
22
  2
RECT
 10
26.0488
 20
40.3351
 30
0.0000
 41
0.2235
 42
0.0559
 43
1.0000
 50
270.0000
  0
INSERT
  8
22
  2
RECT
 10
26.0488
 20
39.6365
 30
0.0000
 41
0.1676
 42
0.0559
 43
1.0000
 50
270.0000
  0
INSERT
  8
22
  2
RECT
 10
26.0488
 20
39.1895
 30
0.0000
 41
0.0559
 42
0.0559
 43
1.0000
 50
270.0000
  0
INSERT
  8
22
  2
RECT
 10
26.0488
 20
38.8542
 30
0.0000
 41
0.1676
 42
0.0559
 43
1.0000
 50
270.0000
  0
INSERT
  8
22
  2
RECT
 10
26.0488
 20
38.4072
 30
0.0000
 41
0.1676
 42
0.0559
 43
1.0000
 50
270.0000
  0
INSERT
  8
22
  2
RECT
 10
26.0488
 20
38.0719
 30
0.0000
 41
0.1676
 42
0.0559
 43
1.0000
 50
270.0000
  0
INSERT
  8
22
  2
RECT
 10
26.0488
 20
37.5690
 30
0.0000
 41
0.1676
 42
0.0559
 43
1.0000
 50
270.0000
  0
INSERT
  8
22
  2
RECT
 10
26.0488
 20
37.2058
 30
0.0000
 41
0.2235
 42
0.0559
 43
1.0000
 50
270.0000
  0
INSERT
  8
22
  2
RECT
 10
26.0488
 20
36.6470
 30
0.0000
 41
0.2235
 42
0.0559
 43
1.0000
 50
270.0000
  0
INSERT
  8
22
  2
RECT
 10
26.0488
 20
35.9485
 30
0.0000
 41
0.1676
 42
0.0559
 43
1.0000
 50
270.0000
  0
INSERT
  8
22
  2
RECT
 10
26.0488
 20
35.4735
 30
0.0000
 41
0.2235
 42
0.0559
 43
1.0000
 50
270.0000
  0
INSERT
  8
22
  2
RECT
 10
25.9930
 20
42.9335
 30
0.0000
 41
0.6147
 42
0.0559
 43
1.0000
 50
270.0000
  0
INSERT
  8
22
  2
RECT
 10
25.9930
 20
42.1512
 30
0.0000
 41
0.6147
 42
0.0559
 43
1.0000
 50
270.0000
  0
INSERT
  8
22
  2
RECT
 10
25.9930
 20
41.5365
 30
0.0000
 41
0.2794
 42
0.0559
 43
1.0000
 50
270.0000
  0
INSERT
  8
22
  2
RECT
 10
25.9930
 20
41.1733
 30
0.0000
 41
0.2235
 42
0.0559
 43
1.0000
 50
270.0000
  0
INSERT
  8
22
  2
RECT
 10
25.9930
 20
40.5586
 30
0.0000
 41
0.6706
 42
0.0559
 43
1.0000
 50
270.0000
  0
INSERT
  8
22
  2
RECT
 10
25.9930
 20
39.5807
 30
0.0000
 41
0.2794
 42
0.0559
 43
1.0000
 50
270.0000
  0
INSERT
  8
22
  2
RECT
 10
25.9930
 20
39.2174
 30
0.0000
 41
0.2235
 42
0.0559
 43
1.0000
 50
270.0000
  0
INSERT
  8
22
  2
RECT
 10
25.9930
 20
38.6307
 30
0.0000
 41
0.6147
 42
0.0559
 43
1.0000
 50
270.0000
  0
INSERT
  8
22
  2
RECT
 10
25.9930
 20
38.0719
 30
0.0000
 41
0.1676
 42
0.0559
 43
1.0000
 50
270.0000
  0
INSERT
  8
22
  2
RECT
 10
25.9930
 20
37.5690
 30
0.0000
 41
0.1676
 42
0.0559
 43
1.0000
 50
270.0000
  0
INSERT
  8
22
  2
RECT
 10
25.9930
 20
37.0661
 30
0.0000
 41
0.5029
 42
0.0559
 43
1.0000
 50
270.0000
  0
INSERT
  8
22
  2
RECT
 10
25.9930
 20
36.3955
 30
0.0000
 41
0.6147
 42
0.0559
 43
1.0000
 50
270.0000
  0
INSERT
  8
22
  2
RECT
 10
25.9930
 20
35.8647
 30
0.0000
 41
0.2235
 42
0.0559
 43
1.0000
 50
270.0000
  0
INSERT
  8
22
  2
RECT
 10
25.9930
 20
35.5294
 30
0.0000
 41
0.2235
 42
0.0559
 43
1.0000
 50
270.0000
  0
INSERT
  8
22
  2
RECT
 10
25.9371
 20
42.9614
 30
0.0000
 41
0.5588
 42
0.0559
 43
1.0000
 50
270.0000
  0
INSERT
  8
22
  2
RECT
 10
25.9371
 20
42.1512
 30
0.0000
 41
0.6147
 42
0.0559
 43
1.0000
 50
270.0000
  0
INSERT
  8
22
  2
RECT
 10
25.9371
 20
41.3688
 30
0.0000
 41
0.5029
 42
0.0559
 43
1.0000
 50
270.0000
  0
INSERT
  8
22
  2
RECT
 10
25.9371
 20
40.5865
 30
0.0000
 41
0.6147
 42
0.0559
 43
1.0000
 50
270.0000
  0
INSERT
  8
22
  2
RECT
 10
25.9371
 20
39.3572
 30
0.0000
 41
0.6147
 42
0.0559
 43
1.0000
 50
270.0000
  0
INSERT
  8
22
  2
RECT
 10
25.9371
 20
38.6307
 30
0.0000
 41
0.5029
 42
0.0559
 43
1.0000
 50
270.0000
  0
INSERT
  8
22
  2
RECT
 10
25.9371
 20
38.0719
 30
0.0000
 41
0.1676
 42
0.0559
 43
1.0000
 50
270.0000
  0
INSERT
  8
22
  2
RECT
 10
25.9371
 20
37.5690
 30
0.0000
 41
0.1676
 42
0.0559
 43
1.0000
 50
270.0000
  0
INSERT
  8
22
  2
RECT
 10
25.9371
 20
37.0381
 30
0.0000
 41
0.5588
 42
0.0559
 43
1.0000
 50
270.0000
  0
INSERT
  8
22
  2
RECT
 10
25.9371
 20
36.3676
 30
0.0000
 41
0.5588
 42
0.0559
 43
1.0000
 50
270.0000
  0
INSERT
  8
22
  2
RECT
 10
25.9371
 20
35.6970
 30
0.0000
 41
0.5588
 42
0.0559
 43
1.0000
 50
270.0000
  0
INSERT
  8
22
  2
RECT
 10
25.8812
 20
42.9614
 30
0.0000
 41
0.4470
 42
0.0559
 43
1.0000
 50
270.0000
  0
INSERT
  8
22
  2
RECT
 10
25.8812
 20
42.1791
 30
0.0000
 41
0.5588
 42
0.0559
 43
1.0000
 50
270.0000
  0
INSERT
  8
22
  2
RECT
 10
25.8812
 20
41.3688
 30
0.0000
 41
0.3912
 42
0.0559
 43
1.0000
 50
270.0000
  0
INSERT
  8
22
  2
RECT
 10
25.8812
 20
40.8100
 30
0.0000
 41
0.1676
 42
0.0559
 43
1.0000
 50
270.0000
  0
INSERT
  8
22
  2
RECT
 10
25.8812
 20
40.5027
 30
0.0000
 41
0.3353
 42
0.0559
 43
1.0000
 50
270.0000
  0
INSERT
  8
22
  2
RECT
 10
25.8812
 20
39.3851
 30
0.0000
 41
0.4470
 42
0.0559
 43
1.0000
 50
270.0000
  0
INSERT
  8
22
  2
RECT
 10
25.8812
 20
38.6307
 30
0.0000
 41
0.3912
 42
0.0559
 43
1.0000
 50
270.0000
  0
INSERT
  8
22
  2
RECT
 10
25.8812
 20
38.0719
 30
0.0000
 41
0.1676
 42
0.0559
 43
1.0000
 50
270.0000
  0
INSERT
  8
22
  2
RECT
 10
25.8812
 20
37.5690
 30
0.0000
 41
0.1676
 42
0.0559
 43
1.0000
 50
270.0000
  0
INSERT
  8
22
  2
RECT
 10
25.8812
 20
37.2337
 30
0.0000
 41
0.1676
 42
0.0559
 43
1.0000
 50
270.0000
  0
INSERT
  8
22
  2
RECT
 10
25.8812
 20
36.9264
 30
0.0000
 41
0.3353
 42
0.0559
 43
1.0000
 50
270.0000
  0
INSERT
  8
22
  2
RECT
 10
25.8812
 20
36.3955
 30
0.0000
 41
0.3912
 42
0.0559
 43
1.0000
 50
270.0000
  0
INSERT
  8
22
  2
RECT
 10
25.8812
 20
35.6970
 30
0.0000
 41
0.4470
 42
0.0559
 43
1.0000
 50
270.0000
  0
INSERT
  8
22
  2
RECT
 10
25.8253
 20
42.9614
 30
0.0000
 41
0.1118
 42
0.0559
 43
1.0000
 50
270.0000
  0
INSERT
  8
22
  2
RECT
 10
25.8253
 20
40.5027
 30
0.0000
 41
0.1118
 42
0.0559
 43
1.0000
 50
270.0000
  0
INSERT
  8
22
  2
RECT
 10
25.8253
 20
39.3851
 30
0.0000
 41
0.1118
 42
0.0559
 43
1.0000
 50
270.0000
  0
INSERT
  8
22
  2
RECT
 10
25.8253
 20
38.6028
 30
0.0000
 41
0.1118
 42
0.0559
 43
1.0000
 50
270.0000
  0
INSERT
  8
22
  2
RECT
 10
25.8253
 20
36.3676
 30
0.0000
 41
0.1118
 42
0.0559
 43
1.0000
 50
270.0000
  0
INSERT
  8
22
  2
RECT
 10
25.8253
 20
35.6970
 30
0.0000
 41
0.1118
 42
0.0559
 43
1.0000
 50
270.0000
  0
INSERT
  8
22
  2
RECT
 10
25.1547
 20
41.2012
 30
0.0000
 41
0.1676
 42
0.0559
 43
1.0000
 50
270.0000
  0
INSERT
  8
22
  2
RECT
 10
25.1547
 20
37.4572
 30
0.0000
 41
0.1676
 42
0.0559
 43
1.0000
 50
270.0000
  0
INSERT
  8
22
  2
RECT
 10
25.0989
 20
41.2012
 30
0.0000
 41
0.2794
 42
0.0559
 43
1.0000
 50
270.0000
  0
INSERT
  8
22
  2
RECT
 10
25.0989
 20
37.4572
 30
0.0000
 41
0.2794
 42
0.0559
 43
1.0000
 50
270.0000
  0
INSERT
  8
22
  2
RECT
 10
25.0430
 20
41.1733
 30
0.0000
 41
0.4470
 42
0.0559
 43
1.0000
 50
270.0000
  0
INSERT
  8
22
  2
RECT
 10
25.0430
 20
37.4852
 30
0.0000
 41
0.4470
 42
0.0559
 43
1.0000
 50
270.0000
  0
INSERT
  8
22
  2
RECT
 10
24.9871
 20
41.1733
 30
0.0000
 41
0.5588
 42
0.0559
 43
1.0000
 50
270.0000
  0
INSERT
  8
22
  2
RECT
 10
24.9871
 20
37.4852
 30
0.0000
 41
0.5588
 42
0.0559
 43
1.0000
 50
270.0000
  0
INSERT
  8
22
  2
RECT
 10
24.9312
 20
41.1453
 30
0.0000
 41
0.7264
 42
0.0559
 43
1.0000
 50
270.0000
  0
INSERT
  8
22
  2
RECT
 10
24.9312
 20
37.5131
 30
0.0000
 41
0.7264
 42
0.0559
 43
1.0000
 50
270.0000
  0
INSERT
  8
22
  2
RECT
 10
24.8754
 20
41.1453
 30
0.0000
 41
0.8382
 42
0.0559
 43
1.0000
 50
270.0000
  0
INSERT
  8
22
  2
RECT
 10
24.8754
 20
40.2792
 30
0.0000
 41
0.1118
 42
0.0559
 43
1.0000
 50
270.0000
  0
INSERT
  8
22
  2
RECT
 10
24.8754
 20
38.3792
 30
0.0000
 41
0.1118
 42
0.0559
 43
1.0000
 50
270.0000
  0
INSERT
  8
22
  2
RECT
 10
24.8754
 20
37.5131
 30
0.0000
 41
0.8382
 42
0.0559
 43
1.0000
 50
270.0000
  0
INSERT
  8
22
  2
RECT
 10
24.8195
 20
41.1174
 30
0.0000
 41
1.0058
 42
0.0559
 43
1.0000
 50
270.0000
  0
INSERT
  8
22
  2
RECT
 10
24.8195
 20
40.3071
 30
0.0000
 41
0.2794
 42
0.0559
 43
1.0000
 50
270.0000
  0
INSERT
  8
22
  2
RECT
 10
24.8195
 20
38.3513
 30
0.0000
 41
0.2794
 42
0.0559
 43
1.0000
 50
270.0000
  0
INSERT
  8
22
  2
RECT
 10
24.8195
 20
37.5410
 30
0.0000
 41
1.0058
 42
0.0559
 43
1.0000
 50
270.0000
  0
INSERT
  8
22
  2
RECT
 10
24.7636
 20
40.9218
 30
0.0000
 41
1.5088
 42
0.0559
 43
1.0000
 50
270.0000
  0
INSERT
  8
22
  2
RECT
 10
24.7636
 20
37.7366
 30
0.0000
 41
1.5088
 42
0.0559
 43
1.0000
 50
270.0000
  0
INSERT
  8
22
  2
RECT
 10
24.7077
 20
40.9218
 30
0.0000
 41
1.6205
 42
0.0559
 43
1.0000
 50
270.0000
  0
INSERT
  8
22
  2
RECT
 10
24.7077
 20
37.7366
 30
0.0000
 41
1.6205
 42
0.0559
 43
1.0000
 50
270.0000
  0
INSERT
  8
22
  2
RECT
 10
24.6518
 20
40.9497
 30
0.0000
 41
1.6764
 42
0.0559
 43
1.0000
 50
270.0000
  0
INSERT
  8
22
  2
RECT
 10
24.6518
 20
37.7087
 30
0.0000
 41
1.6764
 42
0.0559
 43
1.0000
 50
270.0000
  0
INSERT
  8
22
  2
RECT
 10
24.5960
 20
40.9497
 30
0.0000
 41
1.6764
 42
0.0559
 43
1.0000
 50
270.0000
  0
INSERT
  8
22
  2
RECT
 10
24.5960
 20
37.7087
 30
0.0000
 41
1.6764
 42
0.0559
 43
1.0000
 50
270.0000
  0
INSERT
  8
22
  2
RECT
 10
24.5401
 20
40.9218
 30
0.0000
 41
1.7323
 42
0.0559
 43
1.0000
 50
270.0000
  0
INSERT
  8
22
  2
RECT
 10
24.5401
 20
37.7366
 30
0.0000
 41
1.7323
 42
0.0559
 43
1.0000
 50
270.0000
  0
INSERT
  8
22
  2
RECT
 10
24.4842
 20
40.8939
 30
0.0000
 41
1.6764
 42
0.0559
 43
1.0000
 50
270.0000
  0
INSERT
  8
22
  2
RECT
 10
24.4842
 20
37.7646
 30
0.0000
 41
1.6764
 42
0.0559
 43
1.0000
 50
270.0000
  0
INSERT
  8
22
  2
RECT
 10
24.4283
 20
40.8380
 30
0.0000
 41
1.6764
 42
0.0559
 43
1.0000
 50
270.0000
  0
INSERT
  8
22
  2
RECT
 10
24.4283
 20
37.8205
 30
0.0000
 41
1.6764
 42
0.0559
 43
1.0000
 50
270.0000
  0
INSERT
  8
22
  2
RECT
 10
24.3724
 20
40.8380
 30
0.0000
 41
1.6764
 42
0.0559
 43
1.0000
 50
270.0000
  0
INSERT
  8
22
  2
RECT
 10
24.3724
 20
37.8205
 30
0.0000
 41
1.6764
 42
0.0559
 43
1.0000
 50
270.0000
  0
INSERT
  8
22
  2
RECT
 10
24.3165
 20
40.7821
 30
0.0000
 41
1.6764
 42
0.0559
 43
1.0000
 50
270.0000
  0
INSERT
  8
22
  2
RECT
 10
24.3165
 20
37.8763
 30
0.0000
 41
1.6764
 42
0.0559
 43
1.0000
 50
270.0000
  0
INSERT
  8
22
  2
RECT
 10
24.2607
 20
40.7542
 30
0.0000
 41
1.6205
 42
0.0559
 43
1.0000
 50
270.0000
  0
INSERT
  8
22
  2
RECT
 10
24.2607
 20
37.9043
 30
0.0000
 41
1.6205
 42
0.0559
 43
1.0000
 50
270.0000
  0
INSERT
  8
22
  2
RECT
 10
24.2048
 20
40.7262
 30
0.0000
 41
1.5646
 42
0.0559
 43
1.0000
 50
270.0000
  0
INSERT
  8
22
  2
RECT
 10
24.2048
 20
37.9322
 30
0.0000
 41
1.5646
 42
0.0559
 43
1.0000
 50
270.0000
  0
INSERT
  8
22
  2
RECT
 10
24.1489
 20
40.6983
 30
0.0000
 41
1.6205
 42
0.0559
 43
1.0000
 50
270.0000
  0
INSERT
  8
22
  2
RECT
 10
24.1489
 20
37.9601
 30
0.0000
 41
1.6205
 42
0.0559
 43
1.0000
 50
270.0000
  0
INSERT
  8
22
  2
RECT
 10
24.0930
 20
40.6703
 30
0.0000
 41
1.5646
 42
0.0559
 43
1.0000
 50
270.0000
  0
INSERT
  8
22
  2
RECT
 10
24.0930
 20
37.9881
 30
0.0000
 41
1.5646
 42
0.0559
 43
1.0000
 50
270.0000
  0
INSERT
  8
22
  2
RECT
 10
24.0372
 20
40.6145
 30
0.0000
 41
1.5646
 42
0.0559
 43
1.0000
 50
270.0000
  0
INSERT
  8
22
  2
RECT
 10
24.0372
 20
38.0440
 30
0.0000
 41
1.5646
 42
0.0559
 43
1.0000
 50
270.0000
  0
INSERT
  8
22
  2
RECT
 10
23.9813
 20
40.6145
 30
0.0000
 41
1.5646
 42
0.0559
 43
1.0000
 50
270.0000
  0
INSERT
  8
22
  2
RECT
 10
23.9813
 20
38.0440
 30
0.0000
 41
1.5646
 42
0.0559
 43
1.0000
 50
270.0000
  0
INSERT
  8
22
  2
RECT
 10
23.9254
 20
40.5865
 30
0.0000
 41
1.5088
 42
0.0559
 43
1.0000
 50
270.0000
  0
INSERT
  8
22
  2
RECT
 10
23.9254
 20
38.0719
 30
0.0000
 41
1.5088
 42
0.0559
 43
1.0000
 50
270.0000
  0
INSERT
  8
22
  2
RECT
 10
23.8695
 20
40.5865
 30
0.0000
 41
1.6205
 42
0.0559
 43
1.0000
 50
270.0000
  0
INSERT
  8
22
  2
RECT
 10
23.8695
 20
38.0719
 30
0.0000
 41
1.6205
 42
0.0559
 43
1.0000
 50
270.0000
  0
INSERT
  8
22
  2
RECT
 10
23.8136
 20
40.5865
 30
0.0000
 41
1.6205
 42
0.0559
 43
1.0000
 50
270.0000
  0
INSERT
  8
22
  2
RECT
 10
23.8136
 20
38.0719
 30
0.0000
 41
1.6205
 42
0.0559
 43
1.0000
 50
270.0000
  0
INSERT
  8
22
  2
RECT
 10
23.7578
 20
40.5865
 30
0.0000
 41
1.7323
 42
0.0559
 43
1.0000
 50
270.0000
  0
INSERT
  8
22
  2
RECT
 10
23.7578
 20
38.0719
 30
0.0000
 41
1.7323
 42
0.0559
 43
1.0000
 50
270.0000
  0
INSERT
  8
22
  2
RECT
 10
23.7019
 20
40.5865
 30
0.0000
 41
1.7323
 42
0.0559
 43
1.0000
 50
270.0000
  0
INSERT
  8
22
  2
RECT
 10
23.7019
 20
38.0719
 30
0.0000
 41
1.7323
 42
0.0559
 43
1.0000
 50
270.0000
  0
INSERT
  8
22
  2
RECT
 10
23.6460
 20
40.5586
 30
0.0000
 41
1.7882
 42
0.0559
 43
1.0000
 50
270.0000
  0
INSERT
  8
22
  2
RECT
 10
23.6460
 20
38.0999
 30
0.0000
 41
1.7882
 42
0.0559
 43
1.0000
 50
270.0000
  0
INSERT
  8
22
  2
RECT
 10
23.5901
 20
40.5865
 30
0.0000
 41
1.8440
 42
0.0559
 43
1.0000
 50
270.0000
  0
INSERT
  8
22
  2
RECT
 10
23.5901
 20
38.0719
 30
0.0000
 41
1.8440
 42
0.0559
 43
1.0000
 50
270.0000
  0
INSERT
  8
22
  2
RECT
 10
23.5342
 20
40.5865
 30
0.0000
 41
1.8440
 42
0.0559
 43
1.0000
 50
270.0000
  0
INSERT
  8
22
  2
RECT
 10
23.5342
 20
38.0719
 30
0.0000
 41
1.8440
 42
0.0559
 43
1.0000
 50
270.0000
  0
INSERT
  8
22
  2
RECT
 10
23.4784
 20
40.6703
 30
0.0000
 41
1.7882
 42
0.0559
 43
1.0000
 50
270.0000
  0
INSERT
  8
22
  2
RECT
 10
23.4784
 20
37.9881
 30
0.0000
 41
1.7882
 42
0.0559
 43
1.0000
 50
270.0000
  0
INSERT
  8
22
  2
RECT
 10
23.4225
 20
40.6983
 30
0.0000
 41
1.7323
 42
0.0559
 43
1.0000
 50
270.0000
  0
INSERT
  8
22
  2
RECT
 10
23.4225
 20
37.9601
 30
0.0000
 41
1.7323
 42
0.0559
 43
1.0000
 50
270.0000
  0
INSERT
  8
22
  2
RECT
 10
23.3666
 20
40.7262
 30
0.0000
 41
1.6764
 42
0.0559
 43
1.0000
 50
270.0000
  0
INSERT
  8
22
  2
RECT
 10
23.3666
 20
37.9322
 30
0.0000
 41
1.6764
 42
0.0559
 43
1.0000
 50
270.0000
  0
INSERT
  8
22
  2
RECT
 10
23.3107
 20
40.7821
 30
0.0000
 41
1.6764
 42
0.0559
 43
1.0000
 50
270.0000
  0
INSERT
  8
22
  2
RECT
 10
23.3107
 20
37.8763
 30
0.0000
 41
1.6764
 42
0.0559
 43
1.0000
 50
270.0000
  0
INSERT
  8
22
  2
RECT
 10
23.2548
 20
40.9497
 30
0.0000
 41
1.8999
 42
0.0559
 43
1.0000
 50
270.0000
  0
INSERT
  8
22
  2
RECT
 10
23.2548
 20
37.7087
 30
0.0000
 41
1.8999
 42
0.0559
 43
1.0000
 50
270.0000
  0
INSERT
  8
22
  2
RECT
 10
23.1989
 20
41.1174
 30
0.0000
 41
2.1234
 42
0.0559
 43
1.0000
 50
270.0000
  0
INSERT
  8
22
  2
RECT
 10
23.1989
 20
37.5410
 30
0.0000
 41
2.1234
 42
0.0559
 43
1.0000
 50
270.0000
  0
INSERT
  8
22
  2
RECT
 10
23.1431
 20
41.2571
 30
0.0000
 41
2.2911
 42
0.0559
 43
1.0000
 50
270.0000
  0
INSERT
  8
22
  2
RECT
 10
23.1431
 20
37.4014
 30
0.0000
 41
2.2911
 42
0.0559
 43
1.0000
 50
270.0000
  0
INSERT
  8
22
  2
RECT
 10
23.0872
 20
41.2571
 30
0.0000
 41
2.2911
 42
0.0559
 43
1.0000
 50
270.0000
  0
INSERT
  8
22
  2
RECT
 10
23.0872
 20
37.4014
 30
0.0000
 41
2.2911
 42
0.0559
 43
1.0000
 50
270.0000
  0
INSERT
  8
22
  2
RECT
 10
23.0313
 20
41.2571
 30
0.0000
 41
2.2911
 42
0.0559
 43
1.0000
 50
270.0000
  0
INSERT
  8
22
  2
RECT
 10
23.0313
 20
37.4014
 30
0.0000
 41
2.2911
 42
0.0559
 43
1.0000
 50
270.0000
  0
INSERT
  8
22
  2
RECT
 10
22.9754
 20
41.2850
 30
0.0000
 41
2.2352
 42
0.0559
 43
1.0000
 50
270.0000
  0
INSERT
  8
22
  2
RECT
 10
22.9754
 20
37.3734
 30
0.0000
 41
2.2352
 42
0.0559
 43
1.0000
 50
270.0000
  0
INSERT
  8
22
  2
RECT
 10
22.9196
 20
41.2850
 30
0.0000
 41
2.2352
 42
0.0559
 43
1.0000
 50
270.0000
  0
INSERT
  8
22
  2
RECT
 10
22.9196
 20
37.3734
 30
0.0000
 41
2.2352
 42
0.0559
 43
1.0000
 50
270.0000
  0
INSERT
  8
22
  2
RECT
 10
22.8637
 20
41.2850
 30
0.0000
 41
2.2352
 42
0.0559
 43
1.0000
 50
270.0000
  0
INSERT
  8
22
  2
RECT
 10
22.8637
 20
37.3734
 30
0.0000
 41
2.2352
 42
0.0559
 43
1.0000
 50
270.0000
  0
INSERT
  8
22
  2
RECT
 10
22.8078
 20
41.2850
 30
0.0000
 41
2.2352
 42
0.0559
 43
1.0000
 50
270.0000
  0
INSERT
  8
22
  2
RECT
 10
22.8078
 20
37.3734
 30
0.0000
 41
2.2352
 42
0.0559
 43
1.0000
 50
270.0000
  0
INSERT
  8
22
  2
RECT
 10
22.7519
 20
41.2850
 30
0.0000
 41
2.2352
 42
0.0559
 43
1.0000
 50
270.0000
  0
INSERT
  8
22
  2
RECT
 10
22.7519
 20
37.3734
 30
0.0000
 41
2.2352
 42
0.0559
 43
1.0000
 50
270.0000
  0
INSERT
  8
22
  2
RECT
 10
22.6960
 20
41.2850
 30
0.0000
 41
2.2352
 42
0.0559
 43
1.0000
 50
270.0000
  0
INSERT
  8
22
  2
RECT
 10
22.6960
 20
37.3734
 30
0.0000
 41
2.2352
 42
0.0559
 43
1.0000
 50
270.0000
  0
INSERT
  8
22
  2
RECT
 10
22.6402
 20
41.2850
 30
0.0000
 41
2.2352
 42
0.0559
 43
1.0000
 50
270.0000
  0
INSERT
  8
22
  2
RECT
 10
22.6402
 20
37.3734
 30
0.0000
 41
2.2352
 42
0.0559
 43
1.0000
 50
270.0000
  0
INSERT
  8
22
  2
RECT
 10
22.5843
 20
41.2850
 30
0.0000
 41
2.2352
 42
0.0559
 43
1.0000
 50
270.0000
  0
INSERT
  8
22
  2
RECT
 10
22.5843
 20
37.3734
 30
0.0000
 41
2.2352
 42
0.0559
 43
1.0000
 50
270.0000
  0
INSERT
  8
22
  2
RECT
 10
22.5284
 20
41.2850
 30
0.0000
 41
2.2352
 42
0.0559
 43
1.0000
 50
270.0000
  0
INSERT
  8
22
  2
RECT
 10
22.5284
 20
37.3734
 30
0.0000
 41
2.2352
 42
0.0559
 43
1.0000
 50
270.0000
  0
INSERT
  8
22
  2
RECT
 10
22.4725
 20
41.2850
 30
0.0000
 41
2.2352
 42
0.0559
 43
1.0000
 50
270.0000
  0
INSERT
  8
22
  2
RECT
 10
22.4725
 20
37.3734
 30
0.0000
 41
2.2352
 42
0.0559
 43
1.0000
 50
270.0000
  0
INSERT
  8
22
  2
RECT
 10
22.4166
 20
41.2571
 30
0.0000
 41
2.2911
 42
0.0559
 43
1.0000
 50
270.0000
  0
INSERT
  8
22
  2
RECT
 10
22.4166
 20
37.4014
 30
0.0000
 41
2.2911
 42
0.0559
 43
1.0000
 50
270.0000
  0
INSERT
  8
22
  2
RECT
 10
22.3607
 20
41.2571
 30
0.0000
 41
2.2911
 42
0.0559
 43
1.0000
 50
270.0000
  0
INSERT
  8
22
  2
RECT
 10
22.3607
 20
37.4014
 30
0.0000
 41
2.2911
 42
0.0559
 43
1.0000
 50
270.0000
  0
INSERT
  8
22
  2
RECT
 10
22.3049
 20
41.2291
 30
0.0000
 41
2.3470
 42
0.0559
 43
1.0000
 50
270.0000
  0
INSERT
  8
22
  2
RECT
 10
22.3049
 20
37.4293
 30
0.0000
 41
2.3470
 42
0.0559
 43
1.0000
 50
270.0000
  0
INSERT
  8
22
  2
RECT
 10
22.2490
 20
41.0615
 30
0.0000
 41
2.0117
 42
0.0559
 43
1.0000
 50
270.0000
  0
INSERT
  8
22
  2
RECT
 10
22.2490
 20
37.5969
 30
0.0000
 41
2.0117
 42
0.0559
 43
1.0000
 50
270.0000
  0
INSERT
  8
22
  2
RECT
 10
22.1931
 20
40.8939
 30
0.0000
 41
1.7882
 42
0.0559
 43
1.0000
 50
270.0000
  0
INSERT
  8
22
  2
RECT
 10
22.1931
 20
37.7646
 30
0.0000
 41
1.7882
 42
0.0559
 43
1.0000
 50
270.0000
  0
INSERT
  8
22
  2
RECT
 10
22.1372
 20
40.7542
 30
0.0000
 41
1.6205
 42
0.0559
 43
1.0000
 50
270.0000
  0
INSERT
  8
22
  2
RECT
 10
22.1372
 20
37.9043
 30
0.0000
 41
1.6205
 42
0.0559
 43
1.0000
 50
270.0000
  0
INSERT
  8
22
  2
RECT
 10
22.0814
 20
40.7262
 30
0.0000
 41
1.6764
 42
0.0559
 43
1.0000
 50
270.0000
  0
INSERT
  8
22
  2
RECT
 10
22.0814
 20
37.9322
 30
0.0000
 41
1.6764
 42
0.0559
 43
1.0000
 50
270.0000
  0
INSERT
  8
22
  2
RECT
 10
22.0255
 20
40.6703
 30
0.0000
 41
1.6764
 42
0.0559
 43
1.0000
 50
270.0000
  0
INSERT
  8
22
  2
RECT
 10
22.0255
 20
37.9881
 30
0.0000
 41
1.6764
 42
0.0559
 43
1.0000
 50
270.0000
  0
INSERT
  8
22
  2
RECT
 10
21.9696
 20
40.6145
 30
0.0000
 41
1.7882
 42
0.0559
 43
1.0000
 50
270.0000
  0
INSERT
  8
22
  2
RECT
 10
21.9696
 20
38.0440
 30
0.0000
 41
1.7882
 42
0.0559
 43
1.0000
 50
270.0000
  0
INSERT
  8
22
  2
RECT
 10
21.9137
 20
40.5306
 30
0.0000
 41
1.9558
 42
0.0559
 43
1.0000
 50
270.0000
  0
INSERT
  8
22
  2
RECT
 10
21.9137
 20
38.1278
 30
0.0000
 41
1.9558
 42
0.0559
 43
1.0000
 50
270.0000
  0
INSERT
  8
22
  2
RECT
 10
21.8578
 20
39.3292
 30
0.0000
 41
4.2469
 42
0.0559
 43
1.0000
 50
270.0000
  0
INSERT
  8
22
  2
RECT
 10
21.8020
 20
39.3292
 30
0.0000
 41
4.2469
 42
0.0559
 43
1.0000
 50
270.0000
  0
INSERT
  8
22
  2
RECT
 10
21.7461
 20
39.3292
 30
0.0000
 41
4.1351
 42
0.0559
 43
1.0000
 50
270.0000
  0
INSERT
  8
22
  2
RECT
 10
21.6902
 20
39.3292
 30
0.0000
 41
4.1351
 42
0.0559
 43
1.0000
 50
270.0000
  0
INSERT
  8
22
  2
RECT
 10
21.6343
 20
39.3292
 30
0.0000
 41
4.1351
 42
0.0559
 43
1.0000
 50
270.0000
  0
INSERT
  8
22
  2
RECT
 10
21.5784
 20
39.3292
 30
0.0000
 41
4.0234
 42
0.0559
 43
1.0000
 50
270.0000
  0
INSERT
  8
22
  2
RECT
 10
21.5226
 20
39.3292
 30
0.0000
 41
4.0234
 42
0.0559
 43
1.0000
 50
270.0000
  0
INSERT
  8
22
  2
RECT
 10
21.4667
 20
39.3292
 30
0.0000
 41
4.1351
 42
0.0559
 43
1.0000
 50
270.0000
  0
INSERT
  8
22
  2
RECT
 10
21.4108
 20
39.3292
 30
0.0000
 41
4.2469
 42
0.0559
 43
1.0000
 50
270.0000
  0
INSERT
  8
22
  2
RECT
 10
21.3549
 20
39.3292
 30
0.0000
 41
4.2469
 42
0.0559
 43
1.0000
 50
270.0000
  0
INSERT
  8
22
  2
RECT
 10
21.2990
 20
39.3292
 30
0.0000
 41
4.3586
 42
0.0559
 43
1.0000
 50
270.0000
  0
INSERT
  8
22
  2
RECT
 10
21.2431
 20
39.3292
 30
0.0000
 41
4.4704
 42
0.0559
 43
1.0000
 50
270.0000
  0
INSERT
  8
22
  2
RECT
 10
21.1873
 20
39.3292
 30
0.0000
 41
4.4704
 42
0.0559
 43
1.0000
 50
270.0000
  0
INSERT
  8
22
  2
RECT
 10
21.1314
 20
39.3292
 30
0.0000
 41
4.5822
 42
0.0559
 43
1.0000
 50
270.0000
  0
INSERT
  8
22
  2
RECT
 10
21.0755
 20
39.3292
 30
0.0000
 41
4.6939
 42
0.0559
 43
1.0000
 50
270.0000
  0
INSERT
  8
22
  2
RECT
 10
21.0196
 20
39.3292
 30
0.0000
 41
4.8057
 42
0.0559
 43
1.0000
 50
270.0000
  0
INSERT
  8
22
  2
RECT
 10
20.9638
 20
39.3292
 30
0.0000
 41
4.8057
 42
0.0559
 43
1.0000
 50
270.0000
  0
INSERT
  8
22
  2
RECT
 10
20.9079
 20
39.3292
 30
0.0000
 41
4.9174
 42
0.0559
 43
1.0000
 50
270.0000
  0
INSERT
  8
22
  2
RECT
 10
20.8520
 20
39.3292
 30
0.0000
 41
4.9174
 42
0.0559
 43
1.0000
 50
270.0000
  0
INSERT
  8
22
  2
RECT
 10
20.7961
 20
39.3292
 30
0.0000
 41
4.8057
 42
0.0559
 43
1.0000
 50
270.0000
  0
INSERT
  8
22
  2
RECT
 10
20.7402
 20
39.3292
 30
0.0000
 41
4.6939
 42
0.0559
 43
1.0000
 50
270.0000
  0
INSERT
  8
22
  2
RECT
 10
20.6844
 20
41.0894
 30
0.0000
 41
1.0617
 42
0.0559
 43
1.0000
 50
270.0000
  0
INSERT
  8
22
  2
RECT
 10
20.6844
 20
39.3292
 30
0.0000
 41
2.1234
 42
0.0559
 43
1.0000
 50
270.0000
  0
INSERT
  8
22
  2
RECT
 10
20.6844
 20
37.5690
 30
0.0000
 41
1.0617
 42
0.0559
 43
1.0000
 50
270.0000
  0
INSERT
  8
22
  2
RECT
 10
20.6285
 20
41.1174
 30
0.0000
 41
0.8941
 42
0.0559
 43
1.0000
 50
270.0000
  0
INSERT
  8
22
  2
RECT
 10
20.6285
 20
39.3292
 30
0.0000
 41
1.7882
 42
0.0559
 43
1.0000
 50
270.0000
  0
INSERT
  8
22
  2
RECT
 10
20.6285
 20
37.5410
 30
0.0000
 41
0.8941
 42
0.0559
 43
1.0000
 50
270.0000
  0
INSERT
  8
22
  2
RECT
 10
20.5726
 20
41.1174
 30
0.0000
 41
0.7823
 42
0.0559
 43
1.0000
 50
270.0000
  0
INSERT
  8
22
  2
RECT
 10
20.5726
 20
39.3292
 30
0.0000
 41
1.5646
 42
0.0559
 43
1.0000
 50
270.0000
  0
INSERT
  8
22
  2
RECT
 10
20.5726
 20
37.5410
 30
0.0000
 41
0.7823
 42
0.0559
 43
1.0000
 50
270.0000
  0
INSERT
  8
22
  2
RECT
 10
20.5167
 20
41.1453
 30
0.0000
 41
0.6147
 42
0.0559
 43
1.0000
 50
270.0000
  0
INSERT
  8
22
  2
RECT
 10
20.5167
 20
39.3292
 30
0.0000
 41
1.2294
 42
0.0559
 43
1.0000
 50
270.0000
  0
INSERT
  8
22
  2
RECT
 10
20.5167
 20
37.5131
 30
0.0000
 41
0.6147
 42
0.0559
 43
1.0000
 50
270.0000
  0
INSERT
  8
22
  2
RECT
 10
20.4608
 20
41.1453
 30
0.0000
 41
0.5029
 42
0.0559
 43
1.0000
 50
270.0000
  0
INSERT
  8
22
  2
RECT
 10
20.4608
 20
39.3292
 30
0.0000
 41
1.1176
 42
0.0559
 43
1.0000
 50
270.0000
  0
INSERT
  8
22
  2
RECT
 10
20.4608
 20
37.5131
 30
0.0000
 41
0.5029
 42
0.0559
 43
1.0000
 50
270.0000
  0
INSERT
  8
22
  2
RECT
 10
20.4049
 20
41.1733
 30
0.0000
 41
0.3353
 42
0.0559
 43
1.0000
 50
270.0000
  0
INSERT
  8
22
  2
RECT
 10
20.4049
 20
39.3292
 30
0.0000
 41
1.1176
 42
0.0559
 43
1.0000
 50
270.0000
  0
INSERT
  8
22
  2
RECT
 10
20.4049
 20
37.4852
 30
0.0000
 41
0.3353
 42
0.0559
 43
1.0000
 50
270.0000
  0
INSERT
  8
22
  2
RECT
 10
20.3491
 20
41.1733
 30
0.0000
 41
0.2235
 42
0.0559
 43
1.0000
 50
270.0000
  0
INSERT
  8
22
  2
RECT
 10
20.3491
 20
39.3292
 30
0.0000
 41
1.1176
 42
0.0559
 43
1.0000
 50
270.0000
  0
INSERT
  8
22
  2
RECT
 10
20.3491
 20
37.4852
 30
0.0000
 41
0.2235
 42
0.0559
 43
1.0000
 50
270.0000
  0
INSERT
  8
22
  2
RECT
 10
20.2932
 20
41.2012
 30
0.0000
 41
0.0559
 42
0.0559
 43
1.0000
 50
270.0000
  0
INSERT
  8
22
  2
RECT
 10
20.2932
 20
39.3292
 30
0.0000
 41
1.1176
 42
0.0559
 43
1.0000
 50
270.0000
  0
INSERT
  8
22
  2
RECT
 10
20.2932
 20
37.4572
 30
0.0000
 41
0.0559
 42
0.0559
 43
1.0000
 50
270.0000
  0
INSERT
  8
22
  2
RECT
 10
20.2373
 20
39.3292
 30
0.0000
 41
1.1176
 42
0.0559
 43
1.0000
 50
270.0000
  0
INSERT
  8
22
  2
RECT
 10
20.1814
 20
39.3292
 30
0.0000
 41
1.0058
 42
0.0559
 43
1.0000
 50
270.0000
  0
INSERT
  8
22
  2
RECT
 10
20.1256
 20
39.3292
 30
0.0000
 41
1.0058
 42
0.0559
 43
1.0000
 50
270.0000
  0
INSERT
  8
22
  2
RECT
 10
20.0697
 20
39.3292
 30
0.0000
 41
1.0058
 42
0.0559
 43
1.0000
 50
270.0000
  0
INSERT
  8
22
  2
RECT
 10
20.0138
 20
39.3292
 30
0.0000
 41
1.0058
 42
0.0559
 43
1.0000
 50
270.0000
  0
INSERT
  8
22
  2
RECT
 10
19.9579
 20
39.3292
 30
0.0000
 41
1.0058
 42
0.0559
 43
1.0000
 50
270.0000
  0
INSERT
  8
22
  2
RECT
 10
19.9020
 20
39.3292
 30
0.0000
 41
0.8941
 42
0.0559
 43
1.0000
 50
270.0000
  0
INSERT
  8
22
  2
RECT
 10
19.8462
 20
39.3292
 30
0.0000
 41
0.8941
 42
0.0559
 43
1.0000
 50
270.0000
  0
INSERT
  8
22
  2
RECT
 10
19.7903
 20
39.3292
 30
0.0000
 41
0.8941
 42
0.0559
 43
1.0000
 50
270.0000
  0
INSERT
  8
22
  2
RECT
 10
19.7344
 20
39.3292
 30
0.0000
 41
0.8941
 42
0.0559
 43
1.0000
 50
270.0000
  0
INSERT
  8
22
  2
RECT
 10
19.6785
 20
39.3292
 30
0.0000
 41
0.8941
 42
0.0559
 43
1.0000
 50
270.0000
  0
ENDSEC
  0
EOF
